<svg xmlns="http://www.w3.org/2000/svg" width="1332.316" height="334.813" viewBox="0 0 1332.316 334.813">
  <path id="Sustracción_9" data-name="Sustracción 9" d="M5446.09,12034.813h-1331.9l-.421-296.043.008,0c.525-.259,5.379-2.623,14.051-6.054a414.15,414.15,0,0,1,39.953-13.327,514.628,514.628,0,0,1,62.52-13.327,552.951,552.951,0,0,1,81.754-6.058c69.883,0,139.843,13.044,207.937,38.77,42.3,15.982,79.449,31.55,115.372,46.605,23.949,10.038,46.571,19.52,68.386,28.107,24.393,9.6,44.536,16.813,63.39,22.688a486.325,486.325,0,0,0,61.29,15.161c10.354,1.809,20.7,3.188,30.763,4.1,10.442.945,20.981,1.425,31.325,1.425a350.4,350.4,0,0,0,41.126-2.453,390.844,390.844,0,0,0,43.352-7.721,478.542,478.542,0,0,0,46.321-13.526c16.063-5.553,32.9-12.238,50.034-19.872a423.659,423.659,0,0,1,41.12-15.845,385.8,385.8,0,0,1,39.423-10.582,361.832,361.832,0,0,1,37.579-5.914,348.453,348.453,0,0,1,35.59-1.839,343.428,343.428,0,0,1,48.137,3.4,348.207,348.207,0,0,1,43.152,8.972,360.425,360.425,0,0,1,69.582,27.225c8.757,4.52,17.352,9.412,25.546,14.54,6.551,4.1,12.875,8.368,18.794,12.685a196.8,196.8,0,0,1,15.566,12.375l.247,176.511Z" transform="translate(-4113.774 -11700)" fill="#ecf2fc"/>
</svg>
