<svg xmlns="http://www.w3.org/2000/svg" xmlns:xlink="http://www.w3.org/1999/xlink" width="1332.78" height="665.551" viewBox="0 0 1332.78 665.551">
  <defs>
    <linearGradient id="linear-gradient" x1="0.5" y1="0.32" x2="0.514" y2="2.637" gradientUnits="objectBoundingBox">
      <stop offset="0" stop-color="#ecf2fc"/>
      <stop offset="0.138" stop-color="#fafcff"/>
      <stop offset="1" stop-color="#fff"/>
    </linearGradient>
  </defs>
  <path id="Sustracción_11" data-name="Sustracción 11" d="M2583.781,12365.552H1251.891l-.89-626.78.006,0c.523-.258,5.362-2.616,14.052-6.054a414.379,414.379,0,0,1,39.954-13.327,514.812,514.812,0,0,1,62.52-13.328,552.941,552.941,0,0,1,81.755-6.058c69.884,0,139.845,13.044,207.937,38.771,42.318,15.988,79.455,31.553,115.369,46.6,23.939,10.034,46.551,19.512,68.385,28.107,24.393,9.6,44.535,16.813,63.389,22.688a486.369,486.369,0,0,0,61.29,15.16c10.334,1.807,20.685,3.186,30.763,4.1,10.446.945,20.985,1.424,31.325,1.424a350.389,350.389,0,0,0,41.126-2.453,390.891,390.891,0,0,0,43.353-7.721,478.437,478.437,0,0,0,46.322-13.526c16.057-5.55,32.891-12.236,50.034-19.873a423.94,423.94,0,0,1,41.12-15.845,386.164,386.164,0,0,1,39.422-10.582,361.933,361.933,0,0,1,37.578-5.912,348.123,348.123,0,0,1,35.591-1.84,343.288,343.288,0,0,1,48.137,3.4,348.308,348.308,0,0,1,43.152,8.972,360.415,360.415,0,0,1,69.583,27.225c8.747,4.514,17.342,9.405,25.547,14.54,6.559,4.1,12.883,8.372,18.8,12.684a197.144,197.144,0,0,1,15.566,12.375Z" transform="translate(-1251 -11700.001)" fill="url(#linear-gradient)"/>
</svg>
