<svg xmlns="http://www.w3.org/2000/svg" width="191.344" height="186.343" viewBox="0 0 191.344 186.343">
  <g id="Grupo_140813" data-name="Grupo 140813" transform="translate(-406.5 -2121.628)">
    <g id="Grupo_140303" data-name="Grupo 140303" transform="translate(0 -381.872)">
      <g id="Grupo_137391" data-name="Grupo 137391" transform="translate(407 2504)">
        <path id="Trazado_114225" data-name="Trazado 114225" d="M1471.5,508.463c20.372,43.789,55.227,36.913,104.969,13.771s77.405-43.659,57.033-87.448-81.063-94.267-130.805-71.126S1451.133,464.674,1471.5,508.463Z" transform="translate(-1450.259 -355.663)" fill="none" stroke="#ef3c79" stroke-miterlimit="10" stroke-width="2"/>
        <path id="Trazado_114226" data-name="Trazado 114226" d="M1475,473.13c0,48.3,34.5,56.764,89.365,56.764s88.6-6.934,88.6-55.23S1619.227,355,1564.365,355,1475,424.835,1475,473.13Z" transform="translate(-1475 -355)" fill="#0d4aad" stroke="rgba(0,0,0,0)" stroke-width="1"/>
        <path id="Trazado_114227" data-name="Trazado 114227" d="M1672.818,422.4c0,4.66,3.329,5.477,8.623,5.477s8.549-.669,8.549-5.329S1686.734,411,1681.44,411,1672.818,417.739,1672.818,422.4Z" transform="translate(-1663.769 -368.044)" fill="#00cbae" stroke="rgba(0,0,0,0)" stroke-width="1"/>
        <path id="Trazado_114228" data-name="Trazado 114228" d="M1459.307,451.4c0,4.66,3.329,5.477,8.623,5.477s8.549-.669,8.549-5.329S1473.223,440,1467.93,440,1459.307,446.739,1459.307,451.4Z" transform="translate(-1286.479 -374.798)" fill="#0d4aad" stroke="rgba(0,0,0,0)" stroke-width="1"/>
      </g>
    </g>
    <g id="Grupo_140347" data-name="Grupo 140347" transform="translate(-665.274 1996.165)">
      <path id="Trazado_152680" data-name="Trazado 152680" d="M1148.026,206.558a1.208,1.208,0,0,0,1.079.665h10.754v21.291a1.208,1.208,0,0,0,2.181.718l21.814-29.482a1.209,1.209,0,0,0-.971-1.928h-10.754V176.532a1.209,1.209,0,0,0-2.181-.72L1148.134,205.3A1.208,1.208,0,0,0,1148.026,206.558Z" transform="translate(10.343 0)" fill="#00cbae"/>
      <path id="Trazado_152681" data-name="Trazado 152681" d="M1197.855,178.9H1185.5a.614.614,0,0,0-.614.614v4.815a.615.615,0,0,0,.614.616h12.351A7.149,7.149,0,0,1,1205,192.09v33.752a7.15,7.15,0,0,1-7.149,7.15h-5.062a4.261,4.261,0,0,0-4.261,4.26v8.967l-11.976-11.976a4.268,4.268,0,0,0-3.019-1.25H1154.82a7.149,7.149,0,0,1-7.149-7.15V192.09a7.148,7.148,0,0,1,7.149-7.149h14.138a1.708,1.708,0,0,0,1.371-.691l3.332-4.5a.533.533,0,0,0-.429-.85H1154.82a13.193,13.193,0,0,0-13.194,13.194v20.154h-23.814a8.32,8.32,0,0,0-8.312,8.311v21.563a8.32,8.32,0,0,0,8.312,8.312h3.107v7.458a2.6,2.6,0,0,0,4.445,1.842l9.3-9.3h11.3a8.321,8.321,0,0,0,8.312-8.312v-3.107c.181.008.36.028.543.028H1172.8l14.5,14.5a4.247,4.247,0,0,0,3.01,1.25,4.318,4.318,0,0,0,2.455-.774,4.4,4.4,0,0,0,1.809-3.647V239.037h3.279a13.2,13.2,0,0,0,13.194-13.195V192.09A13.194,13.194,0,0,0,1197.855,178.9Zm-57.9,50.885-8.245,8.244a3.02,3.02,0,0,1-4.274,0l-5.419-5.419a3.022,3.022,0,0,1,4.274-4.274l3.281,3.281,6.108-6.107a3.022,3.022,0,0,1,4.274,4.274Z" transform="translate(0 0.963)" fill="#00cbae"/>
    </g>
  </g>
</svg>
