<svg xmlns="http://www.w3.org/2000/svg" width="191.344" height="186.343" viewBox="0 0 191.344 186.343">
  <g id="Grupo_140302" data-name="Grupo 140302" transform="translate(-1018.5 -2797.02)">
    <g id="Grupo_137393" data-name="Grupo 137393" transform="translate(1019 2797.52)">
      <path id="Trazado_114225" data-name="Trazado 114225" d="M1471.5,508.463c20.372,43.789,55.227,36.913,104.969,13.771s77.405-43.659,57.033-87.448-81.063-94.267-130.805-71.126S1451.133,464.674,1471.5,508.463Z" transform="translate(-1450.259 -355.663)" fill="none" stroke="#ef3c79" stroke-miterlimit="10" stroke-width="2"/>
      <path id="Trazado_114226" data-name="Trazado 114226" d="M1475,473.13c0,48.3,34.5,56.764,89.365,56.764s88.6-6.934,88.6-55.23S1619.227,355,1564.365,355,1475,424.835,1475,473.13Z" transform="translate(-1475 -355)" fill="#0d4aad" stroke="rgba(0,0,0,0)" stroke-width="1"/>
      <path id="Trazado_114227" data-name="Trazado 114227" d="M1672.818,422.4c0,4.66,3.329,5.477,8.623,5.477s8.549-.669,8.549-5.329S1686.734,411,1681.44,411,1672.818,417.739,1672.818,422.4Z" transform="translate(-1663.769 -368.044)" fill="#00cbae" stroke="rgba(0,0,0,0)" stroke-width="1"/>
      <path id="Trazado_114228" data-name="Trazado 114228" d="M1459.307,451.4c0,4.66,3.329,5.477,8.623,5.477s8.549-.669,8.549-5.329S1473.223,440,1467.93,440,1459.307,446.739,1459.307,451.4Z" transform="translate(-1286.479 -374.798)" fill="#0d4aad" stroke="rgba(0,0,0,0)" stroke-width="1"/>
    </g>
    <g id="Grupo_140348" data-name="Grupo 140348" transform="translate(222.694 2676.183)">
      <path id="Trazado_152682" data-name="Trazado 152682" d="M876.085,186.033H907.3a1.546,1.546,0,0,0,0-3.093H876.085a1.546,1.546,0,0,0,0,3.093Z" transform="translate(2.573 1.187)" fill="#00cbae"/>
      <path id="Trazado_152683" data-name="Trazado 152683" d="M876.085,191.747H907.3a1.546,1.546,0,1,0,0-3.092H876.085a1.546,1.546,0,1,0,0,3.092Z" transform="translate(2.573 1.731)" fill="#00cbae"/>
      <path id="Trazado_152684" data-name="Trazado 152684" d="M876.085,197.462H907.3a1.546,1.546,0,0,0,0-3.093H876.085a1.546,1.546,0,0,0,0,3.093Z" transform="translate(2.573 2.275)" fill="#00cbae"/>
      <path id="Trazado_152685" data-name="Trazado 152685" d="M876.085,203.176h24.18a1.546,1.546,0,1,0,0-3.093h-24.18a1.546,1.546,0,0,0,0,3.093Z" transform="translate(2.573 2.819)" fill="#00cbae"/>
      <path id="Trazado_152686" data-name="Trazado 152686" d="M911.186,199.8A15.531,15.531,0,1,0,929.8,211.46,15.424,15.424,0,0,0,911.186,199.8Zm6.036,26.254a11.408,11.408,0,1,1-5.112-22.236c.337-.078.673-.127,1.01-.173v10.966a1.54,1.54,0,0,0,.093.507c.015.043.041.082.059.124a1.506,1.506,0,0,0,.228.36c.02.024.026.054.048.077l7.984,8.356A11.322,11.322,0,0,1,917.222,226.059Zm8.562-13.674a11.384,11.384,0,0,1-2.058,9.476l-6.9-7.22,6.777-6.778A11.325,11.325,0,0,1,925.784,212.385Zm-9.572-8.738a11.441,11.441,0,0,1,5.156,2.081l-5.156,5.156Z" transform="translate(4.913 2.754)" fill="#00cbae"/>
      <path id="Trazado_152687" data-name="Trazado 152687" d="M876.085,208.893h10.107a1.546,1.546,0,1,0,0-3.092H876.085a1.546,1.546,0,1,0,0,3.092Z" transform="translate(2.573 3.363)" fill="#00cbae"/>
      <path id="Trazado_152688" data-name="Trazado 152688" d="M873.853,219.529v17.956a2.062,2.062,0,0,0,2.061,2.061h26.8a2.062,2.062,0,0,0,0-4.123H877.975V219.529a2.061,2.061,0,1,0-4.122,0Z" transform="translate(2.508 4.473)" fill="#00cbae"/>
      <path id="Trazado_152689" data-name="Trazado 152689" d="M884.257,224.326v7a2.062,2.062,0,0,0,4.123,0v-7a2.062,2.062,0,0,0-4.123,0Z" transform="translate(3.498 4.93)" fill="#00cbae"/>
      <path id="Trazado_152690" data-name="Trazado 152690" d="M889.283,225.962v5.209a2.062,2.062,0,0,0,4.123,0v-5.209a2.062,2.062,0,0,0-4.123,0Z" transform="translate(3.976 5.085)" fill="#00cbae"/>
      <path id="Trazado_152691" data-name="Trazado 152691" d="M896.345,219.1a2.061,2.061,0,0,0-2.061,2.062v10.461a2.061,2.061,0,1,0,4.122,0V221.166A2.062,2.062,0,0,0,896.345,219.1Z" transform="translate(4.452 4.629)" fill="#00cbae"/>
      <path id="Trazado_152692" data-name="Trazado 152692" d="M879.231,227.891v3.1a2.062,2.062,0,0,0,4.123,0v-3.1a2.062,2.062,0,0,0-4.123,0Z" transform="translate(3.02 5.269)" fill="#00cbae"/>
      <path id="Trazado_152693" data-name="Trazado 152693" d="M928.7,250.878a5.753,5.753,0,0,1-5.754-5.712v-9.911a.261.261,0,0,0-.31-.256,17.33,17.33,0,0,1-3.057.292,17.7,17.7,0,0,1-2.519-.185.26.26,0,0,0-.3.257v9.8a11.83,11.83,0,0,0,1.463,5.712H877a5.713,5.713,0,0,1-5.712-5.712V182.36a11.83,11.83,0,0,0-1.463-5.712h41.22a5.712,5.712,0,0,1,5.712,5.711v17.692a.261.261,0,0,0,.3.258,15.857,15.857,0,0,1,5.572.076.261.261,0,0,0,.31-.257V182.36a11.9,11.9,0,0,0-11.9-11.9H859.4a11.9,11.9,0,0,0-11.9,11.9v5.283a3.093,3.093,0,0,0,3.093,3.092h14.516v54.431A11.892,11.892,0,0,0,877,257.062h51.5a3.2,3.2,0,0,0,3.245-2.858A3.094,3.094,0,0,0,928.7,250.878ZM865.108,184.55H853.684v-2.19a5.712,5.712,0,1,1,11.424,0Z" transform="translate(0 0)" fill="#00cbae"/>
    </g>
  </g>
</svg>
