<svg xmlns="http://www.w3.org/2000/svg" width="191.344" height="186.343" viewBox="0 0 191.344 186.343">
  <g id="Grupo_140812" data-name="Grupo 140812" transform="translate(-406.5 -1547.628)">
    <g id="Grupo_140305" data-name="Grupo 140305" transform="translate(0 -381.872)">
      <g id="Grupo_137395" data-name="Grupo 137395" transform="translate(0 -8854.898)">
        <path id="Trazado_114225" data-name="Trazado 114225" d="M1471.5,508.463c20.372,43.789,55.227,36.913,104.969,13.771s77.405-43.659,57.033-87.448-81.063-94.267-130.805-71.126S1451.133,464.674,1471.5,508.463Z" transform="translate(-1043.259 10429.236)" fill="none" stroke="#ef3c79" stroke-miterlimit="10" stroke-width="2"/>
        <path id="Trazado_114226" data-name="Trazado 114226" d="M1475,473.13c0,48.3,34.5,56.764,89.365,56.764s88.6-6.934,88.6-55.23S1619.227,355,1564.365,355,1475,424.835,1475,473.13Z" transform="translate(-1068 10429.898)" fill="#0d4aad" stroke="rgba(0,0,0,0)" stroke-width="1"/>
        <path id="Trazado_114228" data-name="Trazado 114228" d="M1459.307,451.4c0,4.66,3.329,5.477,8.623,5.477s8.549-.669,8.549-5.329S1473.223,440,1467.93,440,1459.307,446.739,1459.307,451.4Z" transform="translate(-879.479 10410.101)" fill="#0d4aad" stroke="rgba(0,0,0,0)" stroke-width="1"/>
        <path id="Trazado_114227" data-name="Trazado 114227" d="M1672.818,422.4c0,4.66,3.329,5.477,8.623,5.477s8.549-.669,8.549-5.329S1686.734,411,1681.44,411,1672.818,417.739,1672.818,422.4Z" transform="translate(-1256.77 10416.854)" fill="#00cbae" stroke="rgba(0,0,0,0)" stroke-width="1"/>
      </g>
    </g>
    <g id="Grupo_140343" data-name="Grupo 140343" transform="translate(-539.613 1539.958)">
      <path id="Trazado_152573" data-name="Trazado 152573" d="M1033.005,67.579a15.839,15.839,0,0,0-8.117-4.351,2.675,2.675,0,1,0-1.05,5.246,10.591,10.591,0,0,1,7.426,5.751,2.675,2.675,0,1,0,4.812-2.336A15.939,15.939,0,0,0,1033.005,67.579Z" transform="translate(15.295 9.971)" fill="#00cbae"/>
      <path id="Trazado_152574" data-name="Trazado 152574" d="M1057.533,77.528a3.343,3.343,0,0,0-3.343-3.343h-6.119a3.343,3.343,0,0,0,0,6.686h6.119A3.342,3.342,0,0,0,1057.533,77.528Z" transform="translate(24.606 14.42)" fill="#00cbae"/>
      <path id="Trazado_152575" data-name="Trazado 152575" d="M998.708,77.528a3.343,3.343,0,0,0-3.343-3.343h-6.118a3.343,3.343,0,0,0,0,6.686h6.118A3.342,3.342,0,0,0,998.708,77.528Z" transform="translate(0.835 14.42)" fill="#00cbae"/>
      <path id="Trazado_152576" data-name="Trazado 152576" d="M1020.838,55.4a3.343,3.343,0,0,0,3.343-3.343V45.937a3.343,3.343,0,0,0-6.686,0v6.119A3.343,3.343,0,0,0,1020.838,55.4Z" transform="translate(13.601 1.655)" fill="#00cbae"/>
      <path id="Trazado_152577" data-name="Trazado 152577" d="M1042.058,52.827l-4.326,4.326a3.343,3.343,0,0,0,4.728,4.728l4.326-4.326a3.343,3.343,0,0,0-4.728-4.728Z" transform="translate(21.383 5.394)" fill="#00cbae"/>
      <path id="Trazado_152578" data-name="Trazado 152578" d="M1000.462,94.422l-4.326,4.327a3.342,3.342,0,1,0,4.728,4.726l4.326-4.326a3.343,3.343,0,0,0-4.728-4.728Z" transform="translate(4.574 22.202)" fill="#00cbae"/>
      <path id="Trazado_152579" data-name="Trazado 152579" d="M1000.462,61.881a3.343,3.343,0,0,0,4.728-4.728l-4.326-4.326a3.343,3.343,0,0,0-4.728,4.728Z" transform="translate(4.574 5.394)" fill="#00cbae"/>
      <path id="Trazado_152580" data-name="Trazado 152580" d="M1042.459,94.422a3.343,3.343,0,0,0-4.728,4.728l4.326,4.326a3.342,3.342,0,0,0,4.728-4.726Z" transform="translate(21.383 22.202)" fill="#00cbae"/>
      <path id="Trazado_152581" data-name="Trazado 152581" d="M1005.212,45.964a2.006,2.006,0,1,0,2.833-2.839l-.343-.343a2.006,2.006,0,1,0-2.833,2.839Z" transform="translate(8.261 1.493)" fill="#00cbae"/>
      <path id="Trazado_152582" data-name="Trazado 152582" d="M1008.706,49.458a2.006,2.006,0,1,0,2.833-2.839l-.344-.344a2.006,2.006,0,1,0-2.833,2.839Z" transform="translate(9.672 2.905)" fill="#00cbae"/>
      <path id="Trazado_152583" data-name="Trazado 152583" d="M1006.286,50.043a2,2,0,0,0,1.417-.586l.343-.344a2.006,2.006,0,0,0-2.833-2.839l-.343.344a2.005,2.005,0,0,0,1.417,3.425Z" transform="translate(8.261 2.905)" fill="#00cbae"/>
      <path id="Trazado_152584" data-name="Trazado 152584" d="M1009.779,46.549a2,2,0,0,0,1.417-.586l.344-.343a2.006,2.006,0,1,0-2.833-2.839l-.344.343a2,2,0,0,0,1.417,3.425Z" transform="translate(9.672 1.493)" fill="#00cbae"/>
      <path id="Trazado_152585" data-name="Trazado 152585" d="M1031.824,48.712a2,2,0,0,0,1.418-.588l1.281-1.281a2.006,2.006,0,1,0-2.836-2.836l-1.281,1.281a2.006,2.006,0,0,0,1.418,3.425Z" transform="translate(18.581 1.988)" fill="#00cbae"/>
      <path id="Trazado_152586" data-name="Trazado 152586" d="M1036.744,43.792a1.993,1.993,0,0,0,1.418-.588l1.281-1.279a2.006,2.006,0,1,0-2.836-2.838l-1.281,1.281a2.006,2.006,0,0,0,1.418,3.425Z" transform="translate(20.569)" fill="#00cbae"/>
      <path id="Trazado_152587" data-name="Trazado 152587" d="M1036.607,48.124a2.006,2.006,0,0,0,2.836-2.836l-1.281-1.281a2.006,2.006,0,1,0-2.836,2.836Z" transform="translate(20.569 1.988)" fill="#00cbae"/>
      <path id="Trazado_152588" data-name="Trazado 152588" d="M1031.687,43.2a2.006,2.006,0,1,0,2.836-2.836l-1.281-1.281a2.006,2.006,0,1,0-2.836,2.838Z" transform="translate(18.581)" fill="#00cbae"/>
      <path id="Trazado_152589" data-name="Trazado 152589" d="M987.262,86.453a2.006,2.006,0,0,0-2.836,2.836l.343.343A2.006,2.006,0,1,0,987.6,86.8Z" transform="translate(0 19.14)" fill="#00cbae"/>
      <path id="Trazado_152590" data-name="Trazado 152590" d="M990.756,89.947a2.005,2.005,0,1,0-2.836,2.835l.344.344A2.006,2.006,0,1,0,991.1,90.29Z" transform="translate(1.412 20.552)" fill="#00cbae"/>
      <path id="Trazado_152591" data-name="Trazado 152591" d="M984.769,89.947l-.343.343a2.006,2.006,0,1,0,2.836,2.836l.343-.344a2.005,2.005,0,0,0-2.836-2.835Z" transform="translate(0 20.552)" fill="#00cbae"/>
      <path id="Trazado_152592" data-name="Trazado 152592" d="M988.264,86.453l-.344.343a2.006,2.006,0,1,0,2.836,2.836l.344-.343a2.006,2.006,0,0,0-2.836-2.836Z" transform="translate(1.412 19.14)" fill="#00cbae"/>
      <path id="Trazado_152593" data-name="Trazado 152593" d="M1049.341,89.535l-1.281,1.281a2.006,2.006,0,0,0,2.836,2.838l1.281-1.281a2.006,2.006,0,0,0-2.836-2.838Z" transform="translate(25.715 20.386)" fill="#00cbae"/>
      <path id="Trazado_152594" data-name="Trazado 152594" d="M1052.98,85.9a2.006,2.006,0,0,0,2.836,2.838l1.281-1.281a2.006,2.006,0,0,0-2.836-2.838Z" transform="translate(27.703 18.398)" fill="#00cbae"/>
      <path id="Trazado_152595" data-name="Trazado 152595" d="M1055.816,89.535a2.006,2.006,0,0,0-2.836,2.838l1.281,1.281a2.006,2.006,0,1,0,2.836-2.838Z" transform="translate(27.703 20.386)" fill="#00cbae"/>
      <path id="Trazado_152596" data-name="Trazado 152596" d="M1050.9,84.615a2.006,2.006,0,0,0-2.836,2.838l1.281,1.281a2.006,2.006,0,0,0,2.836-2.838Z" transform="translate(25.715 18.398)" fill="#00cbae"/>
      <path id="Trazado_152597" data-name="Trazado 152597" d="M994.519,110.906l-1.279,1.281a2.006,2.006,0,1,0,2.836,2.836l1.281-1.281a2.006,2.006,0,0,0-2.838-2.836Z" transform="translate(3.562 29.022)" fill="#00cbae"/>
      <path id="Trazado_152598" data-name="Trazado 152598" d="M999.439,105.987l-1.279,1.279A2.006,2.006,0,1,0,1001,110.1l1.281-1.279a2.006,2.006,0,0,0-2.838-2.836Z" transform="translate(5.55 27.034)" fill="#00cbae"/>
      <path id="Trazado_152599" data-name="Trazado 152599" d="M1001,110.906a2.006,2.006,0,0,0-2.836,2.836l1.279,1.281a2.006,2.006,0,1,0,2.838-2.836Z" transform="translate(5.55 29.022)" fill="#00cbae"/>
      <path id="Trazado_152600" data-name="Trazado 152600" d="M996.076,105.987a2.006,2.006,0,0,0-2.836,2.836l1.279,1.279a2.006,2.006,0,1,0,2.838-2.836Z" transform="translate(3.562 27.034)" fill="#00cbae"/>
      <path id="Trazado_152601" data-name="Trazado 152601" d="M987.225,70.023a2.006,2.006,0,0,0,1.418-.587l1.076-1.077a2.006,2.006,0,0,0-2.836-2.836L985.807,66.6a2.006,2.006,0,0,0,1.418,3.425Z" transform="translate(0.558 10.683)" fill="#00cbae"/>
      <path id="Trazado_152602" data-name="Trazado 152602" d="M991.361,65.887a2,2,0,0,0,1.418-.587l1.076-1.077a2.006,2.006,0,0,0-2.836-2.836l-1.076,1.077a2.005,2.005,0,0,0,1.418,3.423Z" transform="translate(2.229 9.011)" fill="#00cbae"/>
      <path id="Trazado_152603" data-name="Trazado 152603" d="M991.019,69.436a2.006,2.006,0,0,0,2.836-2.838l-1.076-1.076a2.006,2.006,0,0,0-2.836,2.836Z" transform="translate(2.229 10.683)" fill="#00cbae"/>
      <path id="Trazado_152604" data-name="Trazado 152604" d="M986.883,65.3a2.006,2.006,0,1,0,2.836-2.836l-1.076-1.077a2.006,2.006,0,0,0-2.836,2.836Z" transform="translate(0.558 9.011)" fill="#00cbae"/>
      <path id="Trazado_152605" data-name="Trazado 152605" d="M1047.953,64.547a2.006,2.006,0,0,0,2.833-2.839l-.343-.343a2.006,2.006,0,1,0-2.833,2.839Z" transform="translate(25.532 9.003)" fill="#00cbae"/>
      <path id="Trazado_152606" data-name="Trazado 152606" d="M1051.444,68.038a2.006,2.006,0,1,0,2.839-2.835l-.343-.343A2.006,2.006,0,0,0,1051.1,67.7Z" transform="translate(26.944 10.415)" fill="#00cbae"/>
      <path id="Trazado_152607" data-name="Trazado 152607" d="M1049.027,68.626a2,2,0,0,0,1.417-.586l.343-.343a2.006,2.006,0,1,0-2.833-2.839l-.343.343a2,2,0,0,0,1.417,3.425Z" transform="translate(25.532 10.415)" fill="#00cbae"/>
      <path id="Trazado_152608" data-name="Trazado 152608" d="M1052.521,65.134a2,2,0,0,0,1.419-.59l.343-.343a2.006,2.006,0,1,0-2.839-2.833l-.343.343a2.007,2.007,0,0,0,1.42,3.423Z" transform="translate(26.944 9.003)" fill="#00cbae"/>
      <path id="Trazado_152609" data-name="Trazado 152609" d="M1035.529,106.942l.343.343a2.006,2.006,0,1,0,2.839-2.833l-.343-.343a2.006,2.006,0,0,0-2.839,2.833Z" transform="translate(20.651 26.274)" fill="#00cbae"/>
      <path id="Trazado_152610" data-name="Trazado 152610" d="M1041.859,107.6a2.006,2.006,0,0,0-2.836,2.838l.344.343a2.006,2.006,0,1,0,2.836-2.836Z" transform="translate(22.063 27.686)" fill="#00cbae"/>
      <path id="Trazado_152611" data-name="Trazado 152611" d="M1035.87,107.6l-.343.344a2.006,2.006,0,1,0,2.842,2.831l.343-.343a2.006,2.006,0,0,0-2.842-2.832Z" transform="translate(20.651 27.686)" fill="#00cbae"/>
      <path id="Trazado_152612" data-name="Trazado 152612" d="M1041.858,107.287l.344-.343a2.006,2.006,0,1,0-2.833-2.839l-.344.343a2.006,2.006,0,0,0,2.833,2.839Z" transform="translate(22.063 26.274)" fill="#00cbae"/>
      <path id="Trazado_152613" data-name="Trazado 152613" d="M1059.592,85.987a30.843,30.843,0,1,0-47.868,25.689v16.538a15.9,15.9,0,0,0,15.886,15.885h2.283a15.9,15.9,0,0,0,15.885-15.883V111.676A30.944,30.944,0,0,0,1059.592,85.987Zm-26.926,48.61h-7.829a1.337,1.337,0,1,1,0-2.673h7.829a1.337,1.337,0,0,1,0,2.673Zm1.3-6.522h-10.438a1.337,1.337,0,0,1,0-2.675h10.438a1.337,1.337,0,0,1,0,2.675Zm-3.491-10.518h-3.457c.918-13.5-1.554-21.75-3.64-26.546a12.259,12.259,0,0,1,10.736,0C1032.033,95.807,1029.561,104.053,1030.479,117.557Zm10.34-10.668a3.552,3.552,0,0,0-1.729,2.991v7.678h-3.242c-1.177-16.215,2.739-23.781,4.663-27.473.369-.7.658-1.262.874-1.793a2.906,2.906,0,0,0-4.153-3.6,6.016,6.016,0,0,1-6.779-.146,2.889,2.889,0,0,0-3.4,0,6.011,6.011,0,0,1-6.779.146,2.907,2.907,0,0,0-4.153,3.6c.215.529.5,1.087.872,1.792,1.925,3.691,5.841,11.259,4.664,27.473h-3.243v-7.678a3.554,3.554,0,0,0-1.724-2.989,24.145,24.145,0,0,1,8.07-44.737,25.7,25.7,0,0,1,4.042-.323,23.829,23.829,0,0,1,15.622,5.775,24.132,24.132,0,0,1-3.6,39.284Z" transform="translate(5.688 6.73)" fill="#00cbae"/>
    </g>
  </g>
</svg>
