<svg xmlns="http://www.w3.org/2000/svg" width="190" height="190" viewBox="0 0 190 190">
  <g id="Grupo_140889" data-name="Grupo 140889" transform="translate(8645 7651)">
    <g id="Grupo_140886" data-name="Grupo 140886" transform="translate(10.473 -0.148)">
      <path id="Trazado_153912" data-name="Trazado 153912" d="M48.842,14.609H44.614L43.876,17h-3.3L45.273,4.2h2.9L52.9,17H49.589Zm-3.489-2.382H48.1l-1.38-4.438Zm13.913,3.744a3.054,3.054,0,0,1-2.54,1.2,3,3,0,0,1-2.369-.91,3.826,3.826,0,0,1-.8-2.615V7.49h2.962v6.179A1.065,1.065,0,0,0,57.7,14.891a1.548,1.548,0,0,0,1.45-.729V7.49h2.979V17H59.354ZM67.2,5.126V7.49h1.564V9.547H67.2V13.9a1.111,1.111,0,0,0,.193.747,1.037,1.037,0,0,0,.765.211A4.345,4.345,0,0,0,68.9,14.8v2.118a5.466,5.466,0,0,1-1.67.255,3.1,3.1,0,0,1-2.259-.721,2.954,2.954,0,0,1-.729-2.188V9.547H63.027V7.49H64.24V5.126Zm2.092,7.031a5.613,5.613,0,0,1,.554-2.536,3.96,3.96,0,0,1,1.591-1.709,4.791,4.791,0,0,1,2.435-.6,4.373,4.373,0,0,1,3.366,1.323,5.076,5.076,0,0,1,1.23,3.6v.105a4.925,4.925,0,0,1-1.235,3.529,4.384,4.384,0,0,1-3.344,1.305,4.434,4.434,0,0,1-3.261-1.217,4.761,4.761,0,0,1-1.327-3.3Zm2.962.185a3.538,3.538,0,0,0,.413,1.934,1.376,1.376,0,0,0,1.222.615q1.582,0,1.617-2.435v-.3q0-2.558-1.635-2.558-1.485,0-1.608,2.206ZM82.5,7.49l.1,1.116a3.225,3.225,0,0,1,2.716-1.292,2.713,2.713,0,0,1,2.219.888,4.226,4.226,0,0,1,.76,2.672V17H85.316V11a1.6,1.6,0,0,0-.29-1.059A1.342,1.342,0,0,0,83.972,9.6a1.413,1.413,0,0,0-1.292.686V17H79.718V7.49Zm7.058,4.667a5.613,5.613,0,0,1,.554-2.536A3.96,3.96,0,0,1,91.7,7.912a4.791,4.791,0,0,1,2.435-.6A4.373,4.373,0,0,1,97.5,8.637a5.076,5.076,0,0,1,1.23,3.6v.105a4.925,4.925,0,0,1-1.235,3.529,4.384,4.384,0,0,1-3.344,1.305,4.434,4.434,0,0,1-3.261-1.217,4.761,4.761,0,0,1-1.327-3.3Zm2.962.185a3.538,3.538,0,0,0,.413,1.934,1.376,1.376,0,0,0,1.222.615q1.582,0,1.617-2.435v-.3q0-2.558-1.635-2.558-1.485,0-1.608,2.206ZM102.833,7.49l.1,1.116a3.27,3.27,0,0,1,2.716-1.292,2.407,2.407,0,0,1,2.435,1.433,3.165,3.165,0,0,1,2.795-1.433q2.892,0,2.971,3.5V17h-2.971V11a1.813,1.813,0,0,0-.246-1.063,1.048,1.048,0,0,0-.9-.334,1.4,1.4,0,0,0-1.31.782l.009.123V17h-2.971V11.015a1.906,1.906,0,0,0-.237-1.081,1.045,1.045,0,0,0-.905-.334,1.42,1.42,0,0,0-1.3.782V17h-2.962V7.49ZM118.768,17h-2.979V7.49h2.979ZM117.66,3.676h3.129l-2.443,2.76-2.417,0ZM126.027,17a3.344,3.344,0,0,1-.281-.853,2.754,2.754,0,0,1-2.285,1.028,3.374,3.374,0,0,1-2.285-.813,2.588,2.588,0,0,1-.94-2.043,2.66,2.66,0,0,1,1.143-2.338,5.821,5.821,0,0,1,3.322-.791h.914v-.5q0-1.316-1.134-1.316a.927.927,0,0,0-1.055,1.042h-2.962a2.655,2.655,0,0,1,1.173-2.239,4.931,4.931,0,0,1,2.993-.86A4.323,4.323,0,0,1,127.5,8.2a3.086,3.086,0,0,1,1.081,2.435v4.21a4.311,4.311,0,0,0,.4,2V17Zm-1.854-1.934a1.652,1.652,0,0,0,.918-.237,1.487,1.487,0,0,0,.523-.536V12.772h-.861q-1.547,0-1.547,1.389a.848.848,0,0,0,.272.655A.986.986,0,0,0,124.173,15.066ZM38.537,42H35.566V32.49h2.971ZM35.39,30.029a1.334,1.334,0,0,1,.457-1.043,1.934,1.934,0,0,1,2.373,0,1.42,1.42,0,0,1,0,2.087,1.934,1.934,0,0,1-2.373,0A1.334,1.334,0,0,1,35.39,30.029Zm7.69,2.461.1,1.116a3.225,3.225,0,0,1,2.716-1.292,2.713,2.713,0,0,1,2.219.888,4.226,4.226,0,0,1,.76,2.672V42H45.9V36a1.6,1.6,0,0,0-.29-1.059,1.342,1.342,0,0,0-1.055-.338,1.413,1.413,0,0,0-1.292.686V42H40.3V32.49Zm12.41,6.838a.684.684,0,0,0-.4-.606,6.016,6.016,0,0,0-1.5-.475,6.853,6.853,0,0,1-1.828-.646,3.062,3.062,0,0,1-1.1-.971,2.319,2.319,0,0,1-.378-1.31,2.628,2.628,0,0,1,1.081-2.158,4.453,4.453,0,0,1,2.83-.848,4.934,4.934,0,0,1,3.023.853,2.666,2.666,0,0,1,1.143,2.241H55.394q0-1.143-1.2-1.143a1.194,1.194,0,0,0-.782.259.8.8,0,0,0-.316.646.737.737,0,0,0,.387.642,3.654,3.654,0,0,0,1.235.4,10.671,10.671,0,0,1,1.49.378,2.706,2.706,0,0,1,2.145,2.646,2.491,2.491,0,0,1-1.156,2.118,5.068,5.068,0,0,1-2.993.817,5.172,5.172,0,0,1-2.18-.439,3.645,3.645,0,0,1-1.494-1.2,2.707,2.707,0,0,1-.536-1.591h2.769a1.145,1.145,0,0,0,.439.962,1.808,1.808,0,0,0,1.081.3,1.422,1.422,0,0,0,.91-.246A.787.787,0,0,0,55.491,39.328Zm7.69-9.2V32.49h1.564v2.057H63.181V38.9a1.111,1.111,0,0,0,.193.747,1.037,1.037,0,0,0,.765.211,4.345,4.345,0,0,0,.738-.053v2.118a5.466,5.466,0,0,1-1.67.255,3.1,3.1,0,0,1-2.259-.721,2.954,2.954,0,0,1-.729-2.188v-4.72H59.006V32.49h1.213V30.126ZM69.035,42H66.064V32.49h2.971ZM65.888,30.029a1.334,1.334,0,0,1,.457-1.043,1.934,1.934,0,0,1,2.373,0,1.42,1.42,0,0,1,0,2.087,1.934,1.934,0,0,1-2.373,0A1.334,1.334,0,0,1,65.888,30.029Zm8.42.1V32.49h1.564v2.057H74.308V38.9a1.111,1.111,0,0,0,.193.747,1.037,1.037,0,0,0,.765.211A4.345,4.345,0,0,0,76,39.8v2.118a5.466,5.466,0,0,1-1.67.255,3.1,3.1,0,0,1-2.259-.721,2.954,2.954,0,0,1-.729-2.188v-4.72H70.133V32.49h1.213V30.126ZM82.7,40.972a3.054,3.054,0,0,1-2.54,1.2,3,3,0,0,1-2.369-.91,3.826,3.826,0,0,1-.8-2.615V32.49h2.962v6.179a1.065,1.065,0,0,0,1.187,1.222,1.548,1.548,0,0,0,1.45-.729V32.49h2.979V42H82.79Zm8.508-1.081a1.317,1.317,0,0,0,.967-.338,1.241,1.241,0,0,0,.334-.945h2.777a3.288,3.288,0,0,1-1.121,2.566,4.168,4.168,0,0,1-2.887,1,4.22,4.22,0,0,1-3.27-1.3,5.125,5.125,0,0,1-1.2-3.6v-.123a5.792,5.792,0,0,1,.532-2.544,3.872,3.872,0,0,1,1.534-1.7,4.573,4.573,0,0,1,2.373-.593A4.116,4.116,0,0,1,94.2,33.343a3.647,3.647,0,0,1,1.09,2.786H92.51A1.626,1.626,0,0,0,92.15,35a1.244,1.244,0,0,0-.967-.4q-1.151,0-1.345,1.468a10.357,10.357,0,0,0-.062,1.283,4.068,4.068,0,0,0,.343,1.986A1.187,1.187,0,0,0,91.209,39.891ZM99.665,42H96.694V32.49h2.971ZM96.518,30.029a1.334,1.334,0,0,1,.457-1.043,1.934,1.934,0,0,1,2.373,0,1.42,1.42,0,0,1,0,2.087,1.934,1.934,0,0,1-2.373,0A1.334,1.334,0,0,1,96.518,30.029Zm4.6,7.128a5.613,5.613,0,0,1,.554-2.536,3.96,3.96,0,0,1,1.591-1.709,4.791,4.791,0,0,1,2.435-.6,4.373,4.373,0,0,1,3.366,1.323,5.076,5.076,0,0,1,1.23,3.6v.105a4.925,4.925,0,0,1-1.235,3.529,4.384,4.384,0,0,1-3.344,1.305,4.434,4.434,0,0,1-3.261-1.217,4.761,4.761,0,0,1-1.327-3.3Zm2.962.185a3.538,3.538,0,0,0,.413,1.934,1.376,1.376,0,0,0,1.222.615q1.582,0,1.617-2.435v-.3q0-2.558-1.635-2.558-1.485,0-1.608,2.206Zm10.239-4.852.1,1.116a3.225,3.225,0,0,1,2.716-1.292,2.713,2.713,0,0,1,2.219.888,4.226,4.226,0,0,1,.76,2.672V42h-2.971V36a1.6,1.6,0,0,0-.29-1.059,1.342,1.342,0,0,0-1.055-.338,1.413,1.413,0,0,0-1.292.686V42h-2.962V32.49ZM127.1,42a3.344,3.344,0,0,1-.281-.853,2.754,2.754,0,0,1-2.285,1.028,3.374,3.374,0,0,1-2.285-.813,2.588,2.588,0,0,1-.94-2.043,2.66,2.66,0,0,1,1.143-2.338,5.821,5.821,0,0,1,3.322-.791h.914v-.5q0-1.316-1.134-1.316a.927.927,0,0,0-1.055,1.042h-2.962a2.655,2.655,0,0,1,1.173-2.239,4.931,4.931,0,0,1,2.993-.86,4.323,4.323,0,0,1,2.874.888,3.086,3.086,0,0,1,1.081,2.435v4.21a4.311,4.311,0,0,0,.4,2V42Zm-1.854-1.934a1.652,1.652,0,0,0,.918-.237,1.487,1.487,0,0,0,.523-.536V37.772h-.861q-1.547,0-1.547,1.389a.848.848,0,0,0,.272.655A.986.986,0,0,0,125.25,40.066ZM134.425,42h-2.971V28.5h2.971Z" transform="translate(-8645 -7514.926)" fill="#12263f"/>
      <g id="Grupo_140883" data-name="Grupo 140883" transform="translate(-9045 -11871.926)">
        <path id="Trazado_122023" data-name="Trazado 122023" d="M1459.307,517.627c0,31.736,22.673,37.3,58.723,37.3s58.221-4.555,58.221-36.291S1554.08,440,1518.03,440,1459.307,485.892,1459.307,517.627Z" transform="translate(-1032.779 3792.074)" fill="#00cbae" stroke="rgba(0,0,0,0)" stroke-width="1"/>
        <path id="Trazado_152716" data-name="Trazado 152716" d="M575.59,345.558c5.368,0,9.72-8.525,9.72-14.032a9.723,9.723,0,1,0-19.439,0C565.871,337.033,570.222,345.558,575.59,345.558Zm10.067-3.431c-2.334,4.587-6.167,7.824-10.263,7.824-3.9,0-7.179-2.875-9.52-7.152-4.017,3.189-9.977,10.023-9.977,12.563v1.01a5.749,5.749,0,0,0,5.749,5.749h27.887a5.749,5.749,0,0,0,5.75-5.749v-1.01C595.283,352.619,589.326,344.621,585.657,342.127Zm18.626-9.911h10.039a4.114,4.114,0,0,0,4.11-4.108V318.067a4.036,4.036,0,0,0-.233-1.3,33.543,33.543,0,0,1,9.886-6.439,32.125,32.125,0,0,0-11.119,4.621,4.066,4.066,0,0,0-2.644-.991H604.283a4.114,4.114,0,0,0-4.109,4.108v10.041A4.114,4.114,0,0,0,604.283,332.216Zm-1.4-14.149a1.4,1.4,0,0,1,1.4-1.4h10.039a1.288,1.288,0,0,1,.219.044,27.121,27.121,0,0,0-5.812,6.444l-4.887-5.27s3.507,7.258,6.2,10.515a32.257,32.257,0,0,1,5.687-9.075v8.786a1.406,1.406,0,0,1-1.4,1.4H604.283a1.4,1.4,0,0,1-1.4-1.4Zm11.443,35.11H604.283a4.113,4.113,0,0,0-4.109,4.105v10.042a4.114,4.114,0,0,0,4.109,4.108h10.039a4.115,4.115,0,0,0,4.11-4.108V357.282A4.113,4.113,0,0,0,614.322,353.177Zm1.4,14.147a1.405,1.405,0,0,1-1.4,1.4H604.283a1.4,1.4,0,0,1-1.4-1.4V357.282a1.405,1.405,0,0,1,1.4-1.4h10.039a1.406,1.406,0,0,1,1.4,1.4Zm1.087-32.892a4.058,4.058,0,0,0-2.492-.865H604.283a4.114,4.114,0,0,0-4.109,4.108v10.042a4.113,4.113,0,0,0,4.109,4.106h10.039a4.114,4.114,0,0,0,4.11-4.106V337.675a4.074,4.074,0,0,0-.286-1.473,33.551,33.551,0,0,1,9.939-6.49A32.1,32.1,0,0,0,616.814,334.432Zm-1.087,13.285a1.406,1.406,0,0,1-1.4,1.4H604.283a1.4,1.4,0,0,1-1.4-1.4V337.675a1.4,1.4,0,0,1,1.4-1.4h10.045a27.055,27.055,0,0,0-5.6,6.262l-4.887-5.27s3.507,7.257,6.2,10.515a32.272,32.272,0,0,1,5.687-9.075Z" transform="translate(-106.991 3955.129)" fill="#12263f"/>
      </g>
    </g>
    <rect id="Rectángulo_36043" data-name="Rectángulo 36043" width="190" height="190" transform="translate(-8645 -7651)" fill="none"/>
  </g>
</svg>
