<?xml version="1.0" encoding="utf-8"?>
<!-- Generator: Adobe Illustrator 25.4.1, SVG Export Plug-In . SVG Version: 6.00 Build 0)  -->
<svg version="1.1" id="Layer_1" xmlns="http://www.w3.org/2000/svg" xmlns:xlink="http://www.w3.org/1999/xlink" x="0px" y="0px"
	 viewBox="0 0 1080 1080" style="enable-background:new 0 0 1080 1080;" xml:space="preserve">
<style type="text/css">
	.st0{fill:#FFFFFF;}
</style>
<g>
	<path class="st0" d="M347.7,250.6l21.8-18.2l7.5-6.8c2-2,3.6-4.3,4.9-6.8c1.5-3.2,2.9-6.6,4-10l5.5-16.3h-0.6
		c-2.2,5.4-5.7,10.3-10.1,14.2c-4.2,3.6-8.6,6.9-13.2,10c-5.1,3.4-9.8,7.3-14.3,11.4c-5.4,5.1-9.8,11.2-12.9,18v-0.6l7.7-25.1
		l4.5-18c1.2-4.7,2.9-9.2,5.1-13.5c2.5-4.2,6-7.9,10-10.7v-0.6c-10.4,2.7-19.3,9.2-25.2,18.2c-6.4,9.4-9.8,20.6-9.7,31.9v39.9
		C336.6,261.2,341.7,255.4,347.7,250.6z M374.7,201.9c5.2-5.3,10-10.9,14.5-16.8l12.6-16.2c4-5.1,8.5-9.8,13.5-14l-0.6-0.6
		c-3.7,3.2-8.2,5.5-12.9,6.7c-5.7,1.8-11.1,4.3-16.2,7.4c-6.6,4.2-12.2,9.8-16.5,16.3c-6.4,10-10.9,21.1-13.5,32.8
		C362.4,213,368.9,207.8,374.7,201.9z M310.7,350.9c3.9,5.9,8.2,11.5,12.8,16.8c5.3,6.3,9.9,13.1,13.9,20.3h0.6c-0.5-3-0.7-6-0.7-9
		v-8.1c0.4-5.2,1.5-10.2,3.2-15.1l6.7-23.4l6.2-25.9c1.7-7.7,2.2-15.5,1.5-23.4h-0.7c-1.2,5.1-3.2,10-6,14.5l-9,14.8
		c-3.1,5.3-5.8,10.8-8,16.5c-2.3,6.1-3.5,12.6-3.4,19.1c0.1,3.2,0.5,6.3,1.3,9.3c0.6,2.3,1.1,4.7,1.3,7.1h-0.4
		c-1.4-8.1-3.6-16.1-6.4-23.9l-8.3-21.1l-7-17.7c-1.6-4.2-2.6-8.6-2.8-13.1l0.4-9c0.4-2.2,0.4-5.2,0.4-8.5h-0.5
		c-1.8,4.8-3.3,9.8-4.5,14.8c-1.7,5.9-2.6,12.1-2.7,18.2c-0.3,9.3,0.8,18.5,3.3,27.4C303.8,338.5,306.8,345,310.7,350.9z
		 M414.3,505.4c2.1,0.2,4.2,0.3,6.2,0.3c2.9,0,5.7-0.2,8.5-0.5l10.2-1.7l16.3-3.7l26.5-6.6l-18.8-5.4c-6-2.1-11.4-5.4-16-9.9
		l-19.3-17.6l-15.4-13.7l-11.1-10.1L401,437c0.9,1.3,7.9,15.5,7.9,15.5l1.6,2.3l5.6,10.2l2.1,4c2.3,4.4,5.6,8.2,9.6,11
		c7,5.7,15.2,9.7,23.9,11.9v0.6l-21.3-3.4c-2.6-0.4-5.5-0.6-8.4-0.9l-10.2-0.9l-8.1-1.2l-7.9-0.9l-4.1-0.4
		c-4.8-0.5-9.6-1.3-14.3-2.6c-4.5-1.2-8.9-3-12.9-5.4c-4.9-3-9.6-6.6-13.7-10.6l-0.6,0.6c2.2,3.8,4.8,7.5,7.7,10.8
		c3.6,4.1,7.5,7.9,11.8,11.4c5.1,4.1,10.8,7.4,16.9,9.8c7.2,2.9,14.8,4.8,22.5,5.8L414.3,505.4z M325.6,327h0.7c0.3-3,0.9-6,1.7-9
		c1.1-3.4,2.5-6.6,4.2-9.7c2.7-4.6,5.6-9.1,8.7-13.5c3.8-5.3,8.9-12.5,15.3-21.7c4-6.2,7-12.9,9-20l4.5-16.5h-0.6
		c-0.7,1.7-1.5,3.3-2.6,4.8c-1.1,1.6-2.4,3.1-3.6,4.5c-1.9,2.1-3.9,4.1-5.9,6l-9.9,9c-6.2,5.1-11.2,11.5-14.6,18.8
		c-2.4,6.1-4.3,12.4-5.6,18.8h-0.4c0-3,0.4-6,0.5-9v-11.1c0-5.7-0.4-12.3-1.1-20c-0.8-7.6-1-17.4-1-29.7c0-3.7,0.7-7.4,2.2-10.8
		c1.5-3.4,2.8-6.7,3.9-9.7h-0.4c-7.1,8.7-12.7,18.5-16.4,29.1c-2.9,8.5-4.4,17.5-4.5,26.5c0.1,10.2,2.1,20.3,5.9,29.7
		C319.6,304.5,323,315.6,325.6,327z M384.9,474.6l36.2,8.3c-4.6-5-8.6-10.5-12.1-16.3c-3-4.9-5.5-10.2-7.4-15.7
		c-2.3-6.2-5.5-14.5-9.7-24.8c-1-3.1-2.3-6.1-3.7-9c-1.3-2.6-2.8-5.4-4.5-8.2l-6.3-9.7l-9.4-13.5l-0.6,0.6
		c1.1,3.8,2.7,10.6,4.9,20.5l6,27.9c1.1,6.5,3.8,12.7,7.7,18c4.6,6.2,9.8,11.8,15.6,16.8l-0.6,0.6c-5-2.2-9.7-5.3-13.7-9
		c-6.3-5.2-13.2-9.6-20.6-13.1c-11.7-5.6-23.1-12-34.1-19.1c-8.2-5.5-14.7-13.3-18.6-22.5l-0.6,0.5c2.1,9,5.7,17.6,10.5,25.4
		c4.7,7.4,10.4,14.2,16.9,19.9c6.4,5.7,13.5,10.4,21.2,14.2C369.2,470.3,377,473,384.9,474.6L384.9,474.6z M331.7,415.9l42.2,27.9
		l-4.8-10.8c-1.4-3.7-2.5-7.5-3.2-11.4l-1.9-13.9l-1.9-18.5l-3.9-29.1c-1.3-7.6-3.4-15-6.1-22.2h-0.6c0.1,5.5-0.2,11-0.8,16.4
		c-0.5,4.2-1.3,8.4-2.3,12.6l-2.2,10.5c-0.6,3.7-0.9,7.4-0.9,11.1c0.3,5.6,1.5,11.1,3.7,16.3c2,5.5,4.3,11,7,16.2l-0.5,0.6
		c-5.5-9-11.9-17.5-19.1-25.3L319.2,378c-4.8-5.1-9.2-10.5-13.1-16.3c-3.9-6-6.3-12.8-7.1-20c-0.5,1.8-0.8,3.6-1.1,5.4
		c-0.2,1.8-0.4,3.6-0.4,5.4c0,6.7,1.2,13.3,3.4,19.6c2.2,6.5,5,12.7,8.5,18.5c3.2,5.4,6.9,10.5,11.1,15.2
		C323.8,409.7,327.6,413,331.7,415.9z M678.1,168.8l12.6,16.3c4.5,5.9,9.4,11.5,14.5,16.8c5.8,6,12.2,11.3,19.2,15.8
		c-2.5-11.6-7.1-22.7-13.5-32.8c-4.4-6.5-10-12-16.6-16.2c-5.1-3.2-10.5-5.7-16.2-7.6c-4.7-1.3-9.1-3.6-12.8-6.8l-0.6,0.6
		c5,4.2,9.5,9,13.4,14.1L678.1,168.8z M715.4,476.9c-4,2.4-8.4,4.2-12.9,5.4c-4.7,1.2-9.5,2-14.3,2.6l-4,0.4l-7.9,0.9l-8,1.2
		c-2.7,0.4-6.9,0.7-10.2,0.9l-8.4,0.9l-9,1.3l-12.3,2V492c8.7-2.2,16.7-6.3,23.7-12c4-2.9,7.2-6.6,9.4-11l2.1-4l5.6-10.2
		c0.5-0.8,1-1.6,1.6-2.3l7.9-15.5l-0.5-0.6c-3.6,3.5-7.3,6.9-11.1,10.1l-15.4,13.7l-19.3,17.5c-4.4,4.5-9.8,7.9-15.7,10l-18.8,5.4
		l26.5,6.6l16.2,3.7l10.3,1.7c2.8,0.4,5.7,0.6,8.5,0.6l6.3-0.3l5.4-0.6c7.7-1,15.3-2.9,22.5-5.8c6.1-2.5,11.8-5.8,16.9-9.8
		c4.4-3.5,8.4-7.3,12-11.5c2.9-3.4,5.5-7,7.7-10.8l-0.9-0.4C725,470.5,720.3,473.9,715.4,476.9z M747.3,428.8
		c-10.9,7.1-22.3,13.4-34.1,19.1c-7.4,3.5-14.3,7.9-20.6,13.1c-4.1,3.7-8.7,6.7-13.7,9l-0.6-0.6c5.8-5,11.1-10.6,15.6-16.8
		c3.9-5.3,6.5-11.5,7.7-18c1.9-8.7,3.9-18,6-27.9l4.9-20.5l-0.6-0.4l-9.4,13.5l-6.3,9.7c-1.8,2.8-3.2,5.6-4.6,8.3
		c-1.4,2.9-2.7,5.9-3.7,9l-9.7,24.8c-1.9,5.4-4.4,10.6-7.4,15.5c-3.5,5.7-7.6,11.1-12.1,16.1L671,480l23.8-5.2
		c8-1.7,15.7-4.5,23-8.3c7.7-3.8,14.8-8.6,21.2-14.2c6.5-5.8,12.2-12.5,16.8-19.9c4.9-7.9,8.5-16.6,10.6-25.7l-0.6-0.6
		C762,415.4,755.5,423.2,747.3,428.8L747.3,428.8z M764.8,319.6c-3,6.5-5.8,13.5-8.5,21.1c-2.8,7.8-5,15.8-6.4,23.9h-0.5
		c0.3-2.4,0.7-4.8,1.3-7.1c0.8-3.1,1.2-6.2,1.3-9.4c0.1-6.5-1.1-13-3.4-19.1c-2.2-5.7-4.9-11.3-8-16.5l-9-14.8
		c-2.8-4.5-4.8-9.4-6-14.6h-0.6c-0.7,7.8-0.2,15.7,1.5,23.4c1.7,8.7,3.8,17.4,6.2,25.9c2.4,8.5,4.6,16.3,6.7,23.4
		c1.7,4.9,2.8,9.9,3.2,15.1v8c0,3-0.2,6-0.7,9h0.4c4-7.2,8.6-13.9,13.9-20.2c4.6-5.3,8.9-10.9,12.8-16.8c4-5.9,7.1-12.3,9.3-19.1
		c2.5-9,3.7-18.3,3.4-27.6c-0.1-6.2-1-12.3-2.7-18.2c-1.2-5-2.7-10-4.5-14.8h-0.7l0.4,8.5c0.4,2.2,0.4,5.3,0.4,9
		c-0.2,4.5-1.2,8.9-2.8,13.1L764.8,319.6L764.8,319.6z M747.5,279.7c-3.4-7.3-8.4-13.7-14.6-18.8l-9.9-9l-5.8-6
		c-1.3-1.4-2.5-2.9-3.6-4.5c-1.1-1.6-1.9-3.2-2.6-5h-0.6l4.5,16.5c2,7.1,5,13.8,9,19.9l15.3,21.7c3.1,4.3,6.1,8.8,8.7,13.5
		c1.7,3.1,3.2,6.3,4.2,9.7c0.8,2.9,1.4,5.9,1.7,9h0.7c2.5-11.3,5.8-22.5,10-33.3c3.8-9.5,5.8-19.7,5.9-29.9c-0.1-9-1.6-18-4.5-26.5
		c-3.7-10.5-9.3-20.2-16.4-28.8h-0.6l3.9,9.7c1.5,3.4,2.3,7.1,2.2,10.8c0,12.2-0.4,22.1-1.1,29.7c-0.7,7.6-1.1,14.2-1.1,20v11.1
		c0,2.8,0.3,5.8,0.5,9h-0.5c-1.3-6.4-3.1-12.6-5.4-18.6H747.5z M722.1,189.1c2.2,4.3,4,8.8,5.1,13.5l4.5,18
		c1.7,6.9,4.3,15.2,7.7,25.1v0.6c-3.2-6.7-7.6-12.8-12.9-18c-4.5-4.1-9.3-7.9-14.3-11.4c-4.6-3.1-9-6.4-13.2-10
		c-4.4-4-7.8-8.9-10-14.4h-0.6l5.5,16.2c1.1,3.4,2.4,6.7,4,10c1.2,2.5,2.9,4.8,4.9,6.8l7.5,6.8c8.4,7.2,15.7,13.3,21.8,18.2
		c5.9,4.8,10.9,10.6,14.8,17.2v-39.9c0.1-11.4-3.3-22.5-9.7-31.9c-5.8-9-14.8-15.5-25.1-18.2v0.6
		C716.1,181.1,719.5,184.8,722.1,189.1L722.1,189.1z M656.1,517.1c-3.2-0.1-6.3-0.4-9.4-1.1l-10.6-2l-11.5-3.9l-15.7-5.7l-24.3-8.3
		c-5.3-1.8-10.8-2.6-16.3-2.6c-5.6,0.1-11.2,0.7-16.6,2l-12.5,3c-2.4-0.7-6.3-1.7-12-3c-5.4-1.2-10.9-1.9-16.5-2
		c-5.5,0-11,1-16.2,2.8l-24.3,8.5l-27.9,9.6c-6.1,1.9-12.4,2.8-18.8,2.8c-2.7,0-5.3-0.2-8-0.5c-2.3-0.3-4.6-0.9-6.8-1.7l-8.3-2.8
		l-10.8-5.2l-0.5,0.5c6.1,5.9,12.8,11,20,15.4c9.5,5.7,20.4,8.8,31.4,9c4.1,0,8.2-0.3,12.2-0.9c3.7-0.6,7.4-1.7,10.8-3.1
		c3.6-1.5,7.6-3.4,12-5.7l15.7-9l16.2-10c4.6-2.5,9.8-3.8,15.1-3.7c2.3,0,4.6,0.4,6.8,1.1c-7.5,4.2-16.1,9.3-25.8,15.3
		c-10.4,6.5-19.9,14.4-28.2,23.5l9.7,8.5c8.5-10,17.9-19.3,28.2-27.5c7.8-6.8,16.7-12.3,26.2-16.3c9.5,4,18.4,9.5,26.2,16.3
		c10.4,8.2,19.9,17.3,28.4,27.4l9.7-8.5c-8.4-9.1-18-17-28.7-23.4c-9.9-6-18.6-11-26.2-15c2.4-0.6,4.9-1,7.5-1.1
		c5.3-0.1,10.5,1.2,15.1,3.7c4.4,2.5,9.8,5.8,16.3,10l14.8,8.8c3.7,2.2,7.7,4.1,11.7,5.7c3.5,1.3,7,2.3,10.6,3.1
		c3.7,0.7,7.4,1.1,11.2,1.1h2.2c8.9-0.2,17.8-2.1,26-5.7c9.8-4.2,18.5-10.6,25.4-18.8V507c-6.1,2.9-12.4,5.5-18.9,7.7
		C666,516.3,661,517.1,656.1,517.1L656.1,517.1z M782.1,351.8V350c0-0.9-0.1-1.8-0.3-2.7l-1.1-5.4c-0.8,7.1-3.2,13.9-7.1,19.9
		c-3.9,5.7-8.3,11.1-13,16.2l-0.9,1l-16.2,17.3c-7,7.7-13.3,16-18.7,24.9c2.6-5.2,4.9-10.7,6.7-16.3c2-5.2,3.1-10.7,3.4-16.2
		c0-3.7-0.3-7.5-0.9-11.1c-0.6-3.2-1.3-6.7-2-10.5c-1-3.8-1.7-8.3-2.2-12.8c-0.7-5.4-1-10.9-1-16.4h-0.4v0h-0.6
		c-2.8,7.3-4.8,14.8-6.1,22.5l-3.9,29l-1.9,18.6l-1.9,13.9c-0.7,3.8-1.7,7.5-3.1,11.1c-1.1,2.9-2.5,6-4,9c-0.3,0.5-0.6,1-0.9,1.6
		h0.2l0,0l14.2-9.4l28.5-18.6c4.1-2.9,7.8-6.2,11.1-10c4.2-4.6,7.8-9.6,10.8-15.1c2-3.6,3.8-7.3,5.4-11.1l2.9-7.4
		c2.2-6.3,3.4-12.9,3.4-19.6c-0.2-0.1-0.3-0.4-0.3-0.8L782.1,351.8z M616.5,183.9c1.1,0.5,2.1,1,3.1,1.7c0.7,0.7,1.3,1.5,1.9,2.2
		c0.4,0.7,1.2,1.1,2,1.2c1.1,0,1.7-0.4,1.7-1.2c0-0.7,0-1-0.3-0.9s-0.3,0-0.3-0.9c0.1-1.2-0.3-2.4-1.1-3.4c-1.3-1.4-3.2-1.9-5-1.2
		c-0.3-0.3-0.7-0.5-1.1-0.5h-0.9c-1.1,0-1.7,0.4-1.7,1.1S615.5,183.4,616.5,183.9L616.5,183.9z M556,170h1.2
		c2.2-0.8,4.5-1.3,6.9-1.4h8c1.3,0.1,2.6-0.4,3.5-1.4c0.7-0.8,1.2-1.7,1.7-2.6c-1.7-2.2-4.2-3.6-6.9-4c-1.9-0.3-3.8-0.5-5.7-0.6
		c-2.4,0.5-4.7,1.2-6.9,2.1l-6.9,2.7c-1.9-0.4-3.1,0-3.4,1.2c1,1,2,1.8,3.1,2.7C552.2,169.7,554.1,170.2,556,170L556,170z
		 M538.8,482.4c95,0,172-76.9,172-171.9c0-95-76.9-172-171.9-172c-95,0-172,76.9-172,171.9c0,0,0,0,0,0
		C367,405.4,443.9,482.3,538.8,482.4z M375.7,314.8h26.1c0.4,11.5,2.2,22.9,5.4,33.9c-0.8-0.2-1.5-0.7-2-1.4l-0.8-0.8l-2.9-4
		l-4.8,1.8c0,2.7-0.9,3.6-2.8,2.9c-0.6-0.7-1.4-1.1-2.3-1.2c-2.8-0.2-5.3,2-5.5,4.8c0,0,0,0,0,0c-0.4,2.2-0.7,4.4-0.9,6.6l4,10.3
		c0.8,1.2,1.9,1.3,3.5,0.6c1.1,1.4,2.3,2.7,3.6,3.9c0.8,0.8,1.8,1.2,2.9,1.2c0.9,0.1,1.7-0.5,1.8-1.3c0-0.1,0-0.3,0-0.4h0.6
		c0.8,0.8,1.6,1.7,2.4,2.6c0.9,1,1.9,1.9,3,2.6v-0.5c1.3,1.3,3,2,4.9,2.1c0.5,2.4,1.7,4.6,3.4,6.3c1.1,1.4,2.7,2.2,4.5,2.3
		c0.9-0.1,1.7-0.5,2.3-1.2c0.6,2.1,1.6,4,2.8,5.8c1,0.5,2,1.1,2.9,1.7c0.8,0.5,1.6,1.1,2.3,1.8h1.2c0.5,1.7,1.5,3.3,2.8,4.5
		c1.1,1.1,2.2,2,3.5,2.9h0h0.4l1.2,1.3l-18.4,18.4c-27.7-29-43.7-67.3-44.9-107.4L375.7,314.8z M501.5,266.6c-0.5-0.3-1-0.6-1.5-0.9
		l-1.8-1.8c10-8.7,22.7-14,35.9-15v18.2c-0.2-0.2-0.5-0.3-0.8-0.4c-0.2-0.2-0.3-0.4-0.4-0.6c-0.4-0.3-0.9-0.4-1.4-0.3
		c-0.2,0-0.4,0-0.6,0c-0.4,0-0.8,0-1.3,0c-0.4,0.2-0.9,0.2-1.3,0.3c-0.2,0.1-0.5,0.1-0.7,0c-0.5-0.4-0.8-1.2-0.8-2.6
		c-1.6,0.8-2.4,1.5-2.6,2.2l-0.9,4c-0.3,1.5-1.5,2.7-2.9,3.1c-1.3,0.4-2.5,1.1-3.5,2l-1.8-1.1h-2.9c-0.5-0.6-1.1-1.1-1.8-1.4
		c-0.4-0.2-0.8-0.5-1.1-0.9c-0.4-0.4-0.5-0.4-0.5,0c-0.8-0.1-1.4,0.5-1.5,1.2c0,0,0,0,0,0l-1.7-1.7h0.4v-1.3
		C504.7,268.5,503.1,267.5,501.5,266.6L501.5,266.6z M492.1,257.6l-17.5-17.5c16.4-15,37.5-23.8,59.8-24.8v24.8
		c-15.6,1-30.4,7.3-42,17.7L492.1,257.6z M502.1,340.8c0.9-0.9,0.4-2.6,0.9-3.7l-2,1.8c1.4-1.3,2.5-2.8,3.4-4.5
		c0.4-1.1,1-2.2,1.7-3.1l2.1,3.6l-16,16c-6.5-7.4-11.1-16.3-13.5-25.8c1.4,0.2,2.7,0.6,4,1.1c1.3,1,2.5,2.1,3.6,3.3
		c0.8,0,1.6-0.2,2.3-0.6l2.2,1.8c-0.1,1,0.1,2,0.6,2.8c0,0.4,0.6,0.9,1.8,1.4c1,0.4,1.8,1.1,2.3,2l1.1-0.5c0-0.8-0.1-1.5-0.3-2.3
		c0-1.1,0-1.7,0.3-1.7l1.1,4l1.2,4.5C500,341.4,501.2,341.4,502.1,340.8L502.1,340.8z M536.3,358.7c0.9,0.9,1.3,1.6,1.3,2
		c0,1.2-1.5,1.7-4.5,1.7c-1.2,0-1.9,1.1-2.3,3.3l-1.1,5.4h-0.9v0.2c-11.3-1.8-21.8-6.7-30.5-14.2l15.5-15.5c6,5.6,13.7,9.1,21.8,9.9
		c-0.1,0.8,0.1,1.7,0.5,2.4c-0.7,0.7-1.2,1.8-1.1,2.8C534.9,357.2,535.3,357.8,536.3,358.7L536.3,358.7z M459.9,359.8
		c-0.2-3.3-0.6-6.5-1.2-9.7c-0.5-1.8-1.1-3.5-1.8-5.2c-0.2-2.7-0.8-5.3-1.8-7.7c-1.5-2.6-3.3-5-5.4-7.1v-3.3
		c-0.2-1.1-0.6-2.3-1.1-3.3v-0.6c-0.1-0.6,0.3-1.3,0.9-1.5l6-2.1c-0.1-1.8,0.1-3.6,0.6-5.3l4.2,0.7c1.2,0,1.8-0.8,1.8-2.4
		c-0.3-1.2-0.6-2.4-1.1-3.6c-0.6-1.3-1-2.7-1.2-4.1c0-0.8,0.6-1.5,1.7-2.1c1.1-0.6,2.2-0.9,3.4-0.9c1.6-0.1,3.1,0.7,4,2
		c0.8,1.4,1.1,2.9,1.1,4.5c0,1-0.1,2.1-0.3,3.1c-0.2,0.8-0.3,1.7-0.3,2.5l1.2,0.6c-0.8,3.8-2.3,5.7-4.5,5.7c-1.1-0.1-2-0.7-2.4-1.7
		c-0.3-0.8-1.1-1.4-2-1.4c-0.4,0-0.5,0-0.5,0.6c0,0.8,0.2,1.6,0.5,2.3c0.4,0.9,0.6,1.9,0.6,2.9c0,2.7-1.2,3.6-3.6,2.9
		c-0.8,1.4,0,2.2,2.3,2.2c0.8,2.3,1.6,3.3,2.4,2.9c0.7-1.2,1.1-2.5,1.2-3.9c0.2-1.5,0.6-3,1.2-4.5l0.6,0.6l2.4-0.6
		c0,0.3,0,0.6,0,0.9h0.7c2.3,12.6,8.1,24.4,16.7,34l-24.4,24.2c-1.1-0.9-1.6-2.4-1.3-3.8c0.4-2.3,2.8-3.8,3.1-6.2l0.6-4.5
		c-1.8-2-3.2-4.4-4.2-6.9L459.9,359.8z M446,323.9c0.4,0.7,0.6,1.5,0.6,2.2c0,1.2-0.4,1.7-1.2,1.4h-0.4c-0.8-4.3-1.3-8.6-1.5-12.9
		h4.9c0,0.8-0.2,1.6-0.5,2.3c-0.4,0.8-0.9,1.6-1.4,2.3c-0.5,0.6-0.9,1.4-0.9,2.2c0,0.9,0.2,1.8,0.6,2.6L446,323.9z M443.4,305.9
		c1.2-22.1,10-43.2,25.1-59.5l17.7,17.5l-0.4,0.6c-1.1,0.3-2.1,0.6-3.1,1.1l-2.5,3.4c-1.9,0.7-3.7,1.7-5.4,2.9
		c-1.6,1.3-3.1,2.9-4.5,4.5l-4.5,2c-0.8,0.3-1.5,0.8-2,1.4c0.8,1.9,0.8,3,0,3.1l-5.8,1.4c-0.4,0.1-0.8,0.3-1.1,0.6l-1.7,1.7
		c-0.4,0.6-0.6,1.3-0.6,2c0,0.7-0.2,1.4-0.6,2c-1.1,0.8-2.1,1.7-2.8,2.9c-0.7,1.7-0.7,3.5,0,5.2l0.7,5.7h-0.3
		c0.2,0.6,0.4,1.2,0.5,1.8L443.4,305.9z M492.2,363.2c8.7,7.7,19.2,13.1,30.5,15.7l-2.5,0.9c-1.8,0.4-3.2,1.9-3.5,3.7
		c-0.4,2.2-1.2,3.8-2.6,4.5c-1.3,0.7-1.8,1.4-1.4,2.6c1.9,1.9,3.3,4.3,4,6.9c0.7,2.7,3,4.7,5.7,5.2l3.4,1.2c1.2,0.1,2.4,0.5,3.4,1.3
		c1,0,2,0.3,3,0.4c-21.5-1.5-41.8-10.3-57.6-24.9L492.2,363.2z M468.5,234.1l-17.3-17.3c22.6-21.3,52.2-33.5,83.3-34.6v24.6
		C509.9,207.8,486.6,217.5,468.5,234.1z M462.4,240.3c-16.7,18-26.4,41.4-27.4,65.9h-24.6c1-31,13.3-60.6,34.6-83.3L462.4,240.3z
		 M435,314.8c0.2,4.2,0.6,8.5,1.3,12.7c-0.3-0.6-0.7-1.1-0.9-1.7c-1.3-1.8-2.5-2.8-3.4-2.8c-1-0.1-2,0.5-2.3,1.4
		c-0.4,1-1,1.8-1.8,2.6c-1.9,1.4-4,2.4-6.3,2.9c-1.8,1.9-3,4.3-3.5,6.9c-0.4,0.7-0.3,1.7,0.3,2.3c0.6,0.8,0.3,1.5-0.9,2.2
		c0.8,1.5,0.9,2.5,0.6,2.9c0.4,0.8,0.3,1-0.3,0.9c-0.5-0.2-1.1-0.1-1.4,0.3c-0.4,0.4-0.6,0.8-0.8,1.3c-3.1-10.3-4.8-21-5.2-31.8H435
		z M534.4,473.6c-40.3-1.1-78.7-17.1-107.8-44.9l18.4-18.5c24.3,22.9,56.1,36.1,89.4,37.1V473.6z M534.4,438.8
		c-30.9-1-60.3-13.2-82.9-34.2c1.4,0.7,2.9,1.2,4.5,1.3c1.6-0.1,3.1-0.5,4.5-1.2c1.8-0.7,3.5-1.5,5.2-2.4c1.8,0.1,3.6-0.3,5.2-1.1
		c1.5,0.4,3,0.4,4.5,0c1.3-0.3,2.1-1.5,2-2.9c-0.1-1.3-0.9-2.5-2-3.1c-1.3-0.9-2.1-1.8-2.1-2.6s-0.4-0.9-1.2-1.4
		c-1.3-1.3-2.6-2.7-3.7-4.1c18,16.6,41.4,26.3,65.9,27.3L534.4,438.8z M538.9,375c-1.9,0.2-3.9-0.2-5.7-0.9c0-0.4-0.4-1-0.6-1.5
		c0.9-0.6,1.8-1.2,2.7-1.8c1-0.8,2.3-1.3,3.6-1.5v-1.6l4.2-3.1c0.5-0.3,1-0.4,1.5-0.5c1.1-0.3,2.2-0.7,3.2-1.2
		c1.6,0.5,3.1,1.2,4.5,2c1.4,0.9,2.9,1.5,4.5,2l0.6-2.2c0.8,0,1.9,0.8,3.4,2.2c1-0.1,2-0.5,2.9-1.1c0.4-0.9,0.4-2,0-2.9
		c0.6,0.1,1.2,0.3,1.7,0.6c0.3,0,0.6,0.1,0.9,0.3c0.2,0.2,0.5,0.3,0.9,0.3h0.6c1.2-0.2,2.2-0.7,3.1-1.4c1-0.7,2.1-1.4,3.1-2
		c0.2-0.3,0.7-0.4,1-0.1c0,0,0.1,0.1,0.1,0.1c0.5,0.7,0.7,1.5,0.6,2.3c0,3.1-1.9,5.8-4.9,6.9c-2.7,1.3-5.5,2.4-8.3,3.4
		c-0.6,0.8-1.1,1.7-1.4,2.6c-0.5,1.3-1.2,2-2,2c-2.4-0.1-4.7-0.4-7.1-1c-0.8-1-1.4-2.2-1.8-3.5c-1.4,0-2.8,0.2-4.1,0.6l-4.7,1.2
		c-0.8,0.2-1.6,0.2-2.4,0L538.9,375z M563.7,356.1c0.2-1.7,1.3-3.1,2.9-3.7c1.4-0.6,3-0.8,4.5-0.9c0,1.1-1.1,2.2-3.1,3.4
		c-1.2,0.7-2.4,1.3-3.7,1.7L563.7,356.1z M581.4,342.1c1.6,0.9,2.5,2.7,2.3,4.5c0.2,1.1-0.6,2.1-1.7,2.3c-0.2,0-0.4,0-0.6,0
		c-1.2,0-2.1-1.3-2.9-4c-2.7-0.8-4.2-2-4.5-3.7c-0.3-1.7,0-2.7,0.6-3.1c0.7-0.3,1.5-0.6,2.3-0.9c0.8,0,0.9,0.7,0.6,2.6L581.4,342.1z
		 M636.7,246c0.5,0,0.9,0.2,1.2,0.6c1.4,0,2.8,0.4,4,1.1c2.7,2.6,5,5.4,6.9,8.6c0.4,0,0.9,0.6,1.4,1.8c0.5,1.2,1.3,1.7,2,1.7
		c1-0.1,2-0.4,3-0.9c0-0.5,0-1,0.4-1.6c7,15.4,10.9,32,11.5,48.9h-24.3c0-0.1,0-0.3,0-0.4c0.1-2.2-0.3-4.4-1.3-6.4
		c-1.3-2.6-1.5-5.6-0.8-8.4c0.5-1.5,0.6-3.2,0.3-4.8c-0.7,0-1.4,0.3-2,0.8c-0.6,0.8-1.1,1.6-1.5,2.6l-1.3,3.1v0.3
		c-0.2,0.3-0.3,0.7-0.4,1.1c-0.1,0.5-0.3,1-0.6,1.4l-1.2,4.5c-0.3,1.5-0.3,3,0,4.5l0,0v1.8h-12.4c0.7-0.8,1.6-1.4,2.7-1.8h-0.4
		l3.3-1.7c-0.7-0.3-1.1-1-1.1-1.7c0-1.1,0-1.8,0.6-2c0.6-0.2,1.4-0.7,3.3-1.3c1.2-1.6,2.3-3.4,3.1-5.3c2.2-3.5,3.7-7.3,4.5-11.4
		c0-0.9-1.2-2-1.3-3c0-0.8,0.1-1.7,0.3-2.5c0-4,1.8-11-3.3-12.2c-0.4,0-0.6-0.6-0.6-1.7c1.3-1.1,1.8-2.9,1.2-4.5H630
		c0.1-0.7,0.4-1.4,0.9-2c0.5-0.8,0.8-1.6,0.9-2.6c0.1-0.8-0.5-1.6-1.3-1.7c-0.1,0-0.3,0-0.4,0c-1,0-2,0.2-2.9,0.6
		c-0.6,0.3-1.2,0.5-1.8,0.6c-0.3,0-0.6,0-0.9,0l-0.8-1.2c-0.1-2.2-1.1-4.2-2.6-5.8c-1.2-1.4-2.7-2.5-4.5-3.2c0.3-0.8,0.3-1.6,0-2.4
		l4.5-5.2l7,2.5c-0.1,1.6,0.5,3.1,1.8,4c0.8,0.6,1.6,1.2,2.4,1.7c1,0.6,1.9,1.3,2.7,2.1v0.3C635.8,245.7,636.4,246,636.7,246
		L636.7,246z M613.1,412.6c-0.4-0.4-0.9-0.6-1.4-0.6c-0.6,0-0.9-0.4-0.9-1.1s0.6-1.5,1.8-2.2c1.3-1,2.3-2.4,2.9-4
		c0.6-1.1,1-2.4,1-3.7c0.1-0.6-0.3-1.2-0.9-1.4c-0.8-0.3-1.5-0.8-2-1.4c-0.8-0.4-1.7-0.8-2.6-1.1c-1.1-0.5-2.2-1.1-3.1-1.8
		c-1.1-0.6-1.7-1.7-1.8-2.9c0.2-1,0.5-1.9,0.9-2.8c0-0.4,0.4-1,0.6-1.5l1.3-1.1l13.2,13.2c0,1.5,0.9,2.4,2.7,2.7l1.4,1.4
		c-4.6,4.3-9.6,8.3-14.8,11.9c0.2-0.5,0.6-1.1,1-1.5c0.2-0.2,0.4-0.3,0.7-0.4C613.3,413.7,613.3,413.2,613.1,412.6L613.1,412.6z
		 M605.2,349.7c-1.2-0.4-2.5-0.1-3.5,0.6c-1.6,0.5-2.9,1.7-3.5,3.4c0,0.4-0.2,0.5-0.6,0.5c-0.8,0-1.6,0.2-2.3,0.6
		c-1,0.3-1.9,0.7-2.9,1.2c-1.1,0-1.7-0.4-1.7-1.2c0-0.7,1.7-1.9,5.2-2.2c1.5-1.9,2.4-3,2.8-3.4c0.8-0.6,1.7-1,2.7-1.1
		c1.8-1,3.4-2.4,4.5-4.2c0.9-1.1,1.6-2.3,2.2-3.6h0.5c0,1.8,0.8,2.8,2.4,2.8c1.6,0,2.2-1.3,3-4c1.5,0.6,3.2,1,4.8,1.2
		c1.7,0.1,3.3-0.7,4.2-2.2h7c0,0.2,0,0.4,0,0.5v0.4c-4,12.6-10.5,24.3-19.2,34.2v-1.8c0,0-1.7-5.2-2.1-5.2c-0.4,0-1.7,1.3-2.7,4
		l-2.2,5.1l-5.8,1.2c-1.7,0.4-3.4,0.6-5.1,0.6c-1.7-0.4-3.4-1.1-4.9-2c-1.5-0.9-3.2-1.6-4.9-2c-1.6-0.5-3.2-0.9-4.9-1.2
		c-2.1-0.4-3.1-0.9-3.1-1.7c0-0.8,0.8-1.7,2.2-1.7c1.5,0.1,3,0.4,4.5,0.9l6.9,1.7l6.3,1.7c1.1,0.4,2.3,0.7,3.4,0.9l3.5-1.1
		c0.1-1.1,0.5-2.2,1.1-3.1c0.7-0.9,1.1-2,1.2-3.1c1-2,1.7-4.1,2.1-6.3c0.6-2.2,0.9-4.6,0.9-6.9C606.9,351,606.3,349.8,605.2,349.7
		L605.2,349.7z M620.4,315.1h13.5c-0.3,5.6-1,11.2-2.2,16.7c-0.7-1.8-1.7-3.6-2.9-5.1l-4.5-4.5l-0.9-4c-0.2-0.5-0.4-0.9-0.8-1.3
		c-0.8-0.5-1.5-1.2-2.2-2V315.1z M626,384.8c-1.2,0-1.7,0.3-1.7,0.9c-0.1,1.2-0.3,2.4-0.5,3.5l-8.5-8.5
		c11.6-12.6,19.9-27.9,24.2-44.5l0.4-0.4c1.9,0.7,3.2,0.7,3.8,0c0.4-0.5,0.7-1.1,0.9-1.7c-0.4-1.8-1.4-3.4-2.8-4.5h-0.7
		c0.9-4.9,1.5-9.9,1.7-14.9h24.6c-1,31-13.3,60.6-34.6,83.3l-1.1-1v-0.2l-1.3-7.7C629.8,386.5,628.3,384.8,626,384.8L626,384.8z
		 M619.9,260.8L619.9,260.8c0,1-0.2,2-0.6,2.9c-0.3,1-0.7,1.9-1.1,2.9c1.3,1.6,2.8,2.9,4.5,4c1.8,1.2,3.5,2.5,5.2,4
		c1.1,2.1,2,4.3,2.6,6.6c0.7,2,1.2,4,1.4,6.1c-0.3,1.4-0.9,2.8-1.7,4c-1.2,2.1-3.3,3.4-5.7,3.5l-0.6-0.6c0.1-1.2,0.5-2.3,1.1-3.4
		c0.6-1,1-2.2,1.2-3.4c1.3-0.7,2.1-1.9,2.3-3.4l-1.8-0.9c-1-0.8-2-1.6-2.8-2.6c0-1.1-1.2-1.7-3.4-1.7c-1-0.1-2,0.2-2.9,0.9
		c-0.9,0.7-1.9,1.4-2.9,2l-1.1-2.2c0.4-0.7,0.6-1.6,0.6-2.4l-4.5-7.6c-2-1-4.1-1.7-6.3-2c-1.5-0.3-3-0.3-4.5,0
		c-1.5,0.2-3,0.2-4.5-0.2c-1.8-0.2-3.5,0.4-4.8,1.7c-1.4,1.1-2.7,2.3-3.8,3.7c-0.6,0.7,0,1.6-1.5,1.3c-0.5-0.4-1-1-1.4-1.5
		l26.1-25.9c0.2,0.3,0.4,0.6,0.6,0.9l2.2,2.6l2.4,3.1C616.3,255.4,618.1,258.1,619.9,260.8L619.9,260.8z M557.5,432.4
		c2.2,1.7,4.7,3,7.3,3.8c-7.1,1.5-14.4,2.4-21.7,2.6v-24.6c1,1.5,2.2,2.8,3.6,3.9c1.6,0.6,3.3,0.8,5,0.9c2.6,0.2,3.9,0.7,3.9,1.4
		c-0.1,0.9-0.4,1.8-0.9,2.6c-0.5,0.8-0.8,1.7-0.9,2.6C554,428.3,555.3,430.8,557.5,432.4z M543.1,473.6v-26.1
		c9.6-0.3,19.1-1.6,28.4-3.9c0,0.2,0,0.4,0,0.5c0,0.2,0,0.5,0,0.7c2.2,1.4,4.2,3.3,5.7,5.4c0.8,1.5,2.9,2.2,6.3,2.2
		c1.9,0,3.1-0.4,3.7-1.1c0.6-0.8,1.3-1.6,2-2.3c0.8-0.8,1.8-1.4,2.8-1.8c1-0.2,1.8-0.8,2.3-1.7c1.7-0.6,3.2-1.8,4-3.4
		c1.5-1.2,2.7-2.7,3.4-4.5c0.9-0.1,1.8-0.6,2.3-1.4c1.1-1.9,1.9-3.9,2.3-6l1-0.6c0-0.3,0-0.6,0-0.9c8.9-5.2,17.2-11.4,24.7-18.5
		l18.4,18.5C621.5,456.5,583.2,472.5,543.1,473.6L543.1,473.6z M657.2,422.7l-18.5-18.4c22.9-24.3,36.1-56.1,37.1-89.4h26.1
		C700.8,355.1,684.9,393.6,657.2,422.7L657.2,422.7z M701.9,306.2h-26.1c-0.9-27.5-10.1-54.2-26.4-76.4c-0.3-0.9-0.7-1.7-1.3-2.4
		c-0.4-0.5-0.9-0.9-1.5-1.3l-6.7-7.9c-0.3-0.6-0.6-1.2-0.7-1.8l18-18C684.9,227.5,700.8,265.9,701.9,306.2z M543.1,147.6
		c40.3,1.1,78.7,17.1,107.8,44.9l-15.9,15.9c-0.4-0.8-0.7-1.6-0.9-2.4c-1.3-1.1-2.1-1.8-2.4-1.8c-1.5-0.7-2.4-2-2.6-3.6
		c-0.1-1.4-0.6-2.7-1.4-3.7c-2.5-0.9-4.5-2.7-5.7-5c-1.5-2.6-3.1-4-4.5-4c-1.2,0.4-2.6,0.2-3.7-0.4c-1.2-0.5-2.4-0.9-3.7-1
		c-1.4,0-2.7,0.2-4,0.6c-1.5,0.5-3,0.8-4.5,1.1l-0.6,0.6c-17.3-9-36.4-14.1-55.8-15.1c1.5-2.4,1.7-4,0.5-4.5c-0.3-0.3-1.2,0-2.5,1.3
		V147.6z M543.1,182.3c18.5,0.6,36.7,5.2,53.2,13.5c0,0.1,0,0.3,0,0.4l2.2,2.5l2,2.2c0.4,1.7,1,3.4,1.6,5c0.5,1,1.1,1.9,1.8,2.8
		c-0.4,1.7-0.1,3.4,0.9,4.8c0.9,1.7,2,3.3,3.1,4.8l2.2-0.3c0.9-0.2,1.9-0.3,2.8-0.3c1.1,0.2,2,0.8,2.6,1.7c0.9,1,1.5,2.2,2,3.5
		c0.3,0.6,0.4,1.2,0.5,1.9l-7,7c-0.7-3.3-1.9-6.5-3.4-9.5c-1.2-1.2-2.8-1.7-4.5-1.5c-0.4-0.4-1.7-2-4-4.9c-2.3-2.9-3.6-4.5-4-4.5
		c-0.6-0.1-1.2,0.2-1.7,0.6c0.4,0.7,0.7,1.4,1.2,2l2.2,3.8c0.1,0.6-0.3,1.1-0.9,1.2c-0.1,0-0.2,0-0.3,0c0.3,1.4,1.4,2.6,2.9,2.9
		L598,223l1.7,3.4c-16.5-12.1-36.3-19-56.7-19.9L543.1,182.3z M543.1,215.6c22.2,0.9,43.5,9.7,59.9,24.7l-17.5,17.5
		c-11.7-10.4-26.6-16.6-42.2-17.5L543.1,215.6z M543.1,249.1c12.5,0.9,24.3,5.6,34.1,13.5c-0.4,0.2-0.8,0.4-1.2,0.7
		c-0.3,0.3-0.7,0.6-1.2,0.8c-0.4,0.2-0.5,0.6-0.5,1.3c0,0.9,1.3,1.3,2.2,1.4l-6.7,6.5c-0.9,0.5-1.8,1.1-2.6,1.8
		c-1.6,0.8-2.4,1.4-2.7,2c-0.3,0.6-0.3,1.1-0.5,2l-2.2,2.2c-0.3,0-0.7,0-1,0c-0.8,0-1.9-0.8-3.5-2.3c-1.6-1.6-2.7-2.2-3.5-2.2
		c-0.9-0.1-1.9,0.2-2.6,0.9c-0.5,0.5-1.4,0.6-2,0.2c-0.8-0.8,0-1.6,2.6-2.6l4.9-2c2.9-2.1,4.6-5.6,4.5-9.2c0-1.9-0.8-2.9-2.3-2.9
		l-1.8,1.7c-1.5,0.7-2.9,1.6-4.1,2.7l-2.9,2.8c-1.1-0.5-2.3-0.7-3.5-0.6h-3.4l0,0L543.1,249.1z M538.1,288.5c0.3,0.6,0.6,0.9,1,0.9
		c1,0,2,0.3,2.8,0.9c0.9,0.6,1.9,0.7,2.9,0.4c0.1,0.4,0.3,0.8,0.7,1.1c0.4,0.8,1.3,1.3,2.2,1.2l0.7,0.7c0.1,0.2,0.3,0.4,0.4,0.6
		c0.3,0.7,0.6,1.4,0.9,2h0.2v0.4c0.6,0.3,1.2,0.4,1.8,0.3c0.5-0.2,1-0.2,1.4,0v1.3h0.4c0,0.5,0,0.9,0,1.4c0.2,0.8,0.3,1.7,0.3,2.6
		v1.1c0,0.3-0.2,0.6-0.5,0.6c0,0-0.1,0-0.1,0c-1.1,0.8-1.7,2-1.8,3.4c0,0.8,0.4,1,1.5,0.9c0.8-0.3,1.7,0.1,2.2,0.9
		c0.9,0.9,1.3,2.1,1.2,3.4v5.1c0,0.7,0.3,1.3,0.9,1.7c0.6,0.4,0.9,0.7,0.9,1.1c0,1.4-0.2,2.8-0.6,4.2c-0.2,1.4-0.8,2.6-1.7,3.7
		c-0.4,0.4-1.4,0.4-3,0c-1.4-0.3-2.7-0.5-4.1-0.6c-0.8,0-1.6,1.2-2.3,3.4c-0.7,1.7-1.3,3.4-1.8,5.2c-0.4,1.5-1.2,2.2-2.3,2.2
		c-0.8,0-1.6,0.1-2.3,0.3h0.3l-1.9,3.1l-0.6,0.8c-6.5-0.4-12.6-3.1-17.3-7.5l3-3c1.9-0.3,3.7-0.7,5.5-1.3l1-0.4
		c3.1-1.3,2.8-3.8,4.5-6.5c1-1.8,3.9-3.7,1.6-5.7c2.6-4.5-9.3-4.5-11.5-3.6c-2.1,0.9-0.9,3.8-2.2,5.8c-0.7,1-1.8,1-2.7,1.8
		c-2,1.6-3.5,3.6-4.5,5.9c-0.8-1.4-1.4-2.9-1.9-4.5h0.4c-0.2-0.4-0.3-0.8,0-0.9h0.6v0.6c1.5,0.4,2.5,0.4,2.8,0
		c0.4-1,0.7-2.1,0.9-3.2c0.8-2.3,1.9-4.6,3.1-6.7c-0.7-0.4-1.2-1-1.3-1.8c0-0.8-0.6-0.9-1.3-0.6c-0.7,0.3-1.1,1-1.1,1.8
		c0,0.9-0.4,1.7-1.1,2.3c-0.6,0.7-1.4,1.1-2.2,1.1c0.1-0.8-0.5-1.6-1.3-1.7c-0.1,0-0.3,0-0.4,0c-0.9,0.1-1.7,0.5-2.3,1.2
		c-0.8,0-2.6,0-5.4,0.5c-1.8,0.4-3.7,0.4-5.4,0c-0.8-0.7,0-1.5,2.9-2.2c-0.2-2.4,0.6-4.8,2.4-6.5c1.1,0.6,2.2,1,3.5,1.2l1.1-1.2h0.6
		c1.1,0,1.8,1,2,2.9c0.2,1.9,0.7,2.9,1.4,2.9c0.9-0.1,1.7-0.5,2.3-1.2v-3l1.7-6.4v-1.7c0.4-1,1-2,1.8-2.8h0.7
		c0.8-0.6,1.7-1.1,2.7-1.2c0.6-1.1,1-2.3,1.1-3.6c1.2-0.4,3.1-1.2,6-2.3c2.9-1.2,4.5-2.3,4.5-3.5v-0.3c1.3-0.3,2.6-0.5,3.9-0.5
		c0.1,0.5,0.3,1,0.7,1.4V288.5z M534.4,147.6v25.9c-33.3,1-65.1,14.2-89.4,37L426.6,192C455.8,164.4,494.2,148.5,534.4,147.6z
		 M420.4,198.2l18.4,18.4c-22.9,24.3-36.1,56.1-37.1,89.5h-26.1C376.7,265.8,392.7,227.4,420.4,198.2L420.4,198.2z"/>
	<g>
		<g>
			<polygon class="st0" points="223.5,722.8 222.9,722.8 165,625.1 136.3,625.1 136.3,768.3 165,768.3 165,670.4 165.6,670.4 
				223.5,768.3 252.1,768.3 252.1,625.1 223.5,625.1 			"/>
			<path class="st0" d="M360.1,741.2v-44c0.6-10.6-3.8-20.8-11.9-27.6c-8.8-6.7-19.8-10.1-30.9-9.6c-11.6-0.4-23,3.1-32.3,10
				c-7.5,5.2-11.9,14-11.6,23.2v0.6h27.7c-0.2-3.6,1.2-7,3.9-9.4c6.9-4.8,16.2-4.5,22.7,0.9c2.8,3.3,4.2,7.6,3.9,11.9v8.5h-16
				c-15.4,0-27.1,2.9-35.1,8.6c-7.9,5.5-12.4,14.6-12,24.2c-0.4,8.7,2.9,17.2,9.1,23.4c6,5.7,14.6,8.6,25.8,8.6
				c6.1,0.2,12.2-1.6,17.2-5.1c4.8-3.4,8.7-7.8,11.6-12.9c0.3,2.8,0.8,5.6,1.6,8.3c0.7,2.6,1.6,5.2,2.7,7.7l28.4,0
				c-1.6-4.2-2.8-8.6-3.6-13.1C360.5,750.6,360.1,745.9,360.1,741.2z M331.6,736.5c-1.7,3.6-4.5,6.6-8,8.6c-4,2.6-8.7,3.9-13.5,3.9
				v0.1c-3.5,0.1-7-1.1-9.6-3.5c-2.4-2.2-3.7-5.3-3.6-8.6c-0.1-4.2,1.7-8.2,4.7-11.1c3.9-3.3,8.8-4.9,13.9-4.6h16V736.5z"/>
			<path class="st0" d="M467.4,732.5l-0.3-0.6H441c0.2,4.4-1.5,8.7-4.6,11.9c-3.4,3.1-7.8,4.6-12.3,4.4h0.1
				c-6.6,0.5-12.9-2.8-16.1-8.6c-3.4-7.1-5-15-4.7-22.9v-3c-0.3-7.9,1.3-15.7,4.7-22.8c3.1-5.9,9.4-9.4,16.1-8.8
				c4.8-0.2,9.4,1.8,12.5,5.4c3.1,3.9,4.7,8.8,4.5,13.7h26.2v-0.6c0.7-11.1-3.5-21.9-11.6-29.5c-8.7-7.7-20.1-11.7-31.7-11.2
				c-15.9,0-28.1,5-36.7,15.1c-8.8,10.9-13.3,24.6-12.8,38.6v3c-0.6,14,4,27.7,12.8,38.6c8.6,10,20.8,15,36.7,15
				c11.4,0.4,22.5-3.5,31.1-10.8C463.3,752.9,467.8,742.9,467.4,732.5z"/>
			<path class="st0" d="M578.1,770.3c15.7,0,27.9-5,36.8-15c9.2-10.9,14-24.8,13.4-39.1v-2c0.6-14.2-4.2-28.2-13.4-39.1
				c-9-10.1-21.3-15.1-37-15.1c-15.7,0-27.9,5.1-36.8,15.2c-9.2,10.9-13.9,24.8-13.3,39v2c-0.6,14.2,4.1,28.2,13.3,39.1
				C550.1,765.3,562.4,770.3,578.1,770.3z M561.6,691c3.2-5.9,9.6-9.4,16.3-9c6.7-0.4,13.1,3.1,16.4,8.9c3.8,7.1,5.6,15.1,5.2,23.2
				v2.1c0.3,8-1.4,16-5.1,23.2c-1.5,2.2-3.4,4.1-5.6,5.6c-9.1,6-21.2,3.5-27.2-5.6c-3.7-7.1-5.5-15.1-5.1-23.2v-2
				C556.1,706.1,557.9,698.1,561.6,691z"/>
			<path class="st0" d="M701.3,660c-6.1-0.1-12.1,1.5-17.4,4.5c-5.3,3.2-9.8,7.6-13.1,12.9l-1.3-15.4h-27v106.4h28.7v-77.6
				c2-2.8,4.6-5,7.7-6.6c3.2-1.6,6.7-2.4,10.2-2.3c4.8-0.4,9.5,1.2,13.1,4.5c3.4,4.4,4.9,9.9,4.3,15.4v66.6h28.8v-66.5
				c0-14.4-3-25-9.1-31.8C719.9,663.2,710.7,659.5,701.3,660z"/>
			<path class="st0" d="M798.9,660c-13.4-0.6-26.3,5-35,15.2c-9,11-13.6,24.9-13,39.1v3.9c-0.5,13.8,4.5,27.3,13.8,37.5
				c9.6,10,23,15.4,36.8,14.7c7.9,0.1,15.8-1.1,23.3-3.5c6.2-1.9,11.9-4.9,17-8.8l-7.7-17.8c-4.4,2.5-9,4.5-13.8,6.1
				c-5.2,1.4-10.5,2.1-15.8,1.9c-6.4,0.3-12.6-2.2-17-6.8c-4.3-4.8-6.7-10.9-7-17.2l0.2-0.6h63.5v-15.6c0-14.8-4-26.5-11.9-35.1
				C824.4,664.3,813.3,660,798.9,660z M816.1,702.1v2.5h-35.2l-0.3-0.5c0.4-5.8,2.4-11.3,5.7-16c2.9-4,7.7-6.3,12.6-6.1
				c4.9-0.4,9.7,1.7,12.9,5.4C814.8,691.7,816.3,696.9,816.1,702.1z"/>
			<path class="st0" d="M934.1,716.9c-8.7-6.1-18.7-10-29.2-11.6c-6-0.7-11.7-2.6-17-5.6c-2.5-1.8-4-4.7-4.1-7.8
				c-0.1-3.3,1.3-6.4,3.9-8.5c3.1-2.4,7-3.6,11-3.4c4.3-0.3,8.6,1,12,3.9c2.7,2.8,4.2,6.5,4.1,10.4h27.8l0.2-0.6
				c0.4-9.5-3.9-18.5-11.6-24.1c-8-6.4-18.8-9.5-32.4-9.5c-11.1-0.6-22,2.8-30.9,9.6c-7.2,5.5-11.5,14.1-11.6,23.2
				c-0.3,8,3.3,15.6,9.6,20.5c8.5,5.9,18.2,9.8,28.4,11.4c6,0.9,11.8,3,17,6.1c2.8,1.8,4.5,4.8,4.6,8.1l-0.1-0.1
				c0.2,3.4-1.4,6.6-4.2,8.6c-3.6,2.3-7.9,3.4-12.2,3.2c-4.9,0.2-9.8-1.1-13.9-3.9c-3.8-3-5.8-7.6-5.6-12.4h-26.2v0.6
				c-0.2,9.6,4.1,18.7,11.6,24.5c8.2,7.2,19.4,10.8,33.6,10.8c11.5,0.6,22.9-2.6,32.5-9.1c7.8-5.2,12.4-14,12.3-23.4
				C944,729.8,940.4,721.9,934.1,716.9z"/>
			<path class="st0" d="M508.4,644.9c2.9-2.7,4.5-6.6,4.4-10.6c0.1-4-1.5-7.8-4.4-10.5c-6.8-5.5-16.4-5.5-23.2,0
				c-2.9,2.7-4.4,6.6-4.3,10.5c-0.2,4,1.4,7.8,4.2,10.6C491.9,650.4,501.6,650.4,508.4,644.9z"/>
			<rect x="482.6" y="661.9" class="st0" width="28.6" height="106.4"/>
		</g>
		<path class="st0" d="M490,794.9c-2.8,2.8-4.4,6.6-4.2,10.5c-0.2,4,1.4,7.8,4.2,10.6c6.7,5.6,16.4,5.6,23.2,0
			c5.8-5.9,5.8-15.3,0-21.1C506.4,789.5,496.7,789.5,490,794.9z"/>
		<g>
			<path class="st0" d="M326.5,891.1c0,9.5-2.6,16.6-7.7,21.2c-5.9,4.9-13.4,7.4-21,7c-7.6,0.4-15.1-2.1-20.8-7
				c-5.1-4.7-7.7-11.8-7.7-21.2v-94.9h-28.8v95c0,16.1,5.3,28.5,15.8,37.2c10.5,8.7,24.4,13,41.4,13c17.2,0.1,31-4.3,41.7-13
				c10.6-8.7,15.9-21.1,15.9-37.2v-95h-28.7V891.1z"/>
			<path class="st0" d="M433.3,830.9c-6.1,0-12.1,1.7-17.4,4.8c-5.3,3.1-9.8,7.5-13.1,12.7l-1.3-15.4h-26.9v106h28.7v-77.2
				c2-2.8,4.6-5,7.7-6.6c3.2-1.6,6.7-2.4,10.2-2.3c4.8-0.4,9.5,1.2,13.1,4.5c3.4,4.4,4.9,9.9,4.3,15.4v66.5h28.8v-66.6
				c0-14.4-3-25-9.1-31.8C452,834.1,442.8,830.4,433.3,830.9z"/>
			<path class="st0" d="M600.1,844.3c-3-4.1-6.8-7.4-11.2-9.8c-4.4-2.3-9.4-3.5-14.4-3.4c-12.2-0.5-23.8,5.3-30.6,15.4
				c-7.2,10.3-10.8,23.9-10.8,40.6l0.1,2.1c-0.1,15.7,3.6,28.4,10.8,37.9c7.1,9.5,18.5,14.9,30.4,14.4c5.5,0.1,10.9-1.2,15.7-3.9
				c4.8-2.7,8.8-6.6,11.8-11.2l2.3,13H629V786h-28.8V844.3z M600.4,909.4c-1.8,3.1-4.5,5.7-7.7,7.4c-3.3,1.7-7.1,2.6-10.8,2.5
				c-6.3,0.5-12.3-2.6-15.4-8.1c-3.5-6.8-5.1-14.5-4.7-22.1l0.2-2c-0.3-8.4,1.4-16.7,4.9-24.3c2.7-6,8.9-9.7,15.4-9.4
				c3.8-0.1,7.5,0.9,10.7,2.8c3.1,1.9,5.7,4.6,7.5,7.7V909.4z"/>
			<path class="st0" d="M734.9,912.1V868c0.6-10.6-3.8-20.8-11.9-27.6c-8.8-6.7-19.8-10.2-30.9-9.7c-11.7-0.5-23.2,3.1-32.5,10.1
				c-7.5,5.2-11.9,14-11.6,23.2v0.6h27.7c-0.2-3.5,1.2-7,3.9-9.4c3-2.5,6.9-3.7,10.8-3.4c4.4-0.3,8.7,1.2,11.9,4.2
				c2.8,3.3,4.2,7.6,3.9,11.9v8.5h-16c-15.4,0-27.1,2.8-35.1,8.6c-7.9,5.5-12.5,14.6-12,24.2c-0.5,8.7,2.8,17.3,9,23.5
				c7.1,6.1,16.4,9.2,25.8,8.6c6.2,0.2,12.4-1.6,17.5-5.1c4.8-3.4,8.7-7.8,11.6-12.9c0.3,2.8,0.9,5.5,1.6,8.3
				c0.7,2.6,1.6,5.2,2.7,7.7l28.6,0c-1.6-4.2-2.8-8.6-3.6-13.1C735.3,921.5,734.9,916.8,734.9,912.1z M706.2,907.5
				c-1.7,3.6-4.5,6.7-8,8.6c-4,2.6-8.7,3.9-13.5,3.9v0.2c-3.5,0.2-7-1-9.6-3.4c-2.4-2.2-3.7-5.3-3.6-8.6c-0.1-4.2,1.7-8.2,4.7-11
				c3.8-3.3,8.8-4.9,13.9-4.6h16V907.5z"/>
			<path class="st0" d="M830.1,887.9c-8.7-6.1-18.7-10-29.2-11.6c-6-0.7-11.7-2.7-16.9-5.6c-2.7-1.8-4.2-4.8-4.2-8.1
				c-0.1-3.3,1.3-6.4,3.9-8.5c6.9-4.8,16.2-4.6,22.9,0.7c2.8,2.7,4.3,6.5,4.1,10.4h27.8l0.2-0.6c0.4-9.5-3.9-18.5-11.6-24.1
				c-9.4-6.8-20.8-10.1-32.4-9.5c-11.1-0.5-22,2.8-30.9,9.6c-7.3,5.6-11.6,14.2-11.6,23.3c-0.3,8,3.3,15.6,9.6,20.5
				c8.5,5.9,18.2,9.8,28.5,11.3c6,0.9,11.8,3,17,6.1c2.8,1.8,4.5,4.9,4.6,8.2h-0.1c0.2,3.4-1.4,6.6-4.1,8.6
				c-3.6,2.3-7.9,3.5-12.2,3.2c-4.9,0.2-9.8-1.1-13.9-3.9c-3.8-3-5.8-7.6-5.6-12.4h-26.2v0.6c-0.3,9.6,4,18.7,11.6,24.5
				c8.2,7.2,19.4,10.7,33.6,10.7c11.5,0.6,22.9-2.6,32.5-9.1c7.8-5.3,12.4-14.1,12.3-23.5C840,900.7,836.4,892.9,830.1,887.9z"/>
			<rect x="487.9" y="832.9" class="st0" width="28.6" height="106.5"/>
		</g>
	</g>
</g>
</svg>
