<svg xmlns="http://www.w3.org/2000/svg" width="664.238" height="380.336" viewBox="0 0 664.238 380.336">
  <g id="Grupo_140658" data-name="Grupo 140658" transform="translate(-40.881 -58.765)">
    <g id="Grupo_140600" data-name="Grupo 140600">
      <g id="Grupo_140584" data-name="Grupo 140584">
        <path id="Trazado_153249" data-name="Trazado 153249" d="M361.519,209.456a25.293,25.293,0,0,0-9.749-12.549q-.855-.58-1.756-1.093a25.078,25.078,0,0,0-5.706-2.382c-2.663-.737-5.164-.765-6.8-3.385a11.865,11.865,0,0,1-1.292-4.874c-1.069-8.371-4.206-15.891-10.765-21.447-9.407-7.969-25.323-12.716-40.687-14.255-12.47-1.25-30.638,1.528-42.446,17.519a9.573,9.573,0,0,0-1.7,8.395c.015.05.034.106.049.157.271.9.627,1.913,1.063,3l-6.049,4.978a17.324,17.324,0,0,0-4.766,20.537l2.581,5.686c-.239.253-.464.5-.671.736-.959,1.1-1.994,2.344-3.079,3.718a29.8,29.8,0,0,0-8.121,18.793c-.509,10.495,4.787,20.125,13.475,26.658,10.628,7.993,20.963,16.333,29.705,25.816,7.313,7.933,18.71,13.111,31.627,13.119,15.906.009,30-8.322,35.878-20.37,8.982-4.768,15.6-12.572,17.62-21.823a26.656,26.656,0,0,0,.6-7.556c-.159-2.219-1.082-4.462-.549-6.7.656-2.756,3.167-4.582,5.21-6.545A25.583,25.583,0,0,0,361.519,209.456Z" fill="#390028"/>
        <g id="Grupo_140570" data-name="Grupo 140570">
          <g id="Grupo_140569" data-name="Grupo 140569">
            <g id="Grupo_140568" data-name="Grupo 140568">
              <path id="Trazado_153250" data-name="Trazado 153250" d="M299.941,211.706c-34.755,1.224-49.041-24.044-52.324-34.978a27.644,27.644,0,0,0-3.494,10.018l-6.4,44.335a27.636,27.636,0,0,0,3.886,18.588h0a27.987,27.987,0,0,0,21.536,16.217l1.745.252-.047,9.022a17.548,17.548,0,0,0,17.4,17.589l5.542.03a17.55,17.55,0,0,0,17.59-17.4l.208-39.445a17.341,17.341,0,0,0-.109-1.97l3.632.524a11.559,11.559,0,1,0,3.3-22.882l-4.075-.588.064-.443A39.872,39.872,0,0,1,299.941,211.706Z" fill="#a74f30"/>
            </g>
            <path id="Trazado_153251" data-name="Trazado 153251" d="M301.371,240.264a27.756,27.756,0,0,1-31.435,23.508l-8.7-1.256a27.693,27.693,0,0,1-19.622-12.847,27.987,27.987,0,0,0,21.536,16.217l1.916.277a5.572,5.572,0,0,0-.093.969c0,4.118,4.424,7.456,9.882,7.456s9.882-3.338,9.882-7.456a5.7,5.7,0,0,0-.113-1.072,28.012,28.012,0,0,0,19.042-22.635l1.374-9.53-2.692-.388Z" fill="#852b0f" opacity="0.32"/>
          </g>
        </g>
        <g id="Grupo_140583" data-name="Grupo 140583">
          <path id="Trazado_153252" data-name="Trazado 153252" d="M314.232,226.64a.5.5,0,0,1-.29-.092l-4.214-3a.5.5,0,0,1-.207-.362.505.505,0,0,1,.139-.395l4.834-4.959a.5.5,0,0,1,.717.7l-4.427,4.541,3.738,2.658a.5.5,0,0,1-.29.908Z" fill="#852b0f"/>
          <g id="Grupo_140572" data-name="Grupo 140572">
            <g id="Grupo_140571" data-name="Grupo 140571">
              <path id="Trazado_153253" data-name="Trazado 153253" d="M259.069,254.658a.5.5,0,0,1-.337-.13,4.973,4.973,0,0,0-5.587-.6.5.5,0,0,1-.484-.876c.038-.021,3.732-2.012,6.745.732a.5.5,0,0,1-.337.87Z" fill="#852b0f"/>
            </g>
          </g>
          <g id="Grupo_140579" data-name="Grupo 140579">
            <g id="Grupo_140578" data-name="Grupo 140578">
              <g id="Grupo_140577" data-name="Grupo 140577">
                <g id="Grupo_140574" data-name="Grupo 140574">
                  <g id="Grupo_140573" data-name="Grupo 140573">
                    <path id="Trazado_153254" data-name="Trazado 153254" d="M242.909,200.986a5.826,5.826,0,0,0,2.312.69c.848.135,1.7.292,2.429.454s1.571.377,2.4.612a5.76,5.76,0,0,0,2.383.346c.688-.127,1.113-.833.574-1.936a6.653,6.653,0,0,0-4.538-3.008,6.455,6.455,0,0,0-5.322.83C242.221,199.755,242.331,200.578,242.909,200.986Z" fill="#390028"/>
                  </g>
                </g>
                <g id="Grupo_140576" data-name="Grupo 140576">
                  <g id="Grupo_140575" data-name="Grupo 140575">
                    <path id="Trazado_153255" data-name="Trazado 153255" d="M262.17,206.356a8.212,8.212,0,0,1,3.4.338c1.183.278,2.377.528,3.423.709s2.258.35,3.466.486a8.174,8.174,0,0,1,3.3.826c.833.536,1.01,1.688-.287,2.843-1.226,1.13-4.086,2.094-7.555,1.5-3.462-.609-5.788-2.473-6.523-3.944C260.607,207.6,261.194,206.579,262.17,206.356Z" fill="#390028"/>
                  </g>
                </g>
              </g>
            </g>
          </g>
          <path id="Trazado_153256" data-name="Trazado 153256" d="M242.316,228.18a11.288,11.288,0,1,1,11.045-8.977A11.309,11.309,0,0,1,242.316,228.18Zm-.024-21.578A10.288,10.288,0,1,0,252.383,219h0a10.286,10.286,0,0,0-7.964-12.175A10.39,10.39,0,0,0,242.292,206.6Z" fill="#fff"/>
          <g id="Grupo_140580" data-name="Grupo 140580">
            <path id="Trazado_153257" data-name="Trazado 153257" d="M257.493,210.977l-.813,5.586a3.9,3.9,0,0,1-4.42,3.3h0a1.95,1.95,0,0,0-2.211,1.649l-.4,2.769a3.506,3.506,0,0,0,2.965,3.975l5.032.733" fill="#a74f30"/>
            <path id="Trazado_153258" data-name="Trazado 153258" d="M257.645,229.485a.46.46,0,0,1-.074-.005l-5.032-.733a4.012,4.012,0,0,1-3.388-4.543l.4-2.769a2.45,2.45,0,0,1,2.777-2.07,3.4,3.4,0,0,0,3.853-2.874L257,210.9a.494.494,0,0,1,.567-.422.5.5,0,0,1,.423.567l-.813,5.585a4.407,4.407,0,0,1-4.987,3.719,1.449,1.449,0,0,0-1.643,1.226l-.4,2.769a3.01,3.01,0,0,0,2.542,3.409l5.032.733a.5.5,0,0,1-.071.994Z" fill="#852b0f"/>
          </g>
          <path id="Trazado_153259" data-name="Trazado 153259" d="M269.2,230.372a11.288,11.288,0,1,1,11.045-8.978h0A11.306,11.306,0,0,1,269.2,230.372Zm-.006-21.576a10.287,10.287,0,1,0,10.073,12.394h0A10.293,10.293,0,0,0,269.193,208.8Zm10.562,12.5h0Z" fill="#fff"/>
          <path id="Trazado_153260" data-name="Trazado 153260" d="M280.293,216.912a.5.5,0,0,1-.1-.991l29.648-5.882a.5.5,0,1,1,.2.981L280.392,216.9A.489.489,0,0,1,280.293,216.912Z" fill="#fff"/>
          <path id="Trazado_153261" data-name="Trazado 153261" d="M258.639,217.226a.446.446,0,0,1-.073-.005l-5.667-.814a.5.5,0,0,1,.143-.99l5.667.814a.5.5,0,0,1-.07.995Z" fill="#fff"/>
          <g id="Grupo_140582" data-name="Grupo 140582">
            <g id="Grupo_140581" data-name="Grupo 140581">
              <path id="Trazado_153262" data-name="Trazado 153262" d="M269.032,232.381a42.917,42.917,0,0,1-11.385,3c-5.7.53-1.7,10.188,6.979,9.849S273.7,231.636,269.032,232.381Z" fill="#fff"/>
            </g>
          </g>
          <path id="Trazado_153263" data-name="Trazado 153263" d="M246.7,216.749a1.962,1.962,0,1,1-1.518-2.322A1.961,1.961,0,0,1,246.7,216.749Z" fill="#390028"/>
          <path id="Trazado_153264" data-name="Trazado 153264" d="M267.278,218.138a1.962,1.962,0,1,1-1.518-2.322A1.961,1.961,0,0,1,267.278,218.138Z" fill="#390028"/>
          <path id="Trazado_153265" data-name="Trazado 153265" d="M247.111,219.617a.5.5,0,0,1-.292-.094,4.609,4.609,0,0,0-4.424-.18.5.5,0,1,1-.4-.917,5.6,5.6,0,0,1,5.409.286.5.5,0,0,1-.294.9Z" fill="#852b0f"/>
          <path id="Trazado_153266" data-name="Trazado 153266" d="M267.2,221.155a.5.5,0,0,1-.334-.128,3.659,3.659,0,0,0-4.222-.161.5.5,0,0,1-.485-.875,4.632,4.632,0,0,1,5.376.293.5.5,0,0,1-.335.871Z" fill="#852b0f"/>
        </g>
      </g>
      <g id="Grupo_140599" data-name="Grupo 140599">
        <g id="Grupo_140585" data-name="Grupo 140585">
          <path id="Trazado_153267" data-name="Trazado 153267" d="M349.821,293.512c-5.267-8.807-14.3-14.649-24.6-14.732l-17.106-.13-23.912,12.438-15.589-12.765a84.911,84.911,0,0,0-10.34.495l-72.981-14.2,14.642-34.828a3.612,3.612,0,0,0-2.73-4.962l-33.1-5.576a3.843,3.843,0,0,0-4.119,2.143L139.8,264.027a27,27,0,0,0,13.483,40.535l67.62,29.791.381,1.452-7.727,21.132a32.167,32.167,0,0,0,2.864,27.979l7.015,11.1,2.742,42.205,164.926.044,3.74-88.471Z" fill="#fff"/>
          <path id="Trazado_153268" data-name="Trazado 153268" d="M230.241,301.419,213.471,331l7.812,4.8,7.394-20.22A61.953,61.953,0,0,1,230.241,301.419Z" fill="#eff7fe"/>
        </g>
        <g id="Grupo_140595" data-name="Grupo 140595">
          <g id="Grupo_140586" data-name="Grupo 140586">
            <path id="Trazado_153269" data-name="Trazado 153269" d="M166.183,219.683l-.2-4.726c-3.112-6.756-1.121-16.942,1.035-24.087h0l5.019,1.537s21.021-12.936,32.138-7.113c4.277,2.24-1.461,31.994-7.5,39.964Z" fill="#a74f30"/>
          </g>
          <path id="Trazado_153270" data-name="Trazado 153270" d="M184.294,186.765s-.106.1-.3.286c-2.538,2.481-20.046,20.386-2.761,26.184,18.588,6.236,20.236-10.353,20.236-10.353" fill="#852b0f" opacity="0.32"/>
          <g id="Grupo_140588" data-name="Grupo 140588">
            <g id="Grupo_140587" data-name="Grupo 140587">
              <path id="Trazado_153271" data-name="Trazado 153271" d="M187.832,230.8h0a8.322,8.322,0,0,1-7.443-9.117L185.98,166.4l16.56,1.675-5.591,55.283A8.321,8.321,0,0,1,187.832,230.8Z" fill="#dff5ff"/>
              <path id="Trazado_153272" data-name="Trazado 153272" d="M188.249,226.778h0c-3.752-.379-6.442-4.16-6.009-8.443l5.237-51.785,13.586,1.374-5.237,51.785C195.393,223.992,192,227.157,188.249,226.778Z" fill="#fff" opacity="0.43"/>
              <path id="Trazado_153273" data-name="Trazado 153273" d="M188.537,223.824h0a6.236,6.236,0,0,1-5.576-6.831l4.189-41.415,12.406,1.254-4.189,41.416A6.234,6.234,0,0,1,188.537,223.824Z" fill="#9f9fdd"/>
              <path id="Trazado_153274" data-name="Trazado 153274" d="M201.8,168.985l-15.159-1.533a3.329,3.329,0,0,1-2.977-3.647h0a3.33,3.33,0,0,1,3.647-2.977l15.159,1.533a3.329,3.329,0,0,1,2.977,3.647h0A3.329,3.329,0,0,1,201.8,168.985Z" fill="#c5e4ef"/>
            </g>
            <path id="Trazado_153275" data-name="Trazado 153275" d="M194.115,189.5a.758.758,0,1,1-.678-.831A.759.759,0,0,1,194.115,189.5Z" fill="#fff" opacity="0.43"/>
            <path id="Trazado_153276" data-name="Trazado 153276" d="M189.169,198.827a.758.758,0,1,1-.678-.831A.759.759,0,0,1,189.169,198.827Z" fill="#fff" opacity="0.43"/>
            <path id="Trazado_153277" data-name="Trazado 153277" d="M194.873,203.782a.759.759,0,1,1-.678-.831A.758.758,0,0,1,194.873,203.782Z" fill="#fff" opacity="0.43"/>
          </g>
          <g id="Grupo_140594" data-name="Grupo 140594">
            <g id="Grupo_140593" data-name="Grupo 140593">
              <g id="Grupo_140592" data-name="Grupo 140592">
                <rect id="Rectángulo_35915" data-name="Rectángulo 35915" width="8.971" height="16.35" rx="3.935" transform="matrix(0.753, -0.658, 0.658, 0.753, 164.061, 191.69)" fill="#852b0f" opacity="0.32"/>
                <g id="Grupo_140589" data-name="Grupo 140589">
                  <path id="Trazado_153278" data-name="Trazado 153278" d="M170.11,177.506h0a4.311,4.311,0,0,0-.409,6.066l9.59,10.978a4.311,4.311,0,0,0,6.066.409h0a4.312,4.312,0,0,0,.41-6.067l-9.59-10.977A4.312,4.312,0,0,0,170.11,177.506Z" fill="#a74f30"/>
                </g>
                <g id="Grupo_140590" data-name="Grupo 140590">
                  <path id="Trazado_153279" data-name="Trazado 153279" d="M176.586,171.848h0a4.312,4.312,0,0,0-.409,6.067l9.59,10.977a4.312,4.312,0,0,0,6.067.41h0a4.312,4.312,0,0,0,.409-6.067l-9.59-10.978A4.312,4.312,0,0,0,176.586,171.848Z" fill="#a74f30"/>
                </g>
                <g id="Grupo_140591" data-name="Grupo 140591">
                  <path id="Trazado_153280" data-name="Trazado 153280" d="M166.344,186.087h0a4.312,4.312,0,0,0-.41,6.067l5.769,6.6a4.313,4.313,0,0,0,6.067.41h0a4.313,4.313,0,0,0,.41-6.067l-5.77-6.6A4.312,4.312,0,0,0,166.344,186.087Z" fill="#a74f30"/>
                </g>
              </g>
            </g>
          </g>
          <path id="Trazado_153281" data-name="Trazado 153281" d="M205.181,194.386c-5.063-2.135-12.426-4.146-18.09-1.166,0,0-4.276,2.952.31,5.86s11.976,5.6,13.908,8.67c1.72,2.735,4.567-.967,6.777-4.8A6.032,6.032,0,0,0,205.181,194.386Z" fill="#a74f30"/>
        </g>
        <g id="Grupo_140598" data-name="Grupo 140598">
          <path id="Trazado_153282" data-name="Trazado 153282" d="M307.093,267.236h0a22.731,22.731,0,0,0-22.674,21.16,22.731,22.731,0,0,0-22.673-21.16,36.645,36.645,0,0,0-1.284,11.19h-.036l-.22,6.927,15.193,71.64a1.764,1.764,0,0,0,3.372.306l28.213-70.652a6.121,6.121,0,0,0,.428-2.168C309.829,276.148,307.093,267.236,307.093,267.236Z" fill="#ffa97c"/>
          <g id="Grupo_140597" data-name="Grupo 140597">
            <path id="Trazado_153283" data-name="Trazado 153283" d="M269.874,357.535a.5.5,0,0,1-.431-.247l-25.751-43.844a2.2,2.2,0,0,1,.824-3.036l9.019-5.051-13.458-8.189a1.839,1.839,0,0,1-.232-2.975l13.148-11.136a.5.5,0,1,1,.647.763l-13.149,11.137a.839.839,0,0,0,.106,1.358l14.921,9.078L245,311.281a1.2,1.2,0,0,0-.449,1.658l25.75,43.843a.5.5,0,0,1-.178.684A.492.492,0,0,1,269.874,357.535Z" fill="#74caf3" opacity="0.54"/>
            <path id="Trazado_153284" data-name="Trazado 153284" d="M287.334,360.2a.493.493,0,0,1-.3-.1.5.5,0,0,1-.107-.7l32.955-44.855a1.2,1.2,0,0,0-.389-1.654l-10.231-6.365,15.323-8.383a.837.837,0,0,0,.169-1.35L312.135,285.07a.5.5,0,1,1,.681-.732l12.624,11.73a1.839,1.839,0,0,1-.371,2.96l-13.821,7.561,8.777,5.461a2.2,2.2,0,0,1,.683,3.071L287.737,360A.5.5,0,0,1,287.334,360.2Z" fill="#74caf3" opacity="0.54"/>
            <g id="Grupo_140596" data-name="Grupo 140596">
              <path id="Trazado_153285" data-name="Trazado 153285" d="M338.427,369.777H306.272A1.178,1.178,0,0,1,305.1,368.6v-5.1a1.177,1.177,0,0,1,1.176-1.176h32.155A1.177,1.177,0,0,1,339.6,363.5v5.1A1.178,1.178,0,0,1,338.427,369.777Zm-32.155-6.451a.176.176,0,0,0-.176.176v5.1a.176.176,0,0,0,.176.176h32.155a.176.176,0,0,0,.176-.176v-5.1a.176.176,0,0,0-.176-.176Z" fill="#74caf3"/>
            </g>
          </g>
          <path id="Trazado_153286" data-name="Trazado 153286" d="M284.117,306.147h-.009a.5.5,0,0,1-.491-.508l.354-19.648a.5.5,0,0,1,1,.018l-.354,19.647A.5.5,0,0,1,284.117,306.147Z" fill="#fff"/>
        </g>
      </g>
    </g>
    <g id="Grupo_140609" data-name="Grupo 140609" opacity="0.52">
      <g id="Grupo_140601" data-name="Grupo 140601">
        <path id="Trazado_153287" data-name="Trazado 153287" d="M359.859,149.462a8.922,8.922,0,1,1,1.1-.068A8.925,8.925,0,0,1,359.859,149.462Zm.021-15.828a6.981,6.981,0,0,0-.864.054,6.912,6.912,0,1,0,7.71,6.01h0a6.917,6.917,0,0,0-6.846-6.064Z" fill="#fff"/>
        <rect id="Rectángulo_35916" data-name="Rectángulo 35916" width="2" height="17.338" transform="matrix(0.632, -0.775, 0.775, 0.632, 339.231, 125.956)" fill="#fff"/>
        <path id="Trazado_153288" data-name="Trazado 153288" d="M338.36,127.455a3.78,3.78,0,0,1-.462-7.531,3.778,3.778,0,0,1,4.216,3.286,3.784,3.784,0,0,1-3.286,4.216A3.894,3.894,0,0,1,338.36,127.455Zm.007-5.56a1.839,1.839,0,0,0-.222.014,1.77,1.77,0,1,0,.222-.014Z" fill="#fff"/>
        <rect id="Rectángulo_35917" data-name="Rectángulo 35917" width="2" height="13.1" transform="matrix(0.489, -0.872, 0.872, 0.489, 366.041, 145.99)" fill="#fff"/>
        <path id="Trazado_153289" data-name="Trazado 153289" d="M379.3,155.107a2.949,2.949,0,0,1-.632-5.829h0a2.948,2.948,0,0,1,3.518,2.242,2.954,2.954,0,0,1-2.243,3.516A2.988,2.988,0,0,1,379.3,155.107Zm.009-3.9a.958.958,0,0,0-.207.022h0a.956.956,0,1,0,.208-.022Z" fill="#fff"/>
        <rect id="Rectángulo_35918" data-name="Rectángulo 35918" width="10.581" height="1.999" transform="translate(346.09 152.827) rotate(-42.387)" fill="#fff"/>
        <path id="Trazado_153290" data-name="Trazado 153290" d="M345.638,157.9a3.275,3.275,0,0,1-.328-.017,3.133,3.133,0,1,1,.328.017Zm-.009-4.293a1.144,1.144,0,0,0-1.137,1.029,1.145,1.145,0,0,0,1.862,1.006,1.136,1.136,0,0,0,.418-.771h0a1.148,1.148,0,0,0-1.023-1.258A1.2,1.2,0,0,0,345.629,153.607Z" fill="#fff"/>
        <rect id="Rectángulo_35919" data-name="Rectángulo 35919" width="14.06" height="1.999" transform="translate(362.017 132.925) rotate(-69.857)" fill="#fff"/>
        <path id="Trazado_153291" data-name="Trazado 153291" d="M368.423,121.639a2.77,2.77,0,1,1,1.156-.255A2.755,2.755,0,0,1,368.423,121.639Zm0-3.537a.753.753,0,0,0-.319.07.768.768,0,0,0,.054,1.418.774.774,0,0,0,.588-.023h0a.768.768,0,0,0-.323-1.465Z" fill="#fff"/>
        <rect id="Rectángulo_35920" data-name="Rectángulo 35920" width="14.06" height="2" transform="matrix(0.884, -0.467, 0.467, 0.884, 367.094, 136.971)" fill="#fff"/>
        <path id="Trazado_153292" data-name="Trazado 153292" d="M381.263,133.586a2.782,2.782,0,0,1-.825-.126h0a2.767,2.767,0,0,1-.464-5.093,2.739,2.739,0,0,1,2.11-.192,2.769,2.769,0,0,1-.821,5.412Zm-.232-2.036a.768.768,0,0,0,.458-1.467.769.769,0,0,0-.962.505A.77.77,0,0,0,381.031,131.55Z" fill="#fff"/>
      </g>
      <g id="Grupo_140602" data-name="Grupo 140602">
        <path id="Trazado_153293" data-name="Trazado 153293" d="M102.9,266.639a8.914,8.914,0,1,1,8.864-10.01h0a8.931,8.931,0,0,1-8.864,10.01Zm.024-15.828a7.058,7.058,0,0,0-.855.053,6.913,6.913,0,1,0,7.711,6.011h0A6.925,6.925,0,0,0,102.929,250.811Z" fill="#fff"/>
        <rect id="Rectángulo_35921" data-name="Rectángulo 35921" width="2" height="17.339" transform="matrix(0.632, -0.775, 0.775, 0.632, 82.289, 243.133)" fill="#fff"/>
        <path id="Trazado_153294" data-name="Trazado 153294" d="M81.419,244.631a3.779,3.779,0,0,1-.462-7.53,3.778,3.778,0,0,1,4.216,3.285h0a3.782,3.782,0,0,1-3.754,4.245Zm.007-5.56a1.854,1.854,0,0,0-.223.014,1.781,1.781,0,1,0,1.985,1.548h0a1.78,1.78,0,0,0-1.762-1.561Z" fill="#fff"/>
        <rect id="Rectángulo_35922" data-name="Rectángulo 35922" width="1.999" height="13.1" transform="translate(109.099 263.166) rotate(-60.742)" fill="#fff"/>
        <path id="Trazado_153295" data-name="Trazado 153295" d="M122.357,272.283a2.95,2.95,0,0,1-.631-5.83h0a2.95,2.95,0,0,1,1.273,5.76A2.993,2.993,0,0,1,122.357,272.283Zm-.2-3.877a.949.949,0,1,0,1,1.438.949.949,0,0,0-1-1.438Z" fill="#fff"/>
        <rect id="Rectángulo_35923" data-name="Rectángulo 35923" width="10.581" height="1.999" transform="matrix(0.739, -0.674, 0.674, 0.739, 89.149, 270.004)" fill="#fff"/>
        <path id="Trazado_153296" data-name="Trazado 153296" d="M88.692,275.076c-.107,0-.215-.006-.324-.016a3.152,3.152,0,1,1,.324.016Zm0-4.293a1.146,1.146,0,0,0-.116,2.286,1.146,1.146,0,1,0,.235-2.279A.949.949,0,0,0,88.689,270.783Z" fill="#fff"/>
        <rect id="Rectángulo_35924" data-name="Rectángulo 35924" width="14.061" height="1.999" transform="translate(105.075 250.101) rotate(-69.856)" fill="#fff"/>
        <path id="Trazado_153297" data-name="Trazado 153297" d="M111.484,238.814a2.767,2.767,0,1,1,1.155-.254h0A2.755,2.755,0,0,1,111.484,238.814Zm-.005-3.537a.769.769,0,1,0,.7.448.763.763,0,0,0-.432-.4A.75.75,0,0,0,111.479,235.277Z" fill="#fff"/>
        <rect id="Rectángulo_35925" data-name="Rectángulo 35925" width="14.06" height="1.999" transform="translate(110.153 254.149) rotate(-27.842)" fill="#fff"/>
        <path id="Trazado_153298" data-name="Trazado 153298" d="M124.317,250.761a2.767,2.767,0,1,1,2.646-1.946A2.761,2.761,0,0,1,124.317,250.761Zm0-3.536a.768.768,0,0,0-.734.54.769.769,0,0,0,.505.961h0a.768.768,0,1,0,.456-1.467A.757.757,0,0,0,124.32,247.225Z" fill="#fff"/>
      </g>
      <g id="Grupo_140603" data-name="Grupo 140603">
        <path id="Trazado_153299" data-name="Trazado 153299" d="M654.608,202.178a8.922,8.922,0,1,1,1.1-.068A8.924,8.924,0,0,1,654.608,202.178Zm.021-15.827a6.914,6.914,0,1,0,.836,13.775,6.915,6.915,0,0,0,6.011-7.711h0a6.917,6.917,0,0,0-6.847-6.064Z" fill="#fff"/>
        <rect id="Rectángulo_35926" data-name="Rectángulo 35926" width="2" height="17.338" transform="matrix(0.632, -0.775, 0.775, 0.632, 633.981, 178.673)" fill="#fff"/>
        <path id="Trazado_153300" data-name="Trazado 153300" d="M633.1,180.172a3.8,3.8,0,1,1,.473-.03A3.758,3.758,0,0,1,633.1,180.172Zm.012-5.561a1.837,1.837,0,0,0-.222.014,1.784,1.784,0,0,0-1.548,1.986,1.78,1.78,0,0,0,3.533-.439h0a1.782,1.782,0,0,0-1.763-1.561Z" fill="#fff"/>
        <rect id="Rectángulo_35927" data-name="Rectángulo 35927" width="2" height="13.1" transform="matrix(0.489, -0.872, 0.872, 0.489, 660.791, 198.706)" fill="#fff"/>
        <path id="Trazado_153301" data-name="Trazado 153301" d="M674.055,207.823a2.949,2.949,0,0,1-.637-5.829h0a2.949,2.949,0,1,1,.637,5.829Zm0-3.9a.966.966,0,0,0-.207.023h0a.949.949,0,1,0,1,1.437.952.952,0,0,0-.289-1.311A.948.948,0,0,0,674.057,203.924Z" fill="#fff"/>
        <rect id="Rectángulo_35928" data-name="Rectángulo 35928" width="10.581" height="1.999" transform="translate(640.84 205.544) rotate(-42.387)" fill="#fff"/>
        <path id="Trazado_153302" data-name="Trazado 153302" d="M640.384,210.616a3.211,3.211,0,0,1-.324-.017,3.146,3.146,0,1,1,3.452-2.807h0A3.151,3.151,0,0,1,640.384,210.616Zm0-4.292a1.146,1.146,0,1,0,.117.006A1.162,1.162,0,0,0,640.382,206.324Z" fill="#fff"/>
        <rect id="Rectángulo_35929" data-name="Rectángulo 35929" width="14.061" height="1.999" transform="translate(656.766 185.641) rotate(-69.857)" fill="#fff"/>
        <path id="Trazado_153303" data-name="Trazado 153303" d="M663.175,174.354a2.77,2.77,0,1,1,1.154-.254h0A2.745,2.745,0,0,1,663.175,174.354Zm-.005-3.536a.768.768,0,1,0,.321,1.466h0a.768.768,0,0,0-.322-1.465Z" fill="#fff"/>
        <rect id="Rectángulo_35930" data-name="Rectángulo 35930" width="14.06" height="2" transform="matrix(0.884, -0.467, 0.467, 0.884, 661.844, 189.687)" fill="#fff"/>
        <path id="Trazado_153304" data-name="Trazado 153304" d="M676.014,186.3a2.752,2.752,0,0,1-.826-.127h0a2.743,2.743,0,1,1,.826.127Zm-.005-3.538a.769.769,0,0,0-.228,1.5h0a.769.769,0,0,0,.961-.505.768.768,0,0,0-.505-.962A.749.749,0,0,0,676.009,182.765Z" fill="#fff"/>
      </g>
      <g id="Grupo_140604" data-name="Grupo 140604">
        <path id="Trazado_153305" data-name="Trazado 153305" d="M375.459,238.441a5,5,0,0,1-.544-.03,4.82,4.82,0,1,1,.544.03Zm-.01-7.631a2.815,2.815,0,1,0,2.8,3.131h0a2.812,2.812,0,0,0-1.417-2.771,2.783,2.783,0,0,0-1.064-.342A2.69,2.69,0,0,0,375.449,230.81Z" fill="#fff"/>
        <path id="Trazado_153306" data-name="Trazado 153306" d="M394.522,207.573a4.751,4.751,0,0,1-.544-.031,4.815,4.815,0,1,1,1.081-9.57,4.761,4.761,0,0,1,1.821.587A4.809,4.809,0,0,1,399.3,203.3h0A4.826,4.826,0,0,1,394.522,207.573Zm-.01-7.632a2.816,2.816,0,1,0,2.8,3.131h0a2.81,2.81,0,0,0-2.481-3.113A2.9,2.9,0,0,0,394.512,199.941Z" fill="#fff"/>
        <path id="Trazado_153307" data-name="Trazado 153307" d="M406.2,240.941a5,5,0,0,1-.544-.03,4.82,4.82,0,1,1,.544.03Zm-.005-7.631a2.815,2.815,0,1,0,2.8,3.131h0a2.81,2.81,0,0,0-2.481-3.113A2.631,2.631,0,0,0,406.2,233.31Z" fill="#fff"/>
        <path id="Trazado_153308" data-name="Trazado 153308" d="M427.479,191.719a5.068,5.068,0,0,1-.549-.031,4.816,4.816,0,0,1-2.461-8.552,4.816,4.816,0,0,1,7.787,4.306h0a4.819,4.819,0,0,1-4.777,4.277Zm-.015-7.633a2.816,2.816,0,1,0,2.8,3.132h0a2.811,2.811,0,0,0-2.482-3.113A2.675,2.675,0,0,0,427.464,184.086Z" fill="#fff"/>
        <path id="Trazado_153309" data-name="Trazado 153309" d="M405.991,232.077a1.84,1.84,0,0,1-1.678-1.064l-10.636-22.464L378.3,231.779l-1.668-1.1,15.516-23.441a1.834,1.834,0,0,1,1.682-.827,1.857,1.857,0,0,1,1.546,1.057l10.615,22.421,18.964-40.477,1.811.848-19.092,40.751a1.842,1.842,0,0,1-1.681,1.07Z" fill="#fff"/>
      </g>
      <g id="Grupo_140606" data-name="Grupo 140606">
        <g id="Grupo_140605" data-name="Grupo 140605">
          <path id="Trazado_153310" data-name="Trazado 153310" d="M596.6,185.529a6.894,6.894,0,0,1-2.2-.391c-5.774-1.944-13.582-11.338-19.426-23.375-6.758-13.919-10.012-30.21-3.761-33.38a5.5,5.5,0,0,1,4.353-.109c5.776,1.944,13.582,11.338,19.427,23.375,6.758,13.918,10.013,30.209,3.762,33.38A4.713,4.713,0,0,1,596.6,185.529Zm-23.219-55.644a2.765,2.765,0,0,0-1.261.282c-3.894,1.975-2.94,15.078,4.655,30.722,5.538,11.4,13.05,20.6,18.267,22.354a3.6,3.6,0,0,0,2.811,0c3.894-1.975,2.94-15.078-4.656-30.722-5.538-11.4-13.049-20.6-18.265-22.354A4.914,4.914,0,0,0,573.383,129.885Z" fill="#fff"/>
          <path id="Trazado_153311" data-name="Trazado 153311" d="M566.992,174a15.616,15.616,0,0,1-4.934-.692,6.178,6.178,0,0,1-3.818-3.058c-2.873-5.917,6.616-16.505,21.6-24.105,11.156-5.658,22.178-8.029,28.077-6.044a6.172,6.172,0,0,1,3.817,3.059c2.873,5.918-6.616,16.506-21.6,24.105h0C581.6,171.6,573.137,174,566.992,174ZM603,141.407c-5.781,0-14.056,2.366-22.254,6.523-14.938,7.575-22.768,17.206-20.708,21.447a4.276,4.276,0,0,0,2.657,2.037c5.33,1.794,16-.589,26.534-5.933h0c14.938-7.574,22.767-17.2,20.709-21.447A4.277,4.277,0,0,0,607.282,142,13.616,13.616,0,0,0,603,141.407Z" fill="#fff"/>
          <path id="Trazado_153312" data-name="Trazado 153312" d="M602.359,172.024c-5.771,0-13.155-1.467-20.837-4.276-16.03-5.862-27.093-15.29-25.184-21.465a5.763,5.763,0,0,1,3.184-3.42c5.484-2.719,16.841-1.62,28.933,2.8,16.03,5.862,27.093,15.291,25.185,21.465a5.766,5.766,0,0,1-3.183,3.419A18.684,18.684,0,0,1,602.359,172.024Zm-34.794-28.64a16.626,16.626,0,0,0-7.156,1.271,3.869,3.869,0,0,0-2.161,2.219c-1.372,4.44,7.929,13.133,23.962,19,11.421,4.176,22.415,5.336,27.358,2.886a3.859,3.859,0,0,0,2.161-2.218c1.373-4.44-7.928-13.133-23.961-19C580.336,144.825,573.085,143.384,567.565,143.384Z" fill="#fff"/>
        </g>
        <path id="Trazado_153313" data-name="Trazado 153313" d="M585.3,160.92a4.769,4.769,0,1,1,4.707-5.548h0a4.774,4.774,0,0,1-3.926,5.484A4.829,4.829,0,0,1,585.3,160.92Zm0-7.538a2.769,2.769,0,1,0,2.73,2.317h0A2.773,2.773,0,0,0,585.307,153.382Z" fill="#fff"/>
      </g>
      <g id="Grupo_140608" data-name="Grupo 140608">
        <g id="Grupo_140607" data-name="Grupo 140607">
          <path id="Trazado_153314" data-name="Trazado 153314" d="M255.051,142.495a8.3,8.3,0,0,1-2.64-.471c-7.09-2.386-16.693-13.96-23.9-28.8-9.482-19.527-11.573-37.53-4.76-40.985a6.579,6.579,0,0,1,5.2-.122c7.089,2.386,16.693,13.961,23.9,28.8h0c9.483,19.528,11.573,37.531,4.76,40.985A5.6,5.6,0,0,1,255.051,142.495ZM226.323,73.648a3.63,3.63,0,0,0-1.666.375c-5.02,2.545-3.946,18.554,5.654,38.327,6.878,14.164,16.227,25.587,22.738,27.779a4.677,4.677,0,0,0,3.662-.011c5.02-2.545,3.946-18.554-5.654-38.327-6.878-14.164-16.229-25.588-22.74-27.779A6.271,6.271,0,0,0,226.323,73.648Z" fill="#fff"/>
          <path id="Trazado_153315" data-name="Trazado 153315" d="M218.427,128.235a19.126,19.126,0,0,1-6.04-.847,7.407,7.407,0,0,1-4.585-3.662c-3.5-7.2,8.195-20.166,26.622-29.51,13.75-6.972,27.316-9.9,34.556-7.464a7.413,7.413,0,0,1,4.586,3.663c3.5,7.2-8.2,20.165-26.622,29.509h0C236.41,125.266,225.984,128.235,218.427,128.235Zm44.555-40.328c-7.2,0-17.48,2.934-27.654,8.094C216.721,105.436,207,117.5,209.6,122.852a5.508,5.508,0,0,0,3.423,2.641c6.656,2.239,19.922-.713,33.016-7.353h0c18.607-9.435,28.324-21.5,25.728-26.852a5.514,5.514,0,0,0-3.425-2.64A17,17,0,0,0,262.982,87.907Z" fill="#fff"/>
          <path id="Trazado_153316" data-name="Trazado 153316" d="M262.175,125.791c-7.107,0-16.215-1.814-25.7-5.281-19.716-7.21-33.34-18.747-31.016-26.266a6.9,6.9,0,0,1,3.817-4.088c6.734-3.337,20.711-1.975,35.614,3.475,19.715,7.209,33.339,18.746,31.015,26.265a6.9,6.9,0,0,1-3.818,4.089A22.869,22.869,0,0,1,262.175,125.791ZM219.124,90.355a20.8,20.8,0,0,0-8.958,1.593,5.005,5.005,0,0,0-2.795,2.887c-1.73,5.6,9.828,16.5,29.793,23.8,14.189,5.187,27.867,6.62,34.037,3.561a5.01,5.01,0,0,0,2.8-2.887c1.73-5.6-9.828-16.5-29.793-23.8C234.99,92.14,225.991,90.355,219.124,90.355Z" fill="#fff"/>
        </g>
        <path id="Trazado_153317" data-name="Trazado 153317" d="M241.063,112.049a5.691,5.691,0,1,1,.937-.078A5.705,5.705,0,0,1,241.063,112.049Zm.02-9.329a3.665,3.665,0,1,0,2.125.685A3.661,3.661,0,0,0,241.083,102.72Z" fill="#fff"/>
      </g>
      <path id="Trazado_153318" data-name="Trazado 153318" d="M46.766,186.529a2.942,2.942,0,1,1-2.943-2.942A2.943,2.943,0,0,1,46.766,186.529Z" fill="#9f9fdd"/>
      <path id="Trazado_153319" data-name="Trazado 153319" d="M288.307,137.13a2.943,2.943,0,1,1-2.942-2.942A2.942,2.942,0,0,1,288.307,137.13Z" fill="#9f9fdd"/>
      <path id="Trazado_153320" data-name="Trazado 153320" d="M553.235,197.118a2.942,2.942,0,1,1-2.942-2.942A2.942,2.942,0,0,1,553.235,197.118Z" fill="#9f9fdd"/>
      <path id="Trazado_153321" data-name="Trazado 153321" d="M166.727,92.412a2.942,2.942,0,1,1-2.942-2.943A2.942,2.942,0,0,1,166.727,92.412Z" fill="#9f9fdd"/>
      <path id="Trazado_153322" data-name="Trazado 153322" d="M592.177,61.707a2.942,2.942,0,1,1-2.942-2.942A2.942,2.942,0,0,1,592.177,61.707Z" fill="#9f9fdd"/>
      <circle id="Elipse_4787" data-name="Elipse 4787" cx="1.471" cy="1.471" r="1.471" transform="translate(139.823 188.352)" fill="#9f9fdd"/>
      <path id="Trazado_153323" data-name="Trazado 153323" d="M470.293,97.623a2.943,2.943,0,1,1-2.942-2.942A2.942,2.942,0,0,1,470.293,97.623Z" fill="#9f9fdd"/>
      <path id="Trazado_153324" data-name="Trazado 153324" d="M62.489,293.165a2.942,2.942,0,1,1-2.942-2.943A2.943,2.943,0,0,1,62.489,293.165Z" fill="#9f9fdd"/>
      <path id="Trazado_153325" data-name="Trazado 153325" d="M705.119,292.412a2.943,2.943,0,1,1-2.943-2.942A2.943,2.943,0,0,1,705.119,292.412Z" fill="#9f9fdd"/>
      <path id="Trazado_153326" data-name="Trazado 153326" d="M637.707,141.706a2.942,2.942,0,1,1-2.942-2.942A2.942,2.942,0,0,1,637.707,141.706Z" fill="#9f9fdd"/>
      <path id="Trazado_153327" data-name="Trazado 153327" d="M634.765,308.588a1.471,1.471,0,1,1-1.471-1.471A1.472,1.472,0,0,1,634.765,308.588Z" fill="#9f9fdd"/>
      <circle id="Elipse_4788" data-name="Elipse 4788" cx="1.471" cy="1.471" r="1.471" transform="translate(398.588 164.294)" fill="#9f9fdd"/>
      <circle id="Elipse_4789" data-name="Elipse 4789" cx="1.471" cy="1.471" r="1.471" transform="translate(42.889 394.873)" fill="#9f9fdd"/>
      <circle id="Elipse_4790" data-name="Elipse 4790" cx="1.471" cy="1.471" r="1.471" transform="translate(254.895 91.155)" fill="#fff" opacity="0.47"/>
      <path id="Trazado_153328" data-name="Trazado 153328" d="M312.677,86.492a2.942,2.942,0,1,1-2.942-2.942A2.942,2.942,0,0,1,312.677,86.492Z" fill="#fff"/>
      <path id="Trazado_153329" data-name="Trazado 153329" d="M664.286,97.982a2.276,2.276,0,1,1-2.276-2.276A2.275,2.275,0,0,1,664.286,97.982Z" fill="#fff"/>
      <path id="Trazado_153330" data-name="Trazado 153330" d="M431.971,139.433a2.942,2.942,0,1,1-2.942-2.942A2.942,2.942,0,0,1,431.971,139.433Z" fill="#fff"/>
      <path id="Trazado_153331" data-name="Trazado 153331" d="M586.059,226.182a1.81,1.81,0,1,1-1.81-1.809A1.81,1.81,0,0,1,586.059,226.182Z" fill="#fff"/>
      <circle id="Elipse_4791" data-name="Elipse 4791" cx="1.809" cy="1.809" r="1.809" transform="translate(608.911 305.549)" fill="#fff"/>
      <path id="Trazado_153332" data-name="Trazado 153332" d="M174.029,331.7a2.943,2.943,0,1,1-2.942-2.942A2.943,2.943,0,0,1,174.029,331.7Z" fill="#fff"/>
      <path id="Trazado_153333" data-name="Trazado 153333" d="M364.765,282.529a2.943,2.943,0,1,1-2.942-2.942A2.943,2.943,0,0,1,364.765,282.529Z" fill="#fff"/>
      <path id="Trazado_153334" data-name="Trazado 153334" d="M52.821,78.175a2.942,2.942,0,1,1-2.942-2.942A2.942,2.942,0,0,1,52.821,78.175Z" fill="#fff"/>
      <circle id="Elipse_4792" data-name="Elipse 4792" cx="2.511" cy="2.511" r="2.511" transform="translate(189.547 137.312)" fill="#fff"/>
    </g>
    <g id="Grupo_140618" data-name="Grupo 140618">
      <g id="Grupo_140616" data-name="Grupo 140616">
        <g id="Grupo_140611" data-name="Grupo 140611">
          <g id="Grupo_140610" data-name="Grupo 140610">
            <path id="Trazado_153335" data-name="Trazado 153335" d="M200.612,421.765h0a8.537,8.537,0,0,0,8.66-8.409V357.214H191.951v56.142A8.538,8.538,0,0,0,200.612,421.765Z" fill="#dff5ff"/>
            <path id="Trazado_153336" data-name="Trazado 153336" d="M200.6,417.681h0c3.924,0,7.1-3.527,7.1-7.877v-52.59H193.5V409.8C193.5,414.154,196.677,417.681,200.6,417.681Z" fill="#fff" opacity="0.43"/>
            <path id="Trazado_153337" data-name="Trazado 153337" d="M200.612,414.682h0a6.4,6.4,0,0,0,6.488-6.3v-42.06H194.124v42.06A6.4,6.4,0,0,0,200.612,414.682Z" fill="#74caf3"/>
            <path id="Trazado_153338" data-name="Trazado 153338" d="M192.617,358.235h15.856a3.464,3.464,0,0,0,3.464-3.464h0a3.464,3.464,0,0,0-3.464-3.464H192.617a3.464,3.464,0,0,0-3.464,3.464h0A3.464,3.464,0,0,0,192.617,358.235Z" fill="#c5e4ef"/>
          </g>
          <path id="Trazado_153339" data-name="Trazado 153339" d="M198.43,380.284a.79.79,0,1,0,.789-.789A.79.79,0,0,0,198.43,380.284Z" fill="#fff" opacity="0.43"/>
          <path id="Trazado_153340" data-name="Trazado 153340" d="M202.575,390.456a.79.79,0,1,0,.789-.79A.789.789,0,0,0,202.575,390.456Z" fill="#fff" opacity="0.43"/>
          <circle id="Elipse_4793" data-name="Elipse 4793" cx="0.789" cy="0.789" r="0.789" transform="translate(196.15 394.199)" fill="#fff" opacity="0.43"/>
        </g>
        <g id="Grupo_140613" data-name="Grupo 140613">
          <g id="Grupo_140612" data-name="Grupo 140612">
            <path id="Trazado_153341" data-name="Trazado 153341" d="M164.676,426h0a8.815,8.815,0,0,0,8.661-8.96V357.214H156.016V417.04A8.814,8.814,0,0,0,164.676,426Z" fill="#dff5ff"/>
            <path id="Trazado_153342" data-name="Trazado 153342" d="M164.665,421.648h0c3.924,0,7.106-3.758,7.106-8.393V357.214H157.56v56.041C157.56,417.89,160.741,421.648,164.665,421.648Z" fill="#fff" opacity="0.43"/>
            <path id="Trazado_153343" data-name="Trazado 153343" d="M164.676,418.452h0a6.6,6.6,0,0,0,6.488-6.713V366.92H158.188v44.819A6.6,6.6,0,0,0,164.676,418.452Z" fill="#aeade7"/>
            <path id="Trazado_153344" data-name="Trazado 153344" d="M156.682,358.235h15.855A3.464,3.464,0,0,0,176,354.771h0a3.464,3.464,0,0,0-3.464-3.464H156.682a3.464,3.464,0,0,0-3.464,3.464h0A3.464,3.464,0,0,0,156.682,358.235Z" fill="#c5e4ef"/>
          </g>
          <path id="Trazado_153345" data-name="Trazado 153345" d="M162.494,380.284a.789.789,0,1,0,.79-.789A.79.79,0,0,0,162.494,380.284Z" fill="#fff" opacity="0.43"/>
          <path id="Trazado_153346" data-name="Trazado 153346" d="M166.639,390.456a.789.789,0,1,0,.789-.79A.789.789,0,0,0,166.639,390.456Z" fill="#fff" opacity="0.43"/>
          <path id="Trazado_153347" data-name="Trazado 153347" d="M160.214,394.989a.789.789,0,1,0,.79-.79A.79.79,0,0,0,160.214,394.989Z" fill="#fff" opacity="0.43"/>
        </g>
        <g id="Grupo_140615" data-name="Grupo 140615">
          <g id="Grupo_140614" data-name="Grupo 140614">
            <path id="Trazado_153348" data-name="Trazado 153348" d="M127.45,430.051h0c4.783,0,8.66-4.281,8.66-9.562V356.647H118.79v63.842C118.79,425.77,122.667,430.051,127.45,430.051Z" fill="#dff5ff"/>
            <path id="Trazado_153349" data-name="Trazado 153349" d="M127.439,425.407h0c3.924,0,7.106-4.01,7.106-8.957v-59.8H120.334v59.8C120.334,421.4,123.515,425.407,127.439,425.407Z" fill="#fff" opacity="0.43"/>
            <path id="Trazado_153350" data-name="Trazado 153350" d="M127.45,422h0c3.583,0,6.488-3.207,6.488-7.163V367.005H120.962v47.828C120.962,418.789,123.867,422,127.45,422Z" fill="#ffa97c"/>
            <path id="Trazado_153351" data-name="Trazado 153351" d="M119.456,358.235h15.855a3.464,3.464,0,0,0,3.464-3.464h0a3.464,3.464,0,0,0-3.464-3.464H119.456a3.464,3.464,0,0,0-3.464,3.464h0A3.464,3.464,0,0,0,119.456,358.235Z" fill="#c5e4ef"/>
          </g>
          <path id="Trazado_153352" data-name="Trazado 153352" d="M125.268,380.284a.79.79,0,1,0,.79-.789A.79.79,0,0,0,125.268,380.284Z" fill="#fff" opacity="0.43"/>
          <path id="Trazado_153353" data-name="Trazado 153353" d="M129.413,390.456a.79.79,0,1,0,.789-.79A.789.789,0,0,0,129.413,390.456Z" fill="#fff" opacity="0.43"/>
          <path id="Trazado_153354" data-name="Trazado 153354" d="M122.988,394.989a.79.79,0,1,0,.79-.79A.79.79,0,0,0,122.988,394.989Z" fill="#fff" opacity="0.43"/>
        </g>
        <rect id="Rectángulo_35931" data-name="Rectángulo 35931" width="5.052" height="59.925" transform="translate(225.097 433.588) rotate(180)" fill="#a7b0be"/>
        <rect id="Rectángulo_35932" data-name="Rectángulo 35932" width="5.052" height="59.925" transform="translate(105.964 433.588) rotate(180)" fill="#a7b0be"/>
        <rect id="Rectángulo_35933" data-name="Rectángulo 35933" width="132.524" height="8.068" rx="3.341" transform="translate(229.936 379) rotate(180)" fill="#525f72"/>
        <path id="Trazado_153355" data-name="Trazado 153355" d="M99.727,398.529H225.773a1.521,1.521,0,0,0,1.521-1.521h0a1.521,1.521,0,0,0-1.521-1.521H99.727a1.521,1.521,0,0,0-1.521,1.521h0A1.521,1.521,0,0,0,99.727,398.529Z" fill="#3a4451"/>
        <path id="Trazado_153356" data-name="Trazado 153356" d="M108.015,438.529h-9.53a2.7,2.7,0,0,1-2.691-2.691h0a2.7,2.7,0,0,1,2.691-2.691h9.53a2.7,2.7,0,0,1,2.691,2.691h0A2.7,2.7,0,0,1,108.015,438.529Z" fill="#525f72"/>
        <path id="Trazado_153357" data-name="Trazado 153357" d="M227.779,438.529H218.25a2.7,2.7,0,0,1-2.691-2.691h0a2.7,2.7,0,0,1,2.691-2.691h9.529a2.7,2.7,0,0,1,2.692,2.691h0A2.7,2.7,0,0,1,227.779,438.529Z" fill="#525f72"/>
      </g>
      <g id="Grupo_140617" data-name="Grupo 140617">
        <path id="Trazado_153358" data-name="Trazado 153358" d="M306.3,427.161,285.77,391.995l-.118-25.235-18.55.087.114,24.241-20.762,36.354a7.794,7.794,0,0,0,6.8,11.659l46.342-.218A7.794,7.794,0,0,0,306.3,427.161Z" fill="#dff5ff"/>
        <path id="Trazado_153359" data-name="Trazado 153359" d="M302.809,425.7l-19.98-33.484-.115-24.565-12.476.058.114,24.216-19.87,34.021a6.666,6.666,0,0,0,5.949,9.969l40.523-.19A6.666,6.666,0,0,0,302.809,425.7Z" fill="#fff" opacity="0.43"/>
        <path id="Trazado_153360" data-name="Trazado 153360" d="M282.442,408.159a5.132,5.132,0,0,1,6.249,2.039l2.272,3.639,4.764,8.342a6.773,6.773,0,0,1-5.913,10.132l-26.99-.127A6.773,6.773,0,0,1,257.006,422l5.759-9.938c2.309-3.956,7.836-4.454,12.117-2.824C276.985,410.036,279.615,409.275,282.442,408.159Z" fill="#aeade7"/>
        <path id="Trazado_153361" data-name="Trazado 153361" d="M278.824,408.118a1.765,1.765,0,1,1-1.765-1.765A1.765,1.765,0,0,1,278.824,408.118Z" fill="#aeade7"/>
        <path id="Trazado_153362" data-name="Trazado 153362" d="M272.706,404.676a1.324,1.324,0,1,1-1.324-1.323A1.324,1.324,0,0,1,272.706,404.676Z" fill="#aeade7"/>
        <circle id="Elipse_4794" data-name="Elipse 4794" cx="1.324" cy="1.324" r="1.324" transform="translate(277.177 399.941)" fill="#aeade7"/>
        <path id="Trazado_153363" data-name="Trazado 153363" d="M284.388,367.644l-15.8.075a3.245,3.245,0,0,1-3.467-2.967h0a3.244,3.244,0,0,1,3.439-3l15.8-.074a3.244,3.244,0,0,1,3.467,2.967h0A3.244,3.244,0,0,1,284.388,367.644Z" fill="#c5e4ef"/>
        <circle id="Elipse_4795" data-name="Elipse 4795" cx="1.985" cy="1.985" r="1.985" transform="translate(267.088 416.912)" fill="#fff" opacity="0.43"/>
        <path id="Trazado_153364" data-name="Trazado 153364" d="M282.882,414.485a1.1,1.1,0,1,1-1.1-1.1A1.1,1.1,0,0,1,282.882,414.485Z" fill="#fff" opacity="0.43"/>
        <path id="Trazado_153365" data-name="Trazado 153365" d="M282.794,423.309a1.1,1.1,0,1,1-1.1-1.1A1.1,1.1,0,0,1,282.794,423.309Z" fill="#fff" opacity="0.43"/>
      </g>
    </g>
    <g id="Grupo_140645" data-name="Grupo 140645">
      <path id="Trazado_153366" data-name="Trazado 153366" d="M373.5,323.088l-27.029,81.737a25.378,25.378,0,0,0,24.312,33.734l36.335-.5L381.794,330.794Z" fill="#eff7fe"/>
      <g id="Grupo_140642" data-name="Grupo 140642">
        <g id="Grupo_140629" data-name="Grupo 140629">
          <path id="Trazado_153367" data-name="Trazado 153367" d="M541.351,137.731a17.385,17.385,0,0,0-21.385-11.812,11.049,11.049,0,0,0-13.234-5.533,11.178,11.178,0,0,0-6.45,5.548c-.877-.094-1.757-.158-2.639-.177L472.27,125.2c-15.858-.346-29,11.811-29.361,27.153l-.281,12.054a9.9,9.9,0,0,0-4.209,7.923,9.737,9.737,0,0,0,9.37,10.07,9.484,9.484,0,0,0,7.882-3.944l1.664.036c.334.007.663.035.99.07,8.263-6.422,14.13-19.963,14.13-19.963,1.079,4.137,6.821,6.446,14.321,7.641a12.344,12.344,0,0,0,15.625,1.729c.3-.193.575-.4.848-.613.614,0,1.222-.008,1.833-.012a15.546,15.546,0,0,0,30.4-4.723,16.432,16.432,0,0,0-.627-4.873A18.19,18.19,0,0,0,541.351,137.731Z" fill="#390028"/>
          <g id="Grupo_140628" data-name="Grupo 140628">
            <g id="Grupo_140627" data-name="Grupo 140627">
              <g id="Grupo_140619" data-name="Grupo 140619">
                <path id="Trazado_153368" data-name="Trazado 153368" d="M471.176,153.176s-.119,12.614-8.114,19.036c-.316-.035-.634-.063-.958-.07l-5.307-.12-3.6-.081-4.658-.1c-.33-.007-.655.006-.977.027a10.95,10.95,0,0,0-10.219,10.675l-.075,3.313a10.952,10.952,0,0,0,10.7,11.2l4.579.1-1.39,61.619a19.214,19.214,0,0,0,18.777,19.644l11.177.252a19.216,19.216,0,0,0,19.645-18.777l.379-16.805a31.751,31.751,0,0,0,22.079-29.517l.086-3.839h0l.735-32.567.382-16.922C509.051,161.544,473.74,163.335,471.176,153.176Z" fill="#fdbea6"/>
              </g>
              <g id="Grupo_140626" data-name="Grupo 140626">
                <path id="Trazado_153369" data-name="Trazado 153369" d="M494.988,193.576a2.061,2.061,0,1,1-1.98-2.138A2.061,2.061,0,0,1,494.988,193.576Z" fill="#1c191a"/>
                <path id="Trazado_153370" data-name="Trazado 153370" d="M519.747,196.525a2.061,2.061,0,1,1-1.98-2.138A2.062,2.062,0,0,1,519.747,196.525Z" fill="#1c191a"/>
                <path id="Trazado_153371" data-name="Trazado 153371" d="M500.787,226.72a.5.5,0,0,1-.355-.851c.029-.03,3.046-3.027,6.767-1.221a.5.5,0,1,1-.437.9c-3.081-1.492-5.594,1-5.619,1.023A.5.5,0,0,1,500.787,226.72Z" fill="#ff8e77"/>
                <g id="Grupo_140624" data-name="Grupo 140624">
                  <g id="Grupo_140623" data-name="Grupo 140623">
                    <g id="Grupo_140622" data-name="Grupo 140622">
                      <g id="Grupo_140621" data-name="Grupo 140621">
                        <g id="Grupo_140620" data-name="Grupo 140620">
                          <path id="Trazado_153372" data-name="Trazado 153372" d="M498.552,177.826a8.844,8.844,0,0,1-3.514,1.071c-1.291.213-2.582.459-3.7.712s-2.389.588-3.645.952a8.793,8.793,0,0,1-3.626.548c-1.049-.188-1.7-1.26-.892-2.944.751-1.63,3.194-3.772,6.886-4.619,3.692-.827,6.774.062,8.113,1.219C499.591,175.945,499.43,177.2,498.552,177.826Z" fill="#390028"/>
                        </g>
                      </g>
                    </g>
                  </g>
                </g>
                <path id="Trazado_153373" data-name="Trazado 153373" d="M445.77,188.649a.5.5,0,0,1-.2-.959l3.791-1.626-2.8-6.307a.5.5,0,0,1,.915-.406l3.215,7.232-4.723,2.026A.492.492,0,0,1,445.77,188.649Z" fill="#ff8e77"/>
                <path id="Trazado_153374" data-name="Trazado 153374" d="M503.106,204.44q-.4,0-.817-.039a20.982,20.982,0,0,1-3.934-.8.5.5,0,0,1,.284-.96,19.983,19.983,0,0,0,3.745.761,5.9,5.9,0,0,0,5.065-1.723,3.436,3.436,0,0,0,.791-3.122L504.911,184.6a.5.5,0,1,1,.973-.231l3.329,13.963a4.415,4.415,0,0,1-1.009,4.009A6.689,6.689,0,0,1,503.106,204.44Z" fill="#ff8e77"/>
                <path id="Trazado_153375" data-name="Trazado 153375" d="M495.8,212.981a10.466,10.466,0,0,1-3.7-.656,11.6,11.6,0,0,1-6.162-5.822.5.5,0,1,1,.919-.393,10.771,10.771,0,0,0,5.606,5.284c2.833,1.057,6.154.683,9.868-1.112a.5.5,0,0,1,.436.9A16.123,16.123,0,0,1,495.8,212.981Z" fill="#ff8e77"/>
                <path id="Trazado_153376" data-name="Trazado 153376" d="M495.109,197.217a.5.5,0,0,1-.343-.136c-2.229-2.107-3.965-.683-4.038-.621a.5.5,0,0,1-.655-.756c.025-.021,2.478-2.094,5.38.65a.5.5,0,0,1-.344.863Z" fill="#ff8e77"/>
                <path id="Trazado_153377" data-name="Trazado 153377" d="M520.157,199.976a.494.494,0,0,1-.343-.137c-2.228-2.105-3.964-.681-4.038-.62a.5.5,0,0,1-.654-.756c.025-.022,2.476-2.1,5.379.65a.5.5,0,0,1-.344.863Z" fill="#ff8e77"/>
                <path id="Trazado_153378" data-name="Trazado 153378" d="M492.873,201.853h-.009a11.3,11.3,0,0,1-11.278-11.3h0a11.287,11.287,0,0,1,11.287-11.278h.009a11.287,11.287,0,0,1-.009,22.574Zm0-21.574a10.287,10.287,0,0,0-.009,20.574h.009a10.287,10.287,0,0,0,.009-20.574Z" fill="#fff"/>
                <path id="Trazado_153379" data-name="Trazado 153379" d="M520.579,205.382h-.009a11.287,11.287,0,0,1,.009-22.573h.009a11.287,11.287,0,0,1-.009,22.573Zm0-21.573a10.287,10.287,0,0,0-.009,20.573h.009a10.287,10.287,0,0,0,.009-20.573Z" fill="#fff"/>
                <g id="Grupo_140625" data-name="Grupo 140625">
                  <path id="Trazado_153380" data-name="Trazado 153380" d="M526.454,180.807a7.848,7.848,0,0,0-3.243-.276c-1.158.055-2.322.081-3.334.068s-2.178-.067-3.334-.15a7.784,7.784,0,0,0-3.243.2c-.874.357-1.241,1.407-.227,2.715.952,1.274,3.466,2.677,6.822,2.726,3.352.033,5.858-1.309,6.8-2.559C527.7,182.244,527.331,181.186,526.454,180.807Z" fill="#390028"/>
                </g>
                <rect id="Rectángulo_35934" data-name="Rectángulo 35934" width="1" height="6.311" transform="translate(503.664 190.777) rotate(-84.384)" fill="#fff"/>
                <path id="Trazado_153381" data-name="Trazado 153381" d="M483.883,185.265a.506.506,0,0,1-.234-.058L457.88,171.573a.5.5,0,1,1,.467-.884l25.769,13.634a.5.5,0,0,1-.233.942Z" fill="#fff"/>
              </g>
              <path id="Trazado_153382" data-name="Trazado 153382" d="M491.962,239.685l-6.023-.136a30.659,30.659,0,0,1-29.959-31.342l.248-10.974-3.6-.081-.334,14.813A31.764,31.764,0,0,0,473.955,242.8c0,.068-.014.135-.014.2,0,5.393,6.031,9.765,13.471,9.765,7.356,0,13.325-4.277,13.458-9.587a31.757,31.757,0,0,0,22.348-29.612l.086-3.839A30.659,30.659,0,0,1,491.962,239.685Z" fill="#ff8e77" opacity="0.46"/>
            </g>
          </g>
        </g>
        <path id="Trazado_153383" data-name="Trazado 153383" d="M501.314,247.658l-15.138,20.7-33.882-20.7H426.982c-17.858,0-32.686,10.725-35.661,24.832l-23.909,80.442.1.015-13.966,47.1c-3.613,15.782,7.372,31.78,24.534,35.735h0a29.488,29.488,0,0,0,12.134.26l-.007,2.256,162.5-.353,2.93-142.737C555.631,268.945,532.969,247.658,501.314,247.658Z" fill="#fff"/>
        <g id="Grupo_140634" data-name="Grupo 140634">
          <path id="Trazado_153384" data-name="Trazado 153384" d="M468.471,370.559a.5.5,0,0,1-.445-.271l-43.8-84.7a2.2,2.2,0,0,1,.836-3.013l9.02-5.051-13.458-8.19a1.838,1.838,0,0,1-.233-2.974l13.149-11.137a.5.5,0,0,1,.647.764l-13.15,11.137a.837.837,0,0,0,.107,1.355l14.92,9.081-10.514,5.888a1.2,1.2,0,0,0-.449,1.657l43.818,84.719a.5.5,0,0,1-.215.674A.493.493,0,0,1,468.471,370.559Z" fill="#74caf3" opacity="0.54"/>
          <path id="Trazado_153385" data-name="Trazado 153385" d="M495.362,371.924a.5.5,0,0,1-.457-.7l38.554-87.211a1.212,1.212,0,0,0,.078-.954,1.2,1.2,0,0,0-.616-.7l-10.855-5.235,14.34-9.973a.839.839,0,0,0,.023-1.361l-13.8-10.313a.5.5,0,1,1,.6-.8l13.8,10.313a1.837,1.837,0,0,1-.049,2.983l-12.934,9,9.311,4.491a2.2,2.2,0,0,1,1.008,2.981l-38.543,87.186A.5.5,0,0,1,495.362,371.924Z" fill="#74caf3" opacity="0.54"/>
          <g id="Grupo_140630" data-name="Grupo 140630">
            <path id="Trazado_153386" data-name="Trazado 153386" d="M549.323,336.3H521.756a1.178,1.178,0,0,1-1.176-1.177v-5.1a1.176,1.176,0,0,1,1.176-1.175h27.567a1.177,1.177,0,0,1,1.177,1.175v5.1A1.179,1.179,0,0,1,549.323,336.3Zm-27.567-6.451a.176.176,0,0,0-.176.175v5.1a.176.176,0,0,0,.176.177h27.567a.177.177,0,0,0,.177-.177v-5.1a.176.176,0,0,0-.177-.175Z" fill="#74caf3"/>
          </g>
          <g id="Grupo_140633" data-name="Grupo 140633">
            <path id="Trazado_153387" data-name="Trazado 153387" d="M452.294,247.658l-17.176-.011,49.765,150.294,34.073-148.9-17.779-1.632-15,20.882Z" fill="#74caf3"/>
            <g id="Grupo_140632" data-name="Grupo 140632">
              <g id="Grupo_140631" data-name="Grupo 140631">
                <path id="Trazado_153388" data-name="Trazado 153388" d="M473.471,285.353l-7.529,55.765L485,400.177l12.941-59.059-8-55.176Z" fill="#9f9fdd"/>
                <path id="Trazado_153389" data-name="Trazado 153389" d="M472.885,266.357l-3.744,16.192a3.2,3.2,0,0,0,.742,2.868l10.287,11.411a3.2,3.2,0,0,0,4.935-.211l9.208-12.154a3.206,3.206,0,0,0,.592-2.544l-2.942-15.2a3.2,3.2,0,0,0-3.083-2.6l-12.81-.252A3.205,3.205,0,0,0,472.885,266.357Z" fill="#8f8fcc"/>
                <path id="Trazado_153390" data-name="Trazado 153390" d="M472.885,263.18l-3.744,16.193a3.2,3.2,0,0,0,.742,2.867l10.287,11.411a3.2,3.2,0,0,0,4.935-.21l9.208-12.154a3.207,3.207,0,0,0,.592-2.544l-2.942-15.2a3.2,3.2,0,0,0-3.083-2.6l-12.81-.251A3.2,3.2,0,0,0,472.885,263.18Z" fill="#9f9fdd"/>
              </g>
              <path id="Trazado_153391" data-name="Trazado 153391" d="M460.684,284.046a1.462,1.462,0,0,1-.287-.029,1.406,1.406,0,0,1-.911-.652L442.335,254.55a.5.5,0,1,1,.859-.512l17.152,28.815a.394.394,0,0,0,.567.121l7.681-5.441a.5.5,0,0,1,.578.817l-7.681,5.44A1.4,1.4,0,0,1,460.684,284.046Z" fill="#fff"/>
              <path id="Trazado_153392" data-name="Trazado 153392" d="M502.569,281.531a1.327,1.327,0,0,1-.888-.34l-7.366-6.583a.5.5,0,1,1,.665-.746l7.367,6.583a.334.334,0,0,0,.539-.137L512,254.656a.5.5,0,0,1,.941.334l-9.113,25.652a1.331,1.331,0,0,1-.927.847A1.3,1.3,0,0,1,502.569,281.531Z" fill="#fff"/>
            </g>
          </g>
        </g>
        <g id="Grupo_140636" data-name="Grupo 140636">
          <path id="Trazado_153393" data-name="Trazado 153393" d="M600.353,365.471,564.436,240.853,532.9,246.648l6.748,104.528c1.986,12.954,19.1,26.488,31.913,23.744l16.884-3.616" fill="#eff7fe"/>
          <path id="Trazado_153394" data-name="Trazado 153394" d="M602.824,364.412,566.906,239.794l-33.049,5.767,12.892,109.481a22.775,22.775,0,0,0,27.281,18.819l16.885-3.616" fill="#fff"/>
          <g id="Grupo_140635" data-name="Grupo 140635">
            <path id="Trazado_153395" data-name="Trazado 153395" d="M527.986,208.205A30.253,30.253,0,0,0,508.15,212.9a5.373,5.373,0,0,0-1.069.806c-1.921,2.949.566,8,4.076,7.736,1-.075,9.455-5.088,9.455-5.088s-5.556,1.809-8.321,5.926a8.32,8.32,0,0,0,.411,9.628l.788,1.038.25-.45a13.535,13.535,0,0,1,7.016-6.063l3.419-1.3s-11.794,4.464-10.519,10.538S517.5,240.8,517.5,240.8s4.154-5.986,10.23-5.7c0,0-16.23,4.934-11.1,13.392,4.088,6.746,15.808,5.406,20.385,4.587a2.116,2.116,0,0,0,1.734-2.233h0a3.368,3.368,0,0,0-1.871-2.784l-5.737-2.822,16.591,3.561a13.862,13.862,0,0,0,14.509-5.968l2.908-4.447-4.4-11.048a29.084,29.084,0,0,0-23.857-18.155Z" fill="#ff8e77" opacity="0.46"/>
            <path id="Trazado_153396" data-name="Trazado 153396" d="M529.75,209.617a30.245,30.245,0,0,0-19.835,4.691,5.306,5.306,0,0,0-1.069.806c-1.922,2.949.566,8,4.076,7.736,1-.076,9.455-5.089,9.455-5.089s-5.556,1.809-8.321,5.927a8.318,8.318,0,0,0,.411,9.628l.788,1.038.25-.45a13.537,13.537,0,0,1,7.015-6.063l3.42-1.3s-11.794,4.463-10.519,10.538,3.841,5.127,3.841,5.127,4.154-5.985,10.23-5.7c0,0-16.23,4.933-11.1,13.392,4.088,6.746,15.808,5.4,20.385,4.586a2.113,2.113,0,0,0,1.733-2.232h0a3.363,3.363,0,0,0-1.871-2.784l-5.736-2.822,16.591,3.56A13.86,13.86,0,0,0,564,244.241l2.907-4.447-4.4-11.048a29.081,29.081,0,0,0-23.856-18.155Z" fill="#fdbea6"/>
            <path id="Trazado_153397" data-name="Trazado 153397" d="M532.789,236.98a10.873,10.873,0,0,0-3.744,0,13.841,13.841,0,0,0-3.621,1.132,15.45,15.45,0,0,0-1.656.942c-.263.18-.538.339-.79.534l-.748.6a6.812,6.812,0,0,0-.717.632l-.693.661c-.44.464-.851.958-1.278,1.434l-.039.044a.581.581,0,0,1-.865-.777l.006-.006c.459-.5.9-1.008,1.375-1.49l.746-.689a7.5,7.5,0,0,1,.774-.659l.807-.62c.273-.2.571-.37.854-.556a16.572,16.572,0,0,1,1.79-.977,14.841,14.841,0,0,1,3.911-1.149,11.668,11.668,0,0,1,4.108.081.445.445,0,0,1-.176.872Z" fill="#ff8970"/>
            <path id="Trazado_153398" data-name="Trazado 153398" d="M527.422,226.651a10.954,10.954,0,0,0-3.675.89,13.889,13.889,0,0,0-3.27,1.959,15.39,15.39,0,0,0-1.393,1.308c-.214.237-.445.458-.644.707l-.588.756a6.72,6.72,0,0,0-.55.784l-.519.806c-.319.554-.6,1.131-.905,1.694l-.028.051a.581.581,0,1,1-1.023-.552l.007-.013c.338-.587.654-1.184,1.009-1.758l.575-.838a7.591,7.591,0,0,1,.607-.813l.649-.782c.22-.258.473-.487.707-.731a16.667,16.667,0,0,1,1.524-1.347,14.756,14.756,0,0,1,3.542-1.979,11.6,11.6,0,0,1,3.988-.828.343.343,0,0,1,.022.685Z" fill="#ff8970"/>
            <path id="Trazado_153399" data-name="Trazado 153399" d="M525.523,217.77a10.962,10.962,0,0,0-3.732.61,13.936,13.936,0,0,0-3.409,1.707,15.6,15.6,0,0,0-1.487,1.2c-.231.22-.478.422-.7.656l-.643.709a6.759,6.759,0,0,0-.607.741l-.579.764c-.36.529-.686,1.083-1.03,1.621l-.032.049a.581.581,0,0,1-.979-.627l.009-.013c.38-.56.741-1.131,1.139-1.677l.636-.792a7.547,7.547,0,0,1,.667-.765l.7-.731c.239-.24.508-.45.761-.676a16.414,16.414,0,0,1,1.621-1.227,14.755,14.755,0,0,1,3.681-1.707,11.594,11.594,0,0,1,4.039-.525.342.342,0,0,1-.03.684Z" fill="#ff8970"/>
          </g>
        </g>
        <g id="Grupo_140641" data-name="Grupo 140641">
          <g id="Grupo_140638" data-name="Grupo 140638">
            <path id="Trazado_153400" data-name="Trazado 153400" d="M476.7,395.866l17.7-3.13a9.566,9.566,0,0,1,8.571,2.8l13.053,13.614a6.651,6.651,0,0,1-.452,9.635l-2.993,2.586-5.556-11.16,7.929,15.926a2.916,2.916,0,0,1-2.2,4.187h0a5.129,5.129,0,0,1-4.66-1.8l-11.932-14.34,11.341,17.984a1.73,1.73,0,0,1-1.8,2.619h0A25.251,25.251,0,0,1,491.2,426.1l-3.2-3.887a28.55,28.55,0,0,1-25.7,8.347S444.162,408.691,476.7,395.866Z" fill="#fdbea6"/>
            <g id="Grupo_140637" data-name="Grupo 140637">
              <path id="Trazado_153401" data-name="Trazado 153401" d="M513.485,420.627a.769.769,0,0,0,.047-.817L507.3,408.452a.77.77,0,0,0-1.35.742l6.237,11.358a.77.77,0,0,0,1.046.3A.76.76,0,0,0,513.485,420.627Z" fill="#ff8e77"/>
              <path id="Trazado_153402" data-name="Trazado 153402" d="M499.272,414.488a.77.77,0,0,0-1.091-1.062s-1.254.94-2.636,2.018a.77.77,0,0,0,.946,1.214c1.37-1.066,2.612-2,2.615-2A.786.786,0,0,0,499.272,414.488Z" fill="#ff8e77"/>
              <path id="Trazado_153403" data-name="Trazado 153403" d="M508.049,407.954a.77.77,0,0,0-1.091-1.062s-1.254.94-2.635,2.016a.77.77,0,1,0,.946,1.214c1.369-1.065,2.612-2,2.615-2A.759.759,0,0,0,508.049,407.954Z" fill="#ff8e77"/>
              <path id="Trazado_153404" data-name="Trazado 153404" d="M489.5,423a.772.772,0,0,0-.043-.948,11.163,11.163,0,0,1-1.427-2.4.77.77,0,1,0-1.417.6,12.589,12.589,0,0,0,1.674,2.8.771.771,0,0,0,1.087.084A.865.865,0,0,0,489.5,423Z" fill="#ff8e77"/>
            </g>
          </g>
          <g id="Grupo_140640" data-name="Grupo 140640">
            <g id="Grupo_140639" data-name="Grupo 140639">
              <path id="Trazado_153405" data-name="Trazado 153405" d="M420.831,377.169l-23.989,7.508,21.413,1.9" fill="#eff7fe" opacity="0.32"/>
            </g>
            <path id="Trazado_153406" data-name="Trazado 153406" d="M435,325.588l-6.823,54.353,56.588,14.471-66.824-8Z" fill="#eff7fe"/>
          </g>
        </g>
      </g>
      <g id="Grupo_140644" data-name="Grupo 140644">
        <g id="Grupo_140643" data-name="Grupo 140643">
          <path id="Trazado_153407" data-name="Trazado 153407" d="M660.362,331.941H553.576a8.482,8.482,0,0,0-8.184,6.191l-24.6,88.588H449.246a1.619,1.619,0,0,0-1.356,2.518l5.649,8.418H639.766l28.783-94.766A8.506,8.506,0,0,0,660.362,331.941Z" fill="#3a4451"/>
          <path id="Trazado_153408" data-name="Trazado 153408" d="M648.94,437.874H526.929l27.637-99.524a8.482,8.482,0,0,1,8.183-6.191H669.536a8.506,8.506,0,0,1,8.187,10.95Z" fill="#525f72"/>
          <path id="Trazado_153409" data-name="Trazado 153409" d="M604.248,380.005a8.806,8.806,0,0,1,8.825,8.767v1.687a8.806,8.806,0,0,1-8.825,8.767h-1.7a8.806,8.806,0,0,1-8.825-8.767v-1.687a8.806,8.806,0,0,1,8.825-8.767h1.7m0-2.237h-1.7a11.073,11.073,0,0,0-11.077,11v1.687a11.073,11.073,0,0,0,11.077,11h1.7a11.074,11.074,0,0,0,11.077-11v-1.687a11.073,11.073,0,0,0-11.077-11Z" fill="#fff"/>
          <path id="Trazado_153410" data-name="Trazado 153410" d="M604.045,385.567a3.956,3.956,0,0,1,3.964,3.938v.758a3.956,3.956,0,0,1-3.964,3.938h-.763a3.956,3.956,0,0,1-3.964-3.938v-.758a3.956,3.956,0,0,1,3.964-3.938h.763m0-1h-.763a4.973,4.973,0,0,0-4.975,4.942v.758a4.974,4.974,0,0,0,4.975,4.943h.763a4.974,4.974,0,0,0,4.976-4.943v-.758a4.974,4.974,0,0,0-4.976-4.942Z" fill="#fff" opacity="0.18"/>
        </g>
      </g>
    </g>
    <g id="Grupo_140651" data-name="Grupo 140651">
      <g id="Grupo_140646" data-name="Grupo 140646">
        <path id="Trazado_153411" data-name="Trazado 153411" d="M186.647,170.559a6.147,6.147,0,1,1,6.147-6.147A6.155,6.155,0,0,1,186.647,170.559Zm0-11.294a5.147,5.147,0,1,0,5.147,5.147A5.154,5.154,0,0,0,186.647,159.265Z" fill="#fff"/>
        <path id="Trazado_153412" data-name="Trazado 153412" d="M186.647,164.912a.5.5,0,0,1-.353-.147l-39.736-39.736H73.706a.5.5,0,0,1,0-1h73.266L187,164.058a.5.5,0,0,1-.354.854Z" fill="#fff"/>
      </g>
      <g id="Grupo_140650" data-name="Grupo 140650">
        <g id="Grupo_140647" data-name="Grupo 140647">
          <path id="Trazado_153413" data-name="Trazado 153413" d="M105.578,135.5H75.026a.5.5,0,0,1,0-1h30.552a.5.5,0,0,1,0,1Z" fill="#fff"/>
          <path id="Trazado_153414" data-name="Trazado 153414" d="M145.941,135.5H115.39a.5.5,0,1,1,0-1h30.551a.5.5,0,0,1,0,1Z" fill="#fff"/>
        </g>
        <g id="Grupo_140648" data-name="Grupo 140648">
          <path id="Trazado_153415" data-name="Trazado 153415" d="M105.578,157.463H75.026a.5.5,0,0,1,0-1h30.552a.5.5,0,1,1,0,1Z" fill="#fff"/>
          <path id="Trazado_153416" data-name="Trazado 153416" d="M145.941,157.463H115.39a.5.5,0,0,1,0-1h30.551a.5.5,0,0,1,0,1Z" fill="#fff"/>
        </g>
        <g id="Grupo_140649" data-name="Grupo 140649">
          <path id="Trazado_153417" data-name="Trazado 153417" d="M123.492,146.949H75.026a.5.5,0,0,1,0-1h48.466a.5.5,0,0,1,0,1Z" fill="#fff"/>
          <path id="Trazado_153418" data-name="Trazado 153418" d="M145.941,146.949H129.067a.5.5,0,0,1,0-1h16.874a.5.5,0,0,1,0,1Z" fill="#fff"/>
          <path id="Trazado_153419" data-name="Trazado 153419" d="M92.2,168.912H75.323a.5.5,0,0,1,0-1H92.2a.5.5,0,0,1,0,1Z" fill="#fff"/>
        </g>
      </g>
    </g>
    <g id="Grupo_140657" data-name="Grupo 140657">
      <g id="Grupo_140652" data-name="Grupo 140652">
        <path id="Trazado_153420" data-name="Trazado 153420" d="M162.345,356.322a5.037,5.037,0,1,1,5.038-5.038A5.042,5.042,0,0,1,162.345,356.322Zm0-9.075a4.037,4.037,0,1,0,4.038,4.037A4.042,4.042,0,0,0,162.345,347.247Z" fill="#fff"/>
        <path id="Trazado_153421" data-name="Trazado 153421" d="M162.345,351.784a.5.5,0,0,1-.38-.175l-31.9-37.167H71.588a.5.5,0,0,1,0-1h58.937l.151.175,32.049,37.342a.5.5,0,0,1-.38.825Z" fill="#fff"/>
      </g>
      <g id="Grupo_140656" data-name="Grupo 140656">
        <g id="Grupo_140653" data-name="Grupo 140653">
          <path id="Trazado_153422" data-name="Trazado 153422" d="M97.2,322.856H72.649a.5.5,0,0,1,0-1H97.2a.5.5,0,0,1,0,1Z" fill="#fff"/>
          <path id="Trazado_153423" data-name="Trazado 153423" d="M129.635,322.856H105.084a.5.5,0,0,1,0-1h24.551a.5.5,0,1,1,0,1Z" fill="#fff"/>
        </g>
        <g id="Grupo_140654" data-name="Grupo 140654">
          <path id="Trazado_153424" data-name="Trazado 153424" d="M97.2,340.505H72.649a.5.5,0,0,1,0-1H97.2a.5.5,0,0,1,0,1Z" fill="#fff"/>
          <path id="Trazado_153425" data-name="Trazado 153425" d="M129.635,340.505H105.084a.5.5,0,0,1,0-1h24.551a.5.5,0,1,1,0,1Z" fill="#fff"/>
        </g>
        <g id="Grupo_140655" data-name="Grupo 140655">
          <path id="Trazado_153426" data-name="Trazado 153426" d="M111.6,332.056H72.649a.5.5,0,0,1,0-1H111.6a.5.5,0,1,1,0,1Z" fill="#fff"/>
          <path id="Trazado_153427" data-name="Trazado 153427" d="M129.635,332.056h-13.56a.5.5,0,1,1,0-1h13.56a.5.5,0,1,1,0,1Z" fill="#fff"/>
          <path id="Trazado_153428" data-name="Trazado 153428" d="M86.447,349.7H72.889a.5.5,0,0,1,0-1H86.447a.5.5,0,0,1,0,1Z" fill="#fff"/>
        </g>
      </g>
    </g>
  </g>
</svg>
