<svg xmlns="http://www.w3.org/2000/svg" width="191.344" height="186.343" viewBox="0 0 191.344 186.343">
  <g id="Grupo_140304" data-name="Grupo 140304" transform="translate(-1018.5 -2216.5)">
    <g id="Grupo_137394" data-name="Grupo 137394" transform="translate(1019 2217)">
      <path id="Trazado_114225" data-name="Trazado 114225" d="M1471.5,508.463c20.372,43.789,55.227,36.913,104.969,13.771s77.405-43.659,57.033-87.448-81.063-94.267-130.805-71.126S1451.133,464.674,1471.5,508.463Z" transform="translate(-1450.259 -355.663)" fill="none" stroke="#ef3c79" stroke-miterlimit="10" stroke-width="2"/>
      <path id="Trazado_114226" data-name="Trazado 114226" d="M1475,473.13c0,48.3,34.5,56.764,89.365,56.764s88.6-6.934,88.6-55.23S1619.227,355,1564.365,355,1475,424.835,1475,473.13Z" transform="translate(-1475 -355)" fill="#0d4aad" stroke="rgba(0,0,0,0)" stroke-width="1"/>
      <path id="Trazado_114227" data-name="Trazado 114227" d="M1672.818,422.4c0,4.66,3.329,5.477,8.623,5.477s8.549-.669,8.549-5.329S1686.734,411,1681.44,411,1672.818,417.739,1672.818,422.4Z" transform="translate(-1663.769 -368.044)" fill="#00cbae" stroke="rgba(0,0,0,0)" stroke-width="1"/>
      <path id="Trazado_114228" data-name="Trazado 114228" d="M1459.307,451.4c0,4.66,3.329,5.477,8.623,5.477s8.549-.669,8.549-5.329S1473.223,440,1467.93,440,1459.307,446.739,1459.307,451.4Z" transform="translate(-1286.479 -374.798)" fill="#0d4aad" stroke="rgba(0,0,0,0)" stroke-width="1"/>
      <g id="Grupo_140346" data-name="Grupo 140346" transform="translate(-682.288 -125.536)">
        <path id="Trazado_152651" data-name="Trazado 152651" d="M751.6,234.025a1.7,1.7,0,0,0-2.4-2.4l-8.581,8.58a1.7,1.7,0,0,0,2.4,2.4Z" transform="translate(3.934 11.259)" fill="#00cbae"/>
        <path id="Trazado_152652" data-name="Trazado 152652" d="M758.289,235.918l-15.72,15.719a1.7,1.7,0,0,0,2.4,2.4l15.72-15.72a1.7,1.7,0,1,0-2.4-2.4Z" transform="translate(4.302 12.069)" fill="#00cbae"/>
        <path id="Trazado_152653" data-name="Trazado 152653" d="M743.509,228.8a1.7,1.7,0,0,0-2.4,0l-16.956,16.956a1.7,1.7,0,0,0,2.4,2.4L743.509,231.2A1.7,1.7,0,0,0,743.509,228.8Z" transform="translate(0.824 10.725)" fill="#00cbae"/>
        <path id="Trazado_152654" data-name="Trazado 152654" d="M730.414,227.887a1.7,1.7,0,0,0,2.4,0l5.87-5.87a1.7,1.7,0,0,0-2.4-2.4l-5.87,5.87A1.7,1.7,0,0,0,730.414,227.887Z" transform="translate(2.007 8.991)" fill="#00cbae"/>
        <path id="Trazado_152655" data-name="Trazado 152655" d="M809.307,172.33a2.827,2.827,0,0,0-2-.83c-1.391,0-32.467.372-53.493,29.9-6.46.044-14.864,1.57-21.1,7.986a2.83,2.83,0,0,0,.029,3.973l6.63,6.631c-.544.468-1.071.957-1.574,1.475a2.829,2.829,0,0,0,.029,3.973l18.361,18.362a2.829,2.829,0,0,0,3.974.029c.518-.5,1.007-1.03,1.475-1.574l6.63,6.63a2.832,2.832,0,0,0,3.974.029c6.415-6.233,7.944-14.64,7.986-21.1,29.533-21.028,29.9-52.1,29.9-53.493A2.825,2.825,0,0,0,809.307,172.33ZM771.57,226.715a2.823,2.823,0,0,0,2.76,4.924,22.933,22.933,0,0,1-4.181,11.124l-5.306-5.306a30.187,30.187,0,0,0,3.073-10.582,2.83,2.83,0,1,0-5.627-.622,22.759,22.759,0,0,1-4.219,11.427l-14.115-14.115a22.75,22.75,0,0,1,11.427-4.219,2.831,2.831,0,0,0-.623-5.628,30.236,30.236,0,0,0-10.582,3.074l-5.3-5.306a22.927,22.927,0,0,1,11.118-4.18,2.825,2.825,0,0,0,4.93,2.758A66.209,66.209,0,0,1,786.9,181.977l12.758,12.757A66.209,66.209,0,0,1,771.57,226.715Z" transform="translate(2.385)" fill="#00cbae"/>
        <path id="Trazado_152656" data-name="Trazado 152656" d="M774.939,188.794a5,5,0,0,0,7.066,7.065h0a5,5,0,0,0-7.066-7.065Z" transform="translate(10.232 2.99)" fill="#00cbae"/>
        <path id="Trazado_152657" data-name="Trazado 152657" d="M768.074,195.659a5,5,0,0,0,7.066,7.065h0a5,5,0,1,0-7.066-7.065Z" transform="translate(8.936 4.286)" fill="#00cbae"/>
        <path id="Trazado_152658" data-name="Trazado 152658" d="M764.743,201.061a5,5,0,1,0,3.532,1.463A4.961,4.961,0,0,0,764.743,201.061Z" transform="translate(7.64 5.582)" fill="#00cbae"/>
        <path id="Trazado_152659" data-name="Trazado 152659" d="M735.729,211.166a1.7,1.7,0,0,0-2.4,0l-13.543,13.543a1.7,1.7,0,1,0,2.4,2.4l13.543-13.543A1.7,1.7,0,0,0,735.729,211.166Z" transform="translate(0 7.396)" fill="#00cbae"/>
        <path id="Trazado_152660" data-name="Trazado 152660" d="M783.685,233.361l-1.084,1.083a1.7,1.7,0,1,0,2.4,2.4l1.084-1.083a1.7,1.7,0,0,0-2.4-2.4Z" transform="translate(11.861 11.586)" fill="#00cbae"/>
        <path id="Trazado_152661" data-name="Trazado 152661" d="M788.6,228.441l-1.083,1.084a1.7,1.7,0,0,0,2.4,2.4l1.083-1.084a1.7,1.7,0,1,0-2.4-2.4Z" transform="translate(12.79 10.658)" fill="#00cbae"/>
        <path id="Trazado_152662" data-name="Trazado 152662" d="M789.924,233.361a1.7,1.7,0,1,0-2.4,2.4l1.083,1.083a1.7,1.7,0,1,0,2.4-2.4Z" transform="translate(12.79 11.586)" fill="#00cbae"/>
        <path id="Trazado_152663" data-name="Trazado 152663" d="M785,228.441a1.7,1.7,0,1,0-2.4,2.4l1.084,1.084a1.7,1.7,0,0,0,2.4-2.4Z" transform="translate(11.861 10.658)" fill="#00cbae"/>
        <path id="Trazado_152664" data-name="Trazado 152664" d="M792.363,212.418a1.7,1.7,0,0,0-2.4,2.4l.3.3a1.7,1.7,0,1,0,2.4-2.4Z" transform="translate(13.251 7.632)" fill="#00cbae"/>
        <path id="Trazado_152665" data-name="Trazado 152665" d="M795.944,216a1.7,1.7,0,1,0-2.4,2.4l.3.3a1.7,1.7,0,1,0,2.4-2.4Z" transform="translate(13.927 8.309)" fill="#00cbae"/>
        <path id="Trazado_152666" data-name="Trazado 152666" d="M790.261,216l-.3.3a1.7,1.7,0,0,0,2.4,2.4l.3-.3a1.7,1.7,0,1,0-2.4-2.4Z" transform="translate(13.251 8.309)" fill="#00cbae"/>
        <path id="Trazado_152667" data-name="Trazado 152667" d="M793.843,212.418l-.3.3a1.7,1.7,0,1,0,2.4,2.4l.3-.3a1.7,1.7,0,1,0-2.4-2.4Z" transform="translate(13.927 7.632)" fill="#00cbae"/>
        <path id="Trazado_152668" data-name="Trazado 152668" d="M739.04,186.868a1.692,1.692,0,0,0,1.2-.5l1.084-1.084a1.7,1.7,0,0,0-2.4-2.4l-1.084,1.084a1.7,1.7,0,0,0,1.2,2.9Z" transform="translate(3.409 2.056)" fill="#00cbae"/>
        <path id="Trazado_152669" data-name="Trazado 152669" d="M743.96,181.948a1.694,1.694,0,0,0,1.2-.5l1.083-1.084a1.7,1.7,0,1,0-2.4-2.4l-1.083,1.084a1.7,1.7,0,0,0,1.2,2.9Z" transform="translate(4.338 1.127)" fill="#00cbae"/>
        <path id="Trazado_152670" data-name="Trazado 152670" d="M743.842,186.37a1.7,1.7,0,1,0,2.4-2.4l-1.083-1.084a1.7,1.7,0,0,0-2.4,2.4Z" transform="translate(4.338 2.056)" fill="#00cbae"/>
        <path id="Trazado_152671" data-name="Trazado 152671" d="M738.923,181.451a1.7,1.7,0,0,0,2.4-2.4l-1.084-1.084a1.7,1.7,0,0,0-2.4,2.4Z" transform="translate(3.409 1.127)" fill="#00cbae"/>
        <path id="Trazado_152672" data-name="Trazado 152672" d="M721.691,195.119a1.7,1.7,0,1,0,2.4-2.4l-.3-.3a1.7,1.7,0,1,0-2.4,2.4Z" transform="translate(0.303 3.856)" fill="#00cbae"/>
        <path id="Trazado_152673" data-name="Trazado 152673" d="M725.271,198.7a1.7,1.7,0,0,0,2.4-2.4l-.3-.3a1.7,1.7,0,1,0-2.4,2.4Z" transform="translate(0.979 4.532)" fill="#00cbae"/>
        <path id="Trazado_152674" data-name="Trazado 152674" d="M722.592,199.2a1.692,1.692,0,0,0,1.2-.5l.3-.3a1.7,1.7,0,1,0-2.4-2.4l-.3.3a1.7,1.7,0,0,0,1.2,2.9Z" transform="translate(0.303 4.532)" fill="#00cbae"/>
        <path id="Trazado_152675" data-name="Trazado 152675" d="M726.173,195.616a1.689,1.689,0,0,0,1.2-.5l.3-.3a1.7,1.7,0,0,0-2.4-2.4l-.3.3a1.7,1.7,0,0,0,1.2,2.9Z" transform="translate(0.979 3.856)" fill="#00cbae"/>
        <path id="Trazado_152676" data-name="Trazado 152676" d="M770.458,241.942a1.7,1.7,0,0,0-2.4,2.4l.3.3a1.7,1.7,0,1,0,2.4-2.4Z" transform="translate(9.115 13.207)" fill="#00cbae"/>
        <path id="Trazado_152677" data-name="Trazado 152677" d="M774.039,245.523a1.7,1.7,0,0,0-2.4,2.4l.3.3a1.7,1.7,0,0,0,2.4-2.4Z" transform="translate(9.791 13.883)" fill="#00cbae"/>
        <path id="Trazado_152678" data-name="Trazado 152678" d="M768.356,245.523l-.3.3a1.7,1.7,0,0,0,2.4,2.4l.3-.3a1.7,1.7,0,1,0-2.4-2.4Z" transform="translate(9.115 13.883)" fill="#00cbae"/>
        <path id="Trazado_152679" data-name="Trazado 152679" d="M771.937,241.942l-.3.3a1.7,1.7,0,1,0,2.4,2.4l.3-.3a1.7,1.7,0,0,0-2.4-2.4Z" transform="translate(9.791 13.207)" fill="#00cbae"/>
      </g>
    </g>
  </g>
</svg>
