<svg xmlns="http://www.w3.org/2000/svg" width="536" height="344.438" viewBox="0 0 536 344.438">
  <g id="Grupo_140791" data-name="Grupo 140791" transform="translate(-810 -3515.563)">
    <g id="Grupo_140790" data-name="Grupo 140790" transform="translate(823.073 3515.563)">
      <g id="Grupo_140676" data-name="Grupo 140676" transform="translate(240.42 1.39)">
        <path id="Trazado_153431" data-name="Trazado 153431" d="M85.351,703.4c-2.679-35.9-24.56-82.1-24.56-82.1H17.815c.008.2.03.393.03.6v.5l-.059-.5c0-.207.02-.4.03-.6H-25.161s-21.881,46.205-24.56,82.1l67.506,33.965.059-.555v.555Z" transform="translate(75.586 -413.34)" fill="#024442"/>
        <g id="Grupo_140664" data-name="Grupo 140664" transform="translate(54.866)">
          <path id="Trazado_153432" data-name="Trazado 153432" d="M40.346,481.81c-3.067-3.133-5.993-1.3-7.445.031l-1.077-8.616a25.343,25.343,0,0,0-50.294,6.287l1.077,8.616c-1.735-.938-5.021-1.989-7.222,1.8-2.96,5.1,4.03,14.622,9.441,13.9a25.344,25.344,0,0,0,27.6,18.5h0a25.342,25.342,0,0,0,22.192-24.727C40.04,496.973,44.469,486.022,40.346,481.81Z" transform="translate(25.319 -445.431)" fill="#ffbda8"/>
          <g id="Grupo_140662" data-name="Grupo 140662" transform="translate(2.594 29.033)">
            <path id="Trazado_153433" data-name="Trazado 153433" d="M3.437,496.248a25.681,25.681,0,0,0,6.121-1.534,11.76,11.76,0,0,0,2.631-1.549,12.439,12.439,0,0,0,2.144-2.314,6.506,6.506,0,0,1-1.575,2.922A8.488,8.488,0,0,1,9.975,495.7a11.141,11.141,0,0,1-3.25.782A9.7,9.7,0,0,1,3.437,496.248Z" transform="translate(28.144 -466.958)" fill="#2e150c"/>
            <path id="Trazado_153434" data-name="Trazado 153434" d="M8.471,497.144c.794-.422,1.6-.718,2.341-1.141a7.1,7.1,0,0,0,1.089-.639,4.746,4.746,0,0,0,.95-.862,2.406,2.406,0,0,1-.685,1.174,4.978,4.978,0,0,1-1.106.8A5.955,5.955,0,0,1,8.471,497.144Z" transform="translate(29.093 -466.27)" fill="#2e150c"/>
            <path id="Trazado_153435" data-name="Trazado 153435" d="M3.045,478.561a18.6,18.6,0,0,1,1.029,4.2,13.313,13.313,0,0,1-.137,4.415c-.319,1.48-.87,2.691-.761,3.892a2.373,2.373,0,0,0,.655,1.566,1.843,1.843,0,0,0,1.782.508,1.969,1.969,0,0,1-2.228.14,3.035,3.035,0,0,1-1.439-1.994c-.405-1.645.169-3.186.425-4.446a24.557,24.557,0,0,0,.459-4.03C2.891,481.426,2.891,480.007,3.045,478.561Z" transform="translate(27.836 -469.275)" fill="#2e150c"/>
            <path id="Trazado_153436" data-name="Trazado 153436" d="M-23.117,487.07a3.158,3.158,0,0,1,.824-2.618,2.168,2.168,0,0,1,1.473-.622,2.707,2.707,0,0,1,1.534.486,6.824,6.824,0,0,1,1.923,2.137c.492.753.9,1.508,1.355,2.262a.791.791,0,0,1-.27,1.085.79.79,0,0,1-.964-.116l-.027-.026a3.069,3.069,0,0,0-2.038-.909,1.2,1.2,0,0,0-.844.209,1.421,1.421,0,0,0-.446.828,2.667,2.667,0,0,0,.87,2.144,2.785,2.785,0,0,0,2.416,1.036,2.828,2.828,0,0,1-2.947-.415,3.46,3.46,0,0,1-1.622-2.878,2.594,2.594,0,0,1,.748-1.759,2.568,2.568,0,0,1,1.841-.7,4.4,4.4,0,0,1,3.167,1.349l-1.261.943c-.416-.764-.863-1.536-1.25-2.3A7.066,7.066,0,0,0-20,485.291a1.45,1.45,0,0,0-1.83-.252A3.284,3.284,0,0,0-23.117,487.07Z" transform="translate(23.136 -468.282)" fill="#2e150c"/>
            <path id="Trazado_153437" data-name="Trazado 153437" d="M30.1,480.45a3.289,3.289,0,0,0-1.748-1.652,1.453,1.453,0,0,0-1.713.7,7.1,7.1,0,0,0-.849,2.19c-.188.832-.433,1.689-.647,2.533l-1.453-.6a4.395,4.395,0,0,1,2.737-2.088,2.569,2.569,0,0,1,1.959.231,2.6,2.6,0,0,1,1.158,1.52,3.463,3.463,0,0,1-.865,3.19,2.826,2.826,0,0,1-2.754,1.128,2.792,2.792,0,0,0,2.087-1.6,2.672,2.672,0,0,0,.315-2.293,1.425,1.425,0,0,0-.636-.693,1.2,1.2,0,0,0-.869.006,3.07,3.07,0,0,0-1.753,1.382l-.019.032a.79.79,0,0,1-1.434-.635c.254-.843.465-1.675.757-2.527a6.808,6.808,0,0,1,1.337-2.543,2.707,2.707,0,0,1,1.368-.85,2.164,2.164,0,0,1,1.579.241A3.154,3.154,0,0,1,30.1,480.45Z" transform="translate(31.94 -469.415)" fill="#2e150c"/>
            <path id="Trazado_153438" data-name="Trazado 153438" d="M-.5,475.437a21.9,21.9,0,0,0-2.776-.1,15.263,15.263,0,0,0-2.811.338,10.218,10.218,0,0,0-2.648,1.014,11.682,11.682,0,0,0-2.357,1.754l-.046.042a.575.575,0,0,1-.811-.05.574.574,0,0,1-.061-.679,9.748,9.748,0,0,1,2.17-2.629,10.012,10.012,0,0,1,2.993-1.795,11.785,11.785,0,0,1,3.391-.828,11.117,11.117,0,0,1,3.529.227A1.377,1.377,0,0,1,1.1,474.392a1.378,1.378,0,0,1-1.465,1.057Z" transform="translate(25.217 -470.424)" fill="#2e150c"/>
            <path id="Trazado_153439" data-name="Trazado 153439" d="M5.51,471.982a11.081,11.081,0,0,1,3.363-1.089,11.765,11.765,0,0,1,3.491-.031,9.985,9.985,0,0,1,3.342,1,9.763,9.763,0,0,1,2.751,2.013.574.574,0,0,1-.664.921l-.056-.029a11.739,11.739,0,0,0-2.717-1.121,10.191,10.191,0,0,0-2.815-.33,15.251,15.251,0,0,0-2.807.365,22.225,22.225,0,0,0-2.668.775l-.124.044a1.378,1.378,0,0,1-1.1-2.521Z" transform="translate(28.395 -470.747)" fill="#2e150c"/>
            <g id="Grupo_140660" data-name="Grupo 140660" transform="translate(37.604 9.253)">
              <path id="Trazado_153440" data-name="Trazado 153440" d="M12.63,482.117c.264,2.114-.433,3.943-1.556,4.084s-2.249-1.461-2.514-3.575.433-3.945,1.556-4.085S12.365,480,12.63,482.117Z" transform="translate(-8.505 -478.533)" fill="#2e150c"/>
            </g>
            <g id="Grupo_140661" data-name="Grupo 140661" transform="translate(21.47 11.27)">
              <path id="Trazado_153441" data-name="Trazado 153441" d="M-5.014,484.323c.264,2.114,1.389,3.715,2.512,3.575s1.821-1.969,1.556-4.084-1.389-3.716-2.512-3.576S-5.279,482.208-5.014,484.323Z" transform="translate(5.07 -480.23)" fill="#2e150c"/>
            </g>
          </g>
          <g id="Grupo_140663" data-name="Grupo 140663" transform="translate(5.817)">
            <path id="Trazado_153442" data-name="Trazado 153442" d="M11.955,460.526s3.113,8.628,5.375,10.327,3.678,12.872,5.658,12.448,2.971-2.97,2.971-2.97-.283-17.4-6.083-21.362S11.955,460.526,11.955,460.526Z" transform="translate(26.527 -444.204)" fill="#f0b29e"/>
            <path id="Trazado_153443" data-name="Trazado 153443" d="M-10.4,463.266s-.6,9.152-2.312,11.41.025,13.388-2,13.527-3.676-2.033-3.676-2.033-4.539-16.8-.059-22.21S-10.4,463.266-10.4,463.266Z" transform="translate(20.425 -443.483)" fill="#f0b29e"/>
            <path id="Trazado_153444" data-name="Trazado 153444" d="M-10.4,466.1s11.34,3.612,19.262,2.2l-4.385-3.254a14.263,14.263,0,0,0,13.581-2.4c6.931-5.235,10.468,1.414,10.468,1.414S24.384,442.426,2.78,446.937c-24.049,5.023-23.2,27.444-23.2,27.444S-18.959,463.348-10.4,466.1Z" transform="translate(20.424 -446.318)" fill="#2e150c"/>
          </g>
        </g>
        <g id="Grupo_140675" data-name="Grupo 140675" transform="translate(0 70.271)">
          <g id="Grupo_140665" data-name="Grupo 140665" transform="translate(81.32)">
            <rect id="Rectángulo_35937" data-name="Rectángulo 35937" width="21.418" height="20.591" transform="translate(0 2.656) rotate(-7.125)" fill="#ffbda8"/>
            <path id="Trazado_153445" data-name="Trazado 153445" d="M18.492,507.921l.582,4.662a25.33,25.33,0,0,1-21.237,2.655l-.582-4.662a25.341,25.341,0,0,0,21.237-2.655Z" transform="translate(3.12 -504.979)" fill="#f5a78e"/>
          </g>
          <g id="Grupo_140667" data-name="Grupo 140667" transform="translate(126.399 30.032)">
            <g id="Grupo_140666" data-name="Grupo 140666" transform="translate(73.017 38.971)">
              <path id="Trazado_153446" data-name="Trazado 153446" d="M129.241,603.806c-2.287,14.034-5.127,30.906-8.058,46.694-3.248,17.507-6.6,33.656-9.4,43.128l-14.3-1.154s.181-38.4.238-74.589c.045-18.775.045-36.95-.023-48.856,0,0-.51-2.014-1.381-5.523,5.7,4.9,11.408,10.242,17.021,16.059a72.186,72.186,0,0,1,12.425,17.361C126.785,598.939,127.95,601.248,129.241,603.806Z" transform="translate(-96.308 -563.506)" fill="#ffbda8"/>
            </g>
            <path id="Trazado_153447" data-name="Trazado 153447" d="M47.01,530.715s52.1,23.115,85.684,59.16a21.488,21.488,0,0,1,4.916,8.649c3.353,11.523,8.227,41.8-9.873,93.081,0,0-16.975,1.7-20.936,0s2.83-61.112-2.263-67.336S36.07,568.815,34.939,555.8,47.01,530.715,47.01,530.715Z" transform="translate(-34.87 -530.715)" fill="#2b6de5"/>
          </g>
          <g id="Grupo_140668" data-name="Grupo 140668" transform="translate(0 26.659)">
            <path id="Trazado_153448" data-name="Trazado 153448" d="M-57.648,764.839h0s-1.282,3.714-2.688,8.111h20.11c-.96-4.5-1.931-8.7-1.931-8.7,1.425-18.635,6.783-88.453,9.375-118.407,0,0,33.132-97.15,29.348-110.174,0,0,1.279-8.04-5.581-7.788-6.489.238-43.269,41.491-58.075,106.542a72.191,72.191,0,0,0-1.652,21.294C-67.022,679.217-62.386,738.442-57.648,764.839Z" transform="translate(71.965 -527.877)" fill="#ffbda8"/>
            <path id="Trazado_153449" data-name="Trazado 153449" d="M-10.656,528.136s-22.633,15.419-39.609,50.219S-71.484,648.8-71.484,648.8l11.317,104.682s15.845,4.81,20.937.283,9.337-107.794,9.337-107.794L-1.6,552.609Z" transform="translate(71.484 -527.828)" fill="#2b6de5"/>
          </g>
          <g id="Grupo_140674" data-name="Grupo 140674" transform="translate(49.369 17.458)">
            <path id="Trazado_153450" data-name="Trazado 153450" d="M55.294,625.742c1.676-24.2,6.584-70.923,1.519-84.217-5.568-14.619-30.9-19.876-40.74-21.39H12.12C2.28,521.649-28.777,601.54-27.1,625.742c.623,8.99-1.356,14.666-1.356,14.666H56.651S54.672,634.732,55.294,625.742Z" transform="translate(30.224 -520.135)" fill="#ffbda8"/>
            <g id="Grupo_140673" data-name="Grupo 140673" transform="translate(0 1.585)">
              <path id="Trazado_153451" data-name="Trazado 153451" d="M57.765,640.019s-45.126,19.1-87.709.559c0,0,2.27-15.272,1.7-25.172s4.956-82.195,9.757-86.01c3.161-2.508,11.79-5.134,17.352-6.655h.012c.5-.131.963-.261,1.4-.368,2.163-.57,3.589-.9,3.589-.9s7.915,7.5,21.927.285c0,0,1.272.368,3.351,1,.4.119.832.25,1.3.392,9.032,2.722,28.464,8.723,32.98,11.2C69.365,537.6,57.765,640.019,57.765,640.019Z" transform="translate(29.944 -521.469)" fill="#2b6de5"/>
              <g id="Grupo_140672" data-name="Grupo 140672" transform="translate(1.513 0.903)">
                <g id="Grupo_140669" data-name="Grupo 140669" transform="translate(27.307)">
                  <path id="Trazado_153452" data-name="Trazado 153452" d="M25.872,523c-4.457,4.5-9.341,6.834-14.535,6.929H10.98c-7.5,0-13.656-4.576-16.674-7.333.5-.131.963-.261,1.4-.368,3.078,2.638,8.711,6.513,15.284,6.513h.321c4.694-.1,9.139-2.151,13.263-6.133C24.98,522.728,25.408,522.859,25.872,523Z" transform="translate(5.694 -522.229)" fill="#2b6de5" opacity="0.5" style="mix-blend-mode: screen;isolation: isolate"/>
                </g>
                <g id="Grupo_140670" data-name="Grupo 140670" transform="translate(79.528 43.729)">
                  <path id="Trazado_153453" data-name="Trazado 153453" d="M50.725,571.651,38.246,559.024l11.29,26.146Z" transform="translate(-38.246 -559.024)" fill="#2b6de5" opacity="0.5" style="mix-blend-mode: multiply;isolation: isolate"/>
                </g>
                <g id="Grupo_140671" data-name="Grupo 140671" transform="translate(0 47.047)">
                  <path id="Trazado_153454" data-name="Trazado 153454" d="M-28.671,608.76l12.677-46.945L-28.671,620.05Z" transform="translate(28.671 -561.815)" fill="#2b6de5" opacity="0.5" style="mix-blend-mode: multiply;isolation: isolate"/>
                </g>
              </g>
            </g>
          </g>
        </g>
      </g>
      <g id="Grupo_140700" data-name="Grupo 140700" transform="translate(66.252 0)">
        <g id="Grupo_140688" data-name="Grupo 140688" transform="translate(0 38.491)">
          <g id="Grupo_140677" data-name="Grupo 140677" transform="translate(165.709 57.449)">
            <path id="Trazado_153455" data-name="Trazado 153455" d="M-70.428,534.235c-3.779,12.99,17.589,109.387,17.589,109.387,2.591,29.89,7.951,99.57,9.377,118.181h-.048s-1.421,6.138-2.528,11.525h21.595c-1.585-5.119-3.319-10.176-3.557-10.859,4.231-23.377,8.355-72.758,10.435-99.938.261-3.4.487-6.442.677-9.056a71.4,71.4,0,0,0-1.652-21.25c-.666-2.936-1.379-5.812-2.139-8.652-15.914-59.911-49.737-97.466-55.929-97.692C-83.465,525.63-70.428,534.235-70.428,534.235Z" transform="translate(78.601 -525.875)" fill="#e88c5d"/>
            <path id="Trazado_153456" data-name="Trazado 153456" d="M-23.643,637.981c-.19,2.615-.416,5.657-.677,9.056A19.749,19.749,0,0,1-42.754,627.32a19.742,19.742,0,0,1,15.319-19.241c.761,2.84,1.474,5.716,2.139,8.652A71.4,71.4,0,0,1-23.643,637.981Z" transform="translate(85.357 -510.382)" fill="#ff9775"/>
          </g>
          <g id="Grupo_140678" data-name="Grupo 140678">
            <path id="Trazado_153457" data-name="Trazado 153457" d="M-91.688,537.486c-1.438,11.754-53.362,71.9-67.291,86.319a92.684,92.684,0,0,1-13.656,10.435c-8.212,5.253-17.28,9.353-19.36,4.671a72.337,72.337,0,0,1-4.255-12.622,70.385,70.385,0,0,1-1.4-7.713c-.012-.083-.024-.178-.036-.25-1.391-11.695-3.791-32.291-5.883-53.327s-3.9-42.488-4.1-55.906c0,0-11.255-19.455-10.3-20.691.915-1.2,4.6,3.53,4.873,3.874-.226-.535-4.16-9.9-3.423-10.506s6.109,7.689,6.442,8.189c-.131-.594-2.591-11.754-1.723-12.158.891-.416,5.812,9.769,5.812,9.769s-.761-9.734-.131-10.031,8.367,15.177,8.367,15.177,4.576-5.978,5.336-5.835c.273.048.357,2.567.357,5.8,0,5.847-.285,14.024-.285,14.024,3.28,11.908,12.5,45.34,20.774,75.016,35.262-38.708,72.639-55.585,77.821-53.588C-87.35,530.593-91.688,537.486-91.688,537.486Z" transform="translate(218.032 -477.536)" fill="#e88c5d"/>
            <path id="Trazado_153458" data-name="Trazado 153458" d="M-176.089,610.848c-8.212,5.253-17.28,9.353-19.36,4.671A72.337,72.337,0,0,1-199.7,602.9a19.62,19.62,0,0,1,6.917-1.248A19.721,19.721,0,0,1-176.089,610.848Z" transform="translate(221.486 -454.144)" fill="#ff9775"/>
          </g>
          <path id="Trazado_153459" data-name="Trazado 153459" d="M-54.467,623.362c-2.824-31.751,6.584-70.924,1.519-84.219-5.568-14.618-30.9-19.876-40.74-21.389h-3.954c-9.839,1.513-35.17,6.771-40.74,21.389-5.065,13.294-.157,60.016,1.519,84.219.623,8.99-1.356,14.666-1.356,14.666h85.108S-53.668,632.338-54.467,623.362Z" transform="translate(232.623 -469.956)" fill="#e88c5d"/>
          <g id="Grupo_140679" data-name="Grupo 140679" transform="translate(126.25 32.763)">
            <rect id="Rectángulo_35938" data-name="Rectángulo 35938" width="21.418" height="20.591" fill="#e88c5d"/>
            <path id="Trazado_153460" data-name="Trazado 153460" d="M-90.4,507.6v4.7a25.239,25.239,0,0,1-10.7,2.371,25.239,25.239,0,0,1-10.7-2.371v-4.7a25.24,25.24,0,0,0,10.7,2.371A25.24,25.24,0,0,0-90.4,507.6Z" transform="translate(111.804 -504.633)" fill="#de7038"/>
          </g>
          <g id="Grupo_140687" data-name="Grupo 140687" transform="translate(62.036 52.071)">
            <g id="Grupo_140681" data-name="Grupo 140681" transform="translate(0 0.285)">
              <path id="Trazado_153461" data-name="Trazado 153461" d="M-13.246,592.315c-5.657,9.627-30.27,17.827-30.27,17.827l-5.942-22.07,1.973,30.591A67.681,67.681,0,0,0-37.36,649.849c15.319,24.815,20.537,57.439,20.537,57.439h-149.01c4.148-29.427,27.394-60.362,31.922-69.561S-135.9,579.17-135.9,579.17l-10.744,12.3c-14.428-4.385-18.528-35.369-18.528-35.369,13.2-14.321,31.863-24.732,43.082-30.187.879-.428,1.723-.82,2.5-1.188,4.421-2.056,7.178-3.138,7.178-3.138h42.868a22.884,22.884,0,0,1,9.7,3.138c.666.368,1.331.761,2.009,1.188C-35.257,540.01-8.457,584.186-13.246,592.315Z" transform="translate(165.834 -521.589)" fill="#ab9909"/>
              <g id="Grupo_140680" data-name="Grupo 140680" transform="translate(43.748 3.138)">
                <path id="Trazado_153462" data-name="Trazado 153462" d="M-64.775,525.417h-64.249c.879-.428,1.723-.82,2.5-1.188h59.744C-66.118,524.6-65.453,524.99-64.775,525.417Z" transform="translate(129.024 -524.229)" fill="#ab9909" opacity="0.5" style="mix-blend-mode: screen;isolation: isolate"/>
              </g>
            </g>
            <g id="Grupo_140686" data-name="Grupo 140686" transform="translate(24.138)">
              <path id="Trazado_153463" data-name="Trazado 153463" d="M-19.142,706.192H-88.929l-56.595-171.068s1.177-.63,3.054-1.628c.333-.178.7-.368,1.081-.57,5.978-3.161,16.853-8.83,21.725-10.886.428-.178.8-.321,1.117-.44q.446-.16.749-.25s61.682,102.993,74.125,115.816C-43.672,637.165-19.142,682.8-19.142,706.192Z" transform="translate(145.524 -521.349)" fill="#fff"/>
              <g id="Grupo_140685" data-name="Grupo 140685" transform="translate(3.054 0.25)">
                <g id="Grupo_140682" data-name="Grupo 140682" transform="translate(22.807)">
                  <path id="Trazado_153464" data-name="Trazado 153464" d="M-51.9,634.559a.568.568,0,0,1-.452.214.583.583,0,0,1-.38-.143C-77.1,613.9-117.513,534.466-123.764,522c.428-.178.8-.321,1.117-.44,6.394,12.728,46.552,91.631,70.69,112.168A.585.585,0,0,1-51.9,634.559Z" transform="translate(123.764 -521.559)" fill="#cce8f2"/>
                </g>
                <g id="Grupo_140683" data-name="Grupo 140683" transform="translate(0 11.326)">
                  <path id="Trazado_153465" data-name="Trazado 153465" d="M-93.252,661.4a.6.6,0,0,1-.44.19.575.575,0,0,1-.4-.154c-13.061-12.229-43.878-113.285-48.858-129.781.333-.178.7-.368,1.081-.57,4.587,15.2,35.856,117.552,48.585,129.472A.611.611,0,0,1-93.252,661.4Z" transform="translate(142.954 -531.089)" fill="#cce8f2"/>
                </g>
                <g id="Grupo_140684" data-name="Grupo 140684" transform="translate(14.467 28.031)">
                  <path id="Trazado_153466" data-name="Trazado 153466" d="M-93.015,654.489a.592.592,0,0,1-.549-.368c-4.245-10.315-41.346-100.978-36.838-108.279a1.378,1.378,0,0,1,1.095-.69c.051,0,.1-.006.155-.006,4.187,0,9.637,12.448,18.06,32.827,6.061,14.665,12.931,31.286,16.7,31.959.311.052.4-.047.446-.1,1.9-2.293-5.032-20.458-10.092-33.723-6.557-17.188-8.9-23.8-7.416-25.014.272-.225.757-.389,1.526.091,7.206,4.5,44.976,92.209,46.582,95.94a.6.6,0,0,1-.313.781.593.593,0,0,1-.78-.311c-13.54-31.49-40.6-91.955-46.12-95.4a1.36,1.36,0,0,0-.157-.087c-.48,1.905,4.093,13.894,7.787,23.578,7.392,19.377,12.075,32.274,9.9,34.9a1.558,1.558,0,0,1-1.57.516c-4.11-.734-9.385-12.833-17.586-32.673-6.22-15.051-13.265-32.093-16.943-32.093l-.086,0c-.04,0-.1.007-.171.131-3.17,5.133,20.345,66.921,36.926,107.2a.6.6,0,0,1-.323.776A.59.59,0,0,1-93.015,654.489Z" transform="translate(130.781 -545.145)" fill="#cce8f2"/>
                </g>
              </g>
            </g>
          </g>
        </g>
        <g id="Grupo_140699" data-name="Grupo 140699" transform="translate(76.044)">
          <g id="Grupo_140693" data-name="Grupo 140693" transform="translate(27.077 4.932)">
            <path id="Trazado_153467" data-name="Trazado 153467" d="M-64.694,484.217c-2.654-3.488-5.784-2.037-7.39-.893v-8.683A25.343,25.343,0,0,0-97.426,449.3a25.343,25.343,0,0,0-25.343,25.343v8.683c-1.606-1.144-4.736-2.6-7.39.893-3.575,4.7,2.2,15.04,7.668,14.964a25.327,25.327,0,0,0,25.065,21.785,25.326,25.326,0,0,0,25.064-21.785C-66.9,499.257-61.118,488.917-64.694,484.217Z" transform="translate(131.264 -449.299)" fill="#e88c5d"/>
            <g id="Grupo_140692" data-name="Grupo 140692" transform="translate(2.587 24.566)">
              <path id="Trazado_153468" data-name="Trazado 153468" d="M-100.053,498.314c.84-.321,1.677-.515,2.465-.841a7.181,7.181,0,0,0,1.159-.5,4.688,4.688,0,0,0,1.049-.738,2.419,2.419,0,0,1-.825,1.082,4.986,4.986,0,0,1-1.2.656A5.953,5.953,0,0,1-100.053,498.314Z" transform="translate(134.559 -465.019)" fill="#2e150c"/>
              <path id="Trazado_153469" data-name="Trazado 153469" d="M-101.9,476.942a18.563,18.563,0,0,1,.5,4.293,13.287,13.287,0,0,1-.682,4.364c-.5,1.429-1.2,2.562-1.238,3.769a2.384,2.384,0,0,0,.455,1.635,1.846,1.846,0,0,0,1.705.725,1.967,1.967,0,0,1-2.228-.138,3.034,3.034,0,0,1-1.18-2.157c-.2-1.682.562-3.141.973-4.359a24.355,24.355,0,0,0,.954-3.942C-102.408,479.766-102.231,478.357-101.9,476.942Z" transform="translate(133.702 -468.655)" fill="#2e150c"/>
              <path id="Trazado_153470" data-name="Trazado 153470" d="M-129.087,482.12a3.151,3.151,0,0,1,1.141-2.495,2.167,2.167,0,0,1,1.539-.435,2.7,2.7,0,0,1,1.462.673,6.815,6.815,0,0,1,1.642,2.359c.395.808.708,1.608,1.065,2.413a.79.79,0,0,1-.4,1.042.789.789,0,0,1-.941-.234l-.024-.03a3.067,3.067,0,0,0-1.911-1.154,1.191,1.191,0,0,0-.863.1,1.417,1.417,0,0,0-.544.767,2.667,2.667,0,0,0,.6,2.236,2.787,2.787,0,0,0,2.269,1.328,2.825,2.825,0,0,1-2.873-.777,3.461,3.461,0,0,1-1.254-3.058,2.606,2.606,0,0,1,.96-1.652,2.568,2.568,0,0,1,1.915-.471,4.389,4.389,0,0,1,2.975,1.732l-1.367.778c-.317-.811-.667-1.631-.956-2.433a7.086,7.086,0,0,0-1.115-2.068,1.451,1.451,0,0,0-1.785-.478A3.287,3.287,0,0,0-129.087,482.12Z" transform="translate(129.087 -468.234)" fill="#2e150c"/>
              <path id="Trazado_153471" data-name="Trazado 153471" d="M-75.4,482.12a3.282,3.282,0,0,0-1.53-1.855,1.451,1.451,0,0,0-1.785.478,7.084,7.084,0,0,0-1.114,2.068c-.29.8-.638,1.622-.956,2.433l-1.368-.778a4.392,4.392,0,0,1,2.976-1.732,2.566,2.566,0,0,1,1.913.471,2.606,2.606,0,0,1,.96,1.652,3.461,3.461,0,0,1-1.254,3.058,2.825,2.825,0,0,1-2.873.777,2.787,2.787,0,0,0,2.269-1.328,2.672,2.672,0,0,0,.6-2.236,1.425,1.425,0,0,0-.546-.767,1.191,1.191,0,0,0-.863-.1,3.067,3.067,0,0,0-1.911,1.154l-.023.03a.791.791,0,0,1-1.11.134.791.791,0,0,1-.234-.942c.357-.8.669-1.6,1.064-2.413a6.815,6.815,0,0,1,1.642-2.359,2.7,2.7,0,0,1,1.463-.673,2.166,2.166,0,0,1,1.538.435A3.151,3.151,0,0,1-75.4,482.12Z" transform="translate(137.902 -468.234)" fill="#2e150c"/>
              <path id="Trazado_153472" data-name="Trazado 153472" d="M-105.152,473.249a22.088,22.088,0,0,0-2.744-.437,15.222,15.222,0,0,0-2.831-.014,10.2,10.2,0,0,0-2.751.677,11.717,11.717,0,0,0-2.558,1.449l-.051.034a.573.573,0,0,1-.8-.149.574.574,0,0,1,.024-.681,9.761,9.761,0,0,1,2.479-2.34,10.031,10.031,0,0,1,3.192-1.41,11.765,11.765,0,0,1,3.467-.4,11.13,11.13,0,0,1,3.474.663,1.378,1.378,0,0,1,.811,1.772,1.378,1.378,0,0,1-1.585.865Z" transform="translate(131.368 -469.969)" fill="#2e150c"/>
              <path id="Trazado_153473" data-name="Trazado 153473" d="M-98.822,470.64a11.117,11.117,0,0,1,3.473-.663,11.768,11.768,0,0,1,3.468.4,10.025,10.025,0,0,1,3.191,1.41,9.766,9.766,0,0,1,2.48,2.34.573.573,0,0,1-.093.806.575.575,0,0,1-.681.025l-.051-.036a11.745,11.745,0,0,0-2.558-1.449,10.2,10.2,0,0,0-2.753-.677,15.222,15.222,0,0,0-2.831.014,22.1,22.1,0,0,0-2.743.437l-.128.029a1.376,1.376,0,0,1-1.64-1.052A1.378,1.378,0,0,1-98.822,470.64Z" transform="translate(134.622 -469.969)" fill="#2e150c"/>
              <g id="Grupo_140689" data-name="Grupo 140689" transform="translate(38.025 9.296)">
                <path id="Trazado_153474" data-name="Trazado 153474" d="M-92.992,481.65c0,2.132-.918,3.86-2.05,3.86s-2.05-1.728-2.05-3.86.918-3.859,2.05-3.859S-92.992,479.519-92.992,481.65Z" transform="translate(97.092 -477.791)" fill="#2e150c"/>
                <path id="Trazado_153475" data-name="Trazado 153475" d="M-94.808,478.648a6,6,0,0,0,2.714-.857s-.8,2.063-2.358,2.127Z" transform="translate(97.522 -477.791)" fill="#2e150c"/>
              </g>
              <g id="Grupo_140690" data-name="Grupo 140690" transform="translate(20.437 9.295)">
                <ellipse id="Elipse_4796" data-name="Elipse 4796" cx="2.05" cy="3.86" rx="2.05" ry="3.86" transform="translate(1.329)" fill="#2e150c"/>
                <path id="Trazado_153476" data-name="Trazado 153476" d="M-109.177,478.648a6,6,0,0,1-2.714-.857s.8,2.063,2.359,2.127Z" transform="translate(111.891 -477.79)" fill="#2e150c"/>
              </g>
              <path id="Trazado_153477" data-name="Trazado 153477" d="M-107.556,491.758a6.468,6.468,0,0,1-6.468,6.468,6.468,6.468,0,0,1-6.469-6.468,6.469,6.469,0,0,1,6.469-6.469A6.469,6.469,0,0,1-107.556,491.758Z" transform="translate(130.707 -467.082)" fill="#ff9775"/>
              <path id="Trazado_153478" data-name="Trazado 153478" d="M-80.415,491.758a6.467,6.467,0,0,1-6.468,6.468,6.467,6.467,0,0,1-6.468-6.468,6.468,6.468,0,0,1,6.468-6.469A6.468,6.468,0,0,1-80.415,491.758Z" transform="translate(135.822 -467.082)" fill="#ff9775"/>
              <g id="Grupo_140691" data-name="Grupo 140691" transform="translate(26.168 23.245)">
                <path id="Trazado_153479" data-name="Trazado 153479" d="M-92.866,491.225a9.474,9.474,0,0,1-.961,3.588,5.512,5.512,0,0,1-4.346,3.021,7.194,7.194,0,0,1-1.2.068c-5.229-.113-7.7-5.919-7.7-5.919l1.494-.26,12.732-2.2A10.062,10.062,0,0,1-92.866,491.225Z" transform="translate(107.069 -489.528)" fill="#2e150c"/>
                <path id="Trazado_153480" data-name="Trazado 153480" d="M-93.1,491.225l-11.939,2.082a.481.481,0,0,1-.566-.4l-.2-1.188,12.732-2.2A10.062,10.062,0,0,1-93.1,491.225Z" transform="translate(107.306 -489.528)" fill="#fff"/>
                <path id="Trazado_153481" data-name="Trazado 153481" d="M-95.031,494.131a5.512,5.512,0,0,1-4.346,3.021,7.2,7.2,0,0,1-1.2.068,2.993,2.993,0,0,1-.1-.792,3.287,3.287,0,0,1,3.293-3.283A3.29,3.29,0,0,1-95.031,494.131Z" transform="translate(108.273 -488.846)" fill="#ff9775"/>
              </g>
            </g>
          </g>
          <path id="Trazado_153482" data-name="Trazado 153482" d="M-151.174,556.366l7.639-5.375-.472-1.414,27.915-13.957.283.849c2.358-1.131,11.977-3.4,11.977-3.4V519.4c-11.128-4.9-14.806-19.239-14.806-19.239-7.922-1.98-9.619-12.826-6.7-15.937s7.026,0,7.026,0c14.854-3.82,25.463-19.38,25.463-19.38s12.409,24,24.715,19.478c0,0,4.755-3.3,7.679.562s-.283,12.921-6.979,14.995c0,0-3.018,14.335-14.9,19.428l-.1,13.675L-72.615,536a42,42,0,0,1,19.992,9.9,28.21,28.21,0,0,0,2.908-26.212c-.872-2.057-2.006-4-2.819-6.079-3.674-9.4-.372-19.874.541-29.925a24.755,24.755,0,0,0-.9-10.662c-1.222-3.382-3.852-6.42-7.328-7.342-.231-.061-1.294-3.4-1.533-3.845a18.55,18.55,0,0,0-2.391-3.451c-4.35-4.951-10.838-8.795-16.959-11.094a29.638,29.638,0,0,0-16.464-1.6,31.2,31.2,0,0,0-12.86,6.527c-3.632,2.926-7.79,6.533-10.286,10.5-5.8,9.214-15.154,13.69-18.546,24.034-2.806,8.558,2.647,17.716,1.916,26.694a19.645,19.645,0,0,1-4.533,11c-3.765,4.461-9.666,7.477-11.357,13.064C-154.854,542.87-154,551.526-151.174,556.366Z" transform="translate(154.047 -445.149)" fill="#2e150c"/>
          <g id="Grupo_140698" data-name="Grupo 140698" transform="translate(29.544 23.158)">
            <g id="Grupo_140697" data-name="Grupo 140697">
              <path id="Trazado_153483" data-name="Trazado 153483" d="M-100.1,470.081a1.911,1.911,0,0,1-1.91,1.91,1.91,1.91,0,0,1-1.91-1.91c0-1.055.855-5.447,1.91-5.447S-100.1,469.025-100.1,470.081Z" transform="translate(133.95 -464.634)" fill="#ffa901"/>
              <g id="Grupo_140696" data-name="Grupo 140696" transform="translate(0 29.07)">
                <g id="Grupo_140694" data-name="Grupo 140694">
                  <path id="Trazado_153484" data-name="Trazado 153484" d="M-119.569,501.817a4.81,4.81,0,0,1-4.81,4.81,4.81,4.81,0,0,1-4.81-4.81c0-2.656,2.154-10.044,4.81-10.044S-119.569,499.161-119.569,501.817Z" transform="translate(129.188 -488.59)" fill="#ffa901"/>
                  <ellipse id="Elipse_4797" data-name="Elipse 4797" cx="2.299" cy="2.299" rx="2.299" ry="2.299" transform="translate(2.511)" fill="#ffa901"/>
                </g>
                <g id="Grupo_140695" data-name="Grupo 140695" transform="translate(53.096)">
                  <path id="Trazado_153485" data-name="Trazado 153485" d="M-74.894,501.817a4.809,4.809,0,0,1-4.81,4.81,4.809,4.809,0,0,1-4.809-4.81c0-2.656,2.152-10.044,4.809-10.044S-74.894,499.161-74.894,501.817Z" transform="translate(84.512 -488.59)" fill="#ffa901"/>
                  <ellipse id="Elipse_4798" data-name="Elipse 4798" cx="2.299" cy="2.299" rx="2.299" ry="2.299" transform="translate(2.51)" fill="#ffa901"/>
                </g>
              </g>
            </g>
          </g>
        </g>
      </g>
      <g id="Grupo_140718" data-name="Grupo 140718" transform="translate(95.211 131.079)">
        <g id="Grupo_140701" data-name="Grupo 140701" transform="translate(90.552 190.355)">
          <path id="Trazado_153486" data-name="Trazado 153486" d="M-2.569,737.568a110.744,110.744,0,0,0-9.606-21.959H-110.07s-3.494,9.353-7.4,21.959Z" transform="translate(117.473 -715.609)" fill="#024442"/>
          <path id="Trazado_153487" data-name="Trazado 153487" d="M-101.453,737.184c4.005-5.436,8.633-12.7,10.016-18.81a.6.6,0,0,0-.452-.713.6.6,0,0,0-.713.452c-1.387,6.113-6.3,13.634-10.356,19.071Z" transform="translate(120.209 -715.225)" fill="#1e2224"/>
          <path id="Trazado_153488" data-name="Trazado 153488" d="M-108.509,737.208a103.614,103.614,0,0,1,2.735-18.953.582.582,0,0,0-.44-.713.582.582,0,0,0-.713.44c-.393,1.638-2.7,11.689-2.756,19.226Z" transform="translate(118.941 -715.248)" fill="#1e2224"/>
        </g>
        <g id="Grupo_140714" data-name="Grupo 140714" transform="translate(0 69.642)">
          <g id="Grupo_140702" data-name="Grupo 140702" transform="translate(138.774 15.946)">
            <path id="Trazado_153489" data-name="Trazado 153489" d="M73.43,652.013c21.453,15.477,77.153,56.086,95.955,73.912l-8.007,13.007S77.573,695.748,44.421,679.1c0,0-106.536-24.172-116.228-34.867,0,0-8-3.326-3.945-9.4,3.835-5.747,61.743-16.067,128.961,6.806A76.748,76.748,0,0,1,73.43,652.013Z" transform="translate(76.899 -627.456)" fill="#b36138"/>
            <path id="Trazado_153490" data-name="Trazado 153490" d="M135.457,735.757c.655-.5-.729-8.386-.729-8.386s17.681,5.093,17.915,4.389-7.939-7.133-7.939-7.133,11.523,3.5,11.836,2.5-10.792-7.426-10.792-7.426,11.035,1.928,11.086.871-10.72-4.912-10.72-4.912,6.865.632,6.578-1.009-23.637-6.847-23.637-6.847l-9.175,13.713S134.8,736.252,135.457,735.757Z" transform="translate(113.985 -612.312)" fill="#b36138"/>
            <path id="Trazado_153491" data-name="Trazado 153491" d="M148.407,706.682s-12.443,18.112-17.542,19.812S41.183,680.94,41.183,680.94,8.548,674.249-20.344,666.7c-18.623-4.861-35.69-10.066-41.454-14.06-6.037-4.183-6.346-8.937-4.6-13.1a14.638,14.638,0,0,1,.725-1.509c2.876-5.241,8.486-9.187,8.486-9.187s1.367-.119,3.779-.273q.731-.053,1.6-.107c12.752-.761,45.7-1.937,71.486,4.088,32.671,7.642,45.827,12.728,54.6,20.37S148.407,706.682,148.407,706.682Z" transform="translate(78.703 -627.383)" fill="#ffa901"/>
          </g>
          <g id="Grupo_140703" data-name="Grupo 140703" transform="translate(0 17.047)">
            <path id="Trazado_153492" data-name="Trazado 153492" d="M-72.188,650.29c2.287-5.74,4.422-11.6,7.094-17.179a8.458,8.458,0,0,0-5.318-.794c-40.46,7.313-84.917,51.065-84.917,51.065L-173.6,634.438a9.311,9.311,0,0,0-10.8-5.82l-1.907.437a9.311,9.311,0,0,0-7.143,10.358c3.273,23.6,13.651,88.691,29.071,93.008,12.663,3.545,55.759-27.254,82.947-52.561A205.442,205.442,0,0,1-72.188,650.29Z" transform="translate(193.688 -628.382)" fill="#b36138"/>
            <path id="Trazado_153493" data-name="Trazado 153493" d="M-56.657,629.309l-1.153,2.626-.559,1.26-21.915,49.726s-7.511,5.835-18.148,13.5c-21.927,15.795-57.154,39.4-67.434,35.868-15.284-5.229-30.282-77.94-27.454-83.74s23.769-7.784,23.769-7.784l15.284,38.911s28.428-22.07,48.513-35.654c15.581-10.53,36.51-13.572,45.126-14.4.3-.036.582-.059.844-.083.154-.012.309-.036.452-.048C-57.62,629.345-56.657,629.309-56.657,629.309Z" transform="translate(193.665 -628.207)" fill="#ffa901"/>
          </g>
          <g id="Grupo_140704" data-name="Grupo 140704" transform="translate(136.905)">
            <rect id="Rectángulo_35939" data-name="Rectángulo 35939" width="22.794" height="21.914" transform="matrix(0.995, 0.098, -0.098, 0.995, 2.146, 0)" fill="#b36138"/>
            <path id="Trazado_153494" data-name="Trazado 153494" d="M-54.183,618.912l-.428,4.344a26.843,26.843,0,0,1-11.582,1.4,26.855,26.855,0,0,1-11.086-3.626l.427-4.344a26.868,26.868,0,0,0,11.087,3.626A26.85,26.85,0,0,0-54.183,618.912Z" transform="translate(78.695 -613.541)" fill="#a35933" opacity="0.5" style="mix-blend-mode: multiply;isolation: isolate"/>
          </g>
          <g id="Grupo_140713" data-name="Grupo 140713" transform="translate(94.01 17.031)">
            <path id="Trazado_153495" data-name="Trazado 153495" d="M-9.325,735.1c-.713,6.5-94.21,14.285-102.708,0-3.019-5.075-2.971-18.588-1.747-33.634.036-.392.071-.8.1-1.188.107-1.236.226-2.5.345-3.744.428-4.457.927-8.973,1.474-13.382.059-.487.119-.963.19-1.45s.119-.986.178-1.474c.059-.4.107-.808.166-1.212.666-5.182,1.379-10.15,2.044-14.583v-.012c.416-2.828.82-5.431,1.177-7.761.285-1.854.547-3.518.773-4.968a16.2,16.2,0,0,1,8.177-11.718c6.525-3.6,16.353-8.557,23.674-10.173.273-.06.535-.107.8-.155.143-.036.3-.059.44-.083a17.669,17.669,0,0,1,2.829-.285s8.284,6.762,23.14-.594c0,0,1.153.2,3.019.642.4.1.856.2,1.319.321,6.525,1.64,18.79,5.526,25.136,12.788,5.4,6.168,6.953,15.236,7.369,24.1.166,3.292.166,6.548.143,9.615,0,.4,0,.8-.012,1.188-.012,1.9-.024,3.72,0,5.408.012,1.2.048,2.615.119,4.207.012.523.036,1.07.048,1.64.166,3.97.416,8.771.689,13.774.012.4.036.8.059,1.2C-9.694,716.8-8.9,731.1-9.325,735.1Z" transform="translate(114.563 -628.309)" fill="#ffa901"/>
            <g id="Grupo_140712" data-name="Grupo 140712" transform="translate(0.739)">
              <g id="Grupo_140705" data-name="Grupo 140705" transform="translate(2.326 46.028)">
                <path id="Trazado_153496" data-name="Trazado 153496" d="M-11.784,668.918c0,.4,0,.8-.012,1.188-42.1-4.813-88.8,1.248-100.188,2.888.059-.4.107-.808.166-1.212C-99.838,670.058-53.583,664.152-11.784,668.918Z" transform="translate(111.984 -667.098)" fill="#ffa901" opacity="0.5" style="mix-blend-mode: screen;isolation: isolate"/>
              </g>
              <g id="Grupo_140706" data-name="Grupo 140706" transform="translate(0.044 71.974)">
                <path id="Trazado_153497" data-name="Trazado 153497" d="M-10.519,692.221c-10.91.7-22.224.975-33.242.975-31.3,0-60.113-2.211-70.144-3.078.036-.392.071-.8.1-1.188,13.525,1.165,61.373,4.8,103.23,2.092C-10.567,691.425-10.543,691.817-10.519,692.221Z" transform="translate(113.904 -688.929)" fill="#ffa901" opacity="0.5" style="mix-blend-mode: screen;isolation: isolate"/>
              </g>
              <g id="Grupo_140708" data-name="Grupo 140708" transform="translate(1.958 53.018)" opacity="0.5" style="mix-blend-mode: screen;isolation: isolate">
                <g id="Grupo_140707" data-name="Grupo 140707">
                  <path id="Trazado_153498" data-name="Trazado 153498" d="M-11.571,680.252l-6.287-5.681-15.771,14.262-15.795-14.262-15.783,14.262-15.771-14.262-15.783,14.262-15.533-14.024c.059-.487.119-.963.19-1.45l15.343,13.881,15.783-14.262,15.771,14.262,15.783-14.262,15.795,14.262,15.771-14.262,6.239,5.633C-11.607,679.135-11.583,679.682-11.571,680.252Z" transform="translate(112.294 -672.979)" fill="#ffa901"/>
                </g>
              </g>
              <g id="Grupo_140710" data-name="Grupo 140710" transform="translate(0 27.222)" opacity="0.5" style="mix-blend-mode: multiply;isolation: isolate">
                <g id="Grupo_140709" data-name="Grupo 140709">
                  <path id="Trazado_153499" data-name="Trazado 153499" d="M-109.41,660.187l-4.531-6.239,9.953-2.674Z" transform="translate(113.941 -651.274)" fill="#ffa901"/>
                </g>
              </g>
              <g id="Grupo_140711" data-name="Grupo 140711" transform="translate(38.289)">
                <path id="Trazado_153500" data-name="Trazado 153500" d="M-49.089,628.369c-.309.4-.654.856-1.046,1.343-2.674,3.233-7.369,7.868-13.549,9.734a18.935,18.935,0,0,1-2.222.535,12.083,12.083,0,0,1-2.127.19c-5.182,0-9-3.494-11.433-6.8a29.066,29.066,0,0,1-2.211-3.506.249.249,0,0,0-.048-.071c.3-.036.582-.059.844-.083.143-.036.3-.059.44-.083a.044.044,0,0,0,.012.036,24.509,24.509,0,0,0,1.521,2.448c2.52,3.637,6.81,7.773,12.788,6.7a18.531,18.531,0,0,0,3.161-.879c5.051-1.854,9.032-5.669,11.5-8.545.273-.321.523-.63.761-.915Q-49.962,628.422-49.089,628.369Z" transform="translate(81.724 -628.369)" fill="#ffa901" opacity="0.5" style="mix-blend-mode: screen;isolation: isolate"/>
              </g>
            </g>
          </g>
        </g>
        <g id="Grupo_140717" data-name="Grupo 140717" transform="translate(117.402)">
          <path id="Trazado_153501" data-name="Trazado 153501" d="M-23.947,596.29c-2.447-3.973-5.914-2.762-7.733-1.716l.9-9.2a26.972,26.972,0,0,0-24.2-29.484h0a26.972,26.972,0,0,0-29.484,24.2l-.906,9.2c-1.581-1.38-4.744-3.242-7.92.176-4.27,4.6.75,16.124,6.537,16.647a26.972,26.972,0,0,0,24.3,25.688A26.972,26.972,0,0,0-33.6,611.342C-27.825,611.958-20.655,601.631-23.947,596.29Z" transform="translate(94.881 -555.381)" fill="#b36138"/>
          <path id="Trazado_153502" data-name="Trazado 153502" d="M-85.681,591.669s4.738-8.275,5.587-14.288,3.961-9.548,6.861-8.2,10.539,6.083,15.561,6.011,15.208-3.607,16.9-1.486-1.98,7.852.5,12.449a84.274,84.274,0,0,0,5.871,9.124l1.23-.642s2.023-12.868,1.033-17.112-7.073-20.3-23.483-21.926-26.524,9.9-28.5,15.278-2.849,18.377-2.849,18.377Z" transform="translate(96.372 -555.441)" fill="#a15732"/>
          <g id="Grupo_140716" data-name="Grupo 140716" transform="translate(2.798 22.265)">
            <path id="Trazado_153503" data-name="Trazado 153503" d="M-86.6,583.89s2.094,9.7-1.206,16.964.849,26.218,10.279,32.065c8.493,5.265,27.916,3.772,34.517-1.7s8.205-25.275,8.205-25.275-3.179-11.3,2.009-16.674a34.215,34.215,0,0,0-8.9,5.979c-3.884,3.795-23.149,11.824-31.153,6.528h0a22.032,22.032,0,0,1-8.219-8.254Z" transform="translate(93.204 -572.344)" fill="#2e150c"/>
            <g id="Grupo_140715" data-name="Grupo 140715">
              <path id="Trazado_153504" data-name="Trazado 153504" d="M-60.069,576.43a8.159,8.159,0,0,1,3.665-.868,10.564,10.564,0,0,1,3.718.635,10.187,10.187,0,0,1,3.315,1.878,8.927,8.927,0,0,1,2.282,2.939.714.714,0,0,1-.317.959.714.714,0,0,1-.712-.04l-.072-.047a16.865,16.865,0,0,0-2.659-1.6,12.08,12.08,0,0,0-2.763-.952,28.22,28.22,0,0,0-2.914-.433c-.979-.113-2.042-.174-3.033-.349l-.189-.033a1.116,1.116,0,0,1-.9-1.294A1.119,1.119,0,0,1-60.069,576.43Z" transform="translate(98.531 -573.915)" fill="#2e150c"/>
              <path id="Trazado_153505" data-name="Trazado 153505" d="M-65.116,577.946c-1.008-.021-2.061-.169-3.044-.248a28,28,0,0,0-2.943-.144,12.067,12.067,0,0,0-2.9.395A16.987,16.987,0,0,0-76.917,579l-.08.032a.714.714,0,0,1-.931-.395.714.714,0,0,1,.1-.707,8.92,8.92,0,0,1,2.811-2.438A10.183,10.183,0,0,1-71.4,574.3a10.532,10.532,0,0,1,3.77.1,8.189,8.189,0,0,1,3.426,1.565,1.117,1.117,0,0,1,.172,1.569,1.114,1.114,0,0,1-.888.418Z" transform="translate(95.269 -574.175)" fill="#2e150c"/>
              <path id="Trazado_153506" data-name="Trazado 153506" d="M-54.457,600.246c-3.86,9.645-12.578,3.046-12.578,3.046Z" transform="translate(97.331 -569.262)" fill="#fff"/>
              <path id="Trazado_153507" data-name="Trazado 153507" d="M-63.038,585.2a19.777,19.777,0,0,1,.082,4.6,14.382,14.382,0,0,1-1.178,4.551c-.7,1.452-1.524,2.594-1.7,3.861a2.54,2.54,0,0,0,.311,1.782,1.965,1.965,0,0,0,1.73.945,2.1,2.1,0,0,1-2.346-.378,3.235,3.235,0,0,1-1.026-2.409,6.082,6.082,0,0,1,.522-2.47c.313-.743.688-1.4.965-2.044a25.414,25.414,0,0,0,1.421-4.076C-63.872,588.137-63.536,586.664-63.038,585.2Z" transform="translate(97.306 -572.098)" fill="#2e150c"/>
              <path id="Trazado_153508" data-name="Trazado 153508" d="M-92.527,587.855a3.357,3.357,0,0,1,1.469-2.524,2.307,2.307,0,0,1,1.675-.3,2.873,2.873,0,0,1,1.478.865,7.253,7.253,0,0,1,1.494,2.669c.334.9.582,1.777.876,2.667a.839.839,0,0,1-.535,1.061.841.841,0,0,1-.973-.346l-.021-.034a3.27,3.27,0,0,0-1.9-1.421,1.263,1.263,0,0,0-.925.019,1.514,1.514,0,0,0-.657.755,2.848,2.848,0,0,0,.4,2.43,2.969,2.969,0,0,0,2.265,1.643,3.01,3.01,0,0,1-2.962-1.123,3.683,3.683,0,0,1-1.009-3.369,2.768,2.768,0,0,1,1.19-1.65,2.736,2.736,0,0,1,2.076-.3,4.68,4.68,0,0,1,2.971,2.144l-1.53.682c-.252-.891-.536-1.8-.759-2.676a7.512,7.512,0,0,0-.964-2.306,1.542,1.542,0,0,0-1.841-.692A3.494,3.494,0,0,0-92.527,587.855Z" transform="translate(92.527 -572.138)" fill="#2e150c"/>
              <path id="Trazado_153509" data-name="Trazado 153509" d="M-35.617,593.419a3.5,3.5,0,0,0-1.427-2.125,1.544,1.544,0,0,0-1.941.32,7.535,7.535,0,0,0-1.4,2.074c-.39.819-.845,1.652-1.266,2.477l-1.367-.966a4.669,4.669,0,0,1,3.331-1.525,2.736,2.736,0,0,1,1.979.7,2.768,2.768,0,0,1,.844,1.85,3.677,3.677,0,0,1-1.646,3.107,3,3,0,0,1-3.123.524,2.967,2.967,0,0,0,2.542-1.169,2.845,2.845,0,0,0,.865-2.306,1.517,1.517,0,0,0-.5-.869,1.264,1.264,0,0,0-.9-.2,3.271,3.271,0,0,0-2.144,1.023l-.027.029a.841.841,0,0,1-1.19.027.843.843,0,0,1-.151-1.022c.462-.815.877-1.629,1.38-2.445a7.25,7.25,0,0,1,1.985-2.327,2.889,2.889,0,0,1,1.62-.561,2.3,2.3,0,0,1,1.583.622A3.359,3.359,0,0,1-35.617,593.419Z" transform="translate(101.816 -571.186)" fill="#2e150c"/>
              <path id="Trazado_153510" data-name="Trazado 153510" d="M-54.226,591.126c-.221,2.258-1.374,3.992-2.573,3.874s-1.992-2.044-1.77-4.3,1.375-3.992,2.574-3.874S-54,588.868-54.226,591.126Z" transform="translate(98.92 -571.793)" fill="#2e150c"/>
              <path id="Trazado_153511" data-name="Trazado 153511" d="M-73.059,589.272c-.222,2.258.569,4.183,1.768,4.3s2.352-1.616,2.574-3.874-.57-4.183-1.77-4.3S-72.838,587.014-73.059,589.272Z" transform="translate(96.189 -572.061)" fill="#2e150c"/>
            </g>
          </g>
        </g>
      </g>
      <g id="Grupo_140741" data-name="Grupo 140741" transform="translate(285.005 132.993)">
        <g id="Grupo_140740" data-name="Grupo 140740" transform="translate(0)">
          <g id="Grupo_140719" data-name="Grupo 140719" transform="translate(92.44 202.382)">
            <path id="Trazado_153512" data-name="Trazado 153512" d="M137.755,735.358c-.235-.386-.468-.764-.692-1.126-.261-.416-.5-.808-.75-1.188-2.269-3.625-3.72-5.7-3.72-5.7H48.974s-1.45,2.08-3.72,5.7c-.25.38-.487.773-.75,1.188-.223.361-.456.739-.692,1.126Z" transform="translate(-43.812 -727.339)" fill="#ffa901"/>
            <path id="Trazado_153513" data-name="Trazado 153513" d="M125.65,733.577c.015.032.157.345.391.876h1.3c-.223-.517-.395-.906-.492-1.126h10.1c-.261-.416-.5-.808-.75-1.188H45.144c-.25.38-.487.773-.75,1.188H125.6A.64.64,0,0,0,125.65,733.577Z" transform="translate(-43.702 -726.434)" fill="#ffa901" opacity="0.5" style="mix-blend-mode: screen;isolation: isolate"/>
          </g>
          <g id="Grupo_140734" data-name="Grupo 140734" transform="translate(0 66.062)">
            <g id="Grupo_140721" data-name="Grupo 140721" transform="translate(0 18.06)">
              <g id="Grupo_140720" data-name="Grupo 140720" transform="translate(0 0.536)">
                <path id="Trazado_153514" data-name="Trazado 153514" d="M88.2,628.585a8.392,8.392,0,0,1,8.622,2.637c2.331,2.774,4.738,7.483,5.05,15.22.623,15.471-79.122,93.784-98.378,90.2-15.744-2.931-31.863-66.841-37.219-90.059a9.311,9.311,0,0,1,6.194-10.951l1.861-.6A9.311,9.311,0,0,1-14.4,639.864L8.152,686.991S48.546,639.463,88.2,628.585Z" transform="translate(33.969 -628.284)" fill="#cc7548"/>
              </g>
              <path id="Trazado_153515" data-name="Trazado 153515" d="M18.286,664.424S53.369,631.038,79.4,627.833L52.8,698.751l-11.506,10S11.684,684.794,18.286,664.424Z" transform="translate(43.637 -627.833)" fill="#ab9909"/>
            </g>
            <g id="Grupo_140726" data-name="Grupo 140726" transform="translate(93.388 16.237)">
              <path id="Trazado_153516" data-name="Trazado 153516" d="M129.71,731.906c1.676-24.2,6.584-70.923,1.519-84.218-5.568-14.618-30.9-19.875-40.74-21.389H86.535c-9.839,1.514-40.9,81.405-39.221,105.607.623,8.99,39.221,14.666,39.221,14.666h3.954S129.087,740.9,129.71,731.906Z" transform="translate(-44.112 -626.299)" fill="#cc7548"/>
              <g id="Grupo_140725" data-name="Grupo 140725" transform="translate(0 1.26)">
                <path id="Trazado_153517" data-name="Trazado 153517" d="M134.8,675.456c-1.129,21.119-2.354,70.726-2.354,70.726H48.229L44.687,687.7a41.8,41.8,0,0,1,3.7-19.9c5.669-12.467,15.948-33,24.744-39.493.166-.119.321-.238.486-.345l.666-.024,3.983-.166s3.16,35.987,8.07,37.306,14.523-37.722,14.523-37.722,1.248.321,3.208.9c.358.119.726.226,1.129.357,6.324,1.961,17.793,6.049,22.071,10.993C133.288,646.588,135.937,654.325,134.8,675.456Z" transform="translate(-44.61 -627.359)" fill="#ab9909"/>
                <g id="Grupo_140722" data-name="Grupo 140722" transform="translate(28.518 0.582)">
                  <path id="Trazado_153518" data-name="Trazado 153518" d="M100.669,628.526c-2.209,10.946-9.792,35.821-17.148,40.872a4.879,4.879,0,0,1-2.758.963,3.553,3.553,0,0,1-1.046-.155C72.2,668,69.449,640.055,68.605,628.217c.166-.119.321-.238.486-.345l.666-.024c.988,14.155,4.017,39.362,10.305,41.228a3.233,3.233,0,0,0,2.78-.654c7-4.825,14.547-29.664,16.7-40.253C99.9,628.289,100.266,628.4,100.669,628.526Z" transform="translate(-68.605 -627.849)" fill="#ab9909" opacity="0.5" style="mix-blend-mode: screen;isolation: isolate"/>
                </g>
                <g id="Grupo_140723" data-name="Grupo 140723" transform="translate(51.092 54.854)">
                  <rect id="Rectángulo_35940" data-name="Rectángulo 35940" width="15.599" height="2.823" fill="#ab9909" opacity="0.5" style="mix-blend-mode: screen;isolation: isolate"/>
                </g>
                <g id="Grupo_140724" data-name="Grupo 140724" transform="translate(67.78 49.951)" opacity="0.5" style="mix-blend-mode: multiply;isolation: isolate">
                  <path id="Trazado_153519" data-name="Trazado 153519" d="M109.565,690.683l-2.674-.5-5.249-20.8,3.221,22.119a4.449,4.449,0,0,0,4.313,3.807l1.183.024Z" transform="translate(-101.641 -669.389)" fill="#ab9909"/>
                </g>
              </g>
            </g>
            <g id="Grupo_140727" data-name="Grupo 140727" transform="translate(124.53)">
              <rect id="Rectángulo_35941" data-name="Rectángulo 35941" width="21.418" height="20.591" transform="matrix(0.984, -0.176, 0.176, 0.984, 0, 3.777)" fill="#cc7548"/>
              <path id="Trazado_153520" data-name="Trazado 153520" d="M92.325,615.093l.83,4.625a25.333,25.333,0,0,1-21.067,3.775l-.83-4.625a25.331,25.331,0,0,0,21.067-3.775Z" transform="translate(-70.729 -612.174)" fill="#ad5f37"/>
            </g>
            <g id="Grupo_140733" data-name="Grupo 140733" transform="translate(85.175 22.203)">
              <g id="Grupo_140730" data-name="Grupo 140730" transform="translate(0 3.048)">
                <g id="Grupo_140729" data-name="Grupo 140729">
                  <path id="Trazado_153521" data-name="Trazado 153521" d="M57.612,675.011c.132.166.251.333.382.511,14.931,19.625,50.459,58.061,68.615,77.449h42.586q-.082-3.106-.448-6.2c-.261-2.234-.559-4.457-.879-6.644-9.175-63.06-39.851-105.286-46.09-106.166-6.8-.951-6.345,7.178-6.345,7.178-2.722,6.7,2.555,38.233,8.057,66.221-22.4-17.53-45.719-35.856-54.526-42.8l.024-.024c-8.082-11.754-24.745-16.532-29.082-16.912s-.94,5.657-.94,5.657Z" transform="translate(-37.699 -633.884)" fill="#cc7548"/>
                  <g id="Grupo_140728" data-name="Grupo 140728" transform="translate(85.303 70.423)">
                    <path id="Trazado_153522" data-name="Trazado 153522" d="M109.475,693.139l16.341,17.976-16.193-14.856Z" transform="translate(-109.475 -693.139)" fill="#cc7548" opacity="0.4" style="mix-blend-mode: multiply;isolation: isolate"/>
                  </g>
                </g>
              </g>
              <g id="Grupo_140732" data-name="Grupo 140732" transform="translate(72.291)">
                <path id="Trazado_153523" data-name="Trazado 153523" d="M147.276,695.639l-5.088,1.307A71.914,71.914,0,0,1,111,697.968l-3.34-.63s-.4-1.212-1.047-3.316c-.13-.4-.26-.832-.4-1.3-4.054-13.489-14.394-52.554-1.188-61.408,0,0,13.2,1.331,23.769,21.7A389.373,389.373,0,0,1,145.967,692.1c.155.4.3.784.417,1.117C146.967,694.771,147.276,695.639,147.276,695.639Z" transform="translate(-98.526 -631.319)" fill="#ab9909"/>
                <g id="Grupo_140731" data-name="Grupo 140731" transform="translate(7.688 60.778)">
                  <path id="Trazado_153524" data-name="Trazado 153524" d="M145.165,683.576c-5.1,2.163-11.683,2.876-18.184,2.876a128.4,128.4,0,0,1-21.584-2.068c-.13-.4-.26-.832-.4-1.3,7.784,1.4,28.119,4.314,39.753-.63C144.9,682.863,145.045,683.243,145.165,683.576Z" transform="translate(-104.995 -682.459)" fill="#ab9909" opacity="0.5" style="mix-blend-mode: screen;isolation: isolate"/>
                </g>
              </g>
            </g>
          </g>
          <g id="Grupo_140739" data-name="Grupo 140739" transform="translate(89.315)">
            <g id="Grupo_140738" data-name="Grupo 140738" transform="translate(7.434 2.266)">
              <path id="Trazado_153525" data-name="Trazado 153525" d="M112.442,587.959c-3.229-2.966-6.054-.985-7.432.424l-1.532-8.546A25.344,25.344,0,0,0,74.063,559.36h0a25.343,25.343,0,0,0-20.476,29.415l1.531,8.547C53.337,596.478,50,595.6,48,599.5c-2.686,5.247,4.8,14.388,10.163,13.382A25.344,25.344,0,0,0,86.7,629.9h0a25.343,25.343,0,0,0,20.854-25.867C112.937,603.117,116.782,591.947,112.442,587.959Z" transform="translate(-47.437 -558.958)" fill="#cc7548"/>
              <g id="Grupo_140737" data-name="Grupo 140737" transform="translate(2.6 22.917)">
                <path id="Trazado_153526" data-name="Trazado 153526" d="M81.749,604.72c.77-.464,1.559-.8,2.277-1.263a7.093,7.093,0,0,0,1.053-.7,4.747,4.747,0,0,0,.9-.91,2.408,2.408,0,0,1-.62,1.209,4.963,4.963,0,0,1-1.064.857A5.938,5.938,0,0,1,81.749,604.72Z" transform="translate(-43.57 -573.791)" fill="#2e150c"/>
                <path id="Trazado_153527" data-name="Trazado 153527" d="M75.274,586.424a18.577,18.577,0,0,1,1.249,4.138,13.3,13.3,0,0,1,.1,4.415c-.24,1.5-.726,2.734-.555,3.928a2.388,2.388,0,0,0,.737,1.53,1.843,1.843,0,0,0,1.806.412,1.966,1.966,0,0,1-2.218.258,3.036,3.036,0,0,1-1.543-1.916c-.491-1.62,0-3.19.19-4.461a24.519,24.519,0,0,0,.245-4.049C75.272,589.293,75.2,587.876,75.274,586.424Z" transform="translate(-44.911 -576.699)" fill="#2e150c"/>
                <path id="Trazado_153528" data-name="Trazado 153528" d="M49.671,596.315a3.155,3.155,0,0,1,.683-2.657,2.164,2.164,0,0,1,1.438-.7,2.707,2.707,0,0,1,1.558.405,6.808,6.808,0,0,1,2.032,2.031c.531.727.98,1.458,1.474,2.188a.791.791,0,0,1-1.181,1.033l-.027-.026a3.072,3.072,0,0,0-2.085-.8,1.184,1.184,0,0,0-.832.253,1.42,1.42,0,0,0-.4.85,2.675,2.675,0,0,0,.983,2.1,2.787,2.787,0,0,0,2.467.906,2.826,2.826,0,0,1-2.965-.258,3.461,3.461,0,0,1-1.772-2.788,2.6,2.6,0,0,1,.652-1.8,2.564,2.564,0,0,1,1.8-.8,4.389,4.389,0,0,1,3.234,1.179l-1.209,1.008c-.455-.742-.944-1.488-1.369-2.226a7.1,7.1,0,0,0-1.462-1.84,1.45,1.45,0,0,0-1.841-.154A3.28,3.28,0,0,0,49.671,596.315Z" transform="translate(-49.625 -575.469)" fill="#2e150c"/>
                <path id="Trazado_153529" data-name="Trazado 153529" d="M102.431,586.9a3.276,3.276,0,0,0-1.833-1.557,1.451,1.451,0,0,0-1.673.784,7.114,7.114,0,0,0-.732,2.232c-.143.84-.341,1.71-.511,2.563L96.2,590.4a4.393,4.393,0,0,1,2.623-2.23,2.575,2.575,0,0,1,1.968.126,2.6,2.6,0,0,1,1.236,1.457,3.462,3.462,0,0,1-.7,3.231,2.829,2.829,0,0,1-2.691,1.272,2.792,2.792,0,0,0,2-1.708,2.672,2.672,0,0,0,.194-2.306,1.433,1.433,0,0,0-.671-.658,1.192,1.192,0,0,0-.868.051,3.074,3.074,0,0,0-1.678,1.474l-.018.033a.79.79,0,0,1-1.465-.557c.209-.856.376-1.7.623-2.564a6.8,6.8,0,0,1,1.2-2.611,2.7,2.7,0,0,1,1.32-.92,2.167,2.167,0,0,1,1.591.156A3.153,3.153,0,0,1,102.431,586.9Z" transform="translate(-40.863 -577.079)" fill="#2e150c"/>
                <path id="Trazado_153530" data-name="Trazado 153530" d="M71.617,583.565a22.014,22.014,0,0,0-2.779.052,15.243,15.243,0,0,0-2.788.485,10.2,10.2,0,0,0-2.59,1.153,11.674,11.674,0,0,0-2.262,1.877l-.044.043a.574.574,0,0,1-.908-.681,9.757,9.757,0,0,1,2.028-2.741,10.021,10.021,0,0,1,2.893-1.949,11.78,11.78,0,0,1,3.342-1.007,11.132,11.132,0,0,1,3.537.039,1.378,1.378,0,0,1-.3,2.734Z" transform="translate(-47.636 -577.782)" fill="#2e150c"/>
                <path id="Trazado_153531" data-name="Trazado 153531" d="M77.461,579.765a11.138,11.138,0,0,1,3.3-1.265,11.757,11.757,0,0,1,3.483-.216,10.041,10.041,0,0,1,3.39.823,9.791,9.791,0,0,1,2.854,1.866.574.574,0,0,1-.614.954l-.057-.025a11.64,11.64,0,0,0-2.773-.975,10.164,10.164,0,0,0-2.829-.182,15.336,15.336,0,0,0-2.783.512,22.056,22.056,0,0,0-2.623.915l-.122.051a1.378,1.378,0,0,1-1.228-2.46Z" transform="translate(-44.506 -578.241)" fill="#2e150c"/>
                <g id="Grupo_140735" data-name="Grupo 140735" transform="translate(37.235 8.663)">
                  <path id="Trazado_153532" data-name="Trazado 153532" d="M85.1,589.472c.376,2.1-.223,3.961-1.338,4.161s-2.322-1.339-2.7-3.437.223-3.961,1.338-4.161S84.727,587.374,85.1,589.472Z" transform="translate(-80.955 -585.438)" fill="#2e150c"/>
                  <path id="Trazado_153533" data-name="Trazado 153533" d="M82.852,586.854a6,6,0,0,0,2.521-1.324s-.424,2.174-1.946,2.511Z" transform="translate(-80.597 -585.53)" fill="#2e150c"/>
                </g>
                <g id="Grupo_140736" data-name="Grupo 140736" transform="translate(19.355 12.109)">
                  <path id="Trazado_153534" data-name="Trazado 153534" d="M67.6,592.608c.376,2.1,1.584,3.638,2.7,3.438s1.714-2.063,1.338-4.161-1.584-3.638-2.7-3.438S67.224,590.51,67.6,592.608Z" transform="translate(-65.613 -588.429)" fill="#2e150c"/>
                  <path id="Trazado_153535" data-name="Trazado 153535" d="M68.733,589.311a6,6,0,0,1-2.823-.365s1.152,1.89,2.7,1.679Z" transform="translate(-65.91 -588.332)" fill="#2e150c"/>
                </g>
                <ellipse id="Elipse_4799" data-name="Elipse 4799" cx="6.468" cy="6.468" rx="6.468" ry="6.468" transform="translate(11.084 34.051) rotate(-82.178)" fill="#de7b5e"/>
                <ellipse id="Elipse_4800" data-name="Elipse 4800" cx="6.468" cy="6.468" rx="6.468" ry="6.468" transform="translate(43.655 16.367)" fill="#de7b5e"/>
                <path id="Trazado_153536" data-name="Trazado 153536" d="M78.452,603.9s-.176-2.583,1.415-2.83a5.384,5.384,0,0,1,2.227-.036s.637-2.227,1.768-2.44a4.658,4.658,0,0,1,2.547.566A9.909,9.909,0,0,1,78.452,603.9Z" transform="translate(-44.193 -574.411)" fill="#ff774f"/>
                <path id="Trazado_153537" data-name="Trazado 153537" d="M78.451,603.762s4.244,1.8,6.26-.46,1.521-4,1.521-4A9.031,9.031,0,0,1,78.451,603.762Z" transform="translate(-44.192 -574.271)" fill="#ff774f"/>
                <path id="Trazado_153538" data-name="Trazado 153538" d="M76.651,604.146a25.663,25.663,0,0,0,6.03-1.856,11.8,11.8,0,0,0,2.547-1.685,12.447,12.447,0,0,0,2.018-2.424,6.514,6.514,0,0,1-1.418,3,8.477,8.477,0,0,1-2.678,2.067,11.107,11.107,0,0,1-3.205.953A9.7,9.7,0,0,1,76.651,604.146Z" transform="translate(-44.531 -574.483)" fill="#2e150c"/>
              </g>
            </g>
            <path id="Trazado_153539" data-name="Trazado 153539" d="M124.34,610.2c8.24-15.387-21.667-41.4-25.268-44.451a31.721,31.721,0,0,0-7.479-5.724c-17.371-9.749-39.735,6.488-41.426,20.064-1.961,3.716-16.62,32.662-3.746,44.3,0,0-8.473,11.99-.378,21.5,11.317,13.3,30.179,5.658,32.82-4.716l-1.7-11.506s-13.862-3.205-17.919-16.5c0,0-10-1.32-10.562-11.034,0,0,.288-6.237,6.922-4.762a2.657,2.657,0,0,0,.718.329c9.524,1.131,7.166-10.751,7.166-10.751,10.28-2.547,12.4-13.486,12.4-13.486s8.064,7.921,16.126,3.536c0,0,3.956,8.644,9.1,11.358,1.216,1.358,2.87,1.828,5.046.384,5.909-3.921,8.538,1.268,8.538,1.268,2.744,9.335-6.222,13.95-6.222,13.95.668,13.886-10.45,22.127-10.45,22.127l2.627,14.859c5.984,8.875,33.358,3.034,35.378-9.292C137.852,620.566,124.34,610.2,124.34,610.2Z" transform="translate(-41.182 -557.051)" fill="#2e150c"/>
          </g>
        </g>
        <path id="Trazado_153540" data-name="Trazado 153540" d="M117.638,637.3c-.058,5.929-.673,16.037-2.063,16.75-2.255,1.156-3.775-4.584-3.775-4.584s-2.32,9.359-3.866,9.851-.675-10.52-.675-10.52-3.512,9.371-4.847,10.13.176-11.932.176-11.932-4.914,9.415-6.465,9.312,4.371-21.578,4.371-21.578-9.493-.976-7.162-3.3c1.147-1.141,3.953-1.486,7.221-2.155C103.886,628.594,117.677,633.241,117.638,637.3Z" transform="translate(57.892 -543.452)" fill="#ffbda8"/>
      </g>
      <g id="Grupo_140772" data-name="Grupo 140772" transform="translate(0 113.375)">
        <g id="Grupo_140771" data-name="Grupo 140771">
          <g id="Grupo_140742" data-name="Grupo 140742" transform="translate(77.734 221.563)">
            <path id="Trazado_153541" data-name="Trazado 153541" d="M-111.627,735.357a61.71,61.71,0,0,0-7.02-8.016H-203.5s-1.954,3.033-4.87,8.016Z" transform="translate(208.371 -726.902)" fill="#024442"/>
            <path id="Trazado_153542" data-name="Trazado 153542" d="M-167.921,735.38v-7.563a.594.594,0,0,0-.594-.594.594.594,0,0,0-.594.594v7.563Z" transform="translate(215.771 -726.925)" fill="#024442" opacity="0.5" style="mix-blend-mode: screen;isolation: isolate"/>
            <path id="Trazado_153543" data-name="Trazado 153543" d="M-159.337,735.427v-7.861a.594.594,0,0,0-.594-.594.594.594,0,0,0-.594.594v7.861Z" transform="translate(217.389 -726.972)" fill="#024442" opacity="0.5" style="mix-blend-mode: screen;isolation: isolate"/>
          </g>
          <g id="Grupo_140748" data-name="Grupo 140748" transform="translate(91.32)">
            <g id="Grupo_140746" data-name="Grupo 140746" transform="translate(0 20.559)">
              <path id="Trazado_153544" data-name="Trazado 153544" d="M-130.368,592.762c-2.655-3.489-5.785-2.038-7.391-.893v-8.683A25.342,25.342,0,0,0-163.1,557.844h0a25.343,25.343,0,0,0-25.343,25.343v8.683c-1.606-1.146-4.735-2.6-7.39.893-3.57,4.691,2.184,15.008,7.643,14.964a25.346,25.346,0,0,0,25.09,21.785h0a25.344,25.344,0,0,0,25.089-21.785C-132.554,607.77-126.8,597.453-130.368,592.762Z" transform="translate(196.939 -557.844)" fill="#ffa080"/>
              <g id="Grupo_140745" data-name="Grupo 140745" transform="translate(2.587 24.566)">
                <path id="Trazado_153545" data-name="Trazado 153545" d="M-169.506,602.895a25.688,25.688,0,0,0,6.263-.763,11.8,11.8,0,0,0,2.8-1.21,12.47,12.47,0,0,0,2.414-2.031,6.522,6.522,0,0,1-1.924,2.7,8.51,8.51,0,0,1-3,1.563,11.157,11.157,0,0,1-3.323.373A9.719,9.719,0,0,1-169.506,602.895Z" transform="translate(199.522 -574.674)" fill="#2e150c"/>
                <path id="Trazado_153546" data-name="Trazado 153546" d="M-164.676,604.537c.84-.321,1.677-.515,2.464-.841a7.131,7.131,0,0,0,1.16-.5,4.686,4.686,0,0,0,1.048-.737,2.4,2.4,0,0,1-.824,1.08,4.973,4.973,0,0,1-1.2.657A5.968,5.968,0,0,1-164.676,604.537Z" transform="translate(200.432 -574.002)" fill="#2e150c"/>
                <path id="Trazado_153547" data-name="Trazado 153547" d="M-167.575,585.486a18.632,18.632,0,0,1,.5,4.294,13.328,13.328,0,0,1-.683,4.364c-.5,1.429-1.2,2.562-1.238,3.767a2.386,2.386,0,0,0,.455,1.637,1.846,1.846,0,0,0,1.705.724,1.967,1.967,0,0,1-2.228-.137,3.036,3.036,0,0,1-1.18-2.158c-.2-1.682.562-3.14.973-4.358a24.381,24.381,0,0,0,.954-3.942C-168.083,588.31-167.906,586.9-167.575,585.486Z" transform="translate(199.377 -577.2)" fill="#2e150c"/>
                <path id="Trazado_153548" data-name="Trazado 153548" d="M-194.762,590.665a3.156,3.156,0,0,1,1.142-2.5,2.169,2.169,0,0,1,1.538-.434,2.7,2.7,0,0,1,1.462.673,6.812,6.812,0,0,1,1.642,2.358c.4.809.708,1.608,1.065,2.414a.79.79,0,0,1-.4,1.042.789.789,0,0,1-.941-.234l-.024-.031a3.075,3.075,0,0,0-1.911-1.154,1.185,1.185,0,0,0-.863.1,1.425,1.425,0,0,0-.544.766,2.669,2.669,0,0,0,.6,2.237,2.79,2.79,0,0,0,2.269,1.328,2.828,2.828,0,0,1-2.873-.777,3.461,3.461,0,0,1-1.253-3.058,2.594,2.594,0,0,1,.959-1.652,2.575,2.575,0,0,1,1.915-.472,4.392,4.392,0,0,1,2.975,1.733l-1.367.777c-.317-.809-.667-1.631-.956-2.433a7.1,7.1,0,0,0-1.115-2.068,1.45,1.45,0,0,0-1.785-.477A3.287,3.287,0,0,0-194.762,590.665Z" transform="translate(194.762 -576.779)" fill="#2e150c"/>
                <path id="Trazado_153549" data-name="Trazado 153549" d="M-141.076,590.665a3.278,3.278,0,0,0-1.53-1.855,1.451,1.451,0,0,0-1.785.477,7.1,7.1,0,0,0-1.114,2.068c-.29.8-.638,1.623-.956,2.433l-1.368-.777a4.4,4.4,0,0,1,2.976-1.733,2.572,2.572,0,0,1,1.913.472,2.6,2.6,0,0,1,.96,1.652,3.458,3.458,0,0,1-1.254,3.058,2.827,2.827,0,0,1-2.873.777,2.793,2.793,0,0,0,2.27-1.328,2.677,2.677,0,0,0,.6-2.237,1.426,1.426,0,0,0-.546-.766,1.184,1.184,0,0,0-.863-.1,3.081,3.081,0,0,0-1.911,1.154l-.023.03a.79.79,0,0,1-1.109.135.79.79,0,0,1-.235-.942c.357-.806.669-1.6,1.064-2.414a6.844,6.844,0,0,1,1.642-2.358,2.7,2.7,0,0,1,1.463-.673,2.169,2.169,0,0,1,1.538.434A3.155,3.155,0,0,1-141.076,590.665Z" transform="translate(203.577 -576.779)" fill="#2e150c"/>
                <path id="Trazado_153550" data-name="Trazado 153550" d="M-170.827,581.794a22.088,22.088,0,0,0-2.743-.438,15.419,15.419,0,0,0-2.831-.014,10.2,10.2,0,0,0-2.753.679,11.664,11.664,0,0,0-2.558,1.448l-.051.036a.574.574,0,0,1-.8-.15.574.574,0,0,1,.024-.681,9.748,9.748,0,0,1,2.48-2.34,9.994,9.994,0,0,1,3.191-1.408,11.767,11.767,0,0,1,3.467-.4,11.12,11.12,0,0,1,3.474.662,1.378,1.378,0,0,1,.811,1.772,1.378,1.378,0,0,1-1.585.866Z" transform="translate(197.043 -578.514)" fill="#2e150c"/>
                <path id="Trazado_153551" data-name="Trazado 153551" d="M-164.5,579.184a11.12,11.12,0,0,1,3.474-.662,11.767,11.767,0,0,1,3.467.4,9.994,9.994,0,0,1,3.191,1.408,9.748,9.748,0,0,1,2.48,2.34.574.574,0,0,1-.093.807.577.577,0,0,1-.681.024l-.051-.036a11.665,11.665,0,0,0-2.558-1.448,10.2,10.2,0,0,0-2.752-.679,15.419,15.419,0,0,0-2.831.014,22.088,22.088,0,0,0-2.743.438l-.128.029a1.378,1.378,0,0,1-1.64-1.053A1.378,1.378,0,0,1-164.5,579.184Z" transform="translate(200.297 -578.514)" fill="#2e150c"/>
                <g id="Grupo_140743" data-name="Grupo 140743" transform="translate(38.025 9.295)">
                  <ellipse id="Elipse_4801" data-name="Elipse 4801" cx="2.05" cy="3.86" rx="2.05" ry="3.86" transform="translate(0 0)" fill="#2e150c"/>
                  <path id="Trazado_153552" data-name="Trazado 153552" d="M-160.483,587.193a6.009,6.009,0,0,0,2.714-.858s-.8,2.064-2.358,2.128Z" transform="translate(163.197 -586.335)" fill="#2e150c"/>
                </g>
                <g id="Grupo_140744" data-name="Grupo 140744" transform="translate(20.437 9.295)">
                  <path id="Trazado_153553" data-name="Trazado 153553" d="M-176.448,590.2c0,2.131.917,3.859,2.05,3.859s2.05-1.728,2.05-3.859-.918-3.86-2.05-3.86S-176.448,588.063-176.448,590.2Z" transform="translate(177.777 -586.335)" fill="#2e150c"/>
                  <path id="Trazado_153554" data-name="Trazado 153554" d="M-174.852,587.193a6.009,6.009,0,0,1-2.714-.858s.8,2.064,2.359,2.128Z" transform="translate(177.566 -586.335)" fill="#2e150c"/>
                </g>
                <path id="Trazado_153555" data-name="Trazado 153555" d="M-173.231,600.3a6.468,6.468,0,0,1-6.468,6.469,6.468,6.468,0,0,1-6.468-6.469,6.468,6.468,0,0,1,6.468-6.468A6.468,6.468,0,0,1-173.231,600.3Z" transform="translate(196.382 -575.627)" fill="#f78e6b"/>
                <path id="Trazado_153556" data-name="Trazado 153556" d="M-146.089,600.3a6.469,6.469,0,0,1-6.469,6.469,6.469,6.469,0,0,1-6.468-6.469,6.468,6.468,0,0,1,6.468-6.468A6.469,6.469,0,0,1-146.089,600.3Z" transform="translate(201.497 -575.627)" fill="#f78e6b"/>
              </g>
            </g>
            <g id="Grupo_140747" data-name="Grupo 140747" transform="translate(7.409)">
              <path id="Trazado_153557" data-name="Trazado 153557" d="M-138.949,591.818s-2.264,3.394-3.3,3.207-4.433-18.862-4.433-18.862a14.138,14.138,0,0,1,0,8.016c-10.185,3.018-36.686,0-36.686,0-1.509-2.828,0-8.771,0-8.771s-2.5,11.647-2.31,16.068c.195,4.572-3.006,2.3-3.926.389s-3.808-19.285,6.188-28.716,36.357-5.093,40.977,1.886S-138.949,591.818-138.949,591.818Z" transform="translate(190.705 -537.307)" fill="#2e150c"/>
              <path id="Trazado_153558" data-name="Trazado 153558" d="M-149.984,553.793c-.853,6.228-8.3,14.288-16.126,14.288s-15.274-8.06-16.128-14.288c-.954-6.966,6.218-13.248,16.128-13.248S-149.029,546.827-149.984,553.793Z" transform="translate(192.285 -540.545)" fill="#2e150c"/>
            </g>
          </g>
          <g id="Grupo_140770" data-name="Grupo 140770" transform="translate(0 86.88)">
            <g id="Grupo_140749" data-name="Grupo 140749" transform="translate(114.449)">
              <rect id="Rectángulo_35942" data-name="Rectángulo 35942" width="21.418" height="20.591" fill="#ffa080"/>
              <path id="Trazado_153559" data-name="Trazado 153559" d="M-156.07,616.142v4.7a25.236,25.236,0,0,1-10.7,2.371,25.24,25.24,0,0,1-10.7-2.371v-4.7a25.239,25.239,0,0,0,10.7,2.371A25.236,25.236,0,0,0-156.07,616.142Z" transform="translate(177.479 -613.178)" fill="#f78e6b"/>
            </g>
            <g id="Grupo_140753" data-name="Grupo 140753" transform="translate(78.905 6.852)">
              <path id="Trazado_153560" data-name="Trazado 153560" d="M-172.115,629.42s-3.419-5.8-.341-8.583c1.595-1.444,5.064-1.007,11.635-1.273,6.88-.278,10.352-.309,11.882,1.131,2.979,2.8-1.492,8.735-1.492,8.735s22.451,4.327,31.316,14.512-1.89,96.384.28,103.739h-84.853s.45-32.82-1.436-41.684-2.263-65.073-2.263-65.073S-181.922,630.173-172.115,629.42Z" transform="translate(207.385 -619.413)" fill="#fff"/>
              <g id="Grupo_140752" data-name="Grupo 140752" transform="translate(31.427 10.074)">
                <g id="Grupo_140750" data-name="Grupo 140750" transform="translate(0 113.597)">
                  <path id="Trazado_153561" data-name="Trazado 153561" d="M-151.726,724.66h-28.622a.594.594,0,0,1-.594-.594.594.594,0,0,1,.594-.594h28.622a.594.594,0,0,1,.594.594A.594.594,0,0,1-151.726,724.66Z" transform="translate(180.942 -723.472)" fill="#def5ff"/>
                </g>
                <g id="Grupo_140751" data-name="Grupo 140751" transform="translate(4.655)">
                  <path id="Trazado_153562" data-name="Trazado 153562" d="M-167,630.853a26,26,0,0,1-9.673-1.826.593.593,0,0,1-.3-.782.6.6,0,0,1,.782-.307c.089.039,8.9,3.81,17.953,0a.6.6,0,0,1,.777.319.593.593,0,0,1-.317.777A23.637,23.637,0,0,1-167,630.853Z" transform="translate(177.025 -627.89)" fill="#def5ff"/>
                </g>
              </g>
            </g>
            <g id="Grupo_140765" data-name="Grupo 140765" transform="translate(0 14.041)">
              <g id="Grupo_140755" data-name="Grupo 140755" transform="translate(65.956)">
                <path id="Trazado_153563" data-name="Trazado 153563" d="M-173.782,754.558c1.719-33.627,1.366-78.426-4.891-115.061-.91-5.327,3.613-10.123,8.906-11.207l-1.5-2.829a85.158,85.158,0,0,0-35.95,13.569s-1.7,53.567-1.885,66.769c-.087,6.06-4.466,27.42-9.177,48.758Z" transform="translate(218.281 -625.462)" fill="#2b6de5"/>
                <g id="Grupo_140754" data-name="Grupo 140754" transform="translate(18.641 12.889)">
                  <path id="Trazado_153564" data-name="Trazado 153564" d="M-202.181,723.064c.36,1.015.933,2.6,1.657,4.593,2.155,5.939,5.611,15.469,8.785,24.857h1.254c-3.214-9.524-6.736-19.238-8.922-25.262-.723-1.994-1.3-3.571-1.653-4.585-2.665-7.533,10.259-24.806,14.284-29.919a4.908,4.908,0,0,0-.165-6.264c-3.4-3.88-11.5-13.337-13.348-17.348-2.243-4.873,9.5-24.687,14.219-31.91a.6.6,0,0,0-.171-.824.6.6,0,0,0-.822.173c-.708,1.083-17.28,26.594-14.3,33.057,1.843,4,9.27,12.768,13.533,17.633a3.717,3.717,0,0,1,.125,4.746C-192.991,698.723-204.97,715.181-202.181,723.064Z" transform="translate(202.596 -636.307)" fill="#2b6de5" opacity="0.5" style="mix-blend-mode: screen;isolation: isolate"/>
                </g>
              </g>
              <g id="Grupo_140764" data-name="Grupo 140764" transform="translate(0 13.01)">
                <path id="Trazado_153565" data-name="Trazado 153565" d="M-268.721,723.4c2.3,5.764,5.542,13.831,9.29,23.022q1.005,2.46,2.057,5.023h31.024c-3.183-13.748-6.285-27.212-8.752-38.05,8.786-8.017,26.681-24.531,42.672-40.4-1.62-4.93-3.067-9.926-4.809-14.855-1.94-5.485-4.3-10.735-6.041-16.174a240.917,240.917,0,0,0-33.808,23.182,250.834,250.834,0,0,0-27.857,26.51c-1.292,1.435-2.51,2.921-3.685,4.446a19.209,19.209,0,0,0-3.615,15.631A70.823,70.823,0,0,0-268.721,723.4Z" transform="translate(273.991 -635.362)" fill="#ffa080"/>
                <g id="Grupo_140763" data-name="Grupo 140763">
                  <path id="Trazado_153566" data-name="Trazado 153566" d="M-225.044,752.5l-.752-3.3-.31-1.307-7.569-33.075,45.969-37.865-8.177-40.539L-221.8,652.715s-42.714,29.569-50.5,46.4c-5.465,11.843,5.488,38.553,12.483,53.383Z" transform="translate(273.777 -636.409)" fill="#2b6de5"/>
                  <g id="Grupo_140762" data-name="Grupo 140762" transform="translate(30.513 39.419)">
                    <g id="Grupo_140757" data-name="Grupo 140757" transform="translate(44.586)" opacity="0.5" style="mix-blend-mode: multiply;isolation: isolate">
                      <g id="Grupo_140756" data-name="Grupo 140756">
                        <path id="Trazado_153567" data-name="Trazado 153567" d="M-210.142,679.382l13.445-9.8-13.89,25.106Z" transform="translate(210.588 -669.577)" fill="#2b6de5"/>
                      </g>
                    </g>
                    <g id="Grupo_140758" data-name="Grupo 140758" transform="translate(9.16 72.059)">
                      <path id="Trazado_153568" data-name="Trazado 153568" d="M-237.274,734.817a22.758,22.758,0,0,0,5.186-3.3l-.31-1.307a23.557,23.557,0,0,1-8,4.608Z" transform="translate(240.396 -730.209)" fill="#2b6de5" opacity="0.5" style="mix-blend-mode: screen;isolation: isolate"/>
                    </g>
                    <g id="Grupo_140759" data-name="Grupo 140759" transform="translate(0 35.313)">
                      <path id="Trazado_153569" data-name="Trazado 153569" d="M-238.577,702.824s-8.244-4.976-9.433-3.12S-238.577,702.824-238.577,702.824Z" transform="translate(248.103 -699.29)" fill="#2b6de5" opacity="0.5" style="mix-blend-mode: multiply;isolation: isolate"/>
                    </g>
                    <g id="Grupo_140761" data-name="Grupo 140761" transform="translate(5.591 29.703)" opacity="0.5" style="mix-blend-mode: multiply;isolation: isolate">
                      <g id="Grupo_140760" data-name="Grupo 140760">
                        <path id="Trazado_153570" data-name="Trazado 153570" d="M-239.315,704.011s-5.942-8.244-3.491-9.359S-239.315,704.011-239.315,704.011Z" transform="translate(243.399 -694.569)" fill="#2b6de5"/>
                      </g>
                    </g>
                  </g>
                </g>
              </g>
            </g>
            <g id="Grupo_140769" data-name="Grupo 140769" transform="translate(135.861 14.306)">
              <g id="Grupo_140767" data-name="Grupo 140767">
                <path id="Trazado_153571" data-name="Trazado 153571" d="M-150.554,639.456c-6.974,24.788-6.859,76.246-4.646,115.061h44.254c-4.712-21.338-9.091-42.7-9.177-48.758-.189-13.2-1.886-57.528-1.886-57.528s-15.2-20-35.943-22.545l-1.509,2.563C-154.169,629.332-149.091,634.254-150.554,639.456Z" transform="translate(159.462 -625.685)" fill="#2b6de5"/>
                <g id="Grupo_140766" data-name="Grupo 140766" transform="translate(12.317 12.623)">
                  <path id="Trazado_153572" data-name="Trazado 153572" d="M-147.884,686.484a4.908,4.908,0,0,0-.165,6.264c4.025,5.113,16.949,22.386,14.284,29.919-.359,1.014-.931,2.591-1.653,4.585-2.186,6.024-5.708,15.738-8.923,25.262h1.255c3.174-9.388,6.63-18.918,8.784-24.857.725-2,1.3-3.579,1.658-4.594,2.789-7.883-9.19-24.341-14.471-31.052a3.717,3.717,0,0,1,.125-4.745c4.263-4.866,11.69-13.631,13.533-17.633,2.975-6.463-13.6-31.975-14.3-33.057a.6.6,0,0,0-.822-.173.6.6,0,0,0-.172.824c4.716,7.224,16.463,27.038,14.22,31.91C-136.384,673.147-144.487,682.6-147.884,686.484Z" transform="translate(149.099 -636.306)" fill="#2b6de5" opacity="0.5" style="mix-blend-mode: screen;isolation: isolate"/>
                </g>
              </g>
              <g id="Grupo_140768" data-name="Grupo 140768" transform="translate(32.905 22.545)">
                <path id="Trazado_153573" data-name="Trazado 153573" d="M-122.152,747.269H-86.2a73.482,73.482,0,0,0-1.724-12.353c-8.786-38.6-22.363-52.533-35.7-70.777-2.717,3.384,1.4,82.2,1.4,82.2C-122.205,746.64-122.178,746.955-122.152,747.269Z" transform="translate(133.136 -640.983)" fill="#ffa080"/>
                <path id="Trazado_153574" data-name="Trazado 153574" d="M-122.62,750.941H-84.05c-.03-4.488-.086-7.452-.086-7.452-3.961-25.651-25.3-73.371-27.986-78.04s-15.107-20.795-15.107-20.795l-4.547,39.795,8.974,64.132Z" transform="translate(131.775 -644.655)" fill="#2b6de5"/>
              </g>
            </g>
          </g>
        </g>
        <path id="Trazado_153575" data-name="Trazado 153575" d="M-192.925,626.933a11.169,11.169,0,0,0-5.643,9.823c.067,5.929.42,13.8,1.811,14.51,2.257,1.154,3.769-4.589,3.769-4.589s2.333,9.354,3.88,9.845.658-10.522.658-10.522,3.526,9.366,4.862,10.123-.194-11.931-.194-11.931,4.927,9.408,6.48,9.3-4.4-21.572-4.4-21.572,9.492-.99,7.157-3.307c-1.148-1.139-4.055-2.453-6.714-3.493a11.243,11.243,0,0,0-9.678.676Z" transform="translate(287.952 -524.753)" fill="#b36138"/>
      </g>
      <g id="Grupo_140789" data-name="Grupo 140789" transform="translate(236.133 136.17)">
        <g id="Grupo_140788" data-name="Grupo 140788" transform="translate(0)">
          <g id="Grupo_140775" data-name="Grupo 140775" transform="translate(56.252)">
            <g id="Grupo_140774" data-name="Grupo 140774" transform="translate(0 2.857)">
              <path id="Trazado_153576" data-name="Trazado 153576" d="M38.811,597.047c-2.655-3.489-5.785-2.038-7.391-.893v-8.683a25.342,25.342,0,1,0-50.685,0v8.683c-1.606-1.146-4.735-2.6-7.39.893-3.575,4.7,2.2,15.039,7.668,14.964a25.311,25.311,0,0,0,50.128,0C36.609,612.086,42.386,601.745,38.811,597.047Z" transform="translate(27.76 -562.129)" fill="#ffb87a"/>
              <g id="Grupo_140773" data-name="Grupo 140773" transform="translate(2.587 21.17)">
                <path id="Trazado_153577" data-name="Trazado 153577" d="M-.645,608.648a25.678,25.678,0,0,0,6.263-.763,11.777,11.777,0,0,0,2.8-1.21,12.437,12.437,0,0,0,2.414-2.031,6.5,6.5,0,0,1-1.924,2.7,8.495,8.495,0,0,1-3,1.563,11.151,11.151,0,0,1-3.323.373A9.727,9.727,0,0,1-.645,608.648Z" transform="translate(30.283 -575.287)" fill="#2e150c"/>
                <path id="Trazado_153578" data-name="Trazado 153578" d="M4.185,610.29c.84-.321,1.677-.515,2.465-.841a7.074,7.074,0,0,0,1.159-.5,4.694,4.694,0,0,0,1.049-.737,2.406,2.406,0,0,1-.825,1.08,4.944,4.944,0,0,1-1.2.657A5.971,5.971,0,0,1,4.185,610.29Z" transform="translate(31.193 -574.614)" fill="#2e150c"/>
                <path id="Trazado_153579" data-name="Trazado 153579" d="M1.6,589.771a18.631,18.631,0,0,1,.5,4.294,13.329,13.329,0,0,1-.683,4.364c-.5,1.429-1.2,2.562-1.238,3.767a2.386,2.386,0,0,0,.455,1.637,1.845,1.845,0,0,0,1.705.724,1.967,1.967,0,0,1-2.228-.137,3.036,3.036,0,0,1-1.18-2.158c-.2-1.682.562-3.14.973-4.358a24.386,24.386,0,0,0,.954-3.942C1.1,592.595,1.273,591.188,1.6,589.771Z" transform="translate(30.198 -578.09)" fill="#2e150c"/>
                <path id="Trazado_153580" data-name="Trazado 153580" d="M-25.583,594.95a3.156,3.156,0,0,1,1.142-2.5,2.167,2.167,0,0,1,1.538-.434,2.7,2.7,0,0,1,1.462.673,6.812,6.812,0,0,1,1.642,2.358c.4.809.708,1.608,1.065,2.414a.79.79,0,0,1-.4,1.042.789.789,0,0,1-.941-.234l-.024-.031a3.074,3.074,0,0,0-1.911-1.154,1.185,1.185,0,0,0-.863.1,1.424,1.424,0,0,0-.544.765,2.669,2.669,0,0,0,.6,2.237,2.79,2.79,0,0,0,2.269,1.328,2.828,2.828,0,0,1-2.873-.777,3.464,3.464,0,0,1-1.254-3.058,2.6,2.6,0,0,1,.96-1.652,2.575,2.575,0,0,1,1.915-.472,4.393,4.393,0,0,1,2.975,1.733l-1.367.777c-.317-.809-.667-1.631-.956-2.433a7.128,7.128,0,0,0-1.114-2.068,1.452,1.452,0,0,0-1.786-.477A3.287,3.287,0,0,0-25.583,594.95Z" transform="translate(25.583 -577.668)" fill="#2e150c"/>
                <path id="Trazado_153581" data-name="Trazado 153581" d="M28.1,594.95a3.278,3.278,0,0,0-1.53-1.855,1.45,1.45,0,0,0-1.785.478,7.078,7.078,0,0,0-1.114,2.067c-.29.8-.638,1.623-.956,2.433l-1.368-.777a4.4,4.4,0,0,1,2.976-1.733,2.485,2.485,0,0,1,2.874,2.124,3.458,3.458,0,0,1-1.254,3.058,2.827,2.827,0,0,1-2.873.777,2.794,2.794,0,0,0,2.27-1.328,2.677,2.677,0,0,0,.6-2.237,1.419,1.419,0,0,0-.546-.765,1.184,1.184,0,0,0-.863-.1,3.081,3.081,0,0,0-1.911,1.154l-.023.03a.79.79,0,0,1-1.344-.807c.357-.806.669-1.6,1.064-2.414a6.828,6.828,0,0,1,1.642-2.358,2.7,2.7,0,0,1,1.463-.673,2.168,2.168,0,0,1,1.538.434A3.155,3.155,0,0,1,28.1,594.95Z" transform="translate(34.398 -577.668)" fill="#2e150c"/>
                <path id="Trazado_153582" data-name="Trazado 153582" d="M-1.648,583.222a22.306,22.306,0,0,0-2.743-.439,15.322,15.322,0,0,0-2.831-.013,10.2,10.2,0,0,0-2.752.677,11.719,11.719,0,0,0-2.558,1.449l-.051.034a.573.573,0,0,1-.8-.149.576.576,0,0,1,.024-.682,9.741,9.741,0,0,1,2.48-2.339,10.024,10.024,0,0,1,3.191-1.41,11.769,11.769,0,0,1,3.467-.4,11.091,11.091,0,0,1,3.474.663,1.376,1.376,0,0,1,.811,1.771,1.377,1.377,0,0,1-1.585.866Z" transform="translate(27.864 -579.942)" fill="#2e150c"/>
                <path id="Trazado_153583" data-name="Trazado 153583" d="M4.682,580.613a11.1,11.1,0,0,1,3.474-.663,11.769,11.769,0,0,1,3.467.4,10.024,10.024,0,0,1,3.191,1.41,9.741,9.741,0,0,1,2.48,2.339.575.575,0,0,1-.774.832l-.051-.036a11.719,11.719,0,0,0-2.558-1.449,10.2,10.2,0,0,0-2.752-.677,15.322,15.322,0,0,0-2.831.013,22.306,22.306,0,0,0-2.743.439l-.128.029a1.378,1.378,0,0,1-.775-2.637Z" transform="translate(31.118 -579.942)" fill="#2e150c"/>
                <path id="Trazado_153584" data-name="Trazado 153584" d="M5.219,594.606a6.221,6.221,0,0,1,2.3-1.205,7.442,7.442,0,0,1,2.632-.29,6.091,6.091,0,0,1,2.562.765,5.183,5.183,0,0,1,1.907,1.79,15.464,15.464,0,0,0-2.264-.982,9.234,9.234,0,0,0-2.294-.446A19.487,19.487,0,0,0,5.219,594.606Z" transform="translate(31.388 -577.463)" fill="#2e150c"/>
                <path id="Trazado_153585" data-name="Trazado 153585" d="M-1.621,594.606a19.487,19.487,0,0,0-4.849-.367,9.234,9.234,0,0,0-2.294.446,15.519,15.519,0,0,0-2.264.982,5.192,5.192,0,0,1,1.907-1.79,6.091,6.091,0,0,1,2.564-.765,7.448,7.448,0,0,1,2.632.29A6.225,6.225,0,0,1-1.621,594.606Z" transform="translate(28.326 -577.463)" fill="#2e150c"/>
              </g>
            </g>
            <path id="Trazado_153586" data-name="Trazado 153586" d="M30.9,596.3s-4.668,1.557-8.205-14.712c0,0-19.239,5.8-32.4,5.234,0,0-3.677,10.893-10.044,9.62a7.032,7.032,0,0,0-5.8-.707S-26.818,571.4-12.813,563.9s35.931-4.244,40.882,4.527c0,0,11.175,8.2,9.761,27.867A7.8,7.8,0,0,0,30.9,596.3Z" transform="translate(28.171 -559.725)" fill="#2e150c"/>
          </g>
          <g id="Grupo_140787" data-name="Grupo 140787" transform="translate(0 69.179)">
            <g id="Grupo_140776" data-name="Grupo 140776" transform="translate(79.38)">
              <rect id="Rectángulo_35943" data-name="Rectángulo 35943" width="21.418" height="20.591" transform="translate(0)" fill="#ffb87a"/>
              <path id="Trazado_153587" data-name="Trazado 153587" d="M13.109,620.427v4.7a25.236,25.236,0,0,1-10.7,2.371,25.24,25.24,0,0,1-10.7-2.371v-4.7a25.24,25.24,0,0,0,10.7,2.371A25.236,25.236,0,0,0,13.109,620.427Z" transform="translate(8.3 -617.463)" fill="#f2a45e"/>
            </g>
            <g id="Grupo_140778" data-name="Grupo 140778" transform="translate(44.336 14.429)">
              <path id="Trazado_153588" data-name="Trazado 153588" d="M-35.871,753.387H49.342c.406-1.651.594-2.837.594-2.837.048-.784.416-6.8.832-15.521.927-19.027,2.163-51,1.152-69.834-.046-.82-.094-1.628-.153-2.4-.333-5.051-.881-8.937-1.676-11.029-2.294-6.014-7.951-10.233-14.5-13.2-.666-.3-1.343-.594-2.019-.868-8.9-3.625-18.934-5.182-24.3-6.014l-2.163,2.9-1.795-2.9c-9.842,1.521-35.085,5.467-40.646,20.085-5.075,13.3-.691,98.881-.691,98.881A25.464,25.464,0,0,0-35.871,753.387Z" transform="translate(37.786 -629.771)" fill="#fff"/>
              <g id="Grupo_140777" data-name="Grupo 140777" transform="translate(46.958 7.802)">
                <path id="Trazado_153589" data-name="Trazado 153589" d="M2.913,752.452V637.233a.594.594,0,0,0-1.188,0V752.452Z" transform="translate(-1.725 -636.639)" fill="#cce8f2"/>
              </g>
              <path id="Trazado_153590" data-name="Trazado 153590" d="M-8.173,630.074l9.767,1.9a1.712,1.712,0,0,1,1.381,1.793l-.762,11.673a.261.261,0,0,1-.49.108l-4.238-7.769-9.407-3.466Z" transform="translate(42.661 -630.074)" fill="#cce8f2"/>
              <path id="Trazado_153591" data-name="Trazado 153591" d="M11.569,630.074l-9.766,1.9a1.714,1.714,0,0,0-1.382,1.793l.763,11.673a.261.261,0,0,0,.49.108l4.237-7.769,9.408-3.466Z" transform="translate(44.986 -630.074)" fill="#cce8f2"/>
            </g>
            <g id="Grupo_140782" data-name="Grupo 140782" transform="translate(114.951 22.351)">
              <path id="Trazado_153592" data-name="Trazado 153592" d="M49.871,752.044H86.858c-.305-2.434-.724-4.856-1.272-7.258-14.807-65.057-51.709-105.738-58.2-105.976a7.925,7.925,0,0,0-1.83.131,4.664,4.664,0,0,0-1.166.416c-3.4,1.676-2.46,6.667-2.46,6.667C18.623,657.43,43.6,733.332,49.871,752.044Z" transform="translate(-21.631 -636.35)" fill="#fff"/>
              <g id="Grupo_140781" data-name="Grupo 140781" transform="translate(0.741)">
                <g id="Grupo_140779" data-name="Grupo 140779" transform="translate(6.698 63.861)">
                  <path id="Trazado_153593" data-name="Trazado 153593" d="M38.786,711.667,27.891,690.473l10.5,33.475Z" transform="translate(-27.891 -690.473)" fill="#cce8f2"/>
                </g>
                <g id="Grupo_140780" data-name="Grupo 140780">
                  <path id="Trazado_153594" data-name="Trazado 153594" d="M40.6,664.24c10.411,15.866,21.7,33.693,26.54,43.355,4.508,9.011,8.1,24.976,10,44.837h1.177c-1.911-20.088-5.548-36.245-10.1-45.36-5.039-10.066-17.031-28.915-27.763-45.233-5.824-8.854-11.255-16.96-15.01-22.51-.4-.606-.8-1.177-1.166-1.723-.666-.3-1.343-.594-2.019-.868.594.879,1.282,1.89,2.019,3.007C28.291,645.653,34.282,654.578,40.6,664.24Z" transform="translate(-22.255 -636.739)" fill="#cce8f2"/>
                </g>
              </g>
            </g>
            <g id="Grupo_140786" data-name="Grupo 140786" transform="translate(0 24.235)">
              <path id="Trazado_153595" data-name="Trazado 153595" d="M-38.109,752.134c1.65-4.923,4.592-13.8,7.973-24.419V727.7c2.328-7.285,4.86-15.4,7.32-23.615v-.024c7.584-25.314,14.487-51.6,12.647-57.95,0,0,1.284-8.034-5.574-7.785a7.235,7.235,0,0,0-3.328,1.664,38.3,38.3,0,0,0-3.708,3.185c-13.193,12.7-39.172,49.559-51.045,101.7-.544,2.4-.961,4.824-1.267,7.258Z" transform="translate(75.091 -638.324)" fill="#fff"/>
              <g id="Grupo_140785" data-name="Grupo 140785" transform="translate(5.226 1.67)">
                <g id="Grupo_140783" data-name="Grupo 140783" transform="translate(39.717 64.071)">
                  <path id="Trazado_153596" data-name="Trazado 153596" d="M-37.275,717.013l7.329-23.373-6.537,37.635Z" transform="translate(37.275 -693.639)" fill="#cce8f2"/>
                </g>
                <g id="Grupo_140784" data-name="Grupo 140784">
                  <path id="Trazado_153597" data-name="Trazado 153597" d="M-69.5,751.869a142.849,142.849,0,0,1,2.561-17.93c7.951-36.593,35.1-77.488,47.04-94.21a38.3,38.3,0,0,0-3.708,3.185c-12.978,18.659-37.057,56.547-44.5,90.763a144.233,144.233,0,0,0-2.59,18.192Z" transform="translate(70.694 -639.729)" fill="#cce8f2"/>
                </g>
              </g>
            </g>
          </g>
        </g>
        <path id="Trazado_153598" data-name="Trazado 153598" d="M-27.859,636.714a11.169,11.169,0,0,0-5.657,9.814c.058,5.929.4,13.8,1.79,14.512,2.256,1.156,3.776-4.584,3.776-4.584s2.32,9.359,3.865,9.852.675-10.521.675-10.521,3.513,9.371,4.847,10.13-.176-11.932-.176-11.932,4.914,9.415,6.466,9.312-4.372-21.578-4.372-21.578,9.495-.976,7.162-3.3c-1.147-1.141-4.051-2.459-6.709-3.5a11.242,11.242,0,0,0-9.678.664Z" transform="translate(82.927 -545.702)" fill="#cc7548"/>
      </g>
    </g>
    <rect id="Rectángulo_35944" data-name="Rectángulo 35944" width="536" height="6" transform="translate(810 3854)" fill="#12263f"/>
  </g>
</svg>
