<svg xmlns="http://www.w3.org/2000/svg" width="860" height="452" viewBox="0 0 860 452">
  <g id="Grupo_140892" data-name="Grupo 140892" transform="translate(8593 4417)">
    <path id="Trazado_153956" data-name="Trazado 153956" d="M0,0H860V452H0Z" transform="translate(-8593 -4417)" fill="#fff"/>
    <path id="Trazado_153957" data-name="Trazado 153957" d="M11.32,12.667a4.673,4.673,0,0,1-.721,2.36,4.35,4.35,0,0,1-1.85,1.586,6.3,6.3,0,0,1-2.72.563,5.025,5.025,0,0,1-3.973-1.644,6.786,6.786,0,0,1-1.45-4.641v-.633a7.746,7.746,0,0,1,.655-3.292,4.961,4.961,0,0,1,1.885-2.18,5.26,5.26,0,0,1,2.848-.769A5.516,5.516,0,0,1,9.738,5.245a4.844,4.844,0,0,1,1.608,3.379H8.271a2.292,2.292,0,0,0-.589-1.679,2.422,2.422,0,0,0-1.687-.51A1.843,1.843,0,0,0,4.307,7.3a5.536,5.536,0,0,0-.562,2.751v.905a6.125,6.125,0,0,0,.514,2.927,1.882,1.882,0,0,0,1.771.879,2.369,2.369,0,0,0,1.626-.5,2.126,2.126,0,0,0,.6-1.591ZM15.768,17H12.8V7.49h2.971ZM12.621,5.029a1.334,1.334,0,0,1,.457-1.043,1.718,1.718,0,0,1,1.187-.407,1.718,1.718,0,0,1,1.187.407,1.334,1.334,0,0,1,.457,1.043,1.334,1.334,0,0,1-.457,1.043,1.718,1.718,0,0,1-1.187.407,1.718,1.718,0,0,1-1.187-.407A1.334,1.334,0,0,1,12.621,5.029Zm9.571,12.146a4.889,4.889,0,0,1-3.542-1.305,4.507,4.507,0,0,1-1.354-3.4v-.246a5.84,5.84,0,0,1,.541-2.575,3.955,3.955,0,0,1,1.578-1.727,4.763,4.763,0,0,1,2.461-.611A4.117,4.117,0,0,1,25.04,8.558a4.887,4.887,0,0,1,1.16,3.467v1.151H20.312a2.135,2.135,0,0,0,.694,1.257,2.066,2.066,0,0,0,1.389.457,2.662,2.662,0,0,0,2.2-.984l1.354,1.6a3.784,3.784,0,0,1-1.569,1.217A5.3,5.3,0,0,1,22.192,17.176ZM21.858,9.6q-1.3,0-1.547,1.723H23.3v-.229a1.467,1.467,0,0,0-.36-1.1A1.434,1.434,0,0,0,21.858,9.6ZM30.111,7.49l.1,1.116a3.225,3.225,0,0,1,2.716-1.292,2.713,2.713,0,0,1,2.219.888,4.226,4.226,0,0,1,.76,2.672V17H32.933V11a1.6,1.6,0,0,0-.29-1.059A1.342,1.342,0,0,0,31.588,9.6a1.413,1.413,0,0,0-1.292.686V17H27.334V7.49Zm11.452,7.4a1.317,1.317,0,0,0,.967-.338,1.241,1.241,0,0,0,.334-.945h2.777a3.288,3.288,0,0,1-1.121,2.566,4.168,4.168,0,0,1-2.887,1,4.22,4.22,0,0,1-3.27-1.3,5.125,5.125,0,0,1-1.2-3.6v-.123A5.792,5.792,0,0,1,37.7,9.6a3.872,3.872,0,0,1,1.534-1.7,4.573,4.573,0,0,1,2.373-.593,4.116,4.116,0,0,1,2.944,1.028,3.647,3.647,0,0,1,1.09,2.786H42.864A1.626,1.626,0,0,0,42.5,10a1.244,1.244,0,0,0-.967-.4q-1.151,0-1.345,1.468a10.357,10.357,0,0,0-.062,1.283,4.068,4.068,0,0,0,.343,1.986A1.187,1.187,0,0,0,41.563,14.891ZM50.019,17H47.048V7.49h2.971ZM46.872,5.029a1.334,1.334,0,0,1,.457-1.043,1.934,1.934,0,0,1,2.373,0,1.334,1.334,0,0,1,.457,1.043A1.334,1.334,0,0,1,49.7,6.073a1.934,1.934,0,0,1-2.373,0A1.334,1.334,0,0,1,46.872,5.029ZM57.2,17a3.344,3.344,0,0,1-.281-.853,2.754,2.754,0,0,1-2.285,1.028,3.374,3.374,0,0,1-2.285-.813,2.588,2.588,0,0,1-.94-2.043,2.66,2.66,0,0,1,1.143-2.338,5.821,5.821,0,0,1,3.322-.791h.914v-.5q0-1.316-1.134-1.316A.927.927,0,0,0,54.6,10.413H51.636a2.655,2.655,0,0,1,1.173-2.239,4.931,4.931,0,0,1,2.993-.86,4.323,4.323,0,0,1,2.874.888,3.086,3.086,0,0,1,1.081,2.435v4.21a4.311,4.311,0,0,0,.4,2V17Zm-1.854-1.934a1.652,1.652,0,0,0,.918-.237,1.487,1.487,0,0,0,.523-.536V12.772h-.861q-1.547,0-1.547,1.389a.848.848,0,0,0,.272.655A.986.986,0,0,0,55.345,15.066Z" transform="translate(-8469 -4377.875)" fill="#12263f"/>
    <path id="Trazado_153960" data-name="Trazado 153960" d="M11.013,6.585H7.172V17H4.087V6.585H.316V4.2h10.7ZM16,17.176a4.889,4.889,0,0,1-3.542-1.305,4.507,4.507,0,0,1-1.354-3.4v-.246a5.84,5.84,0,0,1,.541-2.575,3.955,3.955,0,0,1,1.578-1.727,4.763,4.763,0,0,1,2.461-.611,4.117,4.117,0,0,1,3.164,1.244A4.887,4.887,0,0,1,20,12.025v1.151H14.115a2.135,2.135,0,0,0,.694,1.257,2.066,2.066,0,0,0,1.389.457,2.662,2.662,0,0,0,2.2-.984l1.354,1.6a3.784,3.784,0,0,1-1.569,1.217A5.3,5.3,0,0,1,16,17.176ZM15.662,9.6q-1.3,0-1.547,1.723H17.1v-.229a1.467,1.467,0,0,0-.36-1.1A1.434,1.434,0,0,0,15.662,9.6Zm9.554,5.291a1.317,1.317,0,0,0,.967-.338,1.241,1.241,0,0,0,.334-.945h2.777a3.288,3.288,0,0,1-1.121,2.566,4.168,4.168,0,0,1-2.887,1,4.22,4.22,0,0,1-3.27-1.3,5.125,5.125,0,0,1-1.2-3.6v-.123A5.792,5.792,0,0,1,21.353,9.6a3.872,3.872,0,0,1,1.534-1.7,4.573,4.573,0,0,1,2.373-.593A4.116,4.116,0,0,1,28.2,8.343a3.647,3.647,0,0,1,1.09,2.786H26.517A1.626,1.626,0,0,0,26.156,10a1.244,1.244,0,0,0-.967-.4q-1.151,0-1.345,1.468a10.357,10.357,0,0,0-.062,1.283,4.068,4.068,0,0,0,.343,1.986A1.187,1.187,0,0,0,25.216,14.891Zm8.051-7.4.1,1.116a3.225,3.225,0,0,1,2.716-1.292A2.713,2.713,0,0,1,38.3,8.2a4.226,4.226,0,0,1,.76,2.672V17H36.088V11a1.6,1.6,0,0,0-.29-1.059A1.342,1.342,0,0,0,34.743,9.6a1.413,1.413,0,0,0-1.292.686V17H30.489V7.49Zm7.058,4.667a5.613,5.613,0,0,1,.554-2.536,3.96,3.96,0,0,1,1.591-1.709,4.791,4.791,0,0,1,2.435-.6A4.373,4.373,0,0,1,48.27,8.637a5.076,5.076,0,0,1,1.23,3.6v.105a4.925,4.925,0,0,1-1.235,3.529,4.384,4.384,0,0,1-3.344,1.305,4.434,4.434,0,0,1-3.261-1.217,4.761,4.761,0,0,1-1.327-3.3Zm2.962.185a3.538,3.538,0,0,0,.413,1.934,1.376,1.376,0,0,0,1.222.615q1.582,0,1.617-2.435v-.3Q46.538,9.6,44.9,9.6q-1.485,0-1.608,2.206ZM53.93,17H50.959V3.5H53.93Zm1.45-4.843a5.613,5.613,0,0,1,.554-2.536,3.96,3.96,0,0,1,1.591-1.709,4.791,4.791,0,0,1,2.435-.6,4.373,4.373,0,0,1,3.366,1.323,5.076,5.076,0,0,1,1.23,3.6v.105a4.925,4.925,0,0,1-1.235,3.529,4.384,4.384,0,0,1-3.344,1.305,4.434,4.434,0,0,1-3.261-1.217,4.761,4.761,0,0,1-1.327-3.3Zm2.962.185a3.538,3.538,0,0,0,.413,1.934,1.376,1.376,0,0,0,1.222.615q1.582,0,1.617-2.435v-.3q0-2.558-1.635-2.558-1.485,0-1.608,2.206Zm7.172-.167a6.421,6.421,0,0,1,.475-2.549,3.821,3.821,0,0,1,1.362-1.709,3.591,3.591,0,0,1,2.065-.6,2.855,2.855,0,0,1,2.32,1l.105-.826h2.689V16.64a4.009,4.009,0,0,1-.584,2.184,3.75,3.75,0,0,1-1.692,1.424,6.219,6.219,0,0,1-2.566.5,5.365,5.365,0,0,1-2.026-.4,3.657,3.657,0,0,1-1.5-1.028L67.4,17.58a2.716,2.716,0,0,0,2.18.976,1.764,1.764,0,0,0,1.969-2.021v-.3a2.781,2.781,0,0,1-2.153.94,3.437,3.437,0,0,1-2.812-1.332,5.517,5.517,0,0,1-1.072-3.564Zm2.971.185a3.383,3.383,0,0,0,.439,1.85,1.387,1.387,0,0,0,1.23.681,1.573,1.573,0,0,0,1.4-.642v-4a1.534,1.534,0,0,0-1.38-.65,1.4,1.4,0,0,0-1.239.708A3.858,3.858,0,0,0,68.484,12.359ZM79.444,17H76.465V7.49h2.979ZM78.337,3.676h3.129l-2.443,2.76-2.417,0ZM86.7,17a3.344,3.344,0,0,1-.281-.853,2.754,2.754,0,0,1-2.285,1.028,3.374,3.374,0,0,1-2.285-.813,2.588,2.588,0,0,1-.94-2.043,2.66,2.66,0,0,1,1.143-2.338,5.821,5.821,0,0,1,3.322-.791h.914v-.5q0-1.316-1.134-1.316A.927.927,0,0,0,84.1,10.413H81.141a2.655,2.655,0,0,1,1.173-2.239,4.931,4.931,0,0,1,2.993-.86,4.323,4.323,0,0,1,2.874.888,3.086,3.086,0,0,1,1.081,2.435v4.21a4.311,4.311,0,0,0,.4,2V17ZM84.85,15.066a1.652,1.652,0,0,0,.918-.237,1.487,1.487,0,0,0,.523-.536V12.772H85.43q-1.547,0-1.547,1.389a.848.848,0,0,0,.272.655A.986.986,0,0,0,84.85,15.066Z" transform="translate(-8363 -4090.875)" fill="#12263f"/>
    <path id="Trazado_153959" data-name="Trazado 153959" d="M4.254,17H1.178V4.2H4.254ZM8.982,7.49l.1,1.116a3.225,3.225,0,0,1,2.716-1.292,2.713,2.713,0,0,1,2.219.888,4.226,4.226,0,0,1,.76,2.672V17H11.8V11a1.6,1.6,0,0,0-.29-1.059A1.342,1.342,0,0,0,10.459,9.6a1.413,1.413,0,0,0-1.292.686V17H6.205V7.49Zm7.084,4.685a6.421,6.421,0,0,1,.475-2.549A3.821,3.821,0,0,1,17.9,7.917a3.591,3.591,0,0,1,2.065-.6,2.855,2.855,0,0,1,2.32,1l.105-.826h2.689V16.64a4.009,4.009,0,0,1-.584,2.184,3.75,3.75,0,0,1-1.692,1.424,6.219,6.219,0,0,1-2.566.5,5.365,5.365,0,0,1-2.026-.4,3.657,3.657,0,0,1-1.5-1.028l1.239-1.74a2.716,2.716,0,0,0,2.18.976A1.764,1.764,0,0,0,22.1,16.534v-.3a2.781,2.781,0,0,1-2.153.94,3.437,3.437,0,0,1-2.812-1.332,5.517,5.517,0,0,1-1.072-3.564Zm2.971.185a3.383,3.383,0,0,0,.439,1.85,1.387,1.387,0,0,0,1.23.681,1.573,1.573,0,0,0,1.4-.642v-4a1.534,1.534,0,0,0-1.38-.65,1.4,1.4,0,0,0-1.239.708A3.858,3.858,0,0,0,19.037,12.359Zm12.331,4.816a4.889,4.889,0,0,1-3.542-1.305,4.507,4.507,0,0,1-1.354-3.4v-.246a5.84,5.84,0,0,1,.541-2.575,3.955,3.955,0,0,1,1.578-1.727,4.763,4.763,0,0,1,2.461-.611,4.117,4.117,0,0,1,3.164,1.244,4.887,4.887,0,0,1,1.16,3.467v1.151H29.487a2.135,2.135,0,0,0,.694,1.257,2.066,2.066,0,0,0,1.389.457,2.662,2.662,0,0,0,2.2-.984l1.354,1.6a3.784,3.784,0,0,1-1.569,1.217A5.3,5.3,0,0,1,31.368,17.176ZM31.034,9.6q-1.3,0-1.547,1.723h2.988v-.229a1.467,1.467,0,0,0-.36-1.1A1.434,1.434,0,0,0,31.034,9.6ZM39.287,7.49l.1,1.116A3.225,3.225,0,0,1,42.1,7.314a2.713,2.713,0,0,1,2.219.888,4.226,4.226,0,0,1,.76,2.672V17H42.108V11a1.6,1.6,0,0,0-.29-1.059A1.342,1.342,0,0,0,40.764,9.6a1.413,1.413,0,0,0-1.292.686V17H36.51V7.49ZM49.843,17H46.872V7.49h2.971ZM46.7,5.029a1.334,1.334,0,0,1,.457-1.043,1.934,1.934,0,0,1,2.373,0,1.334,1.334,0,0,1,.457,1.043,1.334,1.334,0,0,1-.457,1.043,1.934,1.934,0,0,1-2.373,0A1.334,1.334,0,0,1,46.7,5.029Zm9.571,12.146a4.889,4.889,0,0,1-3.542-1.305,4.507,4.507,0,0,1-1.354-3.4v-.246a5.84,5.84,0,0,1,.541-2.575A3.955,3.955,0,0,1,53.49,7.925a4.763,4.763,0,0,1,2.461-.611,4.117,4.117,0,0,1,3.164,1.244,4.887,4.887,0,0,1,1.16,3.467v1.151H54.387a2.135,2.135,0,0,0,.694,1.257,2.066,2.066,0,0,0,1.389.457,2.662,2.662,0,0,0,2.2-.984l1.354,1.6a3.784,3.784,0,0,1-1.569,1.217A5.3,5.3,0,0,1,56.268,17.176ZM55.934,9.6q-1.3,0-1.547,1.723h2.988v-.229a1.467,1.467,0,0,0-.36-1.1A1.434,1.434,0,0,0,55.934,9.6Zm11.285.571-.976-.07a1.752,1.752,0,0,0-1.793.879V17H61.488V7.49h2.777l.1,1.222a2.294,2.294,0,0,1,2.083-1.4,2.888,2.888,0,0,1,.826.105ZM71.517,17H68.537V7.49h2.979ZM70.409,3.676h3.129l-2.443,2.76-2.417,0ZM78.776,17a3.344,3.344,0,0,1-.281-.853,2.754,2.754,0,0,1-2.285,1.028,3.374,3.374,0,0,1-2.285-.813,2.588,2.588,0,0,1-.94-2.043,2.66,2.66,0,0,1,1.143-2.338,5.821,5.821,0,0,1,3.322-.791h.914v-.5q0-1.316-1.134-1.316a.927.927,0,0,0-1.055,1.042H73.213a2.655,2.655,0,0,1,1.173-2.239,4.931,4.931,0,0,1,2.993-.86,4.323,4.323,0,0,1,2.874.888,3.086,3.086,0,0,1,1.081,2.435v4.21a4.311,4.311,0,0,0,.4,2V17Zm-1.854-1.934a1.652,1.652,0,0,0,.918-.237,1.487,1.487,0,0,0,.523-.536V12.772H77.5q-1.547,0-1.547,1.389a.848.848,0,0,0,.272.655A.986.986,0,0,0,76.922,15.066Z" transform="translate(-8135 -4365.875)" fill="#12263f"/>
    <path id="Trazado_153961" data-name="Trazado 153961" d="M5.019,4.2l2.856,8.9,2.848-8.9h4.061V17H11.689V14.012l.3-6.117L8.895,17H6.855l-3.1-9.114.3,6.126V17H.967V4.2ZM21.964,17a3.344,3.344,0,0,1-.281-.853A2.754,2.754,0,0,1,19.4,17.176a3.374,3.374,0,0,1-2.285-.813,2.588,2.588,0,0,1-.94-2.043,2.66,2.66,0,0,1,1.143-2.338,5.821,5.821,0,0,1,3.322-.791h.914v-.5q0-1.316-1.134-1.316a.927.927,0,0,0-1.055,1.042H16.4a2.655,2.655,0,0,1,1.173-2.239,4.931,4.931,0,0,1,2.993-.86A4.323,4.323,0,0,1,23.44,8.2a3.086,3.086,0,0,1,1.081,2.435v4.21a4.311,4.311,0,0,0,.4,2V17Zm-1.854-1.934a1.652,1.652,0,0,0,.918-.237,1.487,1.487,0,0,0,.523-.536V12.772h-.861q-1.547,0-1.547,1.389a.848.848,0,0,0,.272.655A.986.986,0,0,0,20.109,15.066Zm9.5-9.94V7.49h1.564V9.547H29.61V13.9a1.111,1.111,0,0,0,.193.747,1.037,1.037,0,0,0,.765.211,4.345,4.345,0,0,0,.738-.053v2.118a5.466,5.466,0,0,1-1.67.255,3.1,3.1,0,0,1-2.259-.721,2.954,2.954,0,0,1-.729-2.188V9.547H25.436V7.49h1.213V5.126Zm7.33,12.05A4.889,4.889,0,0,1,33.4,15.871a4.507,4.507,0,0,1-1.354-3.4v-.246a5.84,5.84,0,0,1,.541-2.575,3.955,3.955,0,0,1,1.578-1.727,4.763,4.763,0,0,1,2.461-.611,4.117,4.117,0,0,1,3.164,1.244,4.887,4.887,0,0,1,1.16,3.467v1.151H35.06a2.135,2.135,0,0,0,.694,1.257,2.066,2.066,0,0,0,1.389.457,2.662,2.662,0,0,0,2.2-.984l1.354,1.6a3.784,3.784,0,0,1-1.569,1.217A5.3,5.3,0,0,1,36.94,17.176ZM36.606,9.6q-1.3,0-1.547,1.723h2.988v-.229a1.467,1.467,0,0,0-.36-1.1A1.434,1.434,0,0,0,36.606,9.6ZM44.938,7.49l.1,1.116a3.27,3.27,0,0,1,2.716-1.292,2.407,2.407,0,0,1,2.435,1.433A3.165,3.165,0,0,1,52.98,7.314q2.892,0,2.971,3.5V17H52.98V11a1.813,1.813,0,0,0-.246-1.063,1.048,1.048,0,0,0-.9-.334,1.4,1.4,0,0,0-1.31.782l.009.123V17H47.566V11.015a1.906,1.906,0,0,0-.237-1.081,1.045,1.045,0,0,0-.905-.334,1.42,1.42,0,0,0-1.3.782V17H42.161V7.49ZM63,17a3.344,3.344,0,0,1-.281-.853,2.754,2.754,0,0,1-2.285,1.028,3.374,3.374,0,0,1-2.285-.813,2.588,2.588,0,0,1-.94-2.043,2.66,2.66,0,0,1,1.143-2.338,5.821,5.821,0,0,1,3.322-.791h.914v-.5q0-1.316-1.134-1.316A.927.927,0,0,0,60.4,10.413H57.437A2.655,2.655,0,0,1,58.61,8.175a4.931,4.931,0,0,1,2.993-.86,4.323,4.323,0,0,1,2.874.888,3.086,3.086,0,0,1,1.081,2.435v4.21a4.311,4.311,0,0,0,.4,2V17Zm-1.854-1.934a1.652,1.652,0,0,0,.918-.237,1.487,1.487,0,0,0,.523-.536V12.772h-.861q-1.547,0-1.547,1.389a.848.848,0,0,0,.272.655A.986.986,0,0,0,61.146,15.066ZM61.884,3.5h3.129L62.569,6.26l-2.417,0Zm8.763,1.626V7.49h1.564V9.547H70.646V13.9a1.111,1.111,0,0,0,.193.747,1.037,1.037,0,0,0,.765.211,4.345,4.345,0,0,0,.738-.053v2.118a5.466,5.466,0,0,1-1.67.255,3.1,3.1,0,0,1-2.259-.721,2.954,2.954,0,0,1-.729-2.188V9.547H66.472V7.49h1.213V5.126ZM76.5,17H73.529V7.49H76.5ZM73.354,5.029a1.334,1.334,0,0,1,.457-1.043,1.934,1.934,0,0,1,2.373,0,1.334,1.334,0,0,1,.457,1.043,1.334,1.334,0,0,1-.457,1.043,1.934,1.934,0,0,1-2.373,0A1.334,1.334,0,0,1,73.354,5.029Zm8.991,9.861a1.317,1.317,0,0,0,.967-.338,1.241,1.241,0,0,0,.334-.945h2.777A3.288,3.288,0,0,1,85.3,16.174a4.168,4.168,0,0,1-2.887,1,4.22,4.22,0,0,1-3.27-1.3,5.125,5.125,0,0,1-1.2-3.6v-.123A5.792,5.792,0,0,1,78.482,9.6a3.872,3.872,0,0,1,1.534-1.7,4.573,4.573,0,0,1,2.373-.593,4.116,4.116,0,0,1,2.944,1.028,3.647,3.647,0,0,1,1.09,2.786H83.646A1.626,1.626,0,0,0,83.285,10a1.244,1.244,0,0,0-.967-.4q-1.151,0-1.345,1.468a10.357,10.357,0,0,0-.062,1.283,4.068,4.068,0,0,0,.343,1.986A1.187,1.187,0,0,0,82.345,14.891ZM93.032,17a3.344,3.344,0,0,1-.281-.853,2.754,2.754,0,0,1-2.285,1.028,3.374,3.374,0,0,1-2.285-.813,2.588,2.588,0,0,1-.94-2.043,2.66,2.66,0,0,1,1.143-2.338,5.821,5.821,0,0,1,3.322-.791h.914v-.5q0-1.316-1.134-1.316a.927.927,0,0,0-1.055,1.042H87.469a2.655,2.655,0,0,1,1.173-2.239,4.931,4.931,0,0,1,2.993-.86,4.323,4.323,0,0,1,2.874.888,3.086,3.086,0,0,1,1.081,2.435v4.21a4.311,4.311,0,0,0,.4,2V17Zm-1.854-1.934a1.652,1.652,0,0,0,.918-.237,1.487,1.487,0,0,0,.523-.536V12.772h-.861q-1.547,0-1.547,1.389a.848.848,0,0,0,.272.655A.986.986,0,0,0,91.178,15.066Zm11.03-.738a.684.684,0,0,0-.4-.606,6.016,6.016,0,0,0-1.5-.475,6.853,6.853,0,0,1-1.828-.646,3.062,3.062,0,0,1-1.1-.971A2.319,2.319,0,0,1,97,10.32a2.628,2.628,0,0,1,1.081-2.158,4.453,4.453,0,0,1,2.83-.848,4.934,4.934,0,0,1,3.023.853,2.666,2.666,0,0,1,1.143,2.241h-2.971q0-1.143-1.2-1.143a1.194,1.194,0,0,0-.782.259.8.8,0,0,0-.316.646.737.737,0,0,0,.387.642,3.654,3.654,0,0,0,1.235.4,10.671,10.671,0,0,1,1.49.378,2.706,2.706,0,0,1,2.145,2.646,2.491,2.491,0,0,1-1.156,2.118,5.068,5.068,0,0,1-2.993.817,5.172,5.172,0,0,1-2.18-.439,3.645,3.645,0,0,1-1.494-1.2,2.707,2.707,0,0,1-.536-1.591h2.769a1.145,1.145,0,0,0,.439.962,1.808,1.808,0,0,0,1.081.3,1.422,1.422,0,0,0,.91-.246A.787.787,0,0,0,102.208,14.328Z" transform="translate(-7945 -4090.875)" fill="#12263f"/>
    <path id="Trazado_153962" data-name="Trazado 153962" d="M6.17,9.74h3v2.54h-3v3.437H3.4V12.28H.4V9.74H3.4V6.4H6.17Zm15.249,1.125a7.546,7.546,0,0,1-.694,3.313A5.132,5.132,0,0,1,18.751,16.4a5.494,5.494,0,0,1-2.914.778,5.572,5.572,0,0,1-2.9-.751,5.123,5.123,0,0,1-1.973-2.149,7.329,7.329,0,0,1-.743-3.208v-.721a7.58,7.58,0,0,1,.69-3.318A5.119,5.119,0,0,1,12.889,4.81a5.533,5.533,0,0,1,2.931-.782,5.479,5.479,0,0,1,2.9.773A5.211,5.211,0,0,1,20.7,7a7.362,7.362,0,0,1,.716,3.274Zm-3.138-.536a5.381,5.381,0,0,0-.637-2.9,2.044,2.044,0,0,0-1.824-.989q-2.32,0-2.452,3.48l-.009.94a5.535,5.535,0,0,0,.624,2.892,2.041,2.041,0,0,0,1.854,1.011,2.016,2.016,0,0,0,1.8-.993,5.383,5.383,0,0,0,.642-2.856Zm8.042-5.2V7.49h1.564V9.547H26.323V13.9a1.111,1.111,0,0,0,.193.747,1.037,1.037,0,0,0,.765.211,4.345,4.345,0,0,0,.738-.053v2.118a5.466,5.466,0,0,1-1.67.255,3.1,3.1,0,0,1-2.259-.721,2.954,2.954,0,0,1-.729-2.188V9.547H22.148V7.49h1.213V5.126ZM34.8,10.171l-.976-.07a1.752,1.752,0,0,0-1.793.879V17H29.074V7.49h2.777l.1,1.222a2.294,2.294,0,0,1,2.083-1.4,2.888,2.888,0,0,1,.826.105ZM40.966,17a3.344,3.344,0,0,1-.281-.853A2.754,2.754,0,0,1,38.4,17.176a3.374,3.374,0,0,1-2.285-.813,2.588,2.588,0,0,1-.94-2.043,2.66,2.66,0,0,1,1.143-2.338,5.821,5.821,0,0,1,3.322-.791h.914v-.5q0-1.316-1.134-1.316a.927.927,0,0,0-1.055,1.042H35.4a2.655,2.655,0,0,1,1.173-2.239,4.931,4.931,0,0,1,2.993-.86,4.323,4.323,0,0,1,2.874.888,3.086,3.086,0,0,1,1.081,2.435v4.21a4.311,4.311,0,0,0,.4,2V17Zm-1.854-1.934a1.652,1.652,0,0,0,.918-.237,1.487,1.487,0,0,0,.523-.536V12.772h-.861q-1.547,0-1.547,1.389a.848.848,0,0,0,.272.655A.986.986,0,0,0,39.111,15.066Zm11.03-.738a.684.684,0,0,0-.4-.606,6.016,6.016,0,0,0-1.5-.475,6.853,6.853,0,0,1-1.828-.646,3.062,3.062,0,0,1-1.1-.971,2.319,2.319,0,0,1-.378-1.31A2.628,2.628,0,0,1,46.02,8.163a4.453,4.453,0,0,1,2.83-.848,4.934,4.934,0,0,1,3.023.853,2.666,2.666,0,0,1,1.143,2.241H50.045q0-1.143-1.2-1.143a1.194,1.194,0,0,0-.782.259.8.8,0,0,0-.316.646.737.737,0,0,0,.387.642,3.654,3.654,0,0,0,1.235.4,10.671,10.671,0,0,1,1.49.378A2.706,2.706,0,0,1,53,14.24a2.491,2.491,0,0,1-1.156,2.118,5.068,5.068,0,0,1-2.993.817,5.172,5.172,0,0,1-2.18-.439,3.645,3.645,0,0,1-1.494-1.2,2.707,2.707,0,0,1-.536-1.591h2.769a1.145,1.145,0,0,0,.439.962,1.808,1.808,0,0,0,1.081.3,1.422,1.422,0,0,0,.91-.246A.787.787,0,0,0,50.142,14.328ZM64.222,17a3.344,3.344,0,0,1-.281-.853,2.754,2.754,0,0,1-2.285,1.028,3.374,3.374,0,0,1-2.285-.813,2.588,2.588,0,0,1-.94-2.043,2.66,2.66,0,0,1,1.143-2.338,5.821,5.821,0,0,1,3.322-.791h.914v-.5q0-1.316-1.134-1.316a.927.927,0,0,0-1.055,1.042H58.658a2.655,2.655,0,0,1,1.173-2.239,4.931,4.931,0,0,1,2.993-.86A4.323,4.323,0,0,1,65.7,8.2a3.086,3.086,0,0,1,1.081,2.435v4.21a4.311,4.311,0,0,0,.4,2V17Zm-1.854-1.934a1.652,1.652,0,0,0,.918-.237,1.487,1.487,0,0,0,.523-.536V12.772h-.861q-1.547,0-1.547,1.389a.848.848,0,0,0,.272.655A.986.986,0,0,0,62.367,15.066Zm11.03-.738a.684.684,0,0,0-.4-.606,6.016,6.016,0,0,0-1.5-.475,6.853,6.853,0,0,1-1.828-.646,3.062,3.062,0,0,1-1.1-.971,2.319,2.319,0,0,1-.378-1.31,2.628,2.628,0,0,1,1.081-2.158,4.453,4.453,0,0,1,2.83-.848,4.934,4.934,0,0,1,3.023.853,2.666,2.666,0,0,1,1.143,2.241H73.3q0-1.143-1.2-1.143a1.194,1.194,0,0,0-.782.259.8.8,0,0,0-.316.646.737.737,0,0,0,.387.642,3.654,3.654,0,0,0,1.235.4,10.671,10.671,0,0,1,1.49.378,2.706,2.706,0,0,1,2.145,2.646A2.491,2.491,0,0,1,75.1,16.358a5.068,5.068,0,0,1-2.993.817,5.172,5.172,0,0,1-2.18-.439,3.645,3.645,0,0,1-1.494-1.2A2.707,2.707,0,0,1,67.9,13.95h2.769a1.145,1.145,0,0,0,.439.962,1.808,1.808,0,0,0,1.081.3,1.422,1.422,0,0,0,.91-.246A.787.787,0,0,0,73.4,14.328ZM80.763,17H77.792V7.49h2.971ZM77.616,5.029a1.334,1.334,0,0,1,.457-1.043,1.934,1.934,0,0,1,2.373,0A1.334,1.334,0,0,1,80.9,5.029a1.334,1.334,0,0,1-.457,1.043,1.934,1.934,0,0,1-2.373,0A1.334,1.334,0,0,1,77.616,5.029Zm4.623,7.146a6.421,6.421,0,0,1,.475-2.549,3.821,3.821,0,0,1,1.362-1.709,3.591,3.591,0,0,1,2.065-.6,2.855,2.855,0,0,1,2.32,1l.105-.826h2.689V16.64a4.009,4.009,0,0,1-.584,2.184,3.75,3.75,0,0,1-1.692,1.424,6.219,6.219,0,0,1-2.566.5,5.365,5.365,0,0,1-2.026-.4,3.657,3.657,0,0,1-1.5-1.028l1.239-1.74a2.716,2.716,0,0,0,2.18.976,1.764,1.764,0,0,0,1.969-2.021v-.3a2.781,2.781,0,0,1-2.153.94,3.437,3.437,0,0,1-2.812-1.332,5.517,5.517,0,0,1-1.072-3.564Zm2.971.185a3.383,3.383,0,0,0,.439,1.85,1.387,1.387,0,0,0,1.23.681,1.573,1.573,0,0,0,1.4-.642v-4A1.534,1.534,0,0,0,86.9,9.6a1.4,1.4,0,0,0-1.239.708A3.858,3.858,0,0,0,85.21,12.359ZM95.66,7.49l.1,1.116a3.225,3.225,0,0,1,2.716-1.292,2.713,2.713,0,0,1,2.219.888,4.226,4.226,0,0,1,.76,2.672V17H98.481V11a1.6,1.6,0,0,0-.29-1.059A1.342,1.342,0,0,0,97.137,9.6a1.413,1.413,0,0,0-1.292.686V17H92.883V7.49ZM108.448,17a3.344,3.344,0,0,1-.281-.853,2.754,2.754,0,0,1-2.285,1.028,3.374,3.374,0,0,1-2.285-.813,2.588,2.588,0,0,1-.94-2.043,2.66,2.66,0,0,1,1.143-2.338,5.821,5.821,0,0,1,3.322-.791h.914v-.5q0-1.316-1.134-1.316a.927.927,0,0,0-1.055,1.042h-2.962a2.655,2.655,0,0,1,1.173-2.239,4.931,4.931,0,0,1,2.993-.86,4.323,4.323,0,0,1,2.874.888,3.086,3.086,0,0,1,1.081,2.435v4.21a4.311,4.311,0,0,0,.4,2V17Zm-1.854-1.934a1.652,1.652,0,0,0,.918-.237,1.487,1.487,0,0,0,.523-.536V12.772h-.861q-1.547,0-1.547,1.389a.848.848,0,0,0,.272.655A.986.986,0,0,0,106.594,15.066Zm9.5-9.94V7.49h1.564V9.547h-1.564V13.9a1.111,1.111,0,0,0,.193.747,1.037,1.037,0,0,0,.765.211,4.345,4.345,0,0,0,.738-.053v2.118a5.466,5.466,0,0,1-1.67.255,3.1,3.1,0,0,1-2.259-.721,2.954,2.954,0,0,1-.729-2.188V9.547H111.92V7.49h1.213V5.126Zm8.394,10.846a3.054,3.054,0,0,1-2.54,1.2,3,3,0,0,1-2.369-.91,3.826,3.826,0,0,1-.8-2.615V7.49h2.962v6.179a1.065,1.065,0,0,0,1.187,1.222,1.548,1.548,0,0,0,1.45-.729V7.49h2.979V17h-2.777Zm10.239-5.8-.976-.07a1.752,1.752,0,0,0-1.793.879V17H129V7.49h2.777l.1,1.222a2.294,2.294,0,0,1,2.083-1.4,2.888,2.888,0,0,1,.826.105ZM140.889,17a3.344,3.344,0,0,1-.281-.853,2.754,2.754,0,0,1-2.285,1.028,3.374,3.374,0,0,1-2.285-.813,2.588,2.588,0,0,1-.94-2.043,2.66,2.66,0,0,1,1.143-2.338,5.821,5.821,0,0,1,3.322-.791h.914v-.5q0-1.316-1.134-1.316a.927.927,0,0,0-1.055,1.042h-2.962A2.655,2.655,0,0,1,136.5,8.175a4.931,4.931,0,0,1,2.993-.86,4.323,4.323,0,0,1,2.874.888,3.086,3.086,0,0,1,1.081,2.435v4.21a4.311,4.311,0,0,0,.4,2V17Zm-1.854-1.934a1.652,1.652,0,0,0,.918-.237,1.487,1.487,0,0,0,.523-.536V12.772h-.861q-1.547,0-1.547,1.389a.848.848,0,0,0,.272.655A.986.986,0,0,0,139.034,15.066Zm11.03-.738a.684.684,0,0,0-.4-.606,6.016,6.016,0,0,0-1.5-.475,6.853,6.853,0,0,1-1.828-.646,3.062,3.062,0,0,1-1.1-.971,2.319,2.319,0,0,1-.378-1.31,2.628,2.628,0,0,1,1.081-2.158,4.453,4.453,0,0,1,2.83-.848,4.934,4.934,0,0,1,3.023.853,2.666,2.666,0,0,1,1.143,2.241h-2.971q0-1.143-1.2-1.143a1.194,1.194,0,0,0-.782.259.8.8,0,0,0-.316.646.737.737,0,0,0,.387.642,3.654,3.654,0,0,0,1.235.4,10.671,10.671,0,0,1,1.49.378,2.706,2.706,0,0,1,2.145,2.646,2.491,2.491,0,0,1-1.156,2.118,5.068,5.068,0,0,1-2.993.817,5.172,5.172,0,0,1-2.18-.439,3.645,3.645,0,0,1-1.494-1.2,2.707,2.707,0,0,1-.536-1.591h2.769a1.145,1.145,0,0,0,.439.962,1.808,1.808,0,0,0,1.081.3,1.422,1.422,0,0,0,.91-.246A.787.787,0,0,0,150.064,14.328Z" transform="translate(-8240 -4028.875)" fill="#12263f"/>
    <path id="Trazado_153958" data-name="Trazado 153958" d="M79.071,0A79.071,79.071,0,1,1,0,79.071,79.071,79.071,0,0,1,79.071,0Z" transform="translate(-8499.325 -4153.526) rotate(-78.988)" fill="#cedbef"/>
    <path id="Trazado_152749" data-name="Trazado 152749" d="M1038.422-482.188a86.209,86.209,0,0,1-86.209,86.209A86.21,86.21,0,0,1,866-482.188a86.211,86.211,0,0,1,86.211-86.21A86.21,86.21,0,0,1,1038.422-482.188Z" transform="translate(-8904.824 -3714.701)" fill="#cedbef"/>
    <g id="Grupo_140386" data-name="Grupo 140386" transform="translate(-8383.616 -4330.97)">
      <path id="Trazado_152750" data-name="Trazado 152750" d="M275.593-623.8a10.74,10.74,0,0,1-10.741,10.741,10.74,10.74,0,0,1-10.74-10.741,10.74,10.74,0,0,1,10.74-10.74A10.74,10.74,0,0,1,275.593-623.8Z" transform="translate(-242.232 646.423)" fill="#ffe029"/>
      <path id="Trazado_152751" data-name="Trazado 152751" d="M308.482-620.1h-.944a11.078,11.078,0,0,0-11.075-11.08,11.08,11.08,0,0,0-11.077,11.08h-2.519a7.534,7.534,0,0,0-7.533,7.537,7.534,7.534,0,0,0,7.533,7.534h25.615a7.535,7.535,0,0,0,7.533-7.534A7.535,7.535,0,0,0,308.482-620.1Z" transform="translate(-251.907 644.893)" fill="#fff"/>
      <g id="Grupo_140368" data-name="Grupo 140368" transform="translate(22.339 12.624)">
        <path id="Trazado_152752" data-name="Trazado 152752" d="M307.57-604.854H281.955a8.631,8.631,0,0,1-8.621-8.622,8.632,8.632,0,0,1,8.621-8.625h1.479a12.183,12.183,0,0,1,12.117-11.08A12.182,12.182,0,0,1,307.666-622.1a8.633,8.633,0,0,1,8.525,8.624A8.631,8.631,0,0,1,307.57-604.854Zm-25.615-15.071a6.454,6.454,0,0,0-6.445,6.448,6.453,6.453,0,0,0,6.445,6.446H307.57a6.453,6.453,0,0,0,6.445-6.446,6.454,6.454,0,0,0-6.445-6.448h-.944a1.088,1.088,0,0,1-1.088-1.088A10,10,0,0,0,295.551-631a10,10,0,0,0-9.989,9.992,1.088,1.088,0,0,1-1.088,1.088Z" transform="translate(-273.334 633.181)" fill="#27292d"/>
      </g>
      <g id="Grupo_140369" data-name="Grupo 140369" transform="translate(8.102 8.15)">
        <path id="Trazado_152753" data-name="Trazado 152753" d="M257.677-613.538a14.184,14.184,0,0,1-10.509-13.694A14.185,14.185,0,0,1,261.336-641.4a14.218,14.218,0,0,1,11.46,5.839l-1.76,1.281a12.035,12.035,0,0,0-9.7-4.943,12.007,12.007,0,0,0-11.991,12,12,12,0,0,0,8.893,11.591Z" transform="translate(-247.168 641.404)" fill="#27292d"/>
      </g>
      <g id="Grupo_140374" data-name="Grupo 140374" transform="translate(20.988)">
        <g id="Grupo_140371" data-name="Grupo 140371">
          <g id="Grupo_140370" data-name="Grupo 140370">
            <rect id="Rectángulo_35815" data-name="Rectángulo 35815" width="2.176" height="4.735" fill="#27292d"/>
          </g>
        </g>
        <g id="Grupo_140373" data-name="Grupo 140373" transform="translate(0 39.433)">
          <g id="Grupo_140372" data-name="Grupo 140372">
            <rect id="Rectángulo_35816" data-name="Rectángulo 35816" width="2.176" height="4.735" fill="#27292d"/>
          </g>
        </g>
      </g>
      <g id="Grupo_140377" data-name="Grupo 140377" transform="translate(5.697 5.699)">
        <g id="Grupo_140376" data-name="Grupo 140376">
          <g id="Grupo_140375" data-name="Grupo 140375">
            <rect id="Rectángulo_35817" data-name="Rectángulo 35817" width="2.176" height="4.734" transform="matrix(0.707, -0.707, 0.707, 0.707, 0, 1.539)" fill="#27292d"/>
          </g>
        </g>
      </g>
      <g id="Grupo_140380" data-name="Grupo 140380" transform="translate(0 20.996)">
        <g id="Grupo_140379" data-name="Grupo 140379">
          <g id="Grupo_140378" data-name="Grupo 140378">
            <rect id="Rectángulo_35818" data-name="Rectángulo 35818" width="4.733" height="2.176" fill="#27292d"/>
          </g>
        </g>
      </g>
      <g id="Grupo_140385" data-name="Grupo 140385" transform="translate(5.697 5.699)">
        <g id="Grupo_140382" data-name="Grupo 140382" transform="translate(0 27.883)">
          <g id="Grupo_140381" data-name="Grupo 140381">
            <rect id="Rectángulo_35819" data-name="Rectángulo 35819" width="4.734" height="2.176" transform="matrix(0.707, -0.707, 0.707, 0.707, 0, 3.348)" fill="#27292d"/>
          </g>
        </g>
        <g id="Grupo_140384" data-name="Grupo 140384" transform="translate(27.873)">
          <g id="Grupo_140383" data-name="Grupo 140383">
            <rect id="Rectángulo_35820" data-name="Rectángulo 35820" width="4.735" height="2.176" transform="matrix(0.707, -0.707, 0.707, 0.707, 0, 3.348)" fill="#27292d"/>
          </g>
        </g>
      </g>
    </g>
    <g id="Grupo_140400" data-name="Grupo 140400" transform="translate(-8347.815 -4222.38)">
      <path id="Trazado_152754" data-name="Trazado 152754" d="M326.411-336H300.078l6.4-23.113h13.531Z" transform="translate(-298.99 412.263)" fill="#7fe4ea"/>
      <path id="Trazado_152755" data-name="Trazado 152755" d="M328.3-412.674a3.262,3.262,0,0,1-3.261,3.262,3.263,3.263,0,0,1-3.262-3.262,3.262,3.262,0,0,1,3.262-3.261A3.261,3.261,0,0,1,328.3-412.674Z" transform="translate(-308.884 438.168)" fill="#51d7e5"/>
      <path id="Trazado_152756" data-name="Trazado 152756" d="M342.737-440.259a2.523,2.523,0,0,1-2.523,2.522,2.523,2.523,0,0,1-2.522-2.522,2.523,2.523,0,0,1,2.522-2.523A2.523,2.523,0,0,1,342.737-440.259Z" transform="translate(-316.139 450.408)" fill="#ffe029"/>
      <g id="Grupo_140387" data-name="Grupo 140387" transform="translate(9.277 20.151)">
        <path id="Trazado_152757" data-name="Trazado 152757" d="M320.745-408.53a5.621,5.621,0,0,1-5.616-5.614,5.622,5.622,0,0,1,5.616-5.615,5.621,5.621,0,0,1,5.614,5.615A5.621,5.621,0,0,1,320.745-408.53Zm0-9.053a3.443,3.443,0,0,0-3.44,3.439,3.443,3.443,0,0,0,3.44,3.438,3.442,3.442,0,0,0,3.438-3.438A3.442,3.442,0,0,0,320.745-417.584Z" transform="translate(-315.129 419.76)" fill="#27292d"/>
      </g>
      <g id="Grupo_140388" data-name="Grupo 140388" transform="translate(17.527 5.069)">
        <path id="Trazado_152758" data-name="Trazado 152758" d="M335.372-437.322a5.086,5.086,0,0,1-5.08-5.079,5.086,5.086,0,0,1,5.08-5.08,5.085,5.085,0,0,1,5.079,5.08A5.085,5.085,0,0,1,335.372-437.322Zm0-7.983a2.907,2.907,0,0,0-2.9,2.9,2.906,2.906,0,0,0,2.9,2.9,2.906,2.906,0,0,0,2.9-2.9A2.907,2.907,0,0,0,335.372-445.3Z" transform="translate(-330.292 447.481)" fill="#27292d"/>
      </g>
      <g id="Grupo_140389" data-name="Grupo 140389" transform="translate(3.347 0)">
        <path id="Trazado_152759" data-name="Trazado 152759" d="M308.918-447.421a4.694,4.694,0,0,1-4.689-4.689,4.694,4.694,0,0,1,4.689-4.688,4.693,4.693,0,0,1,4.688,4.688A4.694,4.694,0,0,1,308.918-447.421Zm0-7.2a2.515,2.515,0,0,0-2.513,2.511,2.516,2.516,0,0,0,2.513,2.513,2.515,2.515,0,0,0,2.511-2.513A2.514,2.514,0,0,0,308.918-454.622Z" transform="translate(-304.229 456.798)" fill="#27292d"/>
      </g>
      <g id="Grupo_140393" data-name="Grupo 140393" transform="translate(0 36.195)">
        <g id="Grupo_140391" data-name="Grupo 140391">
          <g id="Grupo_140390" data-name="Grupo 140390">
            <path id="Trazado_152760" data-name="Trazado 152760" d="M329.305-349.119h-30.14a1.088,1.088,0,0,1-.866-.429,1.086,1.086,0,0,1-.183-.949l8.707-31.447v-7.24a1.088,1.088,0,0,1,1.088-1.088h12.648a1.088,1.088,0,0,1,1.088,1.088v7.24l8.706,31.447a1.087,1.087,0,0,1-.182.949A1.09,1.09,0,0,1,329.305-349.119ZM300.6-351.3h27.279l-8.365-30.211a1.089,1.089,0,0,1-.039-.29v-6.3H309v6.3a1.065,1.065,0,0,1-.04.29Z" transform="translate(-298.077 390.272)" fill="#27292d"/>
          </g>
        </g>
        <g id="Grupo_140392" data-name="Grupo 140392" transform="translate(9.835 7.388)">
          <rect id="Rectángulo_35821" data-name="Rectángulo 35821" width="8.781" height="2.176" fill="#27292d"/>
        </g>
      </g>
      <g id="Grupo_140394" data-name="Grupo 140394" transform="translate(7.121 57.315)">
        <rect id="Rectángulo_35822" data-name="Rectángulo 35822" width="5.776" height="2.176" fill="#fff"/>
      </g>
      <g id="Grupo_140395" data-name="Grupo 140395" transform="translate(4.435 63.614)">
        <rect id="Rectángulo_35823" data-name="Rectángulo 35823" width="9.82" height="2.176" fill="#fff"/>
      </g>
      <g id="Grupo_140399" data-name="Grupo 140399" transform="translate(0.001 36.198)">
        <g id="Grupo_140397" data-name="Grupo 140397">
          <g id="Grupo_140396" data-name="Grupo 140396">
            <path id="Trazado_152761" data-name="Trazado 152761" d="M329.308-349.119H299.166a1.088,1.088,0,0,1-.866-.429,1.087,1.087,0,0,1-.183-.949l8.7-31.447v-7.235a1.088,1.088,0,0,1,1.088-1.088h12.65a1.088,1.088,0,0,1,1.088,1.088v7.235l8.709,31.446a1.088,1.088,0,0,1-.182.949A1.088,1.088,0,0,1,329.308-349.119ZM300.6-351.295h27.281l-8.367-30.211a1.112,1.112,0,0,1-.039-.29v-6.295H309v6.295a1.089,1.089,0,0,1-.039.29Z" transform="translate(-298.078 390.267)" fill="#27292d"/>
          </g>
        </g>
        <g id="Grupo_140398" data-name="Grupo 140398" transform="translate(9.834 7.385)">
          <rect id="Rectángulo_35824" data-name="Rectángulo 35824" width="8.781" height="2.176" fill="#27292d"/>
        </g>
      </g>
    </g>
    <g id="Grupo_140404" data-name="Grupo 140404" transform="translate(-8097.905 -4248.747)">
      <g id="Grupo_140401" data-name="Grupo 140401" transform="translate(3.794)">
        <rect id="Rectángulo_35825" data-name="Rectángulo 35825" width="2.176" height="10.018" fill="#27292d"/>
      </g>
      <g id="Grupo_140402" data-name="Grupo 140402" transform="translate(0 1.562)">
        <rect id="Rectángulo_35826" data-name="Rectángulo 35826" width="2.176" height="10.018" transform="matrix(0.5, -0.866, 0.866, 0.5, 0, 1.884)" fill="#27292d"/>
      </g>
      <g id="Grupo_140403" data-name="Grupo 140403" transform="translate(0 1.562)">
        <rect id="Rectángulo_35827" data-name="Rectángulo 35827" width="10.018" height="2.176" transform="translate(0 5.009) rotate(-30.002)" fill="#27292d"/>
      </g>
    </g>
    <g id="Grupo_140407" data-name="Grupo 140407" transform="translate(-7910.874 -4204.73)">
      <g id="Grupo_140405" data-name="Grupo 140405" transform="translate(5.223 0)">
        <rect id="Rectángulo_35828" data-name="Rectángulo 35828" width="2.176" height="12.623" fill="#27292d"/>
      </g>
      <g id="Grupo_140406" data-name="Grupo 140406" transform="translate(0 5.223)">
        <rect id="Rectángulo_35829" data-name="Rectángulo 35829" width="12.624" height="2.176" fill="#27292d"/>
      </g>
    </g>
    <g id="Grupo_140410" data-name="Grupo 140410" transform="translate(-8223.653 -4227.368)">
      <g id="Grupo_140408" data-name="Grupo 140408" transform="translate(0 0)">
        <rect id="Rectángulo_35830" data-name="Rectángulo 35830" width="9.384" height="2.176" transform="translate(0 6.636) rotate(-45)" fill="#27292d"/>
      </g>
      <g id="Grupo_140409" data-name="Grupo 140409" transform="translate(0 0)">
        <rect id="Rectángulo_35831" data-name="Rectángulo 35831" width="2.176" height="9.385" transform="translate(0 1.539) rotate(-45)" fill="#27292d"/>
      </g>
    </g>
    <g id="Grupo_140413" data-name="Grupo 140413" transform="translate(-8448.516 -4203.069)">
      <g id="Grupo_140411" data-name="Grupo 140411" transform="translate(0 0)">
        <rect id="Rectángulo_35832" data-name="Rectángulo 35832" width="8.999" height="2.176" transform="translate(0 6.363) rotate(-45.001)" fill="#27292d"/>
      </g>
      <g id="Grupo_140412" data-name="Grupo 140412" transform="translate(0 0)">
        <rect id="Rectángulo_35833" data-name="Rectángulo 35833" width="2.176" height="8.999" transform="matrix(0.707, -0.707, 0.707, 0.707, 0, 1.539)" fill="#27292d"/>
      </g>
    </g>
    <g id="Grupo_140428" data-name="Grupo 140428" transform="translate(-8069.536 -4270.985)">
      <path id="Trazado_152762" data-name="Trazado 152762" d="M842.875-544.132,874.67-454.36l31.624-89.772h33.494v123.776H914.2v-92.237l-30.859,92.237H865.829l-30.774-92.152v92.152h-25.5V-544.132Z" transform="translate(-809.551 545.22)" fill="#0d4aad"/>
      <g id="Grupo_140414" data-name="Grupo 140414" transform="translate(2.176 0)">
        <path id="Trazado_152763" data-name="Trazado 152763" d="M944.877-420.179H919.288a1.088,1.088,0,0,1-1.088-1.088v-85.555l-28.739,85.9a1.088,1.088,0,0,1-1.032.743H870.917a1.09,1.09,0,0,1-1.033-.743l-28.654-85.8v85.459a1.088,1.088,0,0,1-1.088,1.088h-25.5a1.088,1.088,0,0,1-1.088-1.088V-545.044a1.088,1.088,0,0,1,1.088-1.088h33.325a1.087,1.087,0,0,1,1.026.725l30.766,86.868,5.1-14.469,2.053.723-6.121,17.376a1.089,1.089,0,0,1-1.025.726h0a1.087,1.087,0,0,1-1.026-.725l-31.538-89.047H815.727v121.6h23.327V-513.42a1.088,1.088,0,0,1,.913-1.074,1.087,1.087,0,0,1,1.207.729L871.7-422.356h15.946l30.611-91.494a1.084,1.084,0,0,1,1.206-.729,1.089,1.089,0,0,1,.914,1.075v91.149h23.412v-41.23h2.176v42.319A1.088,1.088,0,0,1,944.877-420.179Zm1.088-57.19h-2.176v-66.586H912.153l-20.341,57.74-2.053-.723,20.6-58.467a1.088,1.088,0,0,1,1.027-.726h33.494a1.088,1.088,0,0,1,1.088,1.088Z" transform="translate(-813.551 546.132)" fill="#27292d"/>
      </g>
      <g id="Grupo_140415" data-name="Grupo 140415" transform="translate(9.179 103.505)">
        <path id="Trazado_152764" data-name="Trazado 152764" d="M838.813-347.816H826.421v-2.772h12.392Zm-8.149-6.244a1.918,1.918,0,0,1,.139-.736,1.662,1.662,0,0,1,.392-.578,1.821,1.821,0,0,1,.615-.38,2.281,2.281,0,0,1,.819-.138,2.306,2.306,0,0,1,.814.138,1.876,1.876,0,0,1,.626.38,1.62,1.62,0,0,1,.4.578,1.918,1.918,0,0,1,.139.736,1.87,1.87,0,0,1-.139.73,1.628,1.628,0,0,1-.4.572,1.8,1.8,0,0,1-.626.374,2.4,2.4,0,0,1-.814.133,2.37,2.37,0,0,1-.819-.133,1.743,1.743,0,0,1-.615-.374,1.671,1.671,0,0,1-.392-.572A1.87,1.87,0,0,1,830.664-354.06Zm0,9.788a1.92,1.92,0,0,1,.139-.736,1.662,1.662,0,0,1,.392-.578,1.829,1.829,0,0,1,.615-.38,2.281,2.281,0,0,1,.819-.139,2.306,2.306,0,0,1,.814.139,1.885,1.885,0,0,1,.626.38,1.62,1.62,0,0,1,.4.578,1.92,1.92,0,0,1,.139.736,1.87,1.87,0,0,1-.139.73,1.623,1.623,0,0,1-.4.572,1.8,1.8,0,0,1-.626.374,2.383,2.383,0,0,1-.814.133,2.357,2.357,0,0,1-.819-.133,1.743,1.743,0,0,1-.615-.374,1.666,1.666,0,0,1-.392-.572A1.87,1.87,0,0,1,830.664-344.272Z" transform="translate(-826.421 355.892)" fill="#27292d"/>
      </g>
      <g id="Grupo_140416" data-name="Grupo 140416" transform="translate(114.862 12.904)">
        <path id="Trazado_152765" data-name="Trazado 152765" d="M1031.442-519.569h-10.776v-2.845h10.776Zm0,5.219h-10.776v-2.845h10.776Z" transform="translate(-1020.666 522.414)" fill="#fff"/>
      </g>
      <g id="Grupo_140427" data-name="Grupo 140427" transform="translate(3.265 7.334)">
        <g id="Grupo_140417" data-name="Grupo 140417">
          <rect id="Rectángulo_35834" data-name="Rectángulo 35834" width="9.921" height="2.176" fill="#27292d"/>
        </g>
        <g id="Grupo_140418" data-name="Grupo 140418" transform="translate(0 7.72)">
          <rect id="Rectángulo_35835" data-name="Rectángulo 35835" width="9.921" height="2.176" fill="#27292d"/>
        </g>
        <g id="Grupo_140419" data-name="Grupo 140419" transform="translate(0 15.44)">
          <rect id="Rectángulo_35836" data-name="Rectángulo 35836" width="9.921" height="2.176" fill="#27292d"/>
        </g>
        <g id="Grupo_140420" data-name="Grupo 140420" transform="translate(0 23.16)">
          <rect id="Rectángulo_35837" data-name="Rectángulo 35837" width="9.921" height="2.176" fill="#27292d"/>
        </g>
        <g id="Grupo_140421" data-name="Grupo 140421" transform="translate(0 30.88)">
          <rect id="Rectángulo_35838" data-name="Rectángulo 35838" width="9.921" height="2.176" fill="#27292d"/>
        </g>
        <g id="Grupo_140422" data-name="Grupo 140422" transform="translate(0 38.6)">
          <rect id="Rectángulo_35839" data-name="Rectángulo 35839" width="9.921" height="2.176" fill="#27292d"/>
        </g>
        <g id="Grupo_140423" data-name="Grupo 140423" transform="translate(0 46.32)">
          <rect id="Rectángulo_35840" data-name="Rectángulo 35840" width="9.921" height="2.176" fill="#27292d"/>
        </g>
        <g id="Grupo_140424" data-name="Grupo 140424" transform="translate(0 54.04)">
          <rect id="Rectángulo_35841" data-name="Rectángulo 35841" width="9.921" height="2.176" fill="#27292d"/>
        </g>
        <g id="Grupo_140425" data-name="Grupo 140425" transform="translate(0 61.76)">
          <rect id="Rectángulo_35842" data-name="Rectángulo 35842" width="9.921" height="2.176" fill="#27292d"/>
        </g>
        <g id="Grupo_140426" data-name="Grupo 140426" transform="translate(0 69.48)">
          <rect id="Rectángulo_35843" data-name="Rectángulo 35843" width="9.921" height="2.176" fill="#27292d"/>
        </g>
      </g>
    </g>
    <g id="Grupo_140438" data-name="Grupo 140438" transform="translate(-8448.373 -4274.317)">
      <path id="Trazado_152766" data-name="Trazado 152766" d="M182.622-457.255a17.1,17.1,0,0,0-.935-5.823,11.307,11.307,0,0,0-3.613-4.8,33.088,33.088,0,0,0-7.4-4.336,117,117,0,0,0-12.2-4.505,149.475,149.475,0,0,1-16.025-6.121,58.879,58.879,0,0,1-13.177-8.034,35.792,35.792,0,0,1-8.926-10.669,29.15,29.15,0,0,1-3.273-14.112,30.061,30.061,0,0,1,3.358-14.155,31.9,31.9,0,0,1,9.436-10.924,46.382,46.382,0,0,1,14.452-7.014,63.98,63.98,0,0,1,18.4-2.508,58.1,58.1,0,0,1,18.7,2.848A42.968,42.968,0,0,1,195.8-539.46a35.2,35.2,0,0,1,9.181,12.114A36.246,36.246,0,0,1,208.211-512h-25.5a20.6,20.6,0,0,0-1.232-7.226,14.688,14.688,0,0,0-3.783-5.7,17.628,17.628,0,0,0-6.376-3.7,27.741,27.741,0,0,0-9.011-1.317,30.605,30.605,0,0,0-8.713,1.1,17.729,17.729,0,0,0-6.121,3.06,12.881,12.881,0,0,0-3.656,4.59,13.081,13.081,0,0,0-1.233,5.611q0,6.121,6.249,10.244t18.32,7.694a120.552,120.552,0,0,1,17.81,6.971,52.976,52.976,0,0,1,12.837,8.671,33.094,33.094,0,0,1,7.779,10.881,33.909,33.909,0,0,1,2.635,13.687,32.073,32.073,0,0,1-3.188,14.537,30.034,30.034,0,0,1-9.054,10.754,42.825,42.825,0,0,1-14.154,6.716,68.049,68.049,0,0,1-18.49,2.338,71.447,71.447,0,0,1-12.242-1.063,58.773,58.773,0,0,1-11.689-3.273,50.728,50.728,0,0,1-10.329-5.526,38.074,38.074,0,0,1-8.289-7.821,35.256,35.256,0,0,1-5.526-10.244,38.43,38.43,0,0,1-2-12.709h25.588a22.832,22.832,0,0,0,1.786,9.521,16.271,16.271,0,0,0,4.973,6.333,20.671,20.671,0,0,0,7.694,3.528,42.117,42.117,0,0,0,10.031,1.105,30.87,30.87,0,0,0,8.587-1.063,17.627,17.627,0,0,0,6.035-2.933,11.59,11.59,0,0,0,3.528-4.463A13.6,13.6,0,0,0,182.622-457.255Z" transform="translate(-113.253 551.345)" fill="#0d4aad"/>
      <g id="Grupo_140436" data-name="Grupo 140436" transform="translate(3.488 0.418)">
        <g id="Grupo_140429" data-name="Grupo 140429" transform="translate(0 2.439)">
          <rect id="Rectángulo_35844" data-name="Rectángulo 35844" width="37.764" height="2.176" transform="translate(0 26.703) rotate(-45)" fill="#fff"/>
        </g>
        <g id="Grupo_140430" data-name="Grupo 140430" transform="translate(0.181)">
          <rect id="Rectángulo_35845" data-name="Rectángulo 35845" width="58.104" height="2.176" transform="translate(0 41.086) rotate(-45)" fill="#fff"/>
        </g>
        <g id="Grupo_140431" data-name="Grupo 140431" transform="translate(3.547 0.344)">
          <rect id="Rectángulo_35846" data-name="Rectángulo 35846" width="70.011" height="2.176" transform="translate(0 49.505) rotate(-45)" fill="#fff"/>
        </g>
        <g id="Grupo_140432" data-name="Grupo 140432" transform="translate(8.863 39.354)">
          <rect id="Rectángulo_35847" data-name="Rectángulo 35847" width="24.472" height="2.176" transform="translate(0 17.302) rotate(-44.991)" fill="#fff"/>
        </g>
        <g id="Grupo_140433" data-name="Grupo 140433" transform="translate(45.294 2.466)">
          <rect id="Rectángulo_35848" data-name="Rectángulo 35848" width="25.118" height="2.176" transform="translate(0 17.764) rotate(-45.01)" fill="#fff"/>
        </g>
        <g id="Grupo_140434" data-name="Grupo 140434" transform="translate(15.549 45.41)">
          <rect id="Rectángulo_35849" data-name="Rectángulo 35849" width="23.606" height="2.176" transform="translate(0 16.692) rotate(-44.999)" fill="#fff"/>
        </g>
        <g id="Grupo_140435" data-name="Grupo 140435" transform="translate(55.463 6.079)">
          <rect id="Rectángulo_35850" data-name="Rectángulo 35850" width="22.783" height="2.176" transform="matrix(0.707, -0.707, 0.707, 0.707, 0, 16.11)" fill="#fff"/>
        </g>
      </g>
      <g id="Grupo_140437" data-name="Grupo 140437" transform="translate(2.72 0)">
        <path id="Trazado_152767" data-name="Trazado 152767" d="M169.413-422.9a72.908,72.908,0,0,1-12.427-1.078,60.119,60.119,0,0,1-11.905-3.334,52.05,52.05,0,0,1-10.549-5.644A39.357,39.357,0,0,1,126.008-441a36.511,36.511,0,0,1-5.7-10.557,39.7,39.7,0,0,1-2.058-13.066,1.088,1.088,0,0,1,1.088-1.088h5.907v2.176h-4.806a36.878,36.878,0,0,0,1.924,11.263,34.328,34.328,0,0,0,5.355,9.931,37.171,37.171,0,0,0,8.053,7.6,49.883,49.883,0,0,0,10.108,5.407,57.866,57.866,0,0,0,11.474,3.212,70.679,70.679,0,0,0,12.056,1.047,67.308,67.308,0,0,0,18.195-2.3,41.972,41.972,0,0,0,13.8-6.541,29.087,29.087,0,0,0,8.731-10.369,31.143,31.143,0,0,0,3.073-14.05,32.989,32.989,0,0,0-2.544-13.251,32.164,32.164,0,0,0-7.528-10.525,52.127,52.127,0,0,0-12.575-8.489,115.468,115.468,0,0,0-15.211-6.127l.68-2.067a117.639,117.639,0,0,1,15.5,6.245,54.273,54.273,0,0,1,13.1,8.853,34.334,34.334,0,0,1,8.03,11.238,35.155,35.155,0,0,1,2.726,14.123,33.3,33.3,0,0,1-3.3,15.024,31.249,31.249,0,0,1-9.376,11.139,44.1,44.1,0,0,1-14.51,6.891A69.437,69.437,0,0,1,169.413-422.9Zm0-20.148a43.393,43.393,0,0,1-10.291-1.137,21.844,21.844,0,0,1-8.093-3.718,17.166,17.166,0,0,1-4.792-5.706l1.924-1.017a15.015,15.015,0,0,0,4.185,4.99,19.68,19.68,0,0,0,7.294,3.337,41.215,41.215,0,0,0,9.772,1.074,29.956,29.956,0,0,0,8.282-1.019,16.648,16.648,0,0,0,5.668-2.744,10.576,10.576,0,0,0,3.205-4.047,12.586,12.586,0,0,0,1.054-5.128,16.1,16.1,0,0,0-.871-5.455,10.3,10.3,0,0,0-3.282-4.332,32.215,32.215,0,0,0-7.15-4.183,116.537,116.537,0,0,0-12.082-4.461,151.05,151.05,0,0,1-16.143-6.166,60.233,60.233,0,0,1-13.418-8.183,37.032,37.032,0,0,1-9.193-10.992,30.354,30.354,0,0,1-3.4-14.63,34.278,34.278,0,0,1,.386-5.176l2.151.33a32.043,32.043,0,0,0-.361,4.846,28.213,28.213,0,0,0,3.141,13.593,34.878,34.878,0,0,0,8.659,10.347,58.063,58.063,0,0,0,12.935,7.883,148.832,148.832,0,0,0,15.909,6.076,118.9,118.9,0,0,1,12.314,4.55,34.339,34.339,0,0,1,7.642,4.489,12.426,12.426,0,0,1,3.943,5.273,18.257,18.257,0,0,1,1,6.193,14.732,14.732,0,0,1-1.241,6.009,12.727,12.727,0,0,1-3.85,4.879,18.79,18.79,0,0,1-6.4,3.122A32.109,32.109,0,0,1,169.413-443.052Zm-12.5-60.727c-.927-.509-1.8-1.032-2.589-1.554-4.471-2.949-6.737-6.7-6.737-11.152a14.212,14.212,0,0,1,1.336-6.072,14.012,14.012,0,0,1,3.957-4.976,18.873,18.873,0,0,1,6.493-3.256,31.821,31.821,0,0,1,9.025-1.151,28.933,28.933,0,0,1,9.366,1.377,18.773,18.773,0,0,1,6.764,3.931,15.83,15.83,0,0,1,4.06,6.112A21.351,21.351,0,0,1,189.86-514H213.2a35.024,35.024,0,0,0-3.116-13.8,34.285,34.285,0,0,0-8.9-11.743,42.082,42.082,0,0,0-14.007-7.744,57.28,57.28,0,0,0-18.354-2.791,63.184,63.184,0,0,0-18.093,2.462,47.585,47.585,0,0,0-11.688,5.187l-1.158-1.842A49.735,49.735,0,0,1,150.1-549.7a65.362,65.362,0,0,1,18.717-2.553,59.441,59.441,0,0,1,19.051,2.905A44.24,44.24,0,0,1,202.6-541.2a36.437,36.437,0,0,1,9.461,12.485,37.483,37.483,0,0,1,3.33,15.8,1.088,1.088,0,0,1-1.088,1.088H188.8a1.088,1.088,0,0,1-1.088-1.088,19.618,19.618,0,0,0-1.164-6.847,13.683,13.683,0,0,0-3.505-5.279,16.63,16.63,0,0,0-5.988-3.465,26.786,26.786,0,0,0-8.657-1.258,29.693,29.693,0,0,0-8.4,1.059,16.735,16.735,0,0,0-5.749,2.865,11.858,11.858,0,0,0-3.353,4.2,12.056,12.056,0,0,0-1.131,5.15c0,3.725,1.884,6.779,5.76,9.335.743.491,1.563.983,2.437,1.462Z" transform="translate(-118.253 552.257)" fill="#27292d"/>
      </g>
    </g>
    <g id="Grupo_140442" data-name="Grupo 140442" transform="translate(-8193.628 -4270.985)">
      <path id="Trazado_152768" data-name="Trazado 152768" d="M655.942-474H606.975v33.154h57.468v20.488H581.472V-544.132h82.8v20.658h-57.3v29.5h48.967Z" transform="translate(-581.472 545.22)" fill="#ef3c79"/>
      <g id="Grupo_140439" data-name="Grupo 140439" transform="translate(2.72 0)">
        <path id="Trazado_152769" data-name="Trazado 152769" d="M670.531-420.179H587.56a1.088,1.088,0,0,1-1.088-1.088v-25.815h2.176v24.727h80.795v-18.311h-56.38a1.088,1.088,0,0,1-1.088-1.088v-33.154A1.088,1.088,0,0,1,613.064-476h47.879v-17.8H647.708v-2.176H662.03a1.088,1.088,0,0,1,1.088,1.088v19.978a1.088,1.088,0,0,1-1.088,1.088H614.152v30.978h56.38a1.088,1.088,0,0,1,1.088,1.088v20.488A1.088,1.088,0,0,1,670.531-420.179Zm-81.883-44.314h-2.176v-80.551a1.088,1.088,0,0,1,1.088-1.088h82.8a1.088,1.088,0,0,1,1.088,1.088v20.658a1.089,1.089,0,0,1-1.088,1.088h-47.14v-2.176h46.051v-18.482H588.648ZM634.1-493.8h-21.04a1.088,1.088,0,0,1-1.088-1.088v-22.382h2.176v21.294H634.1Z" transform="translate(-586.472 546.132)" fill="#27292d"/>
      </g>
      <g id="Grupo_140440" data-name="Grupo 140440" transform="translate(10.011 6.828)">
        <path id="Trazado_152770" data-name="Trazado 152770" d="M627.155-420.648H599.872V-533.582h63.792v2.176H602.049v108.581h25.107Z" transform="translate(-599.872 533.582)" fill="#fff"/>
      </g>
      <g id="Grupo_140441" data-name="Grupo 140441" transform="translate(11.097 104.664)">
        <path id="Trazado_152771" data-name="Trazado 152771" d="M616.329-339.3h-2.176a12.3,12.3,0,0,0-12.285-12.285v-2.176A14.478,14.478,0,0,1,616.329-339.3Z" transform="translate(-601.868 353.762)" fill="#fff"/>
      </g>
    </g>
    <g id="Grupo_140448" data-name="Grupo 140448" transform="translate(-8326.398 -4270.985)">
      <path id="Trazado_152772" data-name="Trazado 152772" d="M438.265-523.474H400.35v103.118h-25.5V-523.474H337.441v-20.658H438.265Z" transform="translate(-337.441 545.22)" fill="#00cbae"/>
      <g id="Grupo_140443" data-name="Grupo 140443" transform="translate(2.72 0)">
        <path id="Trazado_152773" data-name="Trazado 152773" d="M406.438-420.179h-25.5a1.088,1.088,0,0,1-1.088-1.088v-87.841h2.176v86.753H405.35v-41.05h2.176v42.138A1.088,1.088,0,0,1,406.438-420.179Zm1.088-55.74H405.35v-48.467a1.088,1.088,0,0,1,1.088-1.088h36.827v-18.482H344.617v18.482h31.872v2.176h-32.96a1.088,1.088,0,0,1-1.088-1.088v-20.658a1.088,1.088,0,0,1,1.088-1.088H444.353a1.088,1.088,0,0,1,1.088,1.088v20.658a1.089,1.089,0,0,1-1.088,1.088H407.526Z" transform="translate(-342.441 546.132)" fill="#27292d"/>
      </g>
      <g id="Grupo_140444" data-name="Grupo 140444" transform="translate(53.133 63.558)">
        <rect id="Rectángulo_35851" data-name="Rectángulo 35851" width="2.176" height="7.47" fill="#fff"/>
      </g>
      <g id="Grupo_140445" data-name="Grupo 140445" transform="translate(53.133 14.989)">
        <path id="Trazado_152774" data-name="Trazado 152774" d="M437.275-476.226H435.1v-42.356h47.835v2.176H437.275Z" transform="translate(-435.098 518.582)" fill="#fff"/>
      </g>
      <g id="Grupo_140446" data-name="Grupo 140446" transform="translate(15.548 6.828)">
        <rect id="Rectángulo_35852" data-name="Rectángulo 35852" width="85.276" height="2.176" fill="#fff"/>
      </g>
      <g id="Grupo_140447" data-name="Grupo 140447" transform="translate(49.324 55.133)">
        <path id="Trazado_152775" data-name="Trazado 152775" d="M432.854-435.285a4.763,4.763,0,0,1-4.757-4.757,4.763,4.763,0,0,1,4.757-4.757,4.763,4.763,0,0,1,4.757,4.757A4.763,4.763,0,0,1,432.854-435.285Zm0-7.338a2.584,2.584,0,0,0-2.581,2.581,2.583,2.583,0,0,0,2.581,2.581,2.583,2.583,0,0,0,2.581-2.581A2.584,2.584,0,0,0,432.854-442.623Z" transform="translate(-428.097 444.799)" fill="#fff"/>
      </g>
    </g>
    <g id="Grupo_140452" data-name="Grupo 140452" transform="translate(-8157.192 -4186.551)">
      <path id="Trazado_152776" data-name="Trazado 152776" d="M689.708-373.247H679.577l7.163-7.163-5.567-5.568-7.164,7.164v-10.131h-7.872v10.131l-7.164-7.164-5.567,5.567,7.164,7.164H650.44v7.873h10.131l-7.164,7.164,5.567,5.567,7.164-7.164v10.131h7.872v-10.131l7.164,7.164,5.566-5.567-7.163-7.163h10.131Z" transform="translate(-649.352 390.032)" fill="#51d7e5"/>
      <g id="Grupo_140449" data-name="Grupo 140449">
        <path id="Trazado_152777" data-name="Trazado 152777" d="M673.1-349.5h-7.872a1.088,1.088,0,0,1-1.088-1.088v-7.5l-5.307,5.306a1.088,1.088,0,0,1-1.539,0l-5.567-5.567a1.088,1.088,0,0,1-.319-.769,1.088,1.088,0,0,1,.319-.769l5.306-5.306h-7.5a1.088,1.088,0,0,1-1.088-1.088v-7.873a1.088,1.088,0,0,1,1.088-1.088h7.5l-5.307-5.306a1.087,1.087,0,0,1-.319-.769,1.088,1.088,0,0,1,.319-.769l5.567-5.566a1.088,1.088,0,0,1,1.539,0l5.307,5.306v-7.5a1.088,1.088,0,0,1,1.088-1.088H673.1a1.088,1.088,0,0,1,1.088,1.088v7.5l5.306-5.306a1.089,1.089,0,0,1,.769-.319h0a1.09,1.09,0,0,1,.77.319l5.566,5.568a1.088,1.088,0,0,1,0,1.539l-5.305,5.305h7.5a1.089,1.089,0,0,1,1.088,1.088v7.873A1.088,1.088,0,0,1,688.8-365.2h-7.5l5.306,5.306a1.088,1.088,0,0,1,0,1.539l-5.566,5.568a1.121,1.121,0,0,1-1.539,0l-5.306-5.306v7.5A1.088,1.088,0,0,1,673.1-349.5Zm-6.784-2.176h5.7v-9.043a1.088,1.088,0,0,1,.671-1,1.088,1.088,0,0,1,1.186.236l6.394,6.395,4.028-4.028-6.394-6.394a1.088,1.088,0,0,1-.236-1.186,1.087,1.087,0,0,1,1.005-.671h9.043v-5.7h-9.043a1.087,1.087,0,0,1-1.005-.671,1.088,1.088,0,0,1,.236-1.186l6.394-6.393-4.028-4.029-6.394,6.395a1.087,1.087,0,0,1-1.186.236,1.089,1.089,0,0,1-.672-1.005v-9.043h-5.7v9.043a1.09,1.09,0,0,1-.672,1.005,1.086,1.086,0,0,1-1.185-.236l-6.4-6.395-4.028,4.028,6.394,6.395a1.088,1.088,0,0,1,.236,1.186,1.089,1.089,0,0,1-1.005.671h-9.043v5.7h9.043a1.087,1.087,0,0,1,1.005.671,1.088,1.088,0,0,1-.236,1.186l-6.394,6.395,4.028,4.028,6.4-6.395a1.087,1.087,0,0,1,1.185-.236,1.088,1.088,0,0,1,.672,1Z" transform="translate(-648.44 390.944)" fill="#27292d"/>
      </g>
      <path id="Trazado_152778" data-name="Trazado 152778" d="M688.623-363.7a12.934,12.934,0,0,1-12.934,12.935A12.934,12.934,0,0,1,662.754-363.7a12.934,12.934,0,0,1,12.934-12.935A12.934,12.934,0,0,1,688.623-363.7Z" transform="translate(-654.966 384.418)" fill="#fff"/>
      <g id="Grupo_140450" data-name="Grupo 140450" transform="translate(6.7 6.699)">
        <path id="Trazado_152779" data-name="Trazado 152779" d="M674.776-350.585a14.039,14.039,0,0,1-14.022-14.023,14.039,14.039,0,0,1,14.022-14.023A14.039,14.039,0,0,1,688.8-364.608,14.039,14.039,0,0,1,674.776-350.585Zm0-25.87a11.86,11.86,0,0,0-11.846,11.847,11.86,11.86,0,0,0,11.846,11.847,11.86,11.86,0,0,0,11.846-11.847A11.86,11.86,0,0,0,674.776-376.455Z" transform="translate(-660.754 378.631)" fill="#27292d"/>
      </g>
      <path id="Trazado_152780" data-name="Trazado 152780" d="M682.328-352.045a5.017,5.017,0,0,1-5.011-5.011,5.017,5.017,0,0,1,5.011-5.011,5.017,5.017,0,0,1,5.011,5.011A5.017,5.017,0,0,1,682.328-352.045Z" transform="translate(-661.606 377.779)" fill="#7fe4ea"/>
      <g id="Grupo_140451" data-name="Grupo 140451" transform="translate(14.623 14.623)">
        <path id="Trazado_152781" data-name="Trazado 152781" d="M681.416-351.869a6.106,6.106,0,0,1-6.1-6.1,6.106,6.106,0,0,1,6.1-6.1,6.106,6.106,0,0,1,6.1,6.1A6.107,6.107,0,0,1,681.416-351.869Zm0-10.023a3.927,3.927,0,0,0-3.923,3.923,3.927,3.927,0,0,0,3.923,3.923,3.927,3.927,0,0,0,3.923-3.923A3.927,3.927,0,0,0,681.416-361.892Z" transform="translate(-675.317 364.068)" fill="#27292d"/>
      </g>
    </g>
    <g id="Grupo_140453" data-name="Grupo 140453" transform="translate(-7953.52 -4147.208)">
      <rect id="Rectángulo_35853" data-name="Rectángulo 35853" width="57.892" height="2.176" transform="translate(0 0)" fill="#27292d"/>
    </g>
    <g id="Grupo_140454" data-name="Grupo 140454" transform="translate(-8135.786 -4147.208)">
      <rect id="Rectángulo_35854" data-name="Rectángulo 35854" width="105.007" height="2.176" transform="translate(0 0)" fill="#27292d"/>
    </g>
    <g id="Grupo_140455" data-name="Grupo 140455" transform="translate(-8200.938 -4147.208)">
      <rect id="Rectángulo_35855" data-name="Rectángulo 35855" width="100.101" height="2.176" transform="translate(0 0)" fill="#27292d"/>
    </g>
    <g id="Grupo_140456" data-name="Grupo 140456" transform="translate(-8305.278 -4147.208)">
      <rect id="Rectángulo_35856" data-name="Rectángulo 35856" width="89.031" height="2.176" transform="translate(0 0)" fill="#27292d"/>
    </g>
    <g id="Grupo_140457" data-name="Grupo 140457" transform="translate(-8447.746 -4147.208)">
      <rect id="Rectángulo_35857" data-name="Rectángulo 35857" width="89.718" height="2.176" transform="translate(0 0)" fill="#27292d"/>
    </g>
    <g id="Grupo_140465" data-name="Grupo 140465" transform="translate(-8098.397 -4305.983)">
      <g id="Grupo_140461" data-name="Grupo 140461">
        <path id="Trazado_152782" data-name="Trazado 152782" d="M767.663-569.419c0,2.048-2.051,3.708-4.58,3.708s-4.579-1.66-4.579-3.708,2.05-3.707,4.579-3.707S767.663-571.466,767.663-569.419Z" transform="translate(-757.416 593.438)" fill="#51d7e5"/>
        <g id="Grupo_140458" data-name="Grupo 140458" transform="translate(0 19.223)">
          <path id="Trazado_152783" data-name="Trazado 152783" d="M762.172-565.535c-3.126,0-5.668-2.152-5.668-4.8s2.542-4.795,5.668-4.795,5.668,2.151,5.668,4.795S765.3-565.535,762.172-565.535Zm0-7.415c-1.925,0-3.491,1.175-3.491,2.619s1.566,2.62,3.491,2.62,3.492-1.176,3.492-2.62S764.1-572.95,762.172-572.95Z" transform="translate(-756.504 575.126)" fill="#27292d"/>
        </g>
        <g id="Grupo_140459" data-name="Grupo 140459" transform="translate(9.159)">
          <path id="Trazado_152784" data-name="Trazado 152784" d="M775.515-586.439h-2.176V-609.37a1.088,1.088,0,0,1,.668-1,1.089,1.089,0,0,1,1.184.23c3.269,3.228,5.824,1.553,5.849,1.535a1.088,1.088,0,0,1,1.121-.062,1.086,1.086,0,0,1,.579.961v3.669h-2.176v-2.079a6.816,6.816,0,0,1-5.05-1Z" transform="translate(-773.339 610.458)" fill="#27292d"/>
        </g>
        <g id="Grupo_140460" data-name="Grupo 140460" transform="translate(9.483 4.401)">
          <path id="Trazado_152785" data-name="Trazado 152785" d="M783.012-593.711h-2.176V-598.8c-1.777.611-4.322.528-6.9-2.021l1.529-1.548c3.178,3.139,5.631,1.007,5.735.915a1.087,1.087,0,0,1,1.17-.184,1.088,1.088,0,0,1,.645.994Z" transform="translate(-773.933 602.37)" fill="#27292d"/>
        </g>
      </g>
      <g id="Grupo_140464" data-name="Grupo 140464" transform="translate(13.518 13.699)">
        <g id="Grupo_140462" data-name="Grupo 140462" transform="translate(0 17.728)">
          <path id="Trazado_152786" data-name="Trazado 152786" d="M787.016-543.1c-3.125,0-5.667-2.151-5.667-4.8s2.542-4.8,5.667-4.8,5.668,2.151,5.668,4.8S790.141-543.1,787.016-543.1Zm0-7.416c-1.925,0-3.491,1.175-3.491,2.62s1.566,2.62,3.491,2.62,3.492-1.175,3.492-2.62S788.942-550.519,787.016-550.519Z" transform="translate(-781.349 552.695)" fill="#27292d"/>
        </g>
        <g id="Grupo_140463" data-name="Grupo 140463" transform="translate(9.159)">
          <path id="Trazado_152787" data-name="Trazado 152787" d="M800.359-562.754h-2.176v-21.437a1.089,1.089,0,0,1,.669-1,1.091,1.091,0,0,1,1.184.23c3.268,3.229,5.824,1.552,5.85,1.535a1.089,1.089,0,0,1,1.121-.063,1.09,1.09,0,0,1,.579.962v10.393H805.41v-8.8a6.821,6.821,0,0,1-5.051-1Z" transform="translate(-798.183 585.279)" fill="#27292d"/>
        </g>
      </g>
    </g>
    <g id="Grupo_140466" data-name="Grupo 140466" transform="translate(-8510.999 -4321.964)">
      <path id="Trazado_152788" data-name="Trazado 152788" d="M104.075-427.977A106.048,106.048,0,0,1-1.853-533.9,106.047,106.047,0,0,1,104.075-639.832c2.373,0,4.767.079,7.116.235l-.144,2.171c-2.3-.152-4.647-.23-6.972-.23A103.869,103.869,0,0,0,.323-533.9,103.869,103.869,0,0,0,104.075-430.153a103.169,103.169,0,0,0,58.8-18.256l1.235,1.792A105.329,105.329,0,0,1,104.075-427.977Z" transform="translate(1.853 639.832)" fill="#27292d"/>
    </g>
    <g id="Grupo_140467" data-name="Grupo 140467" transform="translate(-8328.396 -4118.161)">
      <path id="Trazado_152789" data-name="Trazado 152789" d="M506.786-263.068h-5.441v-2.176h5.441Zm-11.97,0h-5.441v-2.176h5.441Zm-11.97,0h-5.441v-2.176h5.441Zm-11.97,0h-5.441v-2.176h5.441Zm-11.97,0h-5.441v-2.176h5.441Zm-11.97,0H441.5v-2.176h5.441Zm-11.97,0h-5.441v-2.176h5.441Zm-11.97,0h-5.441v-2.176H423Zm-11.97,0h-5.441v-2.176h5.441Zm-11.97,0h-5.441v-2.176h5.441Zm-11.97,0h-5.441v-2.176h5.441Zm-11.97,0h-5.441v-2.176h5.441Zm-11.97,0h-5.441v-2.176h5.441Zm-11.97,0H345.74v-2.176h5.441Zm-11.97,0H333.77v-2.176h5.441Z" transform="translate(-333.77 265.244)" fill="#27292d"/>
    </g>
    <g id="Grupo_140468" data-name="Grupo 140468" transform="translate(-8141.997 -4132.172)">
      <path id="Trazado_152790" data-name="Trazado 152790" d="M873.323-288.821h-5.441V-291h5.441Zm-11.97,0h-5.441V-291h5.441Zm-11.97,0h-5.441V-291h5.441Zm-11.97,0h-5.441V-291h5.441Zm-11.97,0H820V-291h5.441Zm-11.97,0h-5.441V-291h5.441Zm-11.97,0h-5.441V-291h5.441Zm-11.97,0h-5.441V-291h5.441Zm-11.97,0h-5.441V-291h5.441Zm-11.97,0h-5.441V-291H765.6Zm-11.97,0h-5.441V-291h5.441Zm-11.97,0h-5.441V-291h5.441Zm-11.97,0h-5.441V-291h5.441Zm-11.97,0h-5.441V-291h5.441Zm-11.97,0h-5.441V-291h5.441Zm-11.97,0h-5.441V-291h5.441Zm-11.97,0h-5.441V-291h5.441Z" transform="translate(-676.368 290.997)" fill="#27292d"/>
    </g>
    <g id="Grupo_140469" data-name="Grupo 140469" transform="translate(-8017.624 -4295.732)">
      <path id="Trazado_152791" data-name="Trazado 152791" d="M906.376-566.372l-1.412-1.656a98.964,98.964,0,0,1,62.658-23.589l.031,2.176A96.782,96.782,0,0,0,906.376-566.372Z" transform="translate(-904.964 591.618)" fill="#27292d"/>
    </g>
    <g id="Grupo_140470" data-name="Grupo 140470" transform="translate(-7953.519 -4265.432)">
      <path id="Trazado_152792" data-name="Trazado 152792" d="M1022.789-368.524V-370.7a96.789,96.789,0,0,0,96.679-96.68,96.212,96.212,0,0,0-27.015-67.036l1.568-1.509a98.377,98.377,0,0,1,27.623,68.545A98.968,98.968,0,0,1,1022.789-368.524Z" transform="translate(-1022.789 535.926)" fill="#27292d"/>
    </g>
    <g id="Grupo_140471" data-name="Grupo 140471" transform="translate(-8292.353 -4291.651)">
      <rect id="Rectángulo_35858" data-name="Rectángulo 35858" width="185.505" height="2.176" transform="translate(0 0)" fill="#27292d"/>
    </g>
    <g id="Grupo_140477" data-name="Grupo 140477" transform="translate(-7933.604 -4313.697)">
      <rect id="Rectángulo_35859" data-name="Rectángulo 35859" width="8.843" height="6.375" transform="translate(15.229 41.591)" fill="#b3e856"/>
      <circle id="Elipse_4777" data-name="Elipse 4777" cx="16.48" cy="16.48" r="16.48" transform="translate(0.927 32.819) rotate(-81.449)" fill="#ffe029"/>
      <g id="Grupo_140474" data-name="Grupo 140474">
        <g id="Grupo_140472" data-name="Grupo 140472" transform="translate(17.508)">
          <path id="Trazado_152793" data-name="Trazado 152793" d="M1092.66-587.457a1.088,1.088,0,0,1-1.054-.818,1.088,1.088,0,0,1,.532-1.224,18.706,18.706,0,0,0,9.985-16.548,18.706,18.706,0,0,0-9.985-16.547,1.088,1.088,0,0,1-.532-1.224,1.088,1.088,0,0,1,1.054-.818,18.614,18.614,0,0,1,18.595,18.59A18.613,18.613,0,0,1,1092.66-587.457Zm4.333-34.424a20.643,20.643,0,0,1,7.306,15.833,20.642,20.642,0,0,1-7.306,15.834,16.443,16.443,0,0,0,12.086-15.833A16.444,16.444,0,0,0,1096.993-621.881Z" transform="translate(-1091.572 624.637)" fill="#27292d"/>
        </g>
        <g id="Grupo_140473" data-name="Grupo 140473">
          <path id="Trazado_152794" data-name="Trazado 152794" d="M1077.988-587.457a18.614,18.614,0,0,1-18.6-18.589,18.614,18.614,0,0,1,18.6-18.59,1.087,1.087,0,0,1,1.054.818,1.087,1.087,0,0,1-.531,1.224,18.706,18.706,0,0,0-9.986,16.547,18.706,18.706,0,0,0,9.986,16.548,1.088,1.088,0,0,1,.531,1.224A1.087,1.087,0,0,1,1077.988-587.457Zm-4.333-34.424a16.444,16.444,0,0,0-12.087,15.834,16.443,16.443,0,0,0,12.087,15.833,20.641,20.641,0,0,1-7.307-15.834A20.644,20.644,0,0,1,1073.655-621.881Z" transform="translate(-1059.392 624.637)" fill="#27292d"/>
        </g>
      </g>
      <g id="Grupo_140475" data-name="Grupo 140475" transform="translate(10.663 35.205)">
        <path id="Trazado_152795" data-name="Trazado 152795" d="M1092.4-546.081h-10.951a1.088,1.088,0,0,1-1.088-1.088v-8.491a2.139,2.139,0,0,1-1.37-1.921v-2.35h2.176v2.248a.565.565,0,0,0,.282.067,1.088,1.088,0,0,1,1.088,1.088v8.27h8.775v-8.27a1.088,1.088,0,0,1,1.088-1.088.573.573,0,0,0,.282-.067v-2.249h2.176v2.35a2.113,2.113,0,0,1-1.37,1.928v8.484A1.088,1.088,0,0,1,1092.4-546.081Z" transform="translate(-1078.99 559.931)" fill="#27292d"/>
      </g>
      <g id="Grupo_140476" data-name="Grupo 140476" transform="translate(13.44 40.498)">
        <rect id="Rectángulo_35860" data-name="Rectángulo 35860" width="9.963" height="2.176" fill="#27292d"/>
      </g>
    </g>
    <g id="Grupo_140491" data-name="Grupo 140491" transform="translate(-7949.519 -4190.979)">
      <rect id="Rectángulo_35861" data-name="Rectángulo 35861" width="36.468" height="43.77" transform="translate(1.088 1.088)" fill="#fff"/>
      <g id="Grupo_140478" data-name="Grupo 140478">
        <path id="Trazado_152796" data-name="Trazado 152796" d="M1067.7-353.135h-36.468a1.088,1.088,0,0,1-1.088-1.088v-43.77a1.089,1.089,0,0,1,1.088-1.088H1067.7a1.088,1.088,0,0,1,1.088,1.088v43.77A1.088,1.088,0,0,1,1067.7-353.135Zm-35.38-2.176h34.292v-41.594h-34.292Z" transform="translate(-1030.141 399.082)" fill="#27292d"/>
      </g>
      <g id="Grupo_140490" data-name="Grupo 140490" transform="translate(5.538 5.513)">
        <g id="Grupo_140480" data-name="Grupo 140480">
          <rect id="Rectángulo_35862" data-name="Rectángulo 35862" width="25.393" height="7.728" transform="translate(1.088 1.088)" fill="#ffe029"/>
          <g id="Grupo_140479" data-name="Grupo 140479">
            <path id="Trazado_152797" data-name="Trazado 152797" d="M1066.8-379.045h-25.394a1.088,1.088,0,0,1-1.088-1.088v-7.728a1.088,1.088,0,0,1,1.088-1.088H1066.8a1.088,1.088,0,0,1,1.088,1.088v7.728A1.089,1.089,0,0,1,1066.8-379.045Zm-24.306-2.176h23.217v-5.552H1042.5Z" transform="translate(-1040.32 388.949)" fill="#27292d"/>
          </g>
        </g>
        <g id="Grupo_140489" data-name="Grupo 140489" transform="translate(0 13.179)">
          <rect id="Rectángulo_35863" data-name="Rectángulo 35863" width="25.393" height="19.565" transform="translate(1.088 1.088)" fill="#7fe4ea"/>
          <g id="Grupo_140481" data-name="Grupo 140481">
            <path id="Trazado_152798" data-name="Trazado 152798" d="M1066.8-342.985h-25.394a1.088,1.088,0,0,1-1.088-1.088v-19.565a1.088,1.088,0,0,1,1.088-1.088H1066.8a1.088,1.088,0,0,1,1.088,1.088v19.565A1.088,1.088,0,0,1,1066.8-342.985Zm-24.306-2.176h23.217V-362.55H1042.5Z" transform="translate(-1040.32 364.726)" fill="#27292d"/>
          </g>
          <g id="Grupo_140488" data-name="Grupo 140488" transform="translate(1.081 1.088)">
            <g id="Grupo_140484" data-name="Grupo 140484" transform="translate(7.54)">
              <g id="Grupo_140482" data-name="Grupo 140482">
                <rect id="Rectángulo_35864" data-name="Rectángulo 35864" width="2.176" height="19.565" fill="#27292d"/>
              </g>
              <g id="Grupo_140483" data-name="Grupo 140483" transform="translate(8.635)">
                <rect id="Rectángulo_35865" data-name="Rectángulo 35865" width="2.176" height="19.565" fill="#27292d"/>
              </g>
            </g>
            <g id="Grupo_140487" data-name="Grupo 140487" transform="translate(0 5.442)">
              <g id="Grupo_140485" data-name="Grupo 140485">
                <rect id="Rectángulo_35866" data-name="Rectángulo 35866" width="25.408" height="2.176" fill="#27292d"/>
              </g>
              <g id="Grupo_140486" data-name="Grupo 140486" transform="translate(0 6.506)">
                <rect id="Rectángulo_35867" data-name="Rectángulo 35867" width="17.254" height="2.176" fill="#27292d"/>
              </g>
            </g>
          </g>
        </g>
      </g>
    </g>
    <g id="Grupo_140502" data-name="Grupo 140502" transform="translate(-8274.148 -4194.876)">
      <g id="Grupo_140494" data-name="Grupo 140494" transform="translate(25.16 39.779)">
        <g id="Grupo_140492" data-name="Grupo 140492" transform="translate(6.493)">
          <rect id="Rectángulo_35868" data-name="Rectángulo 35868" width="2.176" height="8.625" fill="#27292d"/>
        </g>
        <g id="Grupo_140493" data-name="Grupo 140493">
          <rect id="Rectángulo_35869" data-name="Rectángulo 35869" width="2.176" height="8.625" fill="#27292d"/>
        </g>
      </g>
      <g id="Grupo_140501" data-name="Grupo 140501" transform="translate(0 0)">
        <rect id="Rectángulo_35870" data-name="Rectángulo 35870" width="56.812" height="38.691" transform="translate(1.088 1.088)" fill="#fff"/>
        <g id="Grupo_140495" data-name="Grupo 140495">
          <path id="Trazado_152799" data-name="Trazado 152799" d="M491.376-365.379H434.564a1.088,1.088,0,0,1-1.088-1.088v-38.691a1.088,1.088,0,0,1,1.088-1.088h56.812a1.088,1.088,0,0,1,1.088,1.088v38.691A1.088,1.088,0,0,1,491.376-365.379Zm-55.724-2.176h54.636V-404.07H435.652Z" transform="translate(-433.476 406.246)" fill="#27292d"/>
        </g>
        <g id="Grupo_140496" data-name="Grupo 140496" transform="translate(7.581 30.63)">
          <rect id="Rectángulo_35871" data-name="Rectángulo 35871" width="43.826" height="2.176" fill="#27292d"/>
        </g>
        <g id="Grupo_140497" data-name="Grupo 140497" transform="translate(7.581 9.673)">
          <rect id="Rectángulo_35872" data-name="Rectángulo 35872" width="9.739" height="2.176" fill="#27292d"/>
        </g>
        <g id="Grupo_140498" data-name="Grupo 140498" transform="translate(7.581 19.346)">
          <rect id="Rectángulo_35873" data-name="Rectángulo 35873" width="9.739" height="2.176" fill="#27292d"/>
        </g>
        <g id="Grupo_140499" data-name="Grupo 140499" transform="translate(28.683 9.673)">
          <rect id="Rectángulo_35874" data-name="Rectángulo 35874" width="22.724" height="2.176" fill="#27292d"/>
        </g>
        <g id="Grupo_140500" data-name="Grupo 140500" transform="translate(28.683 19.346)">
          <rect id="Rectángulo_35875" data-name="Rectángulo 35875" width="22.724" height="2.176" fill="#27292d"/>
        </g>
      </g>
    </g>
    <g id="Grupo_140509" data-name="Grupo 140509" transform="translate(-8108.82 -4208.51)">
      <rect id="Rectángulo_35876" data-name="Rectángulo 35876" width="13.033" height="49.25" transform="translate(1.088 13.14)" fill="#ffe029"/>
      <g id="Grupo_140508" data-name="Grupo 140508" transform="translate(0 0)">
        <g id="Grupo_140504" data-name="Grupo 140504" transform="translate(0 12.052)">
          <g id="Grupo_140503" data-name="Grupo 140503">
            <path id="Trazado_152800" data-name="Trazado 152800" d="M751.467-357.728H738.434a1.088,1.088,0,0,1-1.088-1.088v-49.25a1.088,1.088,0,0,1,1.088-1.088h13.033a1.088,1.088,0,0,1,1.088,1.088v49.25A1.088,1.088,0,0,1,751.467-357.728ZM739.522-359.9h10.857v-47.074H739.522Z" transform="translate(-737.346 409.154)" fill="#27292d"/>
          </g>
        </g>
        <g id="Grupo_140505" data-name="Grupo 140505" transform="translate(6.517 13.14)">
          <rect id="Rectángulo_35877" data-name="Rectángulo 35877" width="2.176" height="39.612" fill="#27292d"/>
        </g>
        <g id="Grupo_140506" data-name="Grupo 140506" transform="translate(1.088 51.664)">
          <rect id="Rectángulo_35878" data-name="Rectángulo 35878" width="13.006" height="2.176" fill="#27292d"/>
        </g>
        <g id="Grupo_140507" data-name="Grupo 140507" transform="translate(0.131)">
          <path id="Trazado_152801" data-name="Trazado 152801" d="M739.5-417.648l-1.914-1.035,6.518-12.052a1.088,1.088,0,0,1,.957-.571h0a1.088,1.088,0,0,1,.957.571l6.516,12.052-1.915,1.035-5.558-10.281Z" transform="translate(-737.587 431.305)" fill="#27292d"/>
        </g>
      </g>
    </g>
    <g id="Grupo_140513" data-name="Grupo 140513" transform="translate(-8091.389 -4208.795)">
      <path id="Trazado_152802" data-name="Trazado 152802" d="M783.889-419.48c0,3.778-2.809,6.835-6.261,6.829a6.544,6.544,0,0,1-6.242-6.849c.057-5.043,5.038-6.17,5.77-10.328C780.609-429.823,783.9-423.259,783.889-419.48Z" transform="translate(-770.297 430.916)" fill="#ffe029"/>
      <g id="Grupo_140510" data-name="Grupo 140510" transform="translate(0 0)">
        <path id="Trazado_152803" data-name="Trazado 152803" d="M776.726-412.475h-.013a7.057,7.057,0,0,1-5.028-2.15,8.161,8.161,0,0,1-2.3-5.8c.036-3.193,1.781-5.027,3.321-6.646,1.176-1.236,2.192-2.3,2.465-3.859a1.088,1.088,0,0,1,1.072-.9h0c1.972,0,3.961,1.528,5.6,4.293a15.137,15.137,0,0,1,2.221,7.145C784.061-416.026,780.769-412.475,776.726-412.475Zm.307-17a11.116,11.116,0,0,1-2.751,3.908c-1.446,1.52-2.695,2.833-2.721,5.169a5.971,5.971,0,0,0,1.672,4.245,4.9,4.9,0,0,0,3.484,1.5l.009,1.088v-1.088c2.844,0,5.16-2.576,5.163-5.742a13.257,13.257,0,0,0-1.917-6.033A7.216,7.216,0,0,0,777.034-429.477Z" transform="translate(-769.385 431.828)" fill="#27292d"/>
      </g>
      <path id="Trazado_152804" data-name="Trazado 152804" d="M780.992-375.455H776.04s-7.554,20.621,2.477,31.719C788.546-354.834,780.992-375.455,780.992-375.455Z" transform="translate(-771.175 406.126)" fill="#7fe4ea"/>
      <g id="Grupo_140511" data-name="Grupo 140511" transform="translate(1.021 29.583)">
        <path id="Trazado_152805" data-name="Trazado 152805" d="M777.582-343.56a1.087,1.087,0,0,1-.807-.359c-10.352-11.453-3.009-31.956-2.692-32.822a1.088,1.088,0,0,1,1.022-.714h4.953a1.088,1.088,0,0,1,1.022.714c.318.867,7.66,21.369-2.69,32.822A1.087,1.087,0,0,1,777.582-343.56Zm-1.694-31.719c-1.138,3.545-5.632,19.433,1.694,28.934,7.334-9.511,2.834-25.39,1.694-28.934Z" transform="translate(-771.262 377.455)" fill="#27292d"/>
      </g>
      <g id="Grupo_140512" data-name="Grupo 140512" transform="translate(3.776 17.707)">
        <path id="Trazado_152806" data-name="Trazado 152806" d="M782.365-385.23h-4.951a1.088,1.088,0,0,1-1.088-1.088v-12.965H778.5v11.877h2.775v-11.877h2.176v12.965A1.088,1.088,0,0,1,782.365-385.23Z" transform="translate(-776.326 399.283)" fill="#27292d"/>
      </g>
    </g>
  </g>
</svg>
