<svg xmlns="http://www.w3.org/2000/svg" width="190" height="190" viewBox="0 0 190 190">
  <g id="Grupo_140887" data-name="Grupo 140887" transform="translate(8016 7651)">
    <g id="Grupo_140884" data-name="Grupo 140884" transform="translate(14.518 -0.148)">
      <path id="Trazado_153914" data-name="Trazado 153914" d="M48.143,17V4.2h4.122a6.064,6.064,0,0,1,3.05.769,5.406,5.406,0,0,1,2.114,2.171,6.554,6.554,0,0,1,.769,3.142v.589a6.592,6.592,0,0,1-.743,3.151,5.429,5.429,0,0,1-2.092,2.18,5.93,5.93,0,0,1-3.01.8ZM51.228,6.585v8.042H52.3a2.4,2.4,0,0,0,2.039-.945,4.63,4.63,0,0,0,.712-2.808V10.32a4.592,4.592,0,0,0-.712-2.795,2.442,2.442,0,0,0-2.074-.94ZM62.768,17H59.8V7.49h2.971ZM59.622,5.029a1.334,1.334,0,0,1,.457-1.043,1.934,1.934,0,0,1,2.373,0,1.334,1.334,0,0,1,.457,1.043,1.334,1.334,0,0,1-.457,1.043,1.934,1.934,0,0,1-2.373,0A1.334,1.334,0,0,1,59.622,5.029Zm7.69,2.461.1,1.116a3.225,3.225,0,0,1,2.716-1.292,2.713,2.713,0,0,1,2.219.888,4.226,4.226,0,0,1,.76,2.672V17H70.133V11a1.6,1.6,0,0,0-.29-1.059A1.342,1.342,0,0,0,68.789,9.6a1.413,1.413,0,0,0-1.292.686V17H64.535V7.49ZM80.1,17a3.344,3.344,0,0,1-.281-.853,2.754,2.754,0,0,1-2.285,1.028,3.374,3.374,0,0,1-2.285-.813,2.588,2.588,0,0,1-.94-2.043,2.66,2.66,0,0,1,1.143-2.338,5.821,5.821,0,0,1,3.322-.791h.914v-.5q0-1.316-1.134-1.316A.927.927,0,0,0,77.5,10.413H74.537A2.655,2.655,0,0,1,75.71,8.175a4.931,4.931,0,0,1,2.993-.86,4.323,4.323,0,0,1,2.874.888,3.086,3.086,0,0,1,1.081,2.435v4.21a4.311,4.311,0,0,0,.4,2V17Zm-1.854-1.934a1.652,1.652,0,0,0,.918-.237,1.487,1.487,0,0,0,.523-.536V12.772h-.861q-1.547,0-1.547,1.389a.848.848,0,0,0,.272.655A.986.986,0,0,0,78.246,15.066ZM78.984,3.5h3.129L79.669,6.26l-2.417,0ZM87.1,7.49l.1,1.116a3.27,3.27,0,0,1,2.716-1.292,2.407,2.407,0,0,1,2.435,1.433,3.165,3.165,0,0,1,2.795-1.433q2.892,0,2.971,3.5V17H95.138V11a1.813,1.813,0,0,0-.246-1.063A1.048,1.048,0,0,0,94,9.6a1.4,1.4,0,0,0-1.31.782l.009.123V17H89.724V11.015a1.906,1.906,0,0,0-.237-1.081,1.045,1.045,0,0,0-.905-.334,1.42,1.42,0,0,0-1.3.782V17H84.319V7.49ZM102.925,17H99.955V7.49h2.971ZM99.779,5.029a1.334,1.334,0,0,1,.457-1.043,1.934,1.934,0,0,1,2.373,0,1.334,1.334,0,0,1,.457,1.043,1.334,1.334,0,0,1-.457,1.043,1.934,1.934,0,0,1-2.373,0A1.334,1.334,0,0,1,99.779,5.029Zm8.991,9.861a1.317,1.317,0,0,0,.967-.338,1.241,1.241,0,0,0,.334-.945h2.777a3.288,3.288,0,0,1-1.121,2.566,4.168,4.168,0,0,1-2.887,1,4.22,4.22,0,0,1-3.27-1.3,5.125,5.125,0,0,1-1.2-3.6v-.123a5.792,5.792,0,0,1,.532-2.544,3.872,3.872,0,0,1,1.534-1.7,4.573,4.573,0,0,1,2.373-.593,4.116,4.116,0,0,1,2.944,1.028,3.647,3.647,0,0,1,1.09,2.786h-2.777A1.626,1.626,0,0,0,109.71,10a1.244,1.244,0,0,0-.967-.4q-1.151,0-1.345,1.468a10.357,10.357,0,0,0-.062,1.283,4.068,4.068,0,0,0,.343,1.986A1.187,1.187,0,0,0,108.77,14.891ZM119.458,17a3.344,3.344,0,0,1-.281-.853,2.754,2.754,0,0,1-2.285,1.028,3.374,3.374,0,0,1-2.285-.813,2.588,2.588,0,0,1-.94-2.043,2.66,2.66,0,0,1,1.143-2.338,5.821,5.821,0,0,1,3.322-.791h.914v-.5q0-1.316-1.134-1.316a.927.927,0,0,0-1.055,1.042h-2.962a2.655,2.655,0,0,1,1.173-2.239,4.931,4.931,0,0,1,2.993-.86,4.323,4.323,0,0,1,2.874.888,3.086,3.086,0,0,1,1.081,2.435v4.21a4.311,4.311,0,0,0,.4,2V17ZM117.6,15.066a1.652,1.652,0,0,0,.918-.237,1.487,1.487,0,0,0,.523-.536V12.772h-.861q-1.547,0-1.547,1.389a.848.848,0,0,0,.272.655A.986.986,0,0,0,117.6,15.066ZM38.537,42H35.566V32.49h2.971ZM35.39,30.029a1.334,1.334,0,0,1,.457-1.043,1.934,1.934,0,0,1,2.373,0,1.42,1.42,0,0,1,0,2.087,1.934,1.934,0,0,1-2.373,0A1.334,1.334,0,0,1,35.39,30.029Zm7.69,2.461.1,1.116a3.225,3.225,0,0,1,2.716-1.292,2.713,2.713,0,0,1,2.219.888,4.226,4.226,0,0,1,.76,2.672V42H45.9V36a1.6,1.6,0,0,0-.29-1.059,1.342,1.342,0,0,0-1.055-.338,1.413,1.413,0,0,0-1.292.686V42H40.3V32.49Zm12.41,6.838a.684.684,0,0,0-.4-.606,6.016,6.016,0,0,0-1.5-.475,6.853,6.853,0,0,1-1.828-.646,3.062,3.062,0,0,1-1.1-.971,2.319,2.319,0,0,1-.378-1.31,2.628,2.628,0,0,1,1.081-2.158,4.453,4.453,0,0,1,2.83-.848,4.934,4.934,0,0,1,3.023.853,2.666,2.666,0,0,1,1.143,2.241H55.394q0-1.143-1.2-1.143a1.194,1.194,0,0,0-.782.259.8.8,0,0,0-.316.646.737.737,0,0,0,.387.642,3.654,3.654,0,0,0,1.235.4,10.671,10.671,0,0,1,1.49.378,2.706,2.706,0,0,1,2.145,2.646,2.491,2.491,0,0,1-1.156,2.118,5.068,5.068,0,0,1-2.993.817,5.172,5.172,0,0,1-2.18-.439,3.645,3.645,0,0,1-1.494-1.2,2.707,2.707,0,0,1-.536-1.591h2.769a1.145,1.145,0,0,0,.439.962,1.808,1.808,0,0,0,1.081.3,1.422,1.422,0,0,0,.91-.246A.787.787,0,0,0,55.491,39.328Zm7.69-9.2V32.49h1.564v2.057H63.181V38.9a1.111,1.111,0,0,0,.193.747,1.037,1.037,0,0,0,.765.211,4.345,4.345,0,0,0,.738-.053v2.118a5.466,5.466,0,0,1-1.67.255,3.1,3.1,0,0,1-2.259-.721,2.954,2.954,0,0,1-.729-2.188v-4.72H59.006V32.49h1.213V30.126ZM69.035,42H66.064V32.49h2.971ZM65.888,30.029a1.334,1.334,0,0,1,.457-1.043,1.934,1.934,0,0,1,2.373,0,1.42,1.42,0,0,1,0,2.087,1.934,1.934,0,0,1-2.373,0A1.334,1.334,0,0,1,65.888,30.029Zm8.42.1V32.49h1.564v2.057H74.308V38.9a1.111,1.111,0,0,0,.193.747,1.037,1.037,0,0,0,.765.211A4.345,4.345,0,0,0,76,39.8v2.118a5.466,5.466,0,0,1-1.67.255,3.1,3.1,0,0,1-2.259-.721,2.954,2.954,0,0,1-.729-2.188v-4.72H70.133V32.49h1.213V30.126ZM82.7,40.972a3.054,3.054,0,0,1-2.54,1.2,3,3,0,0,1-2.369-.91,3.826,3.826,0,0,1-.8-2.615V32.49h2.962v6.179a1.065,1.065,0,0,0,1.187,1.222,1.548,1.548,0,0,0,1.45-.729V32.49h2.979V42H82.79Zm8.508-1.081a1.317,1.317,0,0,0,.967-.338,1.241,1.241,0,0,0,.334-.945h2.777a3.288,3.288,0,0,1-1.121,2.566,4.168,4.168,0,0,1-2.887,1,4.22,4.22,0,0,1-3.27-1.3,5.125,5.125,0,0,1-1.2-3.6v-.123a5.792,5.792,0,0,1,.532-2.544,3.872,3.872,0,0,1,1.534-1.7,4.573,4.573,0,0,1,2.373-.593A4.116,4.116,0,0,1,94.2,33.343a3.647,3.647,0,0,1,1.09,2.786H92.51A1.626,1.626,0,0,0,92.15,35a1.244,1.244,0,0,0-.967-.4q-1.151,0-1.345,1.468a10.357,10.357,0,0,0-.062,1.283,4.068,4.068,0,0,0,.343,1.986A1.187,1.187,0,0,0,91.209,39.891ZM99.665,42H96.694V32.49h2.971ZM96.518,30.029a1.334,1.334,0,0,1,.457-1.043,1.934,1.934,0,0,1,2.373,0,1.42,1.42,0,0,1,0,2.087,1.934,1.934,0,0,1-2.373,0A1.334,1.334,0,0,1,96.518,30.029Zm4.6,7.128a5.613,5.613,0,0,1,.554-2.536,3.96,3.96,0,0,1,1.591-1.709,4.791,4.791,0,0,1,2.435-.6,4.373,4.373,0,0,1,3.366,1.323,5.076,5.076,0,0,1,1.23,3.6v.105a4.925,4.925,0,0,1-1.235,3.529,4.384,4.384,0,0,1-3.344,1.305,4.434,4.434,0,0,1-3.261-1.217,4.761,4.761,0,0,1-1.327-3.3Zm2.962.185a3.538,3.538,0,0,0,.413,1.934,1.376,1.376,0,0,0,1.222.615q1.582,0,1.617-2.435v-.3q0-2.558-1.635-2.558-1.485,0-1.608,2.206Zm10.239-4.852.1,1.116a3.225,3.225,0,0,1,2.716-1.292,2.713,2.713,0,0,1,2.219.888,4.226,4.226,0,0,1,.76,2.672V42h-2.971V36a1.6,1.6,0,0,0-.29-1.059,1.342,1.342,0,0,0-1.055-.338,1.413,1.413,0,0,0-1.292.686V42h-2.962V32.49ZM127.1,42a3.344,3.344,0,0,1-.281-.853,2.754,2.754,0,0,1-2.285,1.028,3.374,3.374,0,0,1-2.285-.813,2.588,2.588,0,0,1-.94-2.043,2.66,2.66,0,0,1,1.143-2.338,5.821,5.821,0,0,1,3.322-.791h.914v-.5q0-1.316-1.134-1.316a.927.927,0,0,0-1.055,1.042h-2.962a2.655,2.655,0,0,1,1.173-2.239,4.931,4.931,0,0,1,2.993-.86,4.323,4.323,0,0,1,2.874.888,3.086,3.086,0,0,1,1.081,2.435v4.21a4.311,4.311,0,0,0,.4,2V42Zm-1.854-1.934a1.652,1.652,0,0,0,.918-.237,1.487,1.487,0,0,0,.523-.536V37.772h-.861q-1.547,0-1.547,1.389a.848.848,0,0,0,.272.655A.986.986,0,0,0,125.25,40.066ZM134.425,42h-2.971V28.5h2.971Z" transform="translate(-8015 -7514.926)" fill="#12263f"/>
      <g id="Grupo_140881" data-name="Grupo 140881" transform="translate(-9045 -11871.926)">
        <path id="Trazado_152713" data-name="Trazado 152713" d="M1459.307,517.627c0,31.736,22.673,37.3,58.723,37.3s58.221-4.555,58.221-36.291S1554.08,440,1518.03,440,1459.307,485.892,1459.307,517.627Z" transform="translate(-407.825 3792.074)" fill="#00cbae" stroke="rgba(0,0,0,0)" stroke-width="1"/>
        <path id="Trazado_152714" data-name="Trazado 152714" d="M794.92,331.951a29.29,29.29,0,0,0-25.358-32.47l-.52,3.977A25.271,25.271,0,0,1,790.989,331l-3.771-.912,3.972,9.69,7.963-6.8Zm-42.926-20.873c3.953,0,7.153-6.269,7.153-10.323a7.155,7.155,0,1,0-14.305,0C744.842,304.809,748.045,311.078,751.994,311.078Zm-10.26,12.192h20.52a4.23,4.23,0,0,0,4.229-4.231v-.745c0-2.017-4.381-7.9-7.083-9.739-1.715,3.377-4.539,5.758-7.552,5.758-2.864,0-5.281-2.117-7.007-5.263-2.953,2.345-7.338,7.377-7.338,9.243v.745A4.23,4.23,0,0,0,741.734,323.27Zm25.732-10.153a17.56,17.56,0,0,1,5.555,6.771h-2.9v.2a5.574,5.574,0,0,1-.151,1.232h3.66a21.554,21.554,0,0,1,1.388,6.869h-8.449V325.17a5.317,5.317,0,0,1-1.435.31v2.708h-8.489a22.309,22.309,0,0,1,.248-2.661h-1.451a23.49,23.49,0,0,0-.233,2.661h-5.254a15.534,15.534,0,0,1,.383-2.661H747.8a18.157,18.157,0,0,0-.336,3.445,18.41,18.41,0,1,0,18.41-18.412c-.247,0-.486.026-.731.037.681.8,1.337,1.646,1.946,2.495C767.215,313.1,767.342,313.1,767.466,313.116Zm-17.512,16.506h5.266a23.186,23.186,0,0,0,1.309,6.957h-4.651A15.874,15.874,0,0,1,749.954,329.622Zm2.813,8.391H757.1c.124.282.254.565.39.842a19.17,19.17,0,0,0,3.938,5.413A15.971,15.971,0,0,1,752.768,338.014Zm12.37,6.871c-.261-.011-.52-.032-.779-.053a17.567,17.567,0,0,1-5.676-6.818h6.455Zm0-8.306h-7.072a21.466,21.466,0,0,1-1.412-6.957h8.484Zm1.435-6.957h8.456a21.413,21.413,0,0,1-1.325,6.957h-7.132Zm.784,15.213c-.257.021-.518.042-.784.049v-6.871H773.1c-.1.206-.2.416-.3.626A16.613,16.613,0,0,1,767.356,344.836Zm3-.574a18.517,18.517,0,0,0,3.716-4.967c.215-.418.416-.847.6-1.281h4.311A16.01,16.01,0,0,1,770.353,344.262Zm9.516-7.683h-4.642a23.1,23.1,0,0,0,1.239-6.957h5.328A15.849,15.849,0,0,1,779.87,336.579Zm1.918-8.391h-5.331a23.2,23.2,0,0,0-1.288-6.869h4.677A15.837,15.837,0,0,1,781.787,328.188Zm-2.833-8.3h-4.349c-.133-.306-.27-.609-.417-.9a19.236,19.236,0,0,0-3.823-5.3A15.966,15.966,0,0,1,778.955,319.887Zm-7.663,33.439A25.407,25.407,0,0,1,742.9,339.443l3.94-1.5-8.748-5.756-2.735,10.1,3.774-1.426a29.43,29.43,0,0,0,33.032,16.373,29.076,29.076,0,0,0,12.125-5.854l-2.532-3.114A25.082,25.082,0,0,1,771.291,353.327Z" transform="translate(342.701 3968.723)" fill="#12263f"/>
      </g>
    </g>
    <rect id="Rectángulo_36045" data-name="Rectángulo 36045" width="190" height="190" transform="translate(-8016 -7651)" fill="none"/>
  </g>
</svg>
