<svg xmlns="http://www.w3.org/2000/svg" width="40.856" height="35.749" viewBox="0 0 40.856 35.749">
  <path id="Icon_awesome-quote-right" data-name="Icon awesome-quote-right" d="M37.026,0H26.812a3.831,3.831,0,0,0-3.83,3.83V14.044a3.831,3.831,0,0,0,3.83,3.83H33.2v5.107a5.112,5.112,0,0,1-5.107,5.107H27.45A1.911,1.911,0,0,0,25.535,30v3.83a1.911,1.911,0,0,0,1.915,1.915h.638A12.764,12.764,0,0,0,40.856,22.982V3.83A3.831,3.831,0,0,0,37.026,0ZM14.044,0H3.83A3.831,3.831,0,0,0,0,3.83V14.044a3.831,3.831,0,0,0,3.83,3.83h6.384v5.107a5.112,5.112,0,0,1-5.107,5.107H4.469A1.911,1.911,0,0,0,2.554,30v3.83a1.911,1.911,0,0,0,1.915,1.915h.638A12.764,12.764,0,0,0,17.875,22.982V3.83A3.831,3.831,0,0,0,14.044,0Z" transform="translate(40.856 35.749) rotate(180)" fill="#00cbae"/>
</svg>
