<svg xmlns="http://www.w3.org/2000/svg" width="321.692" height="275.886" viewBox="0 0 321.692 275.886">
  <g id="Grupo_140337" data-name="Grupo 140337" transform="translate(0.5 0)">
    <g id="Grupo_78644" data-name="Grupo 78644" transform="translate(0 40.231)">
      <path id="Trazado_114225" data-name="Trazado 114225" d="M1474.792,549.053c25.862,55.59,70.11,46.86,133.258,17.483s98.265-55.425,72.4-111.014S1577.543,335.851,1514.4,365.228,1448.931,493.464,1474.792,549.053Z" transform="translate(-1447.821 -355.075)" fill="none" stroke="#ef3c79" stroke-miterlimit="10" stroke-width="2"/>
      <path id="Trazado_114226" data-name="Trazado 114226" d="M1475,504.965c0,61.31,43.8,72.061,113.448,72.061s112.474-8.8,112.474-70.113S1658.094,355,1588.448,355,1475,443.655,1475,504.965Z" transform="translate(-1475 -355)" fill="#00cbae" stroke="rgba(0,0,0,0)" stroke-width="1"/>
      <path id="Trazado_114227" data-name="Trazado 114227" d="M1672.817,425.471c0,5.916,4.226,6.953,10.946,6.953s10.853-.849,10.853-6.765S1690.484,411,1683.763,411,1672.817,419.555,1672.817,425.471Z" transform="translate(-1661.33 -356.467)" fill="#ef3c79" stroke="rgba(0,0,0,0)" stroke-width="1"/>
      <path id="Trazado_114228" data-name="Trazado 114228" d="M1459.307,454.47c0,5.916,4.227,6.953,10.947,6.953s10.853-.849,10.853-6.765S1476.974,440,1470.253,440,1459.307,448.555,1459.307,454.47Z" transform="translate(-1239.903 -357.227)" fill="#0d4aad" stroke="rgba(0,0,0,0)" stroke-width="1"/>
    </g>
    <g id="Grupo_137453" data-name="Grupo 137453" transform="translate(12.999 0)">
      <g id="Grupo_137452" data-name="Grupo 137452" transform="translate(0 0)">
        <g id="Grupo_137439" data-name="Grupo 137439" transform="translate(246.266 167.04)">
          <g id="Grupo_137436" data-name="Grupo 137436" transform="translate(0 52.095)">
            <path id="Trazado_151834" data-name="Trazado 151834" d="M1249.8,849.183c.238-.32,21.469-1.3,21.469-1.3l13.864-19.972-9.484-13.29-22.192-.432-3.318,34" transform="translate(-1249.804 -814.192)" fill="#ffbc96"/>
          </g>
          <g id="Grupo_137438" data-name="Grupo 137438" transform="translate(16.297 0)">
            <g id="Grupo_137437" data-name="Grupo 137437">
              <path id="Trazado_151835" data-name="Trazado 151835" d="M1344.532,745.5c-13.141.025-21.368-1.909-34.509-1.883-2.391,0-5.193-.2-6.5-2.2-1.182-1.807-.506-4.3.807-6.015s3.159-2.935,4.654-4.492a14.69,14.69,0,0,0,3.368-14.209c-1.506-4.878-7.005-11.052-12-12.1,9.2-14.836,19.606-27.409,28.8-42.245,1.884-3.039,3.863-6.178,6.861-8.128s7.323-2.349,9.964.062Z" transform="translate(-1300.349 -652.616)" fill="#ca3c21"/>
              <path id="Trazado_151836" data-name="Trazado 151836" d="M1415.86,746.871c-.046,0,.318-20.594.814-45.99s.936-45.992.982-45.991-.318,20.589-.814,45.994S1415.906,746.872,1415.86,746.871Z" transform="translate(-1378.614 -654.157)" fill="#10100c"/>
              <path id="Trazado_151837" data-name="Trazado 151837" d="M1390.1,714.006a.838.838,0,0,1-.2.007c-.128,0-.316,0-.558-.015-.484-.019-1.186-.066-2.048-.176a18.652,18.652,0,0,1-2.987-.621,13.489,13.489,0,0,1-3.408-1.533,10.263,10.263,0,0,1-2.714-2.568,8.674,8.674,0,0,1-1.343-2.74,6.836,6.836,0,0,1-.264-2.041,4.581,4.581,0,0,1,.043-.558.855.855,0,0,1,.031-.193c.018,0-.01.269-.008.751a7.27,7.27,0,0,0,.312,2.008,8.777,8.777,0,0,0,1.354,2.682,10.315,10.315,0,0,0,2.68,2.518,13.7,13.7,0,0,0,3.362,1.526,19.755,19.755,0,0,0,2.959.651c.855.124,1.553.189,2.036.228l.556.046A.888.888,0,0,1,1390.1,714.006Z" transform="translate(-1352.001 -687.142)" fill="#10100c"/>
              <path id="Trazado_151838" data-name="Trazado 151838" d="M1366.792,894.015a1.8,1.8,0,0,1-.033-.285c-.01-.188-.048-.464-.049-.821a17.457,17.457,0,0,1,.166-3.021,19.063,19.063,0,0,1,1.144-4.339,18.45,18.45,0,0,1,2.759-4.748,16.318,16.318,0,0,1,1.979-2.054,19.641,19.641,0,0,1,2.1-1.622,21.664,21.664,0,0,1,3.956-2.119,18.83,18.83,0,0,1,2.878-.933c.345-.091.622-.127.806-.165a1.871,1.871,0,0,1,.283-.042,1.805,1.805,0,0,1-.277.076c-.181.049-.455.094-.8.2a20.7,20.7,0,0,0-2.848.979,22.25,22.25,0,0,0-3.914,2.138,19.831,19.831,0,0,0-2.079,1.617,16.343,16.343,0,0,0-1.957,2.036,18.6,18.6,0,0,0-2.745,4.7,19.49,19.49,0,0,0-1.171,4.3,18.993,18.993,0,0,0-.218,3c-.009.357.018.633.018.82A1.947,1.947,0,0,1,1366.792,894.015Z" transform="translate(-1345.306 -802.53)" fill="#10100c"/>
              <path id="Trazado_151839" data-name="Trazado 151839" d="M1359.985,743.532a1.626,1.626,0,0,1-.378-.056,3.5,3.5,0,0,1-.434-.114,4.969,4.969,0,0,1-.562-.2,12.641,12.641,0,0,1-5.321-4.238,5,5,0,0,1-.317-.5,3.539,3.539,0,0,1-.208-.4,1.679,1.679,0,0,1-.139-.356c.03-.014.242.488.761,1.188a13.965,13.965,0,0,0,5.27,4.2C1359.455,743.405,1359.992,743.5,1359.985,743.532Z" transform="translate(-1335.769 -710.247)" fill="#10100c"/>
              <path id="Trazado_151840" data-name="Trazado 151840" d="M1344.935,765.209a1.776,1.776,0,0,1-.392-.06,3.653,3.653,0,0,1-.449-.123,5.353,5.353,0,0,1-.579-.21,13.785,13.785,0,0,1-5.516-4.394,5.379,5.379,0,0,1-.334-.518,3.793,3.793,0,0,1-.22-.41,1.763,1.763,0,0,1-.146-.368c.03-.014.25.507.8,1.226a15.272,15.272,0,0,0,5.467,4.354C1344.385,765.079,1344.942,765.176,1344.935,765.209Z" transform="translate(-1325.384 -724.785)" fill="#10100c"/>
              <path id="Trazado_151841" data-name="Trazado 151841" d="M1331.534,785.528a2.075,2.075,0,0,1-.42-.074,5.989,5.989,0,0,1-1.088-.41,14.216,14.216,0,0,1-3.145-2.176,16.438,16.438,0,0,1-2.562-2.841,7.66,7.66,0,0,1-.593-1,2.046,2.046,0,0,1-.159-.4c.029-.013.269.544.849,1.326a18.635,18.635,0,0,0,2.576,2.784,15.787,15.787,0,0,0,3.086,2.2A10.419,10.419,0,0,0,1331.534,785.528Z" transform="translate(-1316.08 -738.002)" fill="#10100c"/>
              <path id="Trazado_151842" data-name="Trazado 151842" d="M1402.523,780.689c-.046,0,.178-10.319.5-23.042s.623-23.041.67-23.04-.178,10.316-.5,23.044S1402.57,780.69,1402.523,780.689Z" transform="translate(-1369.576 -708.172)" fill="#10100c"/>
            </g>
          </g>
        </g>
        <g id="Grupo_137443" data-name="Grupo 137443" transform="translate(2.14 103.464)">
          <path id="Trazado_151843" data-name="Trazado 151843" d="M579.668,833.2l213.573-1.053V784.194l-203.327-3.445-30.222,26.227Z" transform="translate(-538.072 -675.86)" fill="#0d4aad"/>
          <g id="Grupo_137442" data-name="Grupo 137442" transform="translate(152.157 95.435)">
            <path id="Trazado_151844" data-name="Trazado 151844" d="M966.856,759.292c.38.122,8.175,19.894,8.175,19.894L993.789,792.3l14.131-19.734-6.773-21.138L967.9,759.292" transform="translate(-966.115 -751.429)" fill="#ffbc96"/>
            <g id="Grupo_137441" data-name="Grupo 137441" transform="translate(0 16.658)">
              <g id="Grupo_137440" data-name="Grupo 137440">
                <path id="Trazado_151845" data-name="Trazado 151845" d="M964.56,847.353c-.049-13.141,1.87-21.372,1.82-34.513-.009-2.391.19-5.193,2.19-6.506,1.8-1.185,4.3-.514,6.017.8s2.941,3.153,4.5,4.646A14.689,14.689,0,0,0,993.3,815.12c4.875-1.515,11.039-7.025,12.078-12.023,14.853,9.171,27.444,19.556,42.3,28.728,3.043,1.879,6.185,3.852,8.14,6.846s2.363,7.319-.044,9.964Z" transform="translate(-964.559 -803.096)" fill="#ca3c21"/>
                <path id="Trazado_151846" data-name="Trazado 151846" d="M965.041,918.833c0-.046,20.594.281,45.991.731s45.994.852,45.993.9-20.59-.281-46-.731S965.04,918.879,965.041,918.833Z" transform="translate(-964.886 -881.514)" fill="#10100c"/>
                <path id="Trazado_151847" data-name="Trazado 151847" d="M1169.264,892.671a.846.846,0,0,1-.008-.2c0-.128,0-.316.014-.558.019-.485.064-1.186.172-2.048a18.641,18.641,0,0,1,.615-2.988,13.492,13.492,0,0,1,1.527-3.411,10.267,10.267,0,0,1,2.563-2.718,8.664,8.664,0,0,1,2.738-1.348,6.822,6.822,0,0,1,2.04-.267,4.477,4.477,0,0,1,.558.041.853.853,0,0,1,.193.031c0,.018-.269-.01-.751-.007a7.266,7.266,0,0,0-2.007.316,8.771,8.771,0,0,0-2.68,1.359,10.319,10.319,0,0,0-2.513,2.684,13.7,13.7,0,0,0-1.52,3.365,19.779,19.779,0,0,0-.646,2.96c-.122.856-.186,1.553-.224,2.036-.018.227-.033.411-.045.556A.864.864,0,0,1,1169.264,892.671Z" transform="translate(-1103.258 -854.617)" fill="#10100c"/>
                <path id="Trazado_151848" data-name="Trazado 151848" d="M968.762,869.753a1.825,1.825,0,0,1,.285-.033c.188-.011.464-.049.821-.051a17.442,17.442,0,0,1,3.021.16,19.062,19.062,0,0,1,4.341,1.137,18.438,18.438,0,0,1,4.753,2.75,16.29,16.29,0,0,1,2.057,1.975,19.51,19.51,0,0,1,1.626,2.1,21.631,21.631,0,0,1,2.126,3.952,18.775,18.775,0,0,1,.938,2.876c.092.345.128.622.167.805a1.858,1.858,0,0,1,.043.284,1.816,1.816,0,0,1-.076-.277c-.049-.181-.1-.455-.2-.8a20.689,20.689,0,0,0-.984-2.846,22.256,22.256,0,0,0-2.145-3.911,19.808,19.808,0,0,0-1.621-2.076,16.333,16.333,0,0,0-2.04-1.954,18.584,18.584,0,0,0-4.7-2.737,19.5,19.5,0,0,0-4.3-1.163,19.007,19.007,0,0,0-3-.213c-.356-.008-.632.019-.82.019A1.805,1.805,0,0,1,968.762,869.753Z" transform="translate(-967.407 -848.196)" fill="#10100c"/>
                <path id="Trazado_151849" data-name="Trazado 151849" d="M1149.282,862.6a1.647,1.647,0,0,1,.055-.379,3.506,3.506,0,0,1,.114-.435,5,5,0,0,1,.2-.562,12.639,12.639,0,0,1,4.228-5.328,4.989,4.989,0,0,1,.5-.318,3.512,3.512,0,0,1,.4-.209,1.644,1.644,0,0,1,.356-.14c.014.03-.488.243-1.187.763a13.964,13.964,0,0,0-4.187,5.277C1149.408,862.073,1149.314,862.61,1149.282,862.6Z" transform="translate(-1089.721 -838.422)" fill="#10100c"/>
                <path id="Trazado_151850" data-name="Trazado 151850" d="M1127.115,847.593a1.785,1.785,0,0,1,.06-.392,3.755,3.755,0,0,1,.122-.449,5.381,5.381,0,0,1,.209-.58,13.783,13.783,0,0,1,4.383-5.524,5.435,5.435,0,0,1,.517-.335,3.724,3.724,0,0,1,.41-.221,1.782,1.782,0,0,1,.368-.147c.015.03-.506.251-1.224.8a15.275,15.275,0,0,0-4.344,5.475C1127.244,847.043,1127.148,847.6,1127.115,847.593Z" transform="translate(-1074.702 -828.063)" fill="#10100c"/>
                <path id="Trazado_151851" data-name="Trazado 151851" d="M1105.064,834.229a2.05,2.05,0,0,1,.073-.42,5.959,5.959,0,0,1,.408-1.089,14.2,14.2,0,0,1,2.171-3.149,16.42,16.42,0,0,1,2.836-2.567,7.67,7.67,0,0,1,1-.595,2.038,2.038,0,0,1,.4-.16c.014.029-.543.27-1.324.851a18.632,18.632,0,0,0-2.78,2.582,15.81,15.81,0,0,0-2.19,3.09A10.411,10.411,0,0,0,1105.064,834.229Z" transform="translate(-1059.76 -818.784)" fill="#10100c"/>
                <path id="Trazado_151852" data-name="Trazado 151852" d="M1027.658,905.384c0-.046,10.319.16,23.043.46s23.042.582,23.041.628-10.317-.16-23.045-.46S1027.657,905.43,1027.658,905.384Z" transform="translate(-1007.314 -872.4)" fill="#10100c"/>
              </g>
            </g>
          </g>
          <path id="Trazado_151853" data-name="Trazado 151853" d="M494.645,544.408s-13.492,59.9,29.464,67.171c17.289,2.925,60.552.625,60.552.625l50.769-84.941L643.637,572l47.273-2.623s-12.787-77.291-17.529-94.7c-6.3-23.111-33.448-21.232-45.836-15.663-10.581,4.757-37.889,29.569-54.835,48.65-7.2,8.106-15.083,15.265-21.844,22.163-8.935,9.117-15.831,16.876-15.831,16.876Z" transform="translate(-492.636 -455.432)" fill="#0d4aad"/>
          <path id="Trazado_151854" data-name="Trazado 151854" d="M828.824,678.223c.04.024-11.294,19.059-25.311,42.511s-25.418,42.453-25.458,42.429,11.291-19.055,25.314-42.516S828.784,678.2,828.824,678.223Z" transform="translate(-686.03 -606.391)" fill="#10100c"/>
          <path id="Trazado_151855" data-name="Trazado 151855" d="M980.2,658.178s.014.057.035.169l.092.5.346,1.963,1.29,7.441,4.548,26.477a.073.073,0,0,1-.06.085h-.009l-34,1.9-13.275.735a.084.084,0,0,1-.086-.071c-.661-4.062-1.392-7.991-2.065-11.766l-1.966-10.819-3.3-18.043c-.93-5.085-1.675-9.158-2.188-11.964l-.582-3.218-.147-.834c-.032-.188-.045-.284-.045-.284s.023.094.06.282l.162.831.61,3.213,2.236,11.955c.941,5.087,2.069,11.185,3.337,18.037l1.978,10.817c.677,3.776,1.41,7.7,2.074,11.77l-.086-.071,13.275-.738,34-1.876-.068.086-4.489-26.487c-.538-3.2-.961-5.724-1.25-7.448-.141-.858-.25-1.518-.324-1.966-.035-.221-.062-.388-.08-.505S980.2,658.178,980.2,658.178Z" transform="translate(-788.168 -580.796)" fill="#10100c"/>
          <path id="Trazado_151856" data-name="Trazado 151856" d="M594.1,687.6a.874.874,0,0,1-.091.108l-.28.3-1.087,1.159-4,4.265L575.564,707.6c-2.562,2.761-5.018,5.377-7.274,7.735s-4.314,4.457-6.072,6.19c-.872.874-1.674,1.65-2.379,2.332s-1.312,1.268-1.818,1.737l-1.162,1.084-.3.279a.951.951,0,0,1-.108.091.859.859,0,0,1,.1-.1l.294-.291,1.14-1.107c.5-.477,1.1-1.066,1.8-1.757s1.494-1.469,2.36-2.349c1.747-1.742,3.787-3.857,6.044-6.212s4.7-4.982,7.263-7.743c5.115-5.525,9.73-10.544,13.121-14.131,1.694-1.794,3.072-3.24,4.036-4.229l1.11-1.137.292-.293A.839.839,0,0,1,594.1,687.6Z" transform="translate(-535.873 -612.741)" fill="#10100c"/>
          <path id="Trazado_151857" data-name="Trazado 151857" d="M567.964,738.527s-.021.015-.065.036l-.2.089-.769.328c-.668.284-1.643.674-2.853,1.143-2.419.941-5.8,2.142-9.527,3.468s-7.078,2.606-9.466,3.618c-1.194.5-2.157.923-2.816,1.225l-.763.34-.2.085a.252.252,0,0,1-.071.024.255.255,0,0,1,.063-.039l.193-.1.75-.369c.651-.321,1.607-.756,2.8-1.275,2.379-1.041,5.725-2.339,9.456-3.667s7.113-2.509,9.542-3.42c1.215-.455,2.2-.827,2.871-1.093l.781-.3.2-.074A.256.256,0,0,1,567.964,738.527Z" transform="translate(-525.566 -647.251)" fill="#10100c"/>
        </g>
        <g id="Grupo_137445" data-name="Grupo 137445" transform="translate(98.904 62.962)">
          <path id="Trazado_151858" data-name="Trazado 151858" d="M826.164,370.791l7.444-18.857a4.513,4.513,0,0,0,.073-3.305c-1.232-3.11-4.4-.948-4.4-.948-.169-5.91-4.651-2.186-4.651-2.186.144-5.471-6.779-2.967-6.779-2.967l1.79-5.562s2.487-.207,4.531-.135c2.28.08,4.849-2.335,3.507-4.521-1.24-2.021-8.742-4.055-13.8-.742-6.474,4.243-12.271,36.475-12.271,36.475l-8.852,37.1,22.912,4.056Z" transform="translate(-792.753 -329.811)" fill="#ffbc96"/>
          <path id="Trazado_151859" data-name="Trazado 151859" d="M872.613,371.343a1.628,1.628,0,0,1-.051.261l-.18.739c-.165.639-.4,1.568-.8,2.684a13.192,13.192,0,0,1-1.932,3.675,8.552,8.552,0,0,1-1.762,1.722,4.875,4.875,0,0,1-1.153.63,2.79,2.79,0,0,1-1.351.162,2.012,2.012,0,0,1-1.219-.612,2.286,2.286,0,0,1-.547-1.206,8.723,8.723,0,0,1,.1-2.463,31.037,31.037,0,0,1,.9-4.055c.328-1.136.631-2.043.847-2.667l.256-.716a1.6,1.6,0,0,1,.1-.246,1.571,1.571,0,0,1-.069.257l-.226.726c-.2.63-.483,1.541-.8,2.679a32.619,32.619,0,0,0-.861,4.045,8.687,8.687,0,0,0-.093,2.414,2.128,2.128,0,0,0,.507,1.12,1.846,1.846,0,0,0,1.119.559,2.624,2.624,0,0,0,1.271-.152,4.713,4.713,0,0,0,1.115-.607,8.469,8.469,0,0,0,1.736-1.683,13.362,13.362,0,0,0,1.943-3.62c.408-1.1.661-2.027.845-2.661l.21-.731A1.573,1.573,0,0,1,872.613,371.343Z" transform="translate(-840.735 -356.534)" fill="#10100c"/>
          <path id="Trazado_151860" data-name="Trazado 151860" d="M887.9,383.428a.581.581,0,0,1,.017.161c0,.106.016.262.011.463a9.508,9.508,0,0,1-.181,1.7,10.374,10.374,0,0,1-.8,2.4,10.218,10.218,0,0,1-1.747,2.559,5.337,5.337,0,0,1-2.589,1.685,2.349,2.349,0,0,1-2.352-.738,4.188,4.188,0,0,1-.833-1.49c-.064-.192-.1-.343-.127-.446a.6.6,0,0,1-.027-.16c.014,0,.072.211.216.584a4.377,4.377,0,0,0,.858,1.431,2.34,2.34,0,0,0,.943.623,2.3,2.3,0,0,0,1.287.046,5.261,5.261,0,0,0,2.5-1.649,10.357,10.357,0,0,0,1.729-2.512,10.75,10.75,0,0,0,.82-2.359,11.009,11.009,0,0,0,.232-1.673A5.412,5.412,0,0,1,887.9,383.428Z" transform="translate(-851.38 -366.141)" fill="#10100c"/>
          <g id="Grupo_137444" data-name="Grupo 137444" transform="translate(33.478 24.367)">
            <path id="Trazado_151861" data-name="Trazado 151861" d="M903.268,405.388a1.33,1.33,0,0,1-.182.292,5.158,5.158,0,0,1-.631.693,5.812,5.812,0,0,1-1.135.808,5.942,5.942,0,0,1-1.6.583,4.81,4.81,0,0,1-1.71.056,1.752,1.752,0,0,1-1.2-.713,1.226,1.226,0,0,1-.195-.922.806.806,0,0,1,.094-.241c.033-.05.053-.073.057-.07a2.694,2.694,0,0,0-.088.323,1.209,1.209,0,0,0,.229.844,1.658,1.658,0,0,0,1.127.627,4.871,4.871,0,0,0,1.65-.069,6.057,6.057,0,0,0,2.694-1.315C902.969,405.776,903.242,405.368,903.268,405.388Z" transform="translate(-896.587 -405.387)" fill="#10100c"/>
          </g>
          <path id="Trazado_151862" data-name="Trazado 151862" d="M839.865,394.182c-.008-.007.079-.1.208-.3a2.867,2.867,0,0,0,.395-.949,4.168,4.168,0,0,0,.027-1.623,6.628,6.628,0,0,0-.741-2.027c-.373-.715-.862-1.455-1.3-2.305a6.029,6.029,0,0,1-.775-2.943,3.221,3.221,0,0,1,.469-1.6,4.637,4.637,0,0,1,1.212-1.239c.468-.353.971-.669,1.436-1.041A5.429,5.429,0,0,0,842,378.834a5.673,5.673,0,0,0,.905-3.376,4.03,4.03,0,0,0-.421-1.615,2.645,2.645,0,0,0-1.066-1.154,1.96,1.96,0,0,0-1.465-.122,4.921,4.921,0,0,0-1.3.632,14.112,14.112,0,0,0-2.083,1.608,14.635,14.635,0,0,0-2.429,2.936c-.239.383-.411.689-.524.9l-.13.238a.39.39,0,0,1-.049.079.379.379,0,0,1,.034-.086l.115-.246c.1-.215.267-.527.5-.917a14.256,14.256,0,0,1,4.493-4.628,5.041,5.041,0,0,1,1.338-.656,2.109,2.109,0,0,1,1.576.127,2.794,2.794,0,0,1,1.137,1.217,4.173,4.173,0,0,1,.442,1.678,5.819,5.819,0,0,1-.928,3.477,5.582,5.582,0,0,1-1.243,1.366c-.475.38-.979.695-1.441,1.042a4.5,4.5,0,0,0-1.175,1.193,3.065,3.065,0,0,0-.45,1.519,5.91,5.91,0,0,0,.744,2.873c.431.843.915,1.589,1.285,2.314a6.638,6.638,0,0,1,.728,2.067,4.16,4.16,0,0,1-.056,1.653,2.757,2.757,0,0,1-.43.952A1.719,1.719,0,0,1,839.865,394.182Z" transform="translate(-820.317 -358.621)" fill="#10100c"/>
        </g>
        <g id="Grupo_137448" data-name="Grupo 137448" transform="translate(15.817 0)">
          <path id="Trazado_151863" data-name="Trazado 151863" d="M671.1,152.785s29.3,1.41,17.665,31.481c-7.643,19.751-40.144,30.639-40.144,30.639l-11.547-8.6,19.656-47.811Z" transform="translate(-604.182 -146.9)" fill="#10100c"/>
          <g id="Grupo_137447" data-name="Grupo 137447">
            <path id="Trazado_151864" data-name="Trazado 151864" d="M635.377,243.484h0l1.5-31.283,4.055-25.968,26.27-16.15,3.916,1.275c9.053,2.949,17.4,10.069,16.511,20.418l.016.156s-1.746,24.367-5.221,32.253c-4.333,9.833-11.66,9.375-13.935,13.239-1.3,2.2-1.66,5.228-1.672,7.856a11.01,11.01,0,0,1-7.739,10.524C652.953,257.676,644.157,256.781,635.377,243.484Z" transform="translate(-603.031 -158.621)" fill="#ffbc96"/>
            <path id="Trazado_151865" data-name="Trazado 151865" d="M773.035,222.413a2.07,2.07,0,0,0-1.131-.815,5.3,5.3,0,0,0-1.371-.273c-.044,0-.086,0-.129-.006a5.411,5.411,0,0,0-.712-.007,4.912,4.912,0,0,0-.836.121c-.029.007-.059.009-.088.016a5.386,5.386,0,0,0-.9.313c-.032.014-.067.02-.1.035h.014c-.048.022-.1.033-.143.056a2.893,2.893,0,0,0-1.325,1.167,1.62,1.62,0,0,0,.093,1.775,1.716,1.716,0,0,0,1,.419l1.547.278a6.9,6.9,0,0,0,2.022.162,2.655,2.655,0,0,0,1.826-.979A2.135,2.135,0,0,0,773.035,222.413Z" transform="translate(-691.606 -193.326)"/>
            <path id="Trazado_151866" data-name="Trazado 151866" d="M716.407,218.554a2.069,2.069,0,0,0-1.131-.815,5.293,5.293,0,0,0-1.371-.273c-.043,0-.086,0-.129-.006a5.305,5.305,0,0,0-.712-.007,4.878,4.878,0,0,0-.836.121c-.029.007-.059.009-.088.016a5.38,5.38,0,0,0-.9.313c-.032.014-.067.02-.1.035l.014,0c-.048.022-.1.033-.144.056a2.892,2.892,0,0,0-1.325,1.167,1.62,1.62,0,0,0,.093,1.775,1.715,1.715,0,0,0,1,.419l1.546.278a6.906,6.906,0,0,0,2.023.162,2.656,2.656,0,0,0,1.826-.979A2.136,2.136,0,0,0,716.407,218.554Z" transform="translate(-653.236 -190.711)"/>
            <path id="Trazado_151867" data-name="Trazado 151867" d="M713.114,249.332a4.6,4.6,0,0,1,.648-2.52l.163-.094a2.119,2.119,0,0,1,1.842.063,1.969,1.969,0,0,1,.728,1.543,6.976,6.976,0,0,1-.436,2.4,4.764,4.764,0,0,1-.489,1.2,1.314,1.314,0,0,1-2.487-.465A4.94,4.94,0,0,1,713.114,249.332Z" transform="translate(-655.611 -210.426)"/>
            <path id="Trazado_151868" data-name="Trazado 151868" d="M766.368,257.959a4.594,4.594,0,0,1,.648-2.52l.163-.094a2.116,2.116,0,0,1,1.842.063,1.969,1.969,0,0,1,.728,1.543,6.983,6.983,0,0,1-.436,2.4,4.775,4.775,0,0,1-.49,1.2,1.314,1.314,0,0,1-2.487-.465A4.938,4.938,0,0,1,766.368,257.959Z" transform="translate(-691.695 -216.271)"/>
            <path id="Trazado_151869" data-name="Trazado 151869" d="M706.975,360.5c-9.529,2.108-15.023.49-23.033-2.922,4.456,5.416,9.888,6.82,16.669,8.615a6.565,6.565,0,0,1,2.492-3.347A16.645,16.645,0,0,1,706.975,360.5Z" transform="translate(-635.938 -285.662)" fill="#ff7c51"/>
            <path id="Trazado_151870" data-name="Trazado 151870" d="M735.571,269.527c0-.018.251-.072.693-.229a7.845,7.845,0,0,0,1.765-.884,7.614,7.614,0,0,0,1.065-.85,7.478,7.478,0,0,0,1.022-1.18,7.585,7.585,0,0,0,.827-1.51c.089-.27.283-.591.153-.8a.436.436,0,0,0-.347-.158,2.312,2.312,0,0,0-.46.028l-3.757.433a.076.076,0,0,1-.085-.066v-.014c.092-1.608.171-2.978.228-3.97.032-.468.058-.847.078-1.13a2.509,2.509,0,0,1,.044-.4,2.48,2.48,0,0,1,0,.4l-.034,1.132c-.042.994-.1,2.364-.167,3.974l-.085-.08,3.755-.448a2.471,2.471,0,0,1,.493-.028.6.6,0,0,1,.474.235.607.607,0,0,1,.023.519c-.05.152-.11.291-.163.435a7.634,7.634,0,0,1-.853,1.538,7.922,7.922,0,0,1-2.148,2.04,7.267,7.267,0,0,1-1.81.847,4.526,4.526,0,0,1-.526.136A.808.808,0,0,1,735.571,269.527Z" transform="translate(-670.921 -218.728)" fill="#10100c"/>
            <path id="Trazado_151871" data-name="Trazado 151871" d="M563.676,146.509a18.022,18.022,0,0,0-21.008-11.543,11.3,11.3,0,0,0-5.563,2.816,6.5,6.5,0,0,0-1.939,5.745,7.1,7.1,0,0,0,3.735,4.534,21.024,21.024,0,0,0,5.764,1.808,15.582,15.582,0,0,0-7.215,9.494c-.458,1.778-.552,3.808.5,5.312a5.4,5.4,0,0,0,5.531,1.787,13.9,13.9,0,0,0,5.377-2.895,73.931,73.931,0,0,0,6.792-5.942c-7.126,15.228-.122,33.008,13.487,42.951l3.288-23.809c15.228-7.112,25.206-21.157,29.547-36.348C587.115,133.278,573,137.6,563.676,146.509Z" transform="translate(-535.056 -134.533)" fill="#10100c"/>
            <g id="Grupo_137446" data-name="Grupo 137446" transform="translate(28.229 37.908)">
              <path id="Trazado_151872" data-name="Trazado 151872" d="M634.575,272.778a14.146,14.146,0,0,1-9.336-4.056,10.587,10.587,0,0,1-2.562-8.319,9.437,9.437,0,0,1,5.189-7.694c2.96-1.32,6.884-.434,8.614,2.307" transform="translate(-622.609 -252.107)" fill="#ffbc96"/>
              <path id="Trazado_151873" data-name="Trazado 151873" d="M640.128,271.567a4.748,4.748,0,1,0-9,2.772,8.714,8.714,0,0,0,2.344,2.807c.645.567,1.47,1.156,2.29.9a2.038,2.038,0,0,0,1.183-1.9c.052-.793-.119-1.6,0-2.382a1.789,1.789,0,0,1,1.467-1.638,5.462,5.462,0,0,1,.842.112.891.891,0,0,0,.786-.221c.186-.214.116-.631-.162-.683" transform="translate(-628.104 -262.635)" fill="#ff7c51"/>
              <path id="Trazado_151874" data-name="Trazado 151874" d="M646.218,277.175a.154.154,0,0,1-.057-.008,1.145,1.145,0,0,1-.162-.047,1.978,1.978,0,0,1-.565-.317,2.655,2.655,0,0,1-.662-.785,3.751,3.751,0,0,1-.42-1.293,8.207,8.207,0,0,1-.06-1.643,4.814,4.814,0,0,1,.146-.911,2.594,2.594,0,0,1,.413-.9,1.687,1.687,0,0,1,.845-.615,1.847,1.847,0,0,1,1.089.015,2.564,2.564,0,0,1,.975.558,4.127,4.127,0,0,1,.721.893c.206.333.378.677.538,1l-.155.061a9.355,9.355,0,0,0-1.845-3.366,10.139,10.139,0,0,0-1.185-1.178,10.27,10.27,0,0,0-1.181-.84,9.526,9.526,0,0,0-1.888-.886c-.466-.154-.73-.22-.726-.235a.952.952,0,0,1,.194.035c.125.033.316.063.551.141a8.816,8.816,0,0,1,1.927.848,9.391,9.391,0,0,1,2.422,2.018,9.379,9.379,0,0,1,1.892,3.416.083.083,0,0,1-.155.061c-.161-.321-.331-.661-.532-.985a2.938,2.938,0,0,0-1.6-1.383,1.688,1.688,0,0,0-.994-.019,1.529,1.529,0,0,0-.769.555,3.355,3.355,0,0,0-.544,1.725,8.324,8.324,0,0,0,.039,1.616,3.715,3.715,0,0,0,.384,1.264,2.667,2.667,0,0,0,.621.78A2.574,2.574,0,0,0,646.218,277.175Z" transform="translate(-635.775 -261.981)" fill="#10100c"/>
            </g>
          </g>
          <path id="Trazado_151875" data-name="Trazado 151875" d="M717.441,302.009a.684.684,0,0,1-.171.021,3.564,3.564,0,0,1-.492-.007,4.426,4.426,0,0,1-1.732-.516,4.36,4.36,0,0,1-1.858-1.917,4.613,4.613,0,0,1-.452-1.532,3.258,3.258,0,0,1,.208-1.706,1.37,1.37,0,0,1,.611-.657,1.453,1.453,0,0,1,.862-.12,6.549,6.549,0,0,1,1.508.517l2.46,1.041,1.653.716.446.2a.086.086,0,1,1-.013.031l-.458-.173-1.673-.666-2.474-1.008a6.555,6.555,0,0,0-1.47-.5,1.288,1.288,0,0,0-.765.106,1.209,1.209,0,0,0-.535.58,3.128,3.128,0,0,0-.2,1.615,4.513,4.513,0,0,0,.427,1.481A4.3,4.3,0,0,0,715.1,301.4a4.614,4.614,0,0,0,1.682.555C717.2,302.008,717.441,301.993,717.441,302.009Z" transform="translate(-655.43 -243.641)" fill="#10100c"/>
        </g>
        <g id="Grupo_137449" data-name="Grupo 137449" transform="translate(119.951 37.977)">
          <path id="Trazado_151876" data-name="Trazado 151876" d="M923.425,438.058h-61.4a4,4,0,0,1-4-4h0a4,4,0,0,1,4-4h61.4a4,4,0,0,1,4,4h0A4,4,0,0,1,923.425,438.058Z" transform="translate(-858.032 -372.759)" fill="#10100c"/>
          <path id="Trazado_151877" data-name="Trazado 151877" d="M1081.59,257.913,1057.056,314.2a4,4,0,0,1-5.258,2.066h0a4,4,0,0,1-2.066-5.259l24.534-56.283a4,4,0,0,1,5.258-2.066h0A4,4,0,0,1,1081.59,257.913Z" transform="translate(-987.698 -252.321)" fill="#10100c"/>
          <path id="Trazado_151878" data-name="Trazado 151878" d="M1058.89,438.03l-.006,0-5.083-6.1a.008.008,0,0,1,0-.012.008.008,0,0,1,.011,0l5.083,6.1a.008.008,0,0,1,0,.012Z" transform="translate(-990.68 -374.011)" fill="#fbfbfb"/>
        </g>
        <g id="Grupo_137451" data-name="Grupo 137451" transform="translate(0 78.301)">
          <g id="Grupo_137450" data-name="Grupo 137450">
            <path id="Trazado_151879" data-name="Trazado 151879" d="M535.51,377.386s-12.662,9.7-19.225,22.987A250.835,250.835,0,0,0,501,439.617c-5.486,18.27-15,52.146-15,52.146l44.11,2.511,53.34-55.854s-.753-17.632-4.583-26.886-10.212-23.935-11.489-24.893S535.51,377.386,535.51,377.386Z" transform="translate(-485.999 -377.386)" fill="#ff8c00"/>
            <path id="Trazado_151880" data-name="Trazado 151880" d="M623.548,389.736a9.181,9.181,0,0,1,1.3.058,20.131,20.131,0,0,1,3.7.76,24.759,24.759,0,0,1,5.538,2.4,20.2,20.2,0,0,1,6.05,5.347,17.943,17.943,0,0,1,2.3,4.176c.138.393.284.79.41,1.2.107.412.248.822.331,1.249.2.849.329,1.726.486,2.616l1.969,11.476,4.64,27.082a.079.079,0,0,1-.065.091h0l-31.864,5.239-22.2,3.645a.082.082,0,0,1-.094-.067.078.078,0,0,1,0-.021c.516-5.578,1.134-10.963,1.775-16.123s1.328-10.09,2.036-14.75,1.427-9.051,2.176-13.124a36.942,36.942,0,0,1,3.382-10.917,22.064,22.064,0,0,1,2.714-4.149,18.552,18.552,0,0,1,3.2-3.019,16.806,16.806,0,0,1,6.338-2.89,17.209,17.209,0,0,1,4.363-.424,9.949,9.949,0,0,1,1.513.144l-.383-.045c-.254-.024-.632-.059-1.132-.07a17.459,17.459,0,0,0-4.349.45,16.808,16.808,0,0,0-6.3,2.9,18.493,18.493,0,0,0-3.177,3.013,22.007,22.007,0,0,0-2.693,4.137,29.306,29.306,0,0,0-2.023,5.076c-.069.228-.148.455-.21.688s-.12.468-.181.7c-.115.474-.259.945-.355,1.434-.2.974-.413,1.966-.582,2.988-.742,4.073-1.45,8.465-2.159,13.123s-1.383,9.589-2.023,14.748-1.252,10.544-1.766,16.118l-.095-.088,22.2-3.648,31.866-5.231-.066.091L645.5,419.042l-1.953-11.479c-.155-.89-.284-1.769-.481-2.612-.082-.425-.221-.832-.327-1.243-.125-.4-.269-.8-.405-1.191a17.88,17.88,0,0,0-2.279-4.156,20.153,20.153,0,0,0-6.01-5.34,24.851,24.851,0,0,0-5.514-2.418,20.628,20.628,0,0,0-3.683-.784c-.426-.049-.751-.066-.969-.074S623.548,389.736,623.548,389.736Z" transform="translate(-560.567 -385.651)" fill="#10100c"/>
            <path id="Trazado_151881" data-name="Trazado 151881" d="M644.913,493.8s.568,20.663,11.367,36.009c8.665,12.313,30.321,6.765,37.589-3.433,7.021-9.852,42.573-61.115,42.573-61.115l-18.008-14.532L679.67,497.021l-.456-8.665Z" transform="translate(-593.676 -427.084)" fill="#ffbd97"/>
            <path id="Trazado_151882" data-name="Trazado 151882" d="M898.515,419.413c2.739-5.239-3.374-4.684-3.374-4.684,2.8-4.7-4.083-5.4-4.083-5.4l1.23-1.775a2.824,2.824,0,0,0-.044-3.559c-1.1-1.376-4.116-1.083-4.116-1.083-7.955,1.446-19.35,16.914-19.35,16.914l15.735,18.228L901.075,424C903.516,418.579,898.515,419.413,898.515,419.413Z" transform="translate(-745.362 -394.667)" fill="#ffbc96"/>
            <path id="Trazado_151883" data-name="Trazado 151883" d="M794.564,411s.06-.085.182-.247l.544-.718c.471-.636,1.193-1.557,2.024-2.808a2.6,2.6,0,0,0,.46-1.071,2.184,2.184,0,0,0-.186-1.257,2.5,2.5,0,0,0-.93-1.031,4.06,4.06,0,0,0-1.438-.491,8.429,8.429,0,0,0-3.375.143,7.265,7.265,0,0,0-1.728.66q-.832.469-1.663,1.04c-1.109.756-2.237,1.6-3.383,2.516a44.621,44.621,0,0,0-3.443,3,5.824,5.824,0,0,0-.765.895c-.222.346-.476.661-.73.982-.512.639-1.046,1.275-1.594,1.915-1.094,1.282-2.239,2.585-3.419,3.915-.584.669-1.2,1.327-1.786,2.023l-1.78,2.112-3.671,4.356-7.722,9.159L736.6,464.008l.007-.011a86.222,86.222,0,0,0-6.588,15.329c-.6,1.895-1.012,3.391-1.284,4.408-.131.507-.231.9-.3,1.162s-.108.4-.108.4.027-.137.089-.4l.281-1.167c.26-1.021.657-2.522,1.251-4.421a84.889,84.889,0,0,1,6.544-15.37l.007-.011,23.537-27.935,7.725-9.157,3.675-4.354,1.782-2.111c.586-.7,1.2-1.353,1.789-2.022,1.181-1.329,2.327-2.629,3.422-3.908.548-.639,1.083-1.273,1.594-1.909.253-.318.509-.636.722-.967a5.9,5.9,0,0,1,.787-.919,44.434,44.434,0,0,1,3.461-3c1.15-.914,2.282-1.757,3.4-2.513q.834-.571,1.676-1.041a7.387,7.387,0,0,1,1.756-.665,8.514,8.514,0,0,1,3.417-.132,4.147,4.147,0,0,1,1.468.51,2.579,2.579,0,0,1,.956,1.071,2.261,2.261,0,0,1,.185,1.3,2.661,2.661,0,0,1-.477,1.1c-.843,1.25-1.572,2.163-2.052,2.793l-.558.708C794.633,410.924,794.564,411,794.564,411Z" transform="translate(-650.195 -394.858)" fill="#10100c"/>
            <path id="Trazado_151884" data-name="Trazado 151884" d="M596.3,586.945l11.04-.68,9.19,20.525s-5.339-19.886-4.557-22.469Z" transform="translate(-560.739 -517.601)" fill="#10100c"/>
          </g>
          <path id="Trazado_151885" data-name="Trazado 151885" d="M944.226,437.2a3.187,3.187,0,0,1-.382.735,11.229,11.229,0,0,1-2.67,2.958,3.181,3.181,0,0,1-.693.454,5.577,5.577,0,0,1,.618-.547,15.315,15.315,0,0,0,2.646-2.931A5.56,5.56,0,0,1,944.226,437.2Z" transform="translate(-793.947 -417.912)" fill="#10100c"/>
          <path id="Trazado_151886" data-name="Trazado 151886" d="M955.719,452.289a1.847,1.847,0,0,1-.26.6,5.346,5.346,0,0,1-2.3,2.148,1.848,1.848,0,0,1-.621.219,7.269,7.269,0,0,0,3.18-2.971Z" transform="translate(-802.117 -428.138)" fill="#10100c"/>
        </g>
      </g>
    </g>
  </g>
</svg>
